<?xml version="1.0" encoding="UTF-8" standalone="no"?>
<svg
   xmlns:dc="http://purl.org/dc/elements/1.1/"
   xmlns:cc="http://creativecommons.org/ns#"
   xmlns:rdf="http://www.w3.org/1999/02/22-rdf-syntax-ns#"
   xmlns:svg="http://www.w3.org/2000/svg"
   xmlns="http://www.w3.org/2000/svg"
   xmlns:xlink="http://www.w3.org/1999/xlink"
   xmlns:sodipodi="http://sodipodi.sourceforge.net/DTD/sodipodi-0.dtd"
   xmlns:inkscape="http://www.inkscape.org/namespaces/inkscape"
   id="svg153"
   viewBox="0 0 32 32"
   version="1.0"
   height="32"
   width="32"
   sodipodi:docname="audio.svg"
   inkscape:version="1.0.2 (e86c870879, 2021-01-15)">
  <sodipodi:namedview
     pagecolor="#c8c8c8"
     bordercolor="#666666"
     borderopacity="1"
     objecttolerance="10"
     gridtolerance="10"
     guidetolerance="10"
     inkscape:pageopacity="0"
     inkscape:pageshadow="2"
     inkscape:window-width="1920"
     inkscape:window-height="935"
     id="namedview86"
     showgrid="true"
     inkscape:snap-bbox="true"
     inkscape:bbox-nodes="true"
     inkscape:snap-bbox-edge-midpoints="true"
     inkscape:snap-nodes="true"
     inkscape:snap-others="false"
     inkscape:zoom="2.828427"
     inkscape:cx="18.328645"
     inkscape:cy="57.004337"
     inkscape:window-x="0"
     inkscape:window-y="38"
     inkscape:window-maximized="1"
     inkscape:current-layer="svg153"
     inkscape:document-rotation="0"
     inkscape:snap-smooth-nodes="true">
    <inkscape:grid
       type="xygrid"
       id="grid911" />
  </sodipodi:namedview>
  <metadata
     id="metadata157">
    <rdf:RDF>
      <cc:Work
         rdf:about="">
        <dc:format>image/svg+xml</dc:format>
        <dc:type
           rdf:resource="http://purl.org/dc/dcmitype/StillImage" />
        <dc:title />
      </cc:Work>
    </rdf:RDF>
  </metadata>
  <defs
     id="defs3">
    <linearGradient
       inkscape:collect="always"
       id="linearGradient1047">
      <stop
         style="stop-color:#000000;stop-opacity:1;"
         offset="0"
         id="stop1043" />
      <stop
         style="stop-color:#000000;stop-opacity:0;"
         offset="1"
         id="stop1045" />
    </linearGradient>
    <style
       type="text/css"
       id="current-color-scheme">.ColorScheme-Text { color:#363636; }</style>
    <filter
       inkscape:collect="always"
       style="color-interpolation-filters:sRGB"
       id="filter1039"
       x="-0.21491647"
       width="1.4298329"
       y="-0.072121202"
       height="1.1442424">
      <feGaussianBlur
         inkscape:collect="always"
         stdDeviation="0.19901212"
         id="feGaussianBlur1041" />
    </filter>
    <linearGradient
       inkscape:collect="always"
       xlink:href="#linearGradient1047"
       id="linearGradient1049"
       x1="-63.128078"
       y1="-29"
       x2="-63.496239"
       y2="-34"
       gradientUnits="userSpaceOnUse" />
    <linearGradient
       inkscape:collect="always"
       xlink:href="#linearGradient1047"
       id="linearGradient1121"
       gradientUnits="userSpaceOnUse"
       x1="-63.128078"
       y1="-29"
       x2="-63.496239"
       y2="-34" />
    <linearGradient
       inkscape:collect="always"
       xlink:href="#linearGradient1047"
       id="linearGradient1157"
       gradientUnits="userSpaceOnUse"
       x1="-63.128078"
       y1="-29"
       x2="-63.496239"
       y2="-34" />
    <linearGradient
       inkscape:collect="always"
       xlink:href="#linearGradient1047"
       id="linearGradient965"
       gradientUnits="userSpaceOnUse"
       x1="-63.128078"
       y1="-29"
       x2="-63.496239"
       y2="-34" />
    <linearGradient
       inkscape:collect="always"
       xlink:href="#linearGradient1047"
       id="linearGradient1102"
       gradientUnits="userSpaceOnUse"
       x1="-63.128078"
       y1="-29"
       x2="-63.496239"
       y2="-34" />
    <linearGradient
       inkscape:collect="always"
       xlink:href="#linearGradient1047"
       id="linearGradient1130"
       gradientUnits="userSpaceOnUse"
       x1="-63.128078"
       y1="-29"
       x2="-63.496239"
       y2="-34" />
  </defs>
  <g
     fill="currentColor"
     transform="translate(-260.1 -363.46)"
     class="ColorScheme-Text"
     id="16-16-audio-volume-high">
    <rect
       id="rect53"
       opacity="0"
       rx="1.125"
       height="16"
       width="18"
       y="311.51"
       x="251.54" />
    <g
       id="g65"
       transform="translate(253.49 312.51)">
      <rect
         id="rect55"
         ry="1"
         height="4.9996"
         width="5"
         y="5.0004"
         x="-.9542" />
      <path
         id="path57"
         d="m6 2.0004-2.9542 3v4.9996l2.9542 3z" />
      <path
         id="path59"
         d="m13.139 0.92749c-0.54546-0.42773-1.1387 0.22461-0.68359 0.73242 1.6202 1.5104 2.5416 3.6249 2.5449 5.8398-0.0026 2.2205-0.92793 4.3401-2.5547 5.8516-0.44531 0.47165 0.18064 1.1484 0.67774 0.72852 1.8304-1.6992 2.8725-4.0825 2.877-6.5801-0.0026-2.4925-1.0386-4.8722-2.8613-6.5723z" />
      <path
         id="path61"
         d="m10.775 2.4132c-0.58741-0.53488-1.1988 0.22518-0.68359 0.73242 1.2147 1.1326 1.9056 2.7181 1.9082 4.3789-0.0019 1.6654-0.69594 3.2551-1.916 4.3887-0.46835 0.44623 0.17346 1.1467 0.67969 0.72852 1.423-1.3216 2.233-3.1751 2.2363-5.1172-0.0019-1.9383-0.80739-3.789-2.2246-5.1113z" />
      <path
         id="path63"
         d="m8.4102 3.8662c-0.52095-0.49369-1.1551 0.22003-0.68359 0.73047 0.81045 0.75501 1.2715 1.8123 1.2734 2.9199-0.00128 1.1103-0.46396 2.1701-1.2773 2.9258-0.47259 0.42993 0.13957 1.1522 0.67969 0.73047 1.0168-0.94425 1.5955-2.2686 1.5977-3.6562-0.00172-1.3844-0.57738-2.7062-1.5898-3.6504z" />
    </g>
  </g>
  <g
     fill="currentColor"
     transform="translate(-235.1 -363.46)"
     class="ColorScheme-Text"
     id="16-16-audio-volume-medium">
    <rect
       id="rect68"
       opacity="0"
       rx="1.125"
       height="16"
       width="18"
       y="311.51"
       x="251.54" />
    <g
       id="g80"
       transform="translate(253.49 312.51)">
      <rect
         id="rect70"
         ry="1"
         height="4.9996"
         width="5"
         y="5.0004"
         x="-.9542" />
      <path
         id="path72"
         d="m6 2.0004-2.9542 3v4.9996l2.9542 3z" />
      <path
         id="path74"
         opacity=".35"
         d="m13.139 0.92749c-0.54546-0.42773-1.1387 0.22461-0.68359 0.73242 1.6202 1.5104 2.5416 3.6249 2.5449 5.8398-0.0026 2.2205-0.92793 4.3401-2.5547 5.8516-0.44531 0.47165 0.18064 1.1484 0.67774 0.72852 1.8304-1.6992 2.8725-4.0825 2.877-6.5801-0.0026-2.4925-1.0386-4.8722-2.8613-6.5723z" />
      <path
         id="path76"
         d="m10.775 2.4132c-0.58741-0.53488-1.1988 0.22518-0.68359 0.73242 1.2147 1.1326 1.9056 2.7181 1.9082 4.3789-0.0019 1.6654-0.69594 3.2551-1.916 4.3887-0.46835 0.44623 0.17346 1.1467 0.67969 0.72852 1.423-1.3216 2.233-3.1751 2.2363-5.1172-0.0019-1.9383-0.80739-3.789-2.2246-5.1113z" />
      <path
         id="path78"
         d="m8.4102 3.8662c-0.52095-0.49369-1.1551 0.22003-0.68359 0.73047 0.81045 0.75501 1.2715 1.8123 1.2734 2.9199-0.00128 1.1103-0.46396 2.1701-1.2773 2.9258-0.47259 0.42993 0.13957 1.1522 0.67969 0.73047 1.0168-0.94425 1.5955-2.2686 1.5977-3.6562-0.00172-1.3844-0.57738-2.7062-1.5898-3.6504z" />
    </g>
  </g>
  <g
     fill="currentColor"
     class="ColorScheme-Text"
     transform="translate(-210.1 -363.46)"
     id="16-16-audio-volume-low">
    <rect
       id="rect83"
       opacity="0"
       rx="1.125"
       height="16"
       width="18"
       y="311.51"
       x="251.54" />
    <g
       id="g99"
       transform="translate(253.49 312.51)">
      <g
         id="g97">
        <rect
           id="rect85"
           ry="1"
           height="4.9996"
           width="5"
           y="5.0004"
           x="-.9542" />
        <path
           id="path87"
           d="m6 2.0004-2.9542 3v4.9996l2.9542 3z" />
        <g
           id="g95"
           fill-rule="evenodd">
          <path
             id="path89"
             style="paint-order:normal"
             opacity=".35"
             d="m13.139 0.92749c-0.54546-0.42773-1.1387 0.22461-0.68359 0.73242 1.6202 1.5104 2.5416 3.6249 2.5449 5.8398-0.0026 2.2205-0.92793 4.3401-2.5547 5.8516-0.44531 0.47165 0.18064 1.1484 0.67774 0.72852 1.8304-1.6992 2.8725-4.0825 2.877-6.5801-0.0026-2.4925-1.0386-4.8722-2.8613-6.5723z" />
          <path
             id="path91"
             style="paint-order:normal"
             opacity=".35"
             d="m10.775 2.4132c-0.58741-0.53488-1.1988 0.22518-0.68359 0.73242 1.2147 1.1326 1.9056 2.7181 1.9082 4.3789-0.0019 1.6654-0.69594 3.2551-1.916 4.3887-0.46835 0.44623 0.17346 1.1467 0.67969 0.72852 1.423-1.3216 2.233-3.1751 2.2363-5.1172-0.0019-1.9383-0.80739-3.789-2.2246-5.1113z" />
          <path
             id="path93"
             style="paint-order:normal"
             d="m8.4102 3.8662c-0.52095-0.49369-1.1551 0.22003-0.68359 0.73047 0.81045 0.75501 1.2715 1.8123 1.2734 2.9199-0.00128 1.1103-0.46396 2.1701-1.2773 2.9258-0.47259 0.42993 0.13957 1.1522 0.67969 0.73047 1.0168-0.94425 1.5955-2.2686 1.5977-3.6562-0.00172-1.3844-0.57738-2.7062-1.5898-3.6504z" />
        </g>
      </g>
    </g>
  </g>
  <g
     fill="currentColor"
     transform="translate(-246.64 -377.29)"
     class="ColorScheme-Text"
     id="16-16-audio-volume-muted">
    <rect
       id="rect102"
       opacity="0"
       rx="1.125"
       height="16"
       width="18"
       y="324.51"
       x="316.54" />
    <path
       id="path104"
       opacity=".35"
       d="m84.691-68.211c-0.37564 0.0268-0.62259 0.49024-0.28125 0.87109 1.6202 1.5104 2.5416 3.6249 2.5449 5.8398-2e-3 1.4816-0.42222 2.9132-1.1797 4.1543l0.7207 0.7207c0.93395-1.4406 1.4558-3.1272 1.459-4.875-3e-3 -2.4925-1.0386-4.8722-2.8613-6.5723-0.13637-0.10693-0.27713-0.14761-0.40234-0.13867zm-6.7383 1.2109-0.9082 0.92188 0.9082 0.9082zm4.3496 0.23047c-0.39561 0.0119-0.64422 0.53363-0.25781 0.91406 1.2147 1.1326 1.9056 2.7181 1.9082 4.3789-8.14e-4 0.67778-0.121 1.3417-0.33984 1.9688l0.77344 0.77148c0.36686-0.85758 0.56479-1.7877 0.56641-2.7402-2e-3 -1.9383-0.8074-3.789-2.2246-5.1113-0.14685-0.13372-0.2939-0.18561-0.42578-0.18164zm-2.332 1.4688c-0.37603 0.0164-0.64466 0.51365-0.29102 0.89648 0.62045 0.57801 1.0317 1.335 1.1934 2.1543l1.0645 1.0664c0.0062-0.1 0.01547-0.19999 0.01563-0.30078-2e-3 -1.3844-0.57742-2.7062-1.5898-3.6504-0.13024-0.12342-0.26723-0.17148-0.39258-0.16602zm-7.9707 1.3008c-0.554 0-1 0.446-1 1v3c0 0.554 0.446 1 1 1h3l2.9531 3v-4.9258l-3.0723-3.0742zm7.9766 5.0977c-0.09901 0.11581-0.188 0.23896-0.30078 0.34375-0.47259 0.42993 0.13957 1.1522 0.67969 0.73047 0.121-0.11237 0.23539-0.23092 0.34375-0.35352zm1.959 1.959c-0.20865 0.3949 0.22971 0.85344 0.6543 0.6543z"
       transform="translate(246.54 394.51)" />
    <rect
       id="rect106"
       opacity=".35"
       ry="0"
       height="20"
       width="1"
       y="455.31"
       x="-5.4281"
       transform="rotate(-45)" />
  </g>
  <g
     id="22-22-audio-volume-medium"
     transform="translate(51,99.999899)">
    <rect
       id="rect1099"
       opacity="0"
       ry="0"
       height="24"
       width="24"
       y="-28.999899"
       x="-47"
       style="color:#363636;fill:#363636" />
    <path
       id="path1101"
       d="m -26.97,-21.9899 -1.7422,0.99414 a 10,10 0 0 1 1.7129,5.5938 10,10 0 0 1 -1.7109,5.5938 l 1.7402,0.99414 a 12,12 0 0 0 1.9707,-6.5879 12,12 0 0 0 -1.9707,-6.5879 z"
       style="color:#363636;opacity:0.35;fill:#323232;fill-opacity:1" />
    <path
       id="path1103"
       d="m -30.455,-19.9999 -1.7441,0.99805 a 6,6 0 0 1 1.1992,3.5996 6,6 0 0 1 -1.2012,3.5996 l 1.748,0.99805 A 8,8 0 0 0 -29,-15.4023 8,8 0 0 0 -30.4551,-20 Z"
       style="color:#363636;fill:#00c19f;fill-opacity:1" />
    <g
       id="g1117"
       transform="translate(27.426679,14)">
      <path
         id="path1105"
         style="fill:#00c19f;fill-opacity:1;stroke-width:3;stroke-linecap:round;stroke-opacity:0.996078;paint-order:stroke fill markers"
         d="m -67.129741,-34 a 6,6 0 0 0 -6,6 6,6 0 0 0 6,6 6,6 0 0 0 6,-6 6,6 0 0 0 -6,-6 z m -0.03516,2 a 4,4 0 0 1 0.06055,0 4,4 0 0 1 4,4 4,4 0 0 1 -4,4 4,4 0 0 1 -4,-4 4,4 0 0 1 3.939453,-4 z" />
      <g
         id="g1115">
        <path
           style="opacity:0.01;fill:url(#linearGradient1121);fill-opacity:1;stroke:none;stroke-width:1px;stroke-linecap:butt;stroke-linejoin:miter;stroke-opacity:1;filter:url(#filter1039)"
           d="M -63,-29.391942 -64.605622,-31 -64.594891,-38.620272 -62,-39.576593 V -30 Z"
           id="path1107"
           sodipodi:nodetypes="cccccc" />
        <g
           id="g1113">
          <path
             style="fill:#00c19f;fill-opacity:1;stroke:none;stroke-width:1px;stroke-linecap:butt;stroke-linejoin:miter;stroke-opacity:1"
             d="m -63.122345,-28.434997 c 0,0 -1.176269,-10.263669 0.507803,-11.506801 1.282431,-0.946654 4.218573,-0.898199 4.652004,-0.423906 0.43343,0.474292 0.465724,1.696139 -0.197211,1.966193 -0.662936,0.270054 -3.014931,-0.365403 -3.122257,0.704634 -0.107325,1.070036 -0.232819,5.810938 0.147666,9.571507 z"
             id="path1109"
             sodipodi:nodetypes="csssscc" />
          <ellipse
             style="fill:#00c19f;fill-opacity:1;stroke-width:3.39353;stroke-linecap:round;stroke-opacity:0.996078;paint-order:stroke fill markers"
             id="ellipse1111"
             cx="-58.568233"
             cy="-39.447308"
             rx="1.1415541"
             ry="1.1208925" />
        </g>
      </g>
    </g>
  </g>
  <g
     fill="currentColor"
     transform="translate(-29.9079,-5.74225)"
     class="ColorScheme-Text"
     id="g1133">
    <rect
       id="rect1123"
       opacity="0"
       ry="0"
       height="24"
       width="24"
       y="-22.257999"
       x="-54.893002" />
    <g
       id="g1131"
       transform="translate(-14.862,2.5994)">
      <path
         id="path1125"
         d="m -27.781,-20.654 c -0.22873,-0.01291 -0.46234,0.05388 -0.62305,0.18555 l -4.4062,3.6113 h -3.2207 c -1.108,0 -2,0.892 -2,2 v 4 c 0,1.108 0.892,2 2,2 h 3.2207 l 4.4062,3.6113 c 0.1607,0.13168 0.39439,0.1984 0.62305,0.18555 0.38109,-0.021513 0.75,-0.26516 0.75,-0.79688 v -14 c 0,-0.53171 -0.36878,-0.77536 -0.75,-0.79688 z" />
      <path
         id="path1127"
         opacity="0.35"
         d="m -20.001,-19.446 -1.7422,0.99414 a 10,10 0 0 1 1.7129,5.5938 10,10 0 0 1 -1.7109,5.5938 l 1.7402,0.99414 a 12,12 0 0 0 1.9707,-6.5879 12,12 0 0 0 -1.9707,-6.5879 z"
         style="opacity:1" />
      <path
         id="path1129"
         d="m -23.486,-17.456 -1.7441,0.99805 a 6,6 0 0 1 1.1992,3.5996 6,6 0 0 1 -1.2012,3.5996 l 1.748,0.99805 a 8,8 0 0 0 1.4531,-4.5977 8,8 0 0 0 -1.4551,-4.5977 z" />
    </g>
  </g>
  <g
     id="22-22-audio-volume-low"
     transform="translate(51,130.9998)">
    <rect
       id="rect1135"
       opacity="0"
       ry="0"
       height="24"
       width="24"
       y="-28.999899"
       x="-47"
       style="color:#363636;fill:#363636" />
    <path
       id="path1137"
       d="m -26.97,-21.9899 -1.7422,0.99414 a 10,10 0 0 1 1.7129,5.5938 10,10 0 0 1 -1.7109,5.5938 l 1.7402,0.99414 a 12,12 0 0 0 1.9707,-6.5879 12,12 0 0 0 -1.9707,-6.5879 z"
       style="color:#363636;opacity:0.35;fill:#323232;fill-opacity:1" />
    <path
       id="path1139"
       d="m -30.455,-19.9999 -1.7441,0.99805 a 6,6 0 0 1 1.1992,3.5996 6,6 0 0 1 -1.2012,3.5996 l 1.748,0.99805 A 8,8 0 0 0 -29,-15.4023 8,8 0 0 0 -30.4551,-20 Z"
       style="color:#363636;opacity:0.35;fill:#323232;fill-opacity:1" />
    <g
       id="g1153"
       transform="translate(27.426679,14)">
      <path
         id="path1141"
         style="fill:#00c19f;fill-opacity:1;stroke-width:3;stroke-linecap:round;stroke-opacity:0.996078;paint-order:stroke fill markers"
         d="m -67.129741,-34 a 6,6 0 0 0 -6,6 6,6 0 0 0 6,6 6,6 0 0 0 6,-6 6,6 0 0 0 -6,-6 z m -0.03516,2 a 4,4 0 0 1 0.06055,0 4,4 0 0 1 4,4 4,4 0 0 1 -4,4 4,4 0 0 1 -4,-4 4,4 0 0 1 3.939453,-4 z" />
      <g
         id="g1151">
        <path
           style="opacity:0.01;fill:url(#linearGradient1157);fill-opacity:1;stroke:none;stroke-width:1px;stroke-linecap:butt;stroke-linejoin:miter;stroke-opacity:1;filter:url(#filter1039)"
           d="M -63,-29.391942 -64.605622,-31 -64.594891,-38.620272 -62,-39.576593 V -30 Z"
           id="path1143"
           sodipodi:nodetypes="cccccc" />
        <g
           id="g1149">
          <path
             style="fill:#00c19f;fill-opacity:1;stroke:none;stroke-width:1px;stroke-linecap:butt;stroke-linejoin:miter;stroke-opacity:1"
             d="m -63.122345,-28.434997 c 0,0 -1.176269,-10.263669 0.507803,-11.506801 1.282431,-0.946654 4.218573,-0.898199 4.652004,-0.423906 0.43343,0.474292 0.465724,1.696139 -0.197211,1.966193 -0.662936,0.270054 -3.014931,-0.365403 -3.122257,0.704634 -0.107325,1.070036 -0.232819,5.810938 0.147666,9.571507 z"
             id="path1145"
             sodipodi:nodetypes="csssscc" />
          <ellipse
             style="fill:#00c19f;fill-opacity:1;stroke-width:3.39353;stroke-linecap:round;stroke-opacity:0.996078;paint-order:stroke fill markers"
             id="ellipse1147"
             cx="-58.568233"
             cy="-39.447308"
             rx="1.1415541"
             ry="1.1208925" />
        </g>
      </g>
    </g>
  </g>
  <g
     id="g1175"
     transform="translate(78.426679,173.9998)">
    <g
       id="g1173" />
  </g>
  <g
     id="22-22-audio-volume-high"
     transform="translate(0,34)">
    <rect
       id="rect109"
       opacity="0"
       ry="0"
       height="24"
       width="24"
       y="3"
       x="4"
       style="color:#363636;fill:#363636" />
    <path
       id="path113"
       d="m 24.03,10.009999 -1.7422,0.99414 a 10,10 0 0 1 1.7129,5.5938 10,10 0 0 1 -1.7109,5.5938 l 1.7402,0.99414 a 12,12 0 0 0 1.9707,-6.5879 12,12 0 0 0 -1.9707,-6.5879 z"
       style="color:#363636;fill:#00c19f;fill-opacity:1" />
    <path
       id="path115"
       d="m 20.545,11.999999 -1.7441,0.99805 a 6,6 0 0 1 1.1992,3.5996 6,6 0 0 1 -1.2012,3.5996 l 1.748,0.99805 a 8,8 0 0 0 1.4531,-4.5977 8,8 0 0 0 -1.4551,-4.5977 z"
       style="color:#363636;fill:#00c19f;fill-opacity:1" />
    <g
       id="g1069"
       transform="translate(78.426679,45.999899)">
      <path
         id="path927"
         style="fill:#00c19f;fill-opacity:1;stroke-width:3;stroke-linecap:round;stroke-opacity:0.996078;paint-order:stroke fill markers"
         d="m -67.129741,-34 a 6,6 0 0 0 -6,6 6,6 0 0 0 6,6 6,6 0 0 0 6,-6 6,6 0 0 0 -6,-6 z m -0.03516,2 a 4,4 0 0 1 0.06055,0 4,4 0 0 1 4,4 4,4 0 0 1 -4,4 4,4 0 0 1 -4,-4 4,4 0 0 1 3.939453,-4 z" />
      <g
         id="g1061">
        <path
           style="opacity:0.01;fill:url(#linearGradient1049);fill-opacity:1;stroke:none;stroke-width:1px;stroke-linecap:butt;stroke-linejoin:miter;stroke-opacity:1;filter:url(#filter1039)"
           d="M -63,-29.391942 -64.605622,-31 -64.594891,-38.620272 -62,-39.576593 V -30 Z"
           id="path1037"
           sodipodi:nodetypes="cccccc" />
        <g
           id="g987">
          <path
             style="fill:#00c19f;fill-opacity:1;stroke:none;stroke-width:1px;stroke-linecap:butt;stroke-linejoin:miter;stroke-opacity:1"
             d="m -63.122345,-28.434997 c 0,0 -1.176269,-10.263669 0.507803,-11.506801 1.282431,-0.946654 4.218573,-0.898199 4.652004,-0.423906 0.43343,0.474292 0.465724,1.696139 -0.197211,1.966193 -0.662936,0.270054 -3.014931,-0.365403 -3.122257,0.704634 -0.107325,1.070036 -0.232819,5.810938 0.147666,9.571507 z"
             id="path938"
             sodipodi:nodetypes="csssscc" />
          <ellipse
             style="fill:#00c19f;fill-opacity:1;stroke-width:3.39353;stroke-linecap:round;stroke-opacity:0.996078;paint-order:stroke fill markers"
             id="path936"
             cx="-58.568233"
             cy="-39.447308"
             rx="1.1415541"
             ry="1.1208925" />
        </g>
      </g>
    </g>
    <circle
       style="fill:#00c19f;fill-opacity:1;stroke-width:0.5625;stroke-linecap:round;stroke-linejoin:round;paint-order:stroke fill markers"
       id="path940"
       cx="11"
       cy="18.271645"
       r="4.5" />
  </g>
  <g
     id="audio-volume-high"
     transform="translate(-45)">
    <rect
       id="rect5-5"
       opacity="0"
       ry="0.35556"
       height="32"
       width="32"
       y="-4.5996094e-06"
       x="45" />
    <path
       id="path1475"
       d="m 72.022248,8.9999997 -2.115615,1.2072273 a 12.143395,12.143395 0 0 1 2.080036,6.792768 12.143395,12.143395 0 0 1 -2.077608,6.792768 l 2.113187,1.207227 A 14.572074,14.572074 0 0 0 74.41535,17.000039 14.572074,14.572074 0 0 0 72.022248,9.0000968 Z"
       style="color:#363636;fill:#00c19f;fill-opacity:1;stroke-width:1.21434" />
    <path
       id="path1477"
       d="m 67.705007,11.416945 -2.117928,1.211978 a 7.286037,7.286037 0 0 1 1.456235,4.371134 7.286037,7.286037 0 0 1 -1.458664,4.371134 l 2.122662,1.211969 a 9.7147158,9.7147158 0 0 0 1.764559,-5.583165 9.7147158,9.7147158 0 0 0 -1.766987,-5.583165 z"
       style="color:#363636;fill:#00c19f;fill-opacity:1;stroke-width:1.21434" />
    <g
       id="g986"
       transform="matrix(1.2836914,0,0,1.2836914,-48.428287,-53.092008)">
      <g
         id="g959"
         transform="translate(148,84.391942)">
        <path
           id="path947"
           style="fill:#00c19f;fill-opacity:1;stroke-width:2.875;stroke-linecap:round;stroke-opacity:0.996078;paint-order:stroke fill markers"
           d="m -67.052593,-33.5 a 5.7499986,5.7499986 0 0 0 -5.749999,5.749999 5.7499986,5.7499986 0 0 0 5.749999,5.749999 5.7499986,5.7499986 0 0 0 5.749998,-5.749999 A 5.7499986,5.7499986 0 0 0 -67.052593,-33.5 Z m -0.03369,1.916666 a 3.8333325,3.8333325 0 0 1 0.05802,0 3.8333325,3.8333325 0 0 1 3.833332,3.833333 3.8333325,3.8333325 0 0 1 -3.833332,3.833333 3.8333325,3.8333325 0 0 1 -3.833333,-3.833333 3.8333325,3.8333325 0 0 1 3.775308,-3.833333 z" />
        <g
           id="g957">
          <path
             style="opacity:0.01;fill:url(#linearGradient965);fill-opacity:1;stroke:none;stroke-width:1px;stroke-linecap:butt;stroke-linejoin:miter;stroke-opacity:1;filter:url(#filter1039)"
             d="M -63,-29.391942 -64.605622,-31 -64.594891,-38.620272 -62,-39.576593 V -30 Z"
             id="path949"
             sodipodi:nodetypes="cccccc" />
          <g
             id="g955">
            <path
               style="fill:#00c19f;fill-opacity:1;stroke:none;stroke-width:0.958333px;stroke-linecap:butt;stroke-linejoin:miter;stroke-opacity:1"
               d="m -63.212173,-28.166873 c 0,0 -1.127257,-9.836014 0.486644,-11.027348 1.228997,-0.90721 4.042798,-0.860774 4.45817,-0.406244 0.41537,0.45453 0.446319,1.625467 -0.188994,1.884268 -0.635314,0.258802 -2.889309,-0.350177 -2.992162,0.675275 -0.102852,1.025451 -0.223118,5.568813 0.141513,9.172692 z"
               id="path951"
               sodipodi:nodetypes="csssscc" />
            <ellipse
               style="fill:#00c19f;fill-opacity:1;stroke-width:3.25213;stroke-linecap:round;stroke-opacity:0.996078;paint-order:stroke fill markers"
               id="ellipse953"
               cx="-58.847816"
               cy="-38.720333"
               rx="1.0939891"
               ry="1.0741884" />
          </g>
        </g>
      </g>
      <circle
         style="fill:#00c19f;fill-opacity:1;stroke-width:0.539062;stroke-linecap:round;stroke-linejoin:round;paint-order:stroke fill markers"
         id="circle961"
         cx="80.662834"
         cy="56.902363"
         r="4.312499" />
    </g>
  </g>
  <g
     id="g1057"
     transform="translate(-196.53572,-461.19726)">
    <path
       id="path1051"
       d="m 268.82574,434.44574 -2.39575,1.36708 a 13.75134,13.75134 0 0 1 2.35546,7.69222 13.75134,13.75134 0 0 1 -2.35271,7.69222 l 2.393,1.36708 a 16.501608,16.501608 0 0 0 2.70998,-9.05925 16.501608,16.501608 0 0 0 -2.70998,-9.05924 z"
       style="color:#363636;fill:#00c19f;fill-opacity:1;stroke-width:1.37513" />
    <path
       id="path1053"
       d="m 263.93684,437.18272 -2.39837,1.37246 a 8.2508041,8.2508041 0 0 1 1.64906,4.94993 8.2508041,8.2508041 0 0 1 -1.65181,4.94993 l 2.40373,1.37245 a 11.001072,11.001072 0 0 0 1.99821,-6.32245 11.001072,11.001072 0 0 0 -2.00096,-6.32245 z"
       style="color:#363636;fill:#00c19f;fill-opacity:1;stroke-width:1.37513" />
    <path
       id="path1055"
       style="color:#363636;fill:#00c19f;fill-opacity:1;stroke-width:1.38696"
       d="m 15.976562,5.0019531 c -0.311899,-0.0181 -0.93123,0.2166338 -1.15039,0.4023438 L 8.8183594,10.498047 H 4.7265625 C 3.2156425,10.498047 2,11.68698 2,13.25 v 5.5 c 0,1.56302 1.2156425,2.75 2.7265625,2.75 h 4.0917969 l 6.3085936,5.236328 c 0.21913,0.18575 0.537809,0.279859 0.849609,0.261719 C 16.496233,26.967747 17,26.62506 17,25.875 V 6.1230469 c 0,-0.75008 -0.503587,-1.0907338 -1.023438,-1.1210938 z"
       transform="translate(241.53572,427.50504)" />
  </g>
  <g
     id="audio-volume-medium"
     transform="translate(-4.9999999)">
    <rect
       id="rect1076"
       opacity="0"
       ry="0.35556"
       height="32"
       width="32"
       y="-4.5996094e-06"
       x="45" />
    <path
       id="path1078"
       d="m 72.022248,8.9999997 -2.115615,1.2072273 a 12.143395,12.143395 0 0 1 2.080036,6.792768 12.143395,12.143395 0 0 1 -2.077608,6.792768 l 2.113187,1.207227 A 14.572074,14.572074 0 0 0 74.41535,17.000039 14.572074,14.572074 0 0 0 72.022248,9.0000968 Z"
       style="color:#363636;opacity:0.35;fill:#323232;fill-opacity:1;stroke-width:1.21434" />
    <path
       id="path1080"
       d="m 67.705007,11.416945 -2.117928,1.211978 a 7.286037,7.286037 0 0 1 1.456235,4.371134 7.286037,7.286037 0 0 1 -1.458664,4.371134 l 2.122662,1.211969 a 9.7147158,9.7147158 0 0 0 1.764559,-5.583165 9.7147158,9.7147158 0 0 0 -1.766987,-5.583165 z"
       style="color:#363636;fill:#00c19f;fill-opacity:1;stroke-width:1.21434" />
    <g
       id="g1098"
       transform="matrix(1.2836914,0,0,1.2836914,-48.428287,-53.092008)">
      <g
         id="g1094"
         transform="translate(148,84.391942)">
        <path
           id="path1082"
           style="fill:#00c19f;fill-opacity:1;stroke-width:2.875;stroke-linecap:round;stroke-opacity:0.996078;paint-order:stroke fill markers"
           d="m -67.052593,-33.5 a 5.7499986,5.7499986 0 0 0 -5.749999,5.749999 5.7499986,5.7499986 0 0 0 5.749999,5.749999 5.7499986,5.7499986 0 0 0 5.749998,-5.749999 A 5.7499986,5.7499986 0 0 0 -67.052593,-33.5 Z m -0.03369,1.916666 a 3.8333325,3.8333325 0 0 1 0.05802,0 3.8333325,3.8333325 0 0 1 3.833332,3.833333 3.8333325,3.8333325 0 0 1 -3.833332,3.833333 3.8333325,3.8333325 0 0 1 -3.833333,-3.833333 3.8333325,3.8333325 0 0 1 3.775308,-3.833333 z" />
        <g
           id="g1092">
          <path
             style="opacity:0.01;fill:url(#linearGradient1102);fill-opacity:1;stroke:none;stroke-width:1px;stroke-linecap:butt;stroke-linejoin:miter;stroke-opacity:1;filter:url(#filter1039)"
             d="M -63,-29.391942 -64.605622,-31 -64.594891,-38.620272 -62,-39.576593 V -30 Z"
             id="path1084"
             sodipodi:nodetypes="cccccc" />
          <g
             id="g1090">
            <path
               style="fill:#00c19f;fill-opacity:1;stroke:none;stroke-width:0.958333px;stroke-linecap:butt;stroke-linejoin:miter;stroke-opacity:1"
               d="m -63.212173,-28.166873 c 0,0 -1.127257,-9.836014 0.486644,-11.027348 1.228997,-0.90721 4.042798,-0.860774 4.45817,-0.406244 0.41537,0.45453 0.446319,1.625467 -0.188994,1.884268 -0.635314,0.258802 -2.889309,-0.350177 -2.992162,0.675275 -0.102852,1.025451 -0.223118,5.568813 0.141513,9.172692 z"
               id="path1086"
               sodipodi:nodetypes="csssscc" />
            <ellipse
               style="fill:#00c19f;fill-opacity:1;stroke-width:3.25213;stroke-linecap:round;stroke-opacity:0.996078;paint-order:stroke fill markers"
               id="ellipse1088"
               cx="-58.847816"
               cy="-38.720333"
               rx="1.0939891"
               ry="1.0741884" />
          </g>
        </g>
      </g>
      <circle
         style="fill:#00c19f;fill-opacity:1;stroke-width:0.539062;stroke-linecap:round;stroke-linejoin:round;paint-order:stroke fill markers"
         id="circle1096"
         cx="80.662834"
         cy="56.902363"
         r="4.312499" />
    </g>
  </g>
  <g
     id="audio-volume-low"
     transform="translate(33)">
    <rect
       id="rect1104"
       opacity="0"
       ry="0.35556"
       height="32"
       width="32"
       y="-4.5996094e-06"
       x="45" />
    <path
       id="path1106"
       d="m 72.022248,8.9999997 -2.115615,1.2072273 a 12.143395,12.143395 0 0 1 2.080036,6.792768 12.143395,12.143395 0 0 1 -2.077608,6.792768 l 2.113187,1.207227 A 14.572074,14.572074 0 0 0 74.41535,17.000039 14.572074,14.572074 0 0 0 72.022248,9.0000968 Z"
       style="color:#363636;opacity:0.35;fill:#323232;fill-opacity:1;stroke-width:1.21434" />
    <path
       id="path1108"
       d="m 67.705007,11.416945 -2.117928,1.211978 a 7.286037,7.286037 0 0 1 1.456235,4.371134 7.286037,7.286037 0 0 1 -1.458664,4.371134 l 2.122662,1.211969 a 9.7147158,9.7147158 0 0 0 1.764559,-5.583165 9.7147158,9.7147158 0 0 0 -1.766987,-5.583165 z"
       style="color:#363636;opacity:0.35;fill:#323232;fill-opacity:1;stroke-width:1.21434" />
    <g
       id="g1126"
       transform="matrix(1.2836914,0,0,1.2836914,-48.428287,-53.092008)">
      <g
         id="g1122"
         transform="translate(148,84.391942)">
        <path
           id="path1110"
           style="fill:#00c19f;fill-opacity:1;stroke-width:2.875;stroke-linecap:round;stroke-opacity:0.996078;paint-order:stroke fill markers"
           d="m -67.052593,-33.5 a 5.7499986,5.7499986 0 0 0 -5.749999,5.749999 5.7499986,5.7499986 0 0 0 5.749999,5.749999 5.7499986,5.7499986 0 0 0 5.749998,-5.749999 A 5.7499986,5.7499986 0 0 0 -67.052593,-33.5 Z m -0.03369,1.916666 a 3.8333325,3.8333325 0 0 1 0.05802,0 3.8333325,3.8333325 0 0 1 3.833332,3.833333 3.8333325,3.8333325 0 0 1 -3.833332,3.833333 3.8333325,3.8333325 0 0 1 -3.833333,-3.833333 3.8333325,3.8333325 0 0 1 3.775308,-3.833333 z" />
        <g
           id="g1120">
          <path
             style="opacity:0.01;fill:url(#linearGradient1130);fill-opacity:1;stroke:none;stroke-width:1px;stroke-linecap:butt;stroke-linejoin:miter;stroke-opacity:1;filter:url(#filter1039)"
             d="M -63,-29.391942 -64.605622,-31 -64.594891,-38.620272 -62,-39.576593 V -30 Z"
             id="path1112"
             sodipodi:nodetypes="cccccc" />
          <g
             id="g1118">
            <path
               style="fill:#00c19f;fill-opacity:1;stroke:none;stroke-width:0.958333px;stroke-linecap:butt;stroke-linejoin:miter;stroke-opacity:1"
               d="m -63.212173,-28.166873 c 0,0 -1.127257,-9.836014 0.486644,-11.027348 1.228997,-0.90721 4.042798,-0.860774 4.45817,-0.406244 0.41537,0.45453 0.446319,1.625467 -0.188994,1.884268 -0.635314,0.258802 -2.889309,-0.350177 -2.992162,0.675275 -0.102852,1.025451 -0.223118,5.568813 0.141513,9.172692 z"
               id="path1114"
               sodipodi:nodetypes="csssscc" />
            <ellipse
               style="fill:#00c19f;fill-opacity:1;stroke-width:3.25213;stroke-linecap:round;stroke-opacity:0.996078;paint-order:stroke fill markers"
               id="ellipse1116"
               cx="-58.847816"
               cy="-38.720333"
               rx="1.0939891"
               ry="1.0741884" />
          </g>
        </g>
      </g>
      <circle
         style="fill:#00c19f;fill-opacity:1;stroke-width:0.539062;stroke-linecap:round;stroke-linejoin:round;paint-order:stroke fill markers"
         id="circle1124"
         cx="80.662834"
         cy="56.902363"
         r="4.312499" />
    </g>
  </g>
  <g
     id="audio-volume-muted"
     transform="translate(-45,-31.999995)">
    <rect
       id="rect1132"
       opacity="0"
       ry="0.35556"
       height="32"
       width="32"
       y="32"
       x="161" />
    <g
       id="g1154"
       transform="matrix(1.2836914,0,0,1.2836914,67.571713,-21.092003)">
      <g
         id="g1150"
         transform="translate(148,84.391942)">
        <path
           id="path1138"
           style="opacity:0.35;fill:#323232;fill-opacity:1;stroke-width:3.69061;stroke-linecap:round;stroke-opacity:0.996078;paint-order:stroke fill markers"
           d="m 181.13086,36.007812 c -1.32706,-0.05756 -3.10772,0.192061 -4.09375,0.919922 -1.16463,0.859694 -1.20842,5.200441 -1.03125,8.859375 a 7.3812238,7.3812238 0 0 0 -4.52344,-1.548828 7.3812238,7.3812238 0 0 0 -7.38086,7.38086 7.3812238,7.3812238 0 0 0 7.38086,7.380859 7.3812238,7.3812238 0 0 0 7.38281,-7.380859 7.3812238,7.3812238 0 0 0 -0.0859,-1.111329 c -0.36105,-4.441921 -0.2247,-9.588728 -0.10157,-10.816406 0.10834,-1.080088 2.06157,-0.751865 3.21485,-0.78125 a 1.4043444,1.3789263 0 0 0 0.12304,0.0059 1.4043444,1.3789263 0 0 0 0.49415,-0.08789 1.4043444,1.3789263 0 0 0 0.008,-0.002 c 0.002,-9.14e-4 0.004,-0.003 0.006,-0.0039 a 1.4043444,1.3789263 0 0 0 0.89648,-1.285157 1.4043444,1.3789263 0 0 0 -0.97461,-1.3125 c -0.30544,-0.11596 -0.76796,-0.193092 -1.31445,-0.216797 z m -9.69922,10.689454 a 4.920816,4.920816 0 0 1 0.008,0 4.920816,4.920816 0 0 1 0.0742,0 4.920816,4.920816 0 0 1 2.39844,0.625 A 1.2500401,1.2500401 0 0 1 174.79102,47 a 1.2500401,1.2500401 0 0 1 0.84375,0.365234 1.2500401,1.2500401 0 0 1 0.0781,1.683594 4.920816,4.920816 0 0 1 0.72266,2.570313 4.920816,4.920816 0 0 1 -4.92188,4.919921 4.920816,4.920816 0 0 1 -2.5625,-0.720703 l -0.8164,0.816407 a 1.2500401,1.2500401 0 0 1 -1.76954,0 1.2500401,1.2500401 0 0 1 0,-1.769532 l 0.85157,-0.851562 a 4.920816,4.920816 0 0 1 -0.62305,-2.394531 4.920816,4.920816 0 0 1 4.83789,-4.921875 z"
           transform="matrix(0.77900343,0,0,0.77900343,-200.6386,-67.961199)" />
        <g
           id="g1148">
          <g
             id="g1146" />
        </g>
      </g>
    </g>
    <path
       style="color:#000000;font-style:normal;font-variant:normal;font-weight:normal;font-stretch:normal;font-size:medium;line-height:normal;font-family:sans-serif;font-variant-ligatures:normal;font-variant-position:normal;font-variant-caps:normal;font-variant-numeric:normal;font-variant-alternates:normal;font-variant-east-asian:normal;font-feature-settings:normal;font-variation-settings:normal;text-indent:0;text-align:start;text-decoration:none;text-decoration-line:none;text-decoration-style:solid;text-decoration-color:#000000;letter-spacing:normal;word-spacing:normal;text-transform:none;writing-mode:lr-tb;direction:ltr;text-orientation:mixed;dominant-baseline:auto;baseline-shift:baseline;text-anchor:start;white-space:normal;shape-padding:0;shape-margin:0;inline-size:0;clip-rule:nonzero;display:inline;overflow:visible;visibility:visible;opacity:0.35;isolation:auto;mix-blend-mode:normal;color-interpolation:sRGB;color-interpolation-filters:linearRGB;solid-color:#000000;solid-opacity:1;vector-effect:none;fill:#323232;fill-opacity:1;fill-rule:nonzero;stroke:none;stroke-linecap:round;stroke-linejoin:miter;stroke-miterlimit:4;stroke-dasharray:none;stroke-dashoffset:0;stroke-opacity:1;color-rendering:auto;image-rendering:auto;shape-rendering:auto;text-rendering:auto;enable-background:accumulate;stop-color:#000000;stop-opacity:1"
       d="m 174.79102,47 a 1.2500401,1.2500401 0 0 0 -0.92579,0.365234 l -7.5,7.5 a 1.2500401,1.2500401 0 0 0 0,1.769532 1.2500401,1.2500401 0 0 0 1.76954,0 l 7.5,-7.5 a 1.2500401,1.2500401 0 0 0 0,-1.769532 A 1.2500401,1.2500401 0 0 0 174.79102,47 Z"
       id="path1178" />
  </g>
  <g
     id="22-22-audio-volume-muted">
    <rect
       id="rect1159"
       opacity="0"
       ry="0"
       height="24"
       width="24"
       y="130.99991"
       x="4"
       style="color:#363636;fill:#363636" />
    <path
       id="path1165"
       style="opacity:0.35;fill:#323232;fill-opacity:1;stroke-width:3;stroke-linecap:round;stroke-opacity:0.996078;paint-order:stroke fill markers"
       d="M 19.140625 133.31055 C 18.061895 133.26375 16.614019 133.46693 15.8125 134.05859 C 14.865729 134.75747 14.830557 138.28563 14.974609 141.25977 A 6 6 0 0 0 11.296875 140 A 6 6 0 0 0 5.296875 146 A 6 6 0 0 0 11.296875 152 A 6 6 0 0 0 17.296875 146 A 6 6 0 0 0 17.251953 145.27148 C 16.939268 141.62076 17.042748 137.31948 17.144531 136.30469 C 17.232461 135.42805 18.815858 135.69093 19.753906 135.66797 A 1.1415541 1.1208925 0 0 0 19.859375 135.67383 A 1.1415541 1.1208925 0 0 0 20.261719 135.60156 A 1.1415541 1.1208925 0 0 0 20.267578 135.59961 C 20.268978 135.59904 20.270084 135.59866 20.271484 135.59766 A 1.1415541 1.1208925 0 0 0 21 134.55273 A 1.1415541 1.1208925 0 0 0 20.207031 133.48438 C 19.958671 133.39077 19.582928 133.32973 19.140625 133.31055 z M 11.261719 142 A 4 4 0 0 1 11.322266 142 A 4 4 0 0 1 13.144531 142.43945 L 13.291016 142.29297 C 13.682753 141.90123 14.315294 141.90123 14.707031 142.29297 C 15.098768 142.68471 15.098768 143.31725 14.707031 143.70898 L 14.644531 143.77148 A 4 4 0 0 1 15.322266 146 A 4 4 0 0 1 11.322266 150 A 4 4 0 0 1 9.09375 149.32031 L 9.0488281 149.36523 C 8.657091 149.75697 8.0265028 149.75697 7.6347656 149.36523 C 7.2430285 148.9735 7.2430285 148.34291 7.6347656 147.95117 L 7.7617188 147.82422 A 4 4 0 0 1 7.3222656 146 A 4 4 0 0 1 11.261719 142 z " />
    <rect
       style="opacity:0.35;fill:#323232;fill-opacity:1;stroke:none;stroke-width:3.16228;stroke-linecap:round;stroke-linejoin:round;stroke-miterlimit:4;stroke-dasharray:none;stroke-opacity:0.34902;paint-order:stroke fill markers"
       id="rect1209"
       width="10"
       height="2"
       x="-100.21806"
       y="110.01576"
       ry="1"
       transform="rotate(-45)" />
  </g>
</svg>
