<?xml version="1.0" encoding="UTF-8" standalone="no"?>
<svg
   xmlns:dc="http://purl.org/dc/elements/1.1/"
   xmlns:cc="http://creativecommons.org/ns#"
   xmlns:rdf="http://www.w3.org/1999/02/22-rdf-syntax-ns#"
   xmlns:svg="http://www.w3.org/2000/svg"
   xmlns="http://www.w3.org/2000/svg"
   xmlns:sodipodi="http://sodipodi.sourceforge.net/DTD/sodipodi-0.dtd"
   xmlns:inkscape="http://www.inkscape.org/namespaces/inkscape"
   width="32"
   height="32"
   version="1.0"
   id="svg55"
   sodipodi:docname="computer.svg"
   inkscape:version="1.0.2 (e86c870879, 2021-01-15)">
  <metadata
     id="metadata59">
    <rdf:RDF>
      <cc:Work
         rdf:about="">
        <dc:format>image/svg+xml</dc:format>
        <dc:type
           rdf:resource="http://purl.org/dc/dcmitype/StillImage" />
        <dc:title />
      </cc:Work>
    </rdf:RDF>
  </metadata>
  <sodipodi:namedview
     pagecolor="#ffffff"
     bordercolor="#666666"
     borderopacity="1"
     objecttolerance="10"
     gridtolerance="10"
     guidetolerance="10"
     inkscape:pageopacity="0"
     inkscape:pageshadow="2"
     inkscape:window-width="1920"
     inkscape:window-height="935"
     id="namedview57"
     showgrid="true"
     inkscape:snap-nodes="true"
     inkscape:snap-bbox="true"
     inkscape:bbox-nodes="true"
     inkscape:snap-bbox-edge-midpoints="true"
     inkscape:zoom="17.213631"
     inkscape:cx="-47.455632"
     inkscape:cy="54.80185"
     inkscape:window-x="0"
     inkscape:window-y="38"
     inkscape:window-maximized="1"
     inkscape:current-layer="svg55"
     inkscape:document-rotation="0">
    <inkscape:grid
       type="xygrid"
       id="grid884" />
  </sodipodi:namedview>
  <defs
     id="defs3">
    <style
       id="current-color-scheme"
       type="text/css">.ColorScheme-Text { color:#363636; }</style>
  </defs>
  <g
     id="g886"
     transform="translate(8,-1)">
    <path
       class="ColorScheme-Text"
       d="m -68.5,62 h 7 c 0.277,0 0.5,0.223 0.5,0.5 0,0.277 -0.223,0.5 -0.5,0.5 h -7 c -0.277,0 -0.5,-0.223 -0.5,-0.5 0,-0.277 0.223,-0.5 0.5,-0.5 z"
       fill="currentColor"
       id="path7" />
    <path
       class="ColorScheme-Text"
       d="m -71,50 c -1.108,0 -2,0.892 -2,2 v 7 c 0,1.108 0.892,2 2,2 h 12 c 1.108,0 2,-0.892 2,-2 v -7 c 0,-1.108 -0.892,-2 -2,-2 z m 0,1 h 12 c 0.554,0 1,0.446 1,1 v 7 c 0,0.554 -0.446,1 -1,1 h -12 c -0.554,0 -1,-0.446 -1,-1 v -7 c 0,-0.554 0.446,-1 1,-1 z"
       fill="currentColor"
       id="path9" />
  </g>
  <g
     id="22-22-computer"
     class="ColorScheme-Text"
     fill="currentColor"
     transform="translate(-38)">
    <rect
       x="16"
       y="42"
       width="22"
       height="22"
       opacity="0"
       id="rect12" />
    <path
       d="m 20,45 c -1.662,0 -3,1.338 -3,3 v 9 c 0,1.662 1.338,3 3,3 h 14 c 1.662,0 3,-1.338 3,-3 v -9 c 0,-1.662 -1.338,-3 -3,-3 z m 0,1 h 14 c 1.108,0 2,0.892 2,2 v 9 c 0,1.108 -0.892,2 -2,2 H 20 c -1.108,0 -2,-0.892 -2,-2 v -9 c 0,-1.108 0.892,-2 2,-2 z"
       id="path14" />
    <rect
       x="21"
       y="61"
       width="12"
       height="1"
       rx="0.5"
       ry="0.5"
       id="rect16" />
  </g>
  <g
     id="22-22-computer-laptop"
     transform="translate(-38,-32)"
     class="ColorScheme-Text"
     fill="currentColor">
    <rect
       x="16"
       y="42"
       width="22"
       height="22"
       opacity="0"
       id="rect41" />
    <path
       d="m 20,45 c -1.662,0 -3,1.338 -3,3 v 9 c 0,1.662 1.338,3 3,3 h 14 c 1.662,0 3,-1.338 3,-3 v -9 c 0,-1.662 -1.338,-3 -3,-3 z m 0,1 h 14 c 1.108,0 2,0.892 2,2 v 9 c 0,1.108 -0.892,2 -2,2 H 20 c -1.108,0 -2,-0.892 -2,-2 v -9 c 0,-1.108 0.892,-2 2,-2 z"
       id="path43" />
    <rect
       x="17"
       y="60"
       width="20"
       height="1"
       rx="0.5"
       ry="0.5"
       id="rect45" />
  </g>
  <g
     id="16-16-computer-laptop"
     transform="translate(-38)">
    <rect
       y="16"
       width="16"
       height="16"
       rx="0"
       ry="0"
       fill="none"
       opacity="0"
       id="rect48"
       x="0" />
    <path
       class="ColorScheme-Text"
       d="m 2,18 c -1.108,0 -2,0.892 -2,2 v 7 c 0,1.108 0.892,2 2,2 h 12 c 1.108,0 2,-0.892 2,-2 v -7 c 0,-1.108 -0.892,-2 -2,-2 z m 0,1 h 12 c 0.554,0 1,0.446 1,1 v 7 c 0,0.554 -0.446,1 -1,1 H 2 C 1.446,28 1,27.554 1,27 v -7 c 0,-0.554 0.446,-1 1,-1 z"
       fill="currentColor"
       id="path50" />
    <rect
       y="29"
       width="16"
       height="1"
       rx="0.5"
       ry="0.5"
       class="ColorScheme-Text"
       fill="currentColor"
       id="rect52"
       x="0" />
  </g>
  <g
     id="computer-laptop"
     transform="translate(-38)">
    <rect
       x="38"
       y="0"
       width="32"
       height="32"
       opacity="0"
       id="rect30" />
    <g
       id="g909"
       transform="translate(-34,-35)">
      <rect
         style="fill:#39adf5;stroke-width:2.70338;stroke-linecap:round;paint-order:stroke fill markers;fill-opacity:1"
         id="rect900"
         width="23.999998"
         height="18"
         x="76"
         y="44"
         ry="2" />
      <rect
         style="fill:#b1defd;fill-opacity:1;stroke-width:2.44027;stroke-linecap:round;paint-order:stroke fill markers"
         id="rect902"
         width="22.000002"
         height="16"
         x="77"
         y="45"
         ry="1" />
      <rect
         style="fill:#ffffff;fill-opacity:1;stroke-width:2.30269;stroke-linecap:round;paint-order:stroke fill markers"
         id="rect904"
         width="4"
         height="1"
         x="86"
         y="59"
         ry="0.5" />
    </g>
  </g>
  <g
     id="computer"
     transform="translate(-38,32)">
    <rect
       x="38"
       y="0"
       width="32"
       height="32"
       opacity="0"
       id="rect923" />
    <g
       id="g931"
       transform="translate(-34,-35)">
      <rect
         style="fill:#39adf5;stroke-width:2.84961;stroke-linecap:round;paint-order:stroke fill markers;fill-opacity:1"
         id="rect925"
         width="23.999998"
         height="20"
         x="76"
         y="42"
         ry="2" />
      <rect
         style="fill:#b1defd;fill-opacity:1;stroke-width:2.44027;stroke-linecap:round;paint-order:stroke fill markers"
         id="rect927"
         width="22.000002"
         height="16"
         x="77"
         y="43"
         ry="1" />
      <rect
         style="fill:#ffffff;fill-opacity:1;stroke-width:2.30269;stroke-linecap:round;paint-order:stroke fill markers"
         id="rect929"
         width="4"
         height="1"
         x="86"
         y="60"
         ry="0.5" />
    </g>
  </g>
  <g
     id="16-16-computer">
    <rect
       y="48"
       width="16"
       height="16"
       rx="0"
       ry="0"
       fill="none"
       id="rect5"
       x="-38" />
    <g
       id="g879"
       transform="translate(57,-1)">
      <path
         id="rect870"
         style="opacity:1;fill:#363636;fill-opacity:1;stroke:none;stroke-width:0.889;stroke-linecap:round;stroke-linejoin:round;paint-order:stroke fill markers"
         d="m -93,50 c -1.108,0 -2,0.892 -2,2 v 7 c 0,1.108 0.892,2 2,2 h 12 c 1.108,0 2,-0.892 2,-2 v -7 c 0,-1.108 -0.892,-2 -2,-2 z m 1,2 h 10 c 0.554,0 1,0.446 1,1 v 5 c 0,0.554 -0.446,1 -1,1 h -10 c -0.554,0 -1,-0.446 -1,-1 v -5 c 0,-0.554 0.446,-1 1,-1 z" />
      <rect
         style="opacity:1;fill:#363636;fill-opacity:1;stroke:none;stroke-width:0.889;stroke-linecap:round;stroke-linejoin:round;paint-order:stroke fill markers"
         id="rect875"
         width="8"
         height="2"
         x="-91"
         y="62"
         rx="1" />
    </g>
  </g>
</svg>
