<?xml version="1.0" encoding="UTF-8" standalone="no"?>
<svg
   xmlns:dc="http://purl.org/dc/elements/1.1/"
   xmlns:cc="http://creativecommons.org/ns#"
   xmlns:rdf="http://www.w3.org/1999/02/22-rdf-syntax-ns#"
   xmlns:svg="http://www.w3.org/2000/svg"
   xmlns="http://www.w3.org/2000/svg"
   xmlns:sodipodi="http://sodipodi.sourceforge.net/DTD/sodipodi-0.dtd"
   xmlns:inkscape="http://www.inkscape.org/namespaces/inkscape"
   id="svg38"
   viewBox="0 0 32 32"
   version="1.1"
   sodipodi:docname="drive.svg"
   width="32"
   height="32"
   inkscape:version="1.0.2 (e86c870879, 2021-01-15)">
  <sodipodi:namedview
     pagecolor="#ffffff"
     bordercolor="#666666"
     borderopacity="1"
     objecttolerance="10"
     gridtolerance="10"
     guidetolerance="10"
     inkscape:pageopacity="0"
     inkscape:pageshadow="2"
     inkscape:window-width="1920"
     inkscape:window-height="935"
     id="namedview23"
     showgrid="true"
     inkscape:zoom="5.3287037"
     inkscape:cx="-1.560042"
     inkscape:cy="53.059209"
     inkscape:window-x="0"
     inkscape:window-y="38"
     inkscape:window-maximized="1"
     inkscape:current-layer="svg38">
    <inkscape:grid
       type="xygrid"
       id="grid881" />
  </sodipodi:namedview>
  <metadata
     id="metadata40">
    <rdf:RDF>
      <cc:Work
         rdf:about="">
        <dc:format>image/svg+xml</dc:format>
        <dc:type
           rdf:resource="http://purl.org/dc/dcmitype/StillImage" />
        <dc:title></dc:title>
      </cc:Work>
    </rdf:RDF>
  </metadata>
  <defs
     id="defs5">
    <style
       type="text/css"
       id="current-color-scheme">.ColorScheme-Text { color:#363636; }</style>
  </defs>
  <g
     fill="currentColor"
     transform="translate(22.847,58)"
     class="ColorScheme-Text"
     id="16-16-drive">
    <path
       id="path7"
       fill="none"
       d="m -14.847,16 v 16 h 16 V 16 Z" />
    <g
       id="g19"
       transform="translate(-7.6681,-11.971)">
      <g
         id="g15"
         transform="translate(-449.18,-148.03)">
        <path
           id="path9"
           d="m 446,176 c -1.108,0 -1.8626,0.90056 -2,2 l -1,8 v 4 c 0,1.108 0.892,2 2,2 h 10 c 1.108,0 2,-0.892 2,-2 v -4 l -1,-8 c -0.13743,-1.0994 -0.892,-2 -2,-2 z m 0,1 h 8 c 0.554,0 0.93128,0.45028 1,1 l 1,8 v 4 c 0,0.554 -0.446,1 -1,1 h -10 c -0.554,0 -1,-0.446 -1,-1 v -4 l 1,-8 c 0.0687,-0.54972 0.446,-1 1,-1 z" />
        <path
           id="path11"
           d="m 444,186 -0.1355,1 c -0.0744,0.54898 0.45608,1 1.0226,1 h 10.226 c 0.56651,0 1.097,-0.45102 1.0226,-1 l -0.13549,-1 c 0,0.554 -0.32058,1 -0.88709,1 h -10.226 c -0.56651,0 -0.88709,-0.446 -0.88709,-1 z" />
        <rect
           id="rect13"
           height="1"
           width="1"
           y="189"
           x="454" />
      </g>
      <path
         id="path17"
         d="m -1.2984,29.968 -1.415,1.315 0.707,0.657 1.414,-1.314 z m 4.241,0 -0.707,0.658 1.414,1.314 0.707,-0.657 z m -2.12,1.428 c -1.1,0 -2,0.837 -2,1.857 0,1.02 0.9,1.858 2,1.858 1.098,0 2,-0.838 2,-1.858 0,-1.02 -0.902,-1.857 -2,-1.857 z m 0,0.928 c 0.557,0 1,0.41 1,0.93 0,0.517 -0.443,0.928 -1,0.928 -0.559,0 -1,-0.41 -1,-0.929 0,-0.518 0.441,-0.929 1,-0.929 z m -1,3.715 v 0.929 h 2 v -0.929 z" />
    </g>
  </g>
  <g
     fill="currentColor"
     transform="translate(-43,-35)"
     class="ColorScheme-Text"
     id="drive">
    <rect
       id="rect31"
       fill="none"
       height="32"
       width="32"
       y="35"
       x="43" />
    <path
       id="path33"
       d="m 51,39 c -1.662,0 -2.6099,1.3844 -3,3 l -3.8613,15.988 c -8.4e-4,0.004 -9.53e-4,0.008 -0.002,0.01172 h 0.002 c -0.0825,0.321 -0.13867,0.65255 -0.13867,1 0,2.216 1.784,4 4,4 h 22 c 2.216,0 4,-1.784 4,-4 0,-0.34745 -0.0562,-0.679 -0.13867,-1 h 0.02148 l -3.8828,-16 c -0.39187,-1.6151 -1.338,-3 -3,-3 z m 4.916,3.8184 1.0273,0.95703 -2.0566,1.9121 -1.0293,-0.95703 z m 6.1699,0 2.0566,1.9121 -1.0293,0.95703 -2.0566,-1.9121 z m -3.084,2.0762 c 1.5971,0 2.9082,1.2175 2.9082,2.7012 0,1.4836 -1.3111,2.7031 -2.9082,2.7031 -1.6,0 -2.9102,-1.2195 -2.9102,-2.7031 0,-1.4836 1.3102,-2.7012 2.9102,-2.7012 z m 0,1.3496 c -0.81309,0 -1.4551,0.59811 -1.4551,1.3516 0,0.75491 0.64199,1.3516 1.4551,1.3516 0.81018,0 1.4531,-0.59761 1.4531,-1.3496 0,-0.75636 -0.64294,-1.3535 -1.4531,-1.3535 z m -1.4551,5.4043 h 2.9082 v 1.3516 h -2.9082 z m -9.5469,5.3516 h 22 c 1.108,0 2,0.89199 2,2 0,1.10801 -0.89199,2 -2,2 h -22 c -1.108,0 -2,-0.89199 -2,-2 0,-1.10801 0.89199,-2 2,-2 z"
       style="fill:#458aff;fill-opacity:1" />
    <circle
       id="ellipse35"
       cy="59"
       cx="68"
       r="1"
       style="fill:#458aff;fill-opacity:1" />
  </g>
  <g
     id="22-22-drive">
    <rect
       id="rect22-3"
       fill="none"
       height="22"
       width="22"
       y="40"
       x="5"
       style="color:#363636" />
    <path
       style="fill:#9fc2ff;fill-opacity:1;stroke:none;stroke-width:1px;stroke-linecap:butt;stroke-linejoin:miter;stroke-opacity:1"
       d="M 10,44 8,54 H 24 L 22,44 Z"
       id="path905" />
    <path
       style="color:#363636;font-style:normal;font-variant:normal;font-weight:normal;font-stretch:normal;font-size:medium;line-height:normal;font-family:sans-serif;font-variant-ligatures:normal;font-variant-position:normal;font-variant-caps:normal;font-variant-numeric:normal;font-variant-alternates:normal;font-variant-east-asian:normal;font-feature-settings:normal;font-variation-settings:normal;text-indent:0;text-align:start;text-decoration:none;text-decoration-line:none;text-decoration-style:solid;text-decoration-color:#000000;letter-spacing:normal;word-spacing:normal;text-transform:none;writing-mode:lr-tb;direction:ltr;text-orientation:mixed;dominant-baseline:auto;baseline-shift:baseline;text-anchor:start;white-space:normal;shape-padding:0;shape-margin:0;inline-size:0;clip-rule:nonzero;display:inline;overflow:visible;visibility:visible;isolation:auto;mix-blend-mode:normal;color-interpolation:sRGB;color-interpolation-filters:linearRGB;solid-color:#000000;solid-opacity:1;vector-effect:none;fill:#458aff;fill-opacity:1;fill-rule:nonzero;stroke:none;stroke-width:1;stroke-linecap:butt;stroke-linejoin:miter;stroke-miterlimit:4;stroke-dasharray:none;stroke-dashoffset:0;stroke-opacity:1;color-rendering:auto;image-rendering:auto;shape-rendering:auto;text-rendering:auto;enable-background:accumulate;stop-color:#000000"
       d="m 10.66598,43 c -1.108,0 -1.74,0.92296 -2,2 l -2.582,10.885 C 6.03408,56.08254 6,56.28676 6,56.50023 c 0,1.385 1.115,2.5 2.5,2.5 h 15 c 1.385,0 2.5,-1.115 2.5,-2.5 0,-0.17114 -0.01828,-0.3387 -0.05078,-0.5 -0.002,-0.009 -0.0039,-0.01679 -0.0059,-0.02539 l -2.6093,-10.975 c -0.26124,-1.0768 -0.892,-2 -2,-2 z m 0.33398,1 h 10 c 0.55401,0 0.88237,0.45862 1,1 l 1.7383,8 c 0.11763,0.54137 -0.44599,1 -1,1 h -13.477 c -0.55401,0 -1.1176,-0.45863 -1,-1 l 1.7383,-8 c 0.11763,-0.54138 0.44599,-1 1,-1 z m -2.5,11 h 15 c 0.83099,0 1.5,0.66901 1.5,1.5 0,0.83099 -0.66901,1.5 -1.5,1.5 h -15 c -0.83099,0 -1.5,-0.66901 -1.5,-1.5 0,-0.83099 0.66901,-1.5 1.5,-1.5 z"
       id="path969" />
    <path
       style="color:#363636;font-style:normal;font-variant:normal;font-weight:normal;font-stretch:normal;font-size:medium;line-height:normal;font-family:sans-serif;font-variant-ligatures:normal;font-variant-position:normal;font-variant-caps:normal;font-variant-numeric:normal;font-variant-alternates:normal;font-variant-east-asian:normal;font-feature-settings:normal;font-variation-settings:normal;text-indent:0;text-align:start;text-decoration:none;text-decoration-line:none;text-decoration-style:solid;text-decoration-color:#000000;letter-spacing:normal;word-spacing:normal;text-transform:none;writing-mode:lr-tb;direction:ltr;text-orientation:mixed;dominant-baseline:auto;baseline-shift:baseline;text-anchor:start;white-space:normal;shape-padding:0;shape-margin:0;inline-size:0;clip-rule:nonzero;display:inline;overflow:visible;visibility:visible;isolation:auto;mix-blend-mode:normal;color-interpolation:sRGB;color-interpolation-filters:linearRGB;solid-color:#000000;solid-opacity:1;vector-effect:none;fill:#458aff;fill-opacity:1;fill-rule:nonzero;stroke:none;stroke-width:1;stroke-linecap:butt;stroke-linejoin:miter;stroke-miterlimit:4;stroke-dasharray:none;stroke-dashoffset:0;stroke-opacity:1;color-rendering:auto;image-rendering:auto;shape-rendering:auto;text-rendering:auto;enable-background:accumulate;stop-color:#000000"
       d="m 22.999001,56.5 c 0,0.276142 -0.223858,0.5 -0.5,0.5 -0.276142,0 -0.5,-0.223858 -0.5,-0.5 0,-0.276142 0.223858,-0.5 0.5,-0.5 0.276142,0 0.5,0.223858 0.5,0.5 z"
       id="path1003" />
    <path
       id="path889"
       d="m 13.88,45.5 -1.415,1.315 0.707,0.657 1.414,-1.314 z m 4.241,0 -0.707,0.658 1.414,1.314 0.707,-0.657 z m -2.12,1.428 c -1.1,0 -2,0.837 -2,1.857 0,1.02 0.9,1.858 2,1.858 1.098,0 2,-0.838 2,-1.858 0,-1.02 -0.902,-1.857 -2,-1.857 z m 0,0.928 c 0.557,0 1,0.41 1,0.93 0,0.517 -0.443,0.928 -1,0.928 -0.559,0 -1,-0.41 -1,-0.929 0,-0.518 0.441,-0.929 1,-0.929 z m -1,3.715 V 52.5 h 2 v -0.929 z"
       style="color:#363636;fill:#ffffff;fill-opacity:1" />
  </g>
</svg>
