<?xml version="1.0" encoding="UTF-8" standalone="no"?>
<svg
   inkscape:version="1.1.1 (3bf5ae0d25, 2021-09-20, custom)"
   sodipodi:docname="kaffeine.svg"
   id="svg44"
   version="1.1"
   height="32"
   width="32"
   style="enable-background:new"
   xmlns:inkscape="http://www.inkscape.org/namespaces/inkscape"
   xmlns:sodipodi="http://sodipodi.sourceforge.net/DTD/sodipodi-0.dtd"
   xmlns="http://www.w3.org/2000/svg"
   xmlns:svg="http://www.w3.org/2000/svg"
   xmlns:rdf="http://www.w3.org/1999/02/22-rdf-syntax-ns#"
   xmlns:cc="http://creativecommons.org/ns#"
   xmlns:dc="http://purl.org/dc/elements/1.1/">
  <metadata
     id="metadata48">
    <rdf:RDF>
      <cc:Work
         rdf:about="">
        <dc:format>image/svg+xml</dc:format>
        <dc:type
           rdf:resource="http://purl.org/dc/dcmitype/StillImage" />
      </cc:Work>
    </rdf:RDF>
  </metadata>
  <sodipodi:namedview
     showguides="false"
     inkscape:current-layer="svg44"
     inkscape:window-maximized="1"
     inkscape:window-y="0"
     inkscape:window-x="0"
     inkscape:cy="20.124999"
     inkscape:cx="8.9374996"
     inkscape:zoom="8.0000004"
     showgrid="true"
     id="namedview46"
     inkscape:window-height="1005"
     inkscape:window-width="1920"
     inkscape:pageshadow="2"
     inkscape:pageopacity="0"
     guidetolerance="10"
     gridtolerance="10"
     objecttolerance="10"
     borderopacity="1"
     bordercolor="#000000"
     pagecolor="#c8c8c8"
     inkscape:document-rotation="0"
     inkscape:pagecheckerboard="0"
     inkscape:snap-bbox="true"
     inkscape:bbox-nodes="true"
     inkscape:snap-smooth-nodes="true">
    <inkscape:grid
       id="grid845"
       type="xygrid"
       originx="0"
       originy="0" />
  </sodipodi:namedview>
  <defs
     id="defs4">
    <linearGradient
       id="linearGradient5606"
       inkscape:swatch="solid">
      <stop
         style="stop-color:#000000"
         offset="0"
         id="stop5608" />
    </linearGradient>
  </defs>
  <g
     id="g128"
     transform="matrix(0,0.23269337,-0.3257329,0,32.286645,4.6684123)">
    <g
       id="g126">
      <g
         id="g124">
        <g
           id="g122">
          <g
             id="g120">
            <g
               id="g118">
              <g
                 id="g116">
                <g
                   id="g114" />
              </g>
            </g>
          </g>
        </g>
      </g>
    </g>
  </g>
  <g
     id="g146"
     transform="matrix(0,0.23269337,-0.3257329,0,32.286645,4.6684123)">
    <g
       id="g144">
      <g
         id="g142">
        <g
           id="g140">
          <g
             id="g138">
            <g
               id="g136">
              <g
                 id="g134">
                <g
                   id="g132" />
              </g>
            </g>
          </g>
        </g>
      </g>
    </g>
  </g>
  <g
     id="kaffeine">
    <rect
       id="rect11"
       style="opacity:0.00100002"
       y="0"
       x="0"
       height="32"
       width="32" />
    <path
       style="fill:#ffb3b8;stroke:none;stroke-width:1px;stroke-linecap:butt;stroke-linejoin:miter;stroke-opacity:1;fill-opacity:1"
       d="M 4,13 H 28 V 24 H 4 Z"
       id="path2096" />
    <rect
       style="fill:#ff4e5e;fill-opacity:1;fill-rule:evenodd;stroke:none;stroke-width:0.482;stroke-linejoin:round;paint-order:stroke fill markers"
       id="rect1341"
       width="24"
       height="2"
       x="4"
       y="12" />
    <rect
       style="fill:#ff4e5e;fill-opacity:1;fill-rule:evenodd;stroke:none;stroke-width:0.482;stroke-linejoin:round;paint-order:stroke fill markers"
       id="rect1445"
       width="2"
       height="6"
       x="11"
       y="8" />
    <rect
       style="fill:#ff4e5e;fill-opacity:1;fill-rule:evenodd;stroke:none;stroke-width:0.482;stroke-linejoin:round;paint-order:stroke fill markers"
       id="rect1527"
       width="2"
       height="6"
       x="19"
       y="8" />
    <path
       id="path1637"
       style="fill:#ff4e5e;fill-opacity:1;fill-rule:evenodd;stroke-width:0.2869;stroke-linecap:round;stroke-linejoin:round;paint-order:stroke fill markers"
       d="M 14.575311,16.000572 C 14.281522,15.987642 14,16.195332 14,16.497557 v 5.004799 c 0,0.403055 0.500294,0.638132 0.862965,0.405742 l 3.905274,-2.502399 c 0.309014,-0.19801 0.309014,-0.613476 0,-0.811484 l -3.905274,-2.5024 c -0.09067,-0.0581 -0.189725,-0.08693 -0.287654,-0.09125 z"
       sodipodi:nodetypes="sssccccs" />
    <path
       id="rect880"
       style="fill:#ff4e5e;fill-opacity:1;fill-rule:evenodd;stroke:none;stroke-width:1.19675;stroke-linejoin:round;paint-order:stroke fill markers"
       d="M 5,6 C 3.338,6 2,7.338 2,9 v 14 c 0,1.662 1.338,3 3,3 h 22 c 1.662,0 3,-1.338 3,-3 V 9 C 30,7.338 28.662,6 27,6 Z m 1,2 h 20 c 1.108,0 2,0.892 2,2 v 12 c 0,1.108 -0.892,2 -2,2 H 6 C 4.892,24 4,23.108 4,22 V 10 C 4,8.892 4.892,8 6,8 Z" />
  </g>
  <g
     id="22-22-kaffeine">
    <path
       style="fill:#ffb3b8;stroke:none;stroke-width:1px;stroke-linecap:butt;stroke-linejoin:miter;stroke-opacity:1;fill-opacity:1"
       d="m 35,19 v 8 h 16 v -8 z"
       id="path2461" />
    <path
       id="path6"
       d="m 32,10 h 22 c 0,0 0,0 0,0 v 22 c 0,0 0,0 0,0 H 32 c 0,0 0,0 0,0 V 10 c 0,0 0,0 0,0 z"
       style="opacity:0" />
    <rect
       style="fill:#ff4e5e;fill-opacity:1;fill-rule:evenodd;stroke:none;stroke-width:0.482;stroke-linejoin:round;paint-order:stroke fill markers"
       id="rect1972"
       width="18"
       height="2"
       x="34"
       y="18" />
    <rect
       style="fill:#ff4e5e;fill-opacity:1;fill-rule:evenodd;stroke:none;stroke-width:0.482;stroke-linejoin:round;paint-order:stroke fill markers"
       id="rect2429"
       width="2"
       height="6"
       x="39"
       y="14" />
    <rect
       style="fill:#ff4e5e;fill-opacity:1;fill-rule:evenodd;stroke:none;stroke-width:0.482;stroke-linejoin:round;paint-order:stroke fill markers"
       id="rect2511"
       width="2"
       height="6"
       x="45"
       y="14" />
    <path
       id="path2513"
       style="fill:#ff4e5e;fill-opacity:1;fill-rule:evenodd;stroke-width:0.234266;stroke-linecap:round;stroke-linejoin:round;paint-order:stroke fill markers"
       d="M 41.460249,21.000477 C 41.225218,20.989697 41,21.162795 41,21.414678 v 4.171143 c 0,0.335918 0.400235,0.531838 0.690373,0.338157 l 3.124219,-2.085571 c 0.247211,-0.165027 0.247211,-0.511288 0,-0.676314 l -3.124219,-2.085572 c -0.07253,-0.04842 -0.151781,-0.07245 -0.230124,-0.07605 z"
       sodipodi:nodetypes="sssccccs" />
    <path
       id="rect2671"
       style="fill:#ff4e5e;fill-opacity:1;fill-rule:evenodd;stroke:none;stroke-linejoin:round;paint-order:stroke fill markers"
       d="m 36,13 c -1.662,0 -3,1.338 -3,3 v 10 c 0,1.662 1.338,3 3,3 h 14 c 1.662,0 3,-1.338 3,-3 V 16 c 0,-1.662 -1.338,-3 -3,-3 z m 1,2 h 12 c 1.108,0 2,0.892 2,2 v 8 c 0,1.108 -0.892,2 -2,2 H 37 c -1.108,0 -2,-0.892 -2,-2 v -8 c 0,-1.108 0.892,-2 2,-2 z" />
  </g>
</svg>
