<?xml version="1.0" encoding="UTF-8" standalone="no"?>
<svg
   xmlns:dc="http://purl.org/dc/elements/1.1/"
   xmlns:cc="http://creativecommons.org/ns#"
   xmlns:rdf="http://www.w3.org/1999/02/22-rdf-syntax-ns#"
   xmlns:svg="http://www.w3.org/2000/svg"
   xmlns="http://www.w3.org/2000/svg"
   xmlns:sodipodi="http://sodipodi.sourceforge.net/DTD/sodipodi-0.dtd"
   xmlns:inkscape="http://www.inkscape.org/namespaces/inkscape"
   id="svg19"
   viewBox="0 0 32 32"
   version="1.1"
   sodipodi:docname="kate.svg"
   inkscape:version="1.0.1 (3bc2e813f5, 2020-09-07)">
  <sodipodi:namedview
     pagecolor="#ffffff"
     bordercolor="#666666"
     borderopacity="1"
     objecttolerance="10"
     gridtolerance="10"
     guidetolerance="10"
     inkscape:pageopacity="0"
     inkscape:pageshadow="2"
     inkscape:window-width="1920"
     inkscape:window-height="942"
     id="namedview13"
     showgrid="true"
     inkscape:zoom="6.0546875"
     inkscape:cx="-38.595983"
     inkscape:cy="38.883855"
     inkscape:window-x="0"
     inkscape:window-y="38"
     inkscape:window-maximized="1"
     inkscape:current-layer="svg19">
    <inkscape:grid
       type="xygrid"
       id="grid838" />
  </sodipodi:namedview>
  <metadata
     id="metadata21">
    <rdf:RDF>
      <cc:Work
         rdf:about="">
        <dc:format>image/svg+xml</dc:format>
        <dc:type
           rdf:resource="http://purl.org/dc/dcmitype/StillImage" />
        <dc:title />
      </cc:Work>
    </rdf:RDF>
  </metadata>
  <defs
     id="defs5">
    <style
       type="text/css"
       id="current-color-scheme"> .ColorScheme-Text { color:#363636; } </style>
  </defs>
  <g
     id="22-22-kate">
    <path
       id="rect874"
       style="fill:#ff4e5e;fill-opacity:1;stroke-width:0.5;stroke-linecap:round;stroke-linejoin:round;paint-order:stroke fill markers"
       d="M 59.212891 8 C 58.065824 8.038667 56.771568 8.4003014 55.513672 9.328125 C 54.207742 10.291395 53.633446 10.55477 53 10.875 C 53.56439 10.91885 56.9416 10.429454 57.539062 12.449219 C 57.566882 12.440519 57.685308 12.404478 57.724609 12.392578 C 55.295542 13.080954 53.939904 14.665065 54.966797 16.863281 C 55.997358 19.069501 57.777974 19.121679 59.976562 20.619141 C 61.692971 21.788191 62.113199 22.383545 63.220703 24.003906 C 62.99039 21.76496 61.927064 18.878829 61.429688 17.607422 C 63.349938 18.776917 64.322724 19.038671 67 19.324219 C 63.525785 16.806039 62.86754 16.313899 60.878906 14.587891 C 59.544766 14.656371 59.691016 14.643501 58.904297 14.689453 C 59.94001 16.177667 60.348699 18.36447 58.455078 18.765625 C 56.6826 19.141098 54.973049 17.582712 55.458984 15.914062 C 55.986632 14.102149 58.26488 14.451081 60.654297 14.136719 C 63.043627 13.822412 65.225972 11.436036 66.539062 9.6699219 C 64.664141 10.321307 62.259489 11.064661 59.609375 11.837891 C 59.072627 10.770753 58.384454 8.7541435 62.025391 8.6132812 C 61.358478 8.2448162 60.359957 7.9613251 59.212891 8 z " />
    <path
       id="path7"
       fill="none"
       d="M 49,5 H 71 V 27 H 49 Z"
       style="color:#363636" />
  </g>
  <g
     id="kate">
    <rect
       style="fill:#ff4e5e;fill-opacity:1;stroke-width:0.530722;stroke-linecap:round;stroke-linejoin:round;paint-order:stroke fill markers"
       id="rect886"
       width="26"
       height="26"
       x="3"
       y="3"
       ry="4" />
    <rect
       id="rect12"
       fill="none"
       height="32"
       width="32"
       y="-1e-06"
       x="-2.8954e-08"
       style="color:#363636" />
    <path
       style="color:#363636;font-style:normal;font-variant:normal;font-weight:normal;font-stretch:normal;font-size:medium;line-height:normal;font-family:sans-serif;font-variant-ligatures:normal;font-variant-position:normal;font-variant-caps:normal;font-variant-numeric:normal;font-variant-alternates:normal;font-variant-east-asian:normal;font-feature-settings:normal;font-variation-settings:normal;text-indent:0;text-align:start;text-decoration:none;text-decoration-line:none;text-decoration-style:solid;text-decoration-color:#000000;letter-spacing:normal;word-spacing:normal;text-transform:none;writing-mode:lr-tb;direction:ltr;text-orientation:mixed;dominant-baseline:auto;baseline-shift:baseline;text-anchor:start;white-space:normal;shape-padding:0;shape-margin:0;inline-size:0;clip-rule:nonzero;display:inline;overflow:visible;visibility:visible;isolation:auto;mix-blend-mode:normal;color-interpolation:sRGB;color-interpolation-filters:linearRGB;solid-color:#000000;solid-opacity:1;vector-effect:none;fill:#ffffff;fill-opacity:1;fill-rule:nonzero;stroke:none;stroke-width:1;stroke-linecap:butt;stroke-linejoin:miter;stroke-miterlimit:4;stroke-dasharray:none;stroke-dashoffset:0;stroke-opacity:1;color-rendering:auto;image-rendering:auto;shape-rendering:auto;text-rendering:auto;enable-background:accumulate;stop-color:#000000"
       d="m 15.546,7.6845 c -1.3134,0.04348 -2.7956,0.45116 -4.2359,1.4945 -1.4953,1.0832 -2.1517,1.3791 -2.877,1.7392 0.64623,0.04931 4.5128,-0.50253 5.1969,1.7687 0.03186,-0.0098 0.16724,-0.04853 0.21224,-0.06191 -2.7813,0.77408 -4.3328,2.554 -3.157,5.0259 1.18,2.4809 3.2189,2.5402 5.7363,4.2241 1.9653,1.3146 2.4461,1.9834 3.7142,3.8055 -0.26371,-2.5177 -1.4821,-5.7628 -2.0516,-7.1925 2.1987,1.3151 3.3134,1.6097 6.3789,1.9308 -3.978,-2.8317 -4.7328,-3.3857 -7.0098,-5.3266 -1.5276,0.07701 -1.3601,0.06329 -2.2609,0.11496 1.1859,1.6735 1.6553,4.1327 -0.51291,4.5838 -2.0295,0.42222 -3.9876,-1.3308 -3.4312,-3.2072 0.60416,-2.0375 3.2127,-1.6451 5.9486,-1.9986 2.7358,-0.35344 5.2351,-3.037 6.7386,-5.023 -2.1468,0.73248 -4.9009,1.5683 -7.9353,2.4378 -0.61458,-1.2 -1.401,-3.4673 2.7679,-3.6257 -0.76362,-0.41434 -1.9085,-0.73326 -3.2219,-0.68977 z"
       id="path890" />
  </g>
</svg>
