<?xml version="1.0" encoding="UTF-8" standalone="no"?>
<svg
   xmlns:dc="http://purl.org/dc/elements/1.1/"
   xmlns:cc="http://creativecommons.org/ns#"
   xmlns:rdf="http://www.w3.org/1999/02/22-rdf-syntax-ns#"
   xmlns:svg="http://www.w3.org/2000/svg"
   xmlns="http://www.w3.org/2000/svg"
   xmlns:sodipodi="http://sodipodi.sourceforge.net/DTD/sodipodi-0.dtd"
   xmlns:inkscape="http://www.inkscape.org/namespaces/inkscape"
   width="22"
   height="22"
   version="1.1"
   id="svg21"
   sodipodi:docname="kdf.svg"
   inkscape:version="1.0.2 (e86c870879, 2021-01-15)">
  <metadata
     id="metadata25">
    <rdf:RDF>
      <cc:Work
         rdf:about="">
        <dc:format>image/svg+xml</dc:format>
        <dc:type
           rdf:resource="http://purl.org/dc/dcmitype/StillImage" />
        <dc:title />
      </cc:Work>
    </rdf:RDF>
  </metadata>
  <sodipodi:namedview
     pagecolor="#c8c8c8"
     bordercolor="#666666"
     borderopacity="1"
     objecttolerance="10"
     gridtolerance="10"
     guidetolerance="10"
     inkscape:pageopacity="0"
     inkscape:pageshadow="2"
     inkscape:window-width="1920"
     inkscape:window-height="936"
     id="namedview23"
     showgrid="true"
     inkscape:zoom="8.8068182"
     inkscape:cx="-3.8500815"
     inkscape:cy="5.3798252"
     inkscape:window-x="0"
     inkscape:window-y="38"
     inkscape:window-maximized="1"
     inkscape:current-layer="svg21"
     inkscape:document-rotation="0">
    <inkscape:grid
       type="xygrid"
       id="grid850" />
  </sodipodi:namedview>
  <defs
     id="defs3">
    <style
       id="current-color-scheme"
       type="text/css">.ColorScheme-Text { color:#dedede; } .ColorScheme-Highlight { color:#5294e2; } .ColorScheme-ButtonBackground { color:#dedede; }</style>
  </defs>
  <rect
     class="ColorScheme-Text"
     x="-20.43"
     y="-19.39"
     width="16"
     height="16"
     ry="0"
     opacity="0"
     id="rect5" />
  <g
     fill="currentColor"
     transform="translate(-6.2745,-12)"
     class="ColorScheme-Text"
     id="16-16-kdf"
     style="color:#363636">
    <path
       id="path7"
       fill="none"
       d="m -14.847,16 v 16 h 16 V 16 Z" />
    <g
       id="g19"
       transform="translate(-7.6681,-11.971)">
      <g
         id="g15"
         transform="translate(-449.18,-148.03)">
        <path
           id="path9"
           d="m 446,176 c -1.108,0 -1.8626,0.90056 -2,2 l -1,8 v 4 c 0,1.108 0.892,2 2,2 h 10 c 1.108,0 2,-0.892 2,-2 v -4 l -1,-8 c -0.13743,-1.0994 -0.892,-2 -2,-2 z m 0,1 h 8 c 0.554,0 0.93128,0.45028 1,1 l 1,8 v 4 c 0,0.554 -0.446,1 -1,1 h -10 c -0.554,0 -1,-0.446 -1,-1 v -4 l 1,-8 c 0.0687,-0.54972 0.446,-1 1,-1 z"
           style="fill:#458aff;fill-opacity:1" />
        <path
           id="path11"
           d="m 444,186 -0.1355,1 c -0.0744,0.54898 0.45608,1 1.0226,1 h 10.226 c 0.56651,0 1.097,-0.45102 1.0226,-1 l -0.13549,-1 c 0,0.554 -0.32058,1 -0.88709,1 h -10.226 c -0.56651,0 -0.88709,-0.446 -0.88709,-1 z"
           style="fill:#458aff;fill-opacity:1" />
        <rect
           id="rect13"
           height="1"
           width="1"
           y="189"
           x="454"
           style="fill:#458aff;fill-opacity:1" />
      </g>
      <path
         id="path17-3"
         d="m -1.2984,29.968 -1.415,1.315 0.707,0.657 1.414,-1.314 z m 4.241,0 -0.707,0.658 1.414,1.314 0.707,-0.657 z m -2.12,1.428 c -1.1,0 -2,0.837 -2,1.857 0,1.02 0.9,1.858 2,1.858 1.098,0 2,-0.838 2,-1.858 0,-1.02 -0.902,-1.857 -2,-1.857 z m 0,0.928 c 0.557,0 1,0.41 1,0.93 0,0.517 -0.443,0.928 -1,0.928 -0.559,0 -1,-0.41 -1,-0.929 0,-0.518 0.441,-0.929 1,-0.929 z m -1,3.715 v 0.929 h 2 v -0.929 z"
         style="fill:#458aff;fill-opacity:1" />
    </g>
  </g>
  <g
     fill="currentColor"
     transform="translate(5,-42)"
     class="ColorScheme-Text"
     id="kdf"
     style="color:#363636">
    <rect
       id="rect22"
       fill="none"
       height="22"
       width="22"
       y="42"
       x="-5" />
    <path
       id="path24"
       d="m 0.66602,45 c -1.108,0 -1.74,0.92296 -2,2 l -2.582,10.885 c -0.0499,0.19754 -0.083984,0.40176 -0.083984,0.61523 0,1.385 1.115,2.5 2.5,2.5 h 15 c 1.385,0 2.5,-1.115 2.5,-2.5 0,-0.17114 -0.01828,-0.3387 -0.05078,-0.5 -0.002,-0.009 -0.0039,-0.01679 -0.0059,-0.02539 l -2.6093,-10.975 c -0.26124,-1.0768 -0.892,-2 -2,-2 z M 1,46 h 10 c 0.55401,0 0.88237,0.45862 1,1 l 1.7383,8 c 0.11763,0.54137 -0.44599,1 -1,1 h -13.477 c -0.55401,0 -1.1176,-0.45863 -1,-1 L -4e-4,47 c 0.11763,-0.54138 0.44599,-1 1,-1 z m -2.5,11 h 15 c 0.83099,0 1.5,0.66901 1.5,1.5 0,0.83099 -0.66901,1.5 -1.5,1.5 h -15 C -2.33099,60 -3,59.33099 -3,58.5 -3,57.66901 -2.33099,57 -1.5,57 Z"
       style="fill:#458aff;fill-opacity:1" />
    <circle
       id="ellipse26"
       cy="58.5"
       cx="12.5"
       r="0.5"
       style="fill:#458aff;fill-opacity:1" />
    <path
       id="path28"
       d="m 3.88,47 -1.415,1.315 0.707,0.657 1.414,-1.314 z m 4.241,0 -0.707,0.658 1.414,1.314 0.707,-0.657 z m -2.12,1.428 c -1.1,0 -2,0.837 -2,1.857 0,1.02 0.9,1.858 2,1.858 1.098,0 2,-0.838 2,-1.858 0,-1.02 -0.902,-1.857 -2,-1.857 z m 0,0.928 c 0.557,0 1,0.41 1,0.93 0,0.517 -0.443,0.928 -1,0.928 -0.559,0 -1,-0.41 -1,-0.929 0,-0.518 0.441,-0.929 1,-0.929 z m -1,3.715 V 54 h 2 v -0.929 z"
       style="fill:#458aff;fill-opacity:1" />
  </g>
</svg>
