<?xml version="1.0" encoding="UTF-8" standalone="no"?>
<svg
   xmlns:dc="http://purl.org/dc/elements/1.1/"
   xmlns:cc="http://creativecommons.org/ns#"
   xmlns:rdf="http://www.w3.org/1999/02/22-rdf-syntax-ns#"
   xmlns:svg="http://www.w3.org/2000/svg"
   xmlns="http://www.w3.org/2000/svg"
   xmlns:sodipodi="http://sodipodi.sourceforge.net/DTD/sodipodi-0.dtd"
   xmlns:inkscape="http://www.inkscape.org/namespaces/inkscape"
   id="svg17"
   viewBox="0 0 54 32"
   version="1.1"
   sodipodi:docname="keyboard.svg"
   inkscape:version="1.0.1 (3bc2e813f5, 2020-09-07)">
  <sodipodi:namedview
     pagecolor="#ffffff"
     bordercolor="#666666"
     borderopacity="1"
     objecttolerance="10"
     gridtolerance="10"
     guidetolerance="10"
     inkscape:pageopacity="0"
     inkscape:pageshadow="2"
     inkscape:window-width="1920"
     inkscape:window-height="942"
     id="namedview12"
     showgrid="true"
     inkscape:zoom="15.07185"
     inkscape:cx="22.915441"
     inkscape:cy="19.87933"
     inkscape:window-x="0"
     inkscape:window-y="38"
     inkscape:window-maximized="1"
     inkscape:current-layer="svg17">
    <inkscape:grid
       type="xygrid"
       id="grid837" />
  </sodipodi:namedview>
  <metadata
     id="metadata19">
    <rdf:RDF>
      <cc:Work
         rdf:about="">
        <dc:format>image/svg+xml</dc:format>
        <dc:type
           rdf:resource="http://purl.org/dc/dcmitype/StillImage" />
        <dc:title />
      </cc:Work>
    </rdf:RDF>
  </metadata>
  <defs
     id="defs5">
    <style
       type="text/css"
       id="current-color-scheme"> .ColorScheme-Text { color:#363636; } </style>
  </defs>
  <g
     fill="currentColor"
     class="ColorScheme-Text"
     transform="translate(-16)"
     id="keyboard-layout">
    <rect
       id="rect12"
       fill="none"
       height="32"
       width="32"
       y="-5.6172e-6"
       x="38" />
    <path
       id="path14"
       d="m43 7c-1.662 0-3 1.338-3 3v12c0 1.662 1.338 3 3 3h22c1.662 0 3-1.338 3-3v-12c0-1.662-1.338-3-3-3zm0 2h22c0.554 0 1 0.446 1 1v12c0 0.554-0.446 1-1 1h-22c-0.554 0-1-0.446-1-1v-12c0-0.554 0.446-1 1-1zm0.5 2c-0.277 0-0.5 0.223-0.5 0.5s0.223 0.5 0.5 0.5h21c0.277 0 0.5-0.223 0.5-0.5s-0.223-0.5-0.5-0.5zm0.5 2c-0.554 0-1 0.446-1 1s0.446 1 1 1h0.86328c0.554 0 1-0.446 1-1s-0.446-1-1-1zm4 0c-0.554 0-1 0.446-1 1s0.446 1 1 1 1-0.446 1-1-0.446-1-1-1zm3 0c-0.554 0-1 0.446-1 1s0.446 1 1 1 1-0.446 1-1-0.446-1-1-1zm3 0c-0.554 0-1 0.446-1 1s0.446 1 1 1 1-0.446 1-1-0.446-1-1-1zm3 0c-0.554 0-1 0.446-1 1s0.446 1 1 1 1-0.446 1-1-0.446-1-1-1zm3 0c-0.554 0-1 0.446-1 1s0.446 1 1 1 1-0.446 1-1-0.446-1-1-1zm3 0c-0.554 0-1 0.446-1 1s0.446 1 1 1h0.86328c0.554 0 1-0.446 1-1s-0.446-1-1-1zm-19 3c-0.554 0-1 0.446-1 1s0.446 1 1 1 1-0.446 1-1-0.446-1-1-1zm3 0c-0.554 0-1 0.446-1 1s0.446 1 1 1 1-0.446 1-1-0.446-1-1-1zm3 0c-0.554 0-1 0.446-1 1s0.446 1 1 1 1-0.446 1-1-0.446-1-1-1zm3 0c-0.554 0-1 0.446-1 1s0.446 1 1 1 1-0.446 1-1-0.446-1-1-1zm3 0c-0.554 0-1 0.446-1 1s0.446 1 1 1 1-0.446 1-1-0.446-1-1-1zm3 0c-0.554 0-1 0.446-1 1s0.446 1 1 1 1-0.446 1-1-0.446-1-1-1zm3 0c-0.554 0-1 0.446-1 1s0.446 1 1 1h2c0.554 0 1-0.446 1-1s-0.446-1-1-1zm-18 3c-0.554 0-1 0.446-1 1s0.446 1 1 1h0.86328c0.554 0 1-0.446 1-1s-0.446-1-1-1zm4 0c-0.554 0-1 0.446-1 1s0.446 1 1 1 1-0.446 1-1-0.446-1-1-1zm3.1367 0c-0.554 0-1 0.446-1 1s0.446 1 1 1h5.8633c0.554 0 1-0.446 1-1s-0.446-1-1-1zm8.8633 0c-0.554 0-1 0.446-1 1s0.446 1 1 1 1-0.446 1-1-0.446-1-1-1zm3 0c-0.554 0-1 0.446-1 1s0.446 1 1 1h0.86328c0.554 0 1-0.446 1-1s-0.446-1-1-1z"
       style="fill:#ff4e5e;fill-opacity:1" />
  </g>
  <g
     id="22-22-keyboard-layout"
     transform="translate(27,-14)">
    <rect
       id="rect856"
       width="22"
       height="22"
       x="-27"
       y="24"
       style="opacity:0.00100002;fill:#000000;fill-opacity:1;stroke:none;stroke-width:9.13128;stroke-linecap:round;stroke-linejoin:round;stroke-miterlimit:4;stroke-dasharray:none;stroke-opacity:1" />
    <g
       id="g920"
       transform="translate(31,-11)">
      <rect
         style="fill:#ff4e5e;fill-opacity:1;stroke-width:0.683764;stroke-linecap:round;stroke-linejoin:round;paint-order:stroke fill markers"
         id="rect871"
         width="18"
         height="16"
         x="-56"
         y="38"
         ry="2" />
      <rect
         style="fill:#ffffff;fill-opacity:1;stroke-width:0.456435;stroke-linecap:round;stroke-linejoin:round;paint-order:stroke fill markers"
         id="rect877"
         width="2"
         height="5"
         x="-43"
         y="45"
         ry="1" />
      <rect
         style="fill:#ffffff;fill-opacity:1;stroke-width:0.5;stroke-linecap:round;stroke-linejoin:round;paint-order:stroke fill markers"
         id="rect881"
         width="1.9999993"
         height="6"
         x="-50"
         y="-47"
         ry="0.99999964"
         transform="rotate(-90)" />
      <rect
         style="fill:#ffffff;fill-opacity:1;stroke-width:0.5;stroke-linecap:round;stroke-linejoin:round;paint-order:stroke fill markers"
         id="rect897"
         width="2"
         height="5.9999981"
         x="-44"
         y="-47"
         ry="1"
         transform="rotate(-90)" />
      <rect
         style="fill:#ffffff;fill-opacity:1;stroke-width:0.288675;stroke-linecap:round;stroke-linejoin:round;paint-order:stroke fill markers"
         id="rect899"
         width="2"
         height="1.9999992"
         x="-44"
         y="-50"
         ry="0.99999958"
         transform="rotate(-90)" />
      <rect
         style="fill:#ffffff;fill-opacity:1;stroke-width:0.288675;stroke-linecap:round;stroke-linejoin:round;paint-order:stroke fill markers"
         id="rect901"
         width="2"
         height="1.9999981"
         x="-44"
         y="-53"
         ry="0.99999905"
         transform="rotate(-90)" />
      <rect
         style="fill:#ffffff;fill-opacity:1;stroke-width:0.288675;stroke-linecap:round;stroke-linejoin:round;paint-order:stroke fill markers"
         id="rect903"
         width="2"
         height="1.9999992"
         x="-47"
         y="-48"
         ry="0.99999958"
         transform="rotate(-90)" />
      <rect
         style="fill:#ffffff;fill-opacity:1;stroke-width:0.288675;stroke-linecap:round;stroke-linejoin:round;paint-order:stroke fill markers"
         id="rect905"
         width="2"
         height="1.9999992"
         x="-47"
         y="-52"
         ry="0.99999958"
         transform="rotate(-90)" />
      <rect
         style="fill:#ffffff;fill-opacity:1;stroke-width:0.456436;stroke-linecap:round;stroke-linejoin:round;paint-order:stroke fill markers"
         id="rect909"
         width="1.9999993"
         height="5"
         x="-50"
         y="-53"
         ry="0.99999964"
         transform="rotate(-90)" />
    </g>
  </g>
</svg>
