<?xml version="1.0" encoding="UTF-8" standalone="no"?>
<svg
   id="svg7384"
   width="22"
   height="22"
   version="1.1"
   style="enable-background:new"
   sodipodi:docname="kmail.svg"
   inkscape:version="1.1.1 (3bf5ae0d25, 2021-09-20)"
   xmlns:inkscape="http://www.inkscape.org/namespaces/inkscape"
   xmlns:sodipodi="http://sodipodi.sourceforge.net/DTD/sodipodi-0.dtd"
   xmlns="http://www.w3.org/2000/svg"
   xmlns:svg="http://www.w3.org/2000/svg">
  <sodipodi:namedview
     id="namedview18"
     pagecolor="#ffffff"
     bordercolor="#999999"
     borderopacity="1"
     inkscape:pageshadow="0"
     inkscape:pageopacity="0"
     inkscape:pagecheckerboard="0"
     showgrid="false"
     inkscape:zoom="13.129687"
     inkscape:cx="-13.899798"
     inkscape:cy="1.789837"
     inkscape:window-width="1920"
     inkscape:window-height="1002"
     inkscape:window-x="0"
     inkscape:window-y="0"
     inkscape:window-maximized="1"
     inkscape:current-layer="svg7384">
    <inkscape:grid
       type="xygrid"
       id="grid955" />
  </sodipodi:namedview>
  <defs
     id="defs7386">
    <style
       id="current-color-scheme"
       type="text/css">
   .ColorScheme-Text { color:#333333; } .ColorScheme-Highlight { color:#5294e2; } .ColorScheme-ButtonBackground { color:#333333; }
  </style>
    <linearGradient
       id="linearGradient5606"
       inkscape:swatch="solid">
      <stop
         id="stop5608"
         offset="0"
         style="stop-color:#000000;stop-opacity:1" />
    </linearGradient>
  </defs>
  <g
     id="kmail">
    <path
       id="rect4138"
       d="m 1.1e-4,0 h 22 v 22 h -22 z"
       style="opacity:0;fill:#2b0000;fill-opacity:0.403922;fill-rule:nonzero;stroke:none;stroke-width:1;stroke-linecap:round;stroke-linejoin:round;stroke-miterlimit:4;stroke-dasharray:none;stroke-dashoffset:0;stroke-opacity:1" />
    <g
       id="g9503"
       transform="matrix(1,0,0,1.0001628,31.771484,-0.00276751)">
      <path
         id="path9148"
         style="fill:#ff9b00;fill-opacity:1;fill-rule:evenodd;stroke-width:2.71746;stroke-linecap:round;stroke-linejoin:round;paint-order:stroke fill markers"
         d="M -26.8125,5.0019531 C -27.901213,5.0238701 -28.771484,5.90585 -28.771484,7 v 8 c 0,1.108 0.892,2 2,2 h 12 c 1.108,0 2,-0.892 2,-2 V 7 c 0,-1.09415 -0.870272,-1.9761299 -1.958985,-1.9980469 z" />
      <path
         id="path9150"
         style="fill:#ffaf32;fill-opacity:1;fill-rule:evenodd;stroke-width:2.71746;stroke-linecap:round;stroke-linejoin:round;paint-order:stroke fill markers"
         d="M -13.3125,5.6308594 -28.105469,16.490234 C -27.751887,16.806828 -27.285629,17 -26.771484,17 h 12 c 1.108,0 2,-0.892 2,-2 V 7 c 0,-0.5310907 -0.205584,-1.0117471 -0.541016,-1.3691406 z" />
      <path
         id="path9152"
         style="fill:#ffcd00;fill-opacity:1;fill-rule:evenodd;stroke-width:2.71746;stroke-linecap:round;stroke-linejoin:round;paint-order:stroke fill markers"
         d="M -28.230469,5.6308594 C -28.5659,5.9882529 -28.771484,6.4689093 -28.771484,7 v 8 c 0,1.108 0.892,2 2,2 h 12 c 0.514144,0 0.980403,-0.193172 1.333984,-0.509766 z" />
    </g>
  </g>
</svg>
