<?xml version="1.0" encoding="UTF-8" standalone="no"?>
<svg
   id="svg2817"
   width="22"
   height="22"
   inkscape:version="1.1 (c4e8f9ed74, 2021-05-24)"
   sodipodi:docname="ktorrent.svg"
   version="1"
   xmlns:inkscape="http://www.inkscape.org/namespaces/inkscape"
   xmlns:sodipodi="http://sodipodi.sourceforge.net/DTD/sodipodi-0.dtd"
   xmlns="http://www.w3.org/2000/svg"
   xmlns:svg="http://www.w3.org/2000/svg">
  <sodipodi:namedview
     id="namedview8"
     bordercolor="#666666"
     borderopacity="1"
     gridtolerance="10"
     guidetolerance="10"
     inkscape:bbox-nodes="true"
     inkscape:current-layer="svg2817"
     inkscape:cx="33.16346"
     inkscape:cy="8.8720558"
     inkscape:pageopacity="0"
     inkscape:pageshadow="2"
     inkscape:snap-bbox="true"
     inkscape:snap-bbox-edge-midpoints="true"
     inkscape:snap-nodes="false"
     inkscape:window-height="962"
     inkscape:window-maximized="1"
     inkscape:window-width="1920"
     inkscape:window-x="0"
     inkscape:window-y="40"
     inkscape:zoom="10.538707"
     objecttolerance="10"
     pagecolor="#c8c8c8"
     showgrid="true"
     inkscape:pagecheckerboard="0">
    <inkscape:grid
       id="grid843"
       type="xygrid" />
  </sodipodi:namedview>
  <defs
     id="defs9">
    <style
       id="current-color-scheme"
       type="text/css">.ColorScheme-Text { color:#333333; } .ColorScheme-Highlight { color:#5294e2; } .ColorScheme-ButtonBackground { color:#333333; }</style>
    <linearGradient
       id="a"
       x1="37.2"
       x2="36.985"
       y1="56.511"
       y2="34.977"
       gradientTransform="matrix(0.78047,0,0,0.78047,32.659,-19.227)"
       gradientUnits="userSpaceOnUse">
      <stop
         id="stop2"
         offset="0" />
      <stop
         id="stop4"
         stop-opacity="0"
         offset="1" />
    </linearGradient>
  </defs>
  <g
     id="22-22-ktorrent">
    <path
       id="rect4139-3"
       d="m 0.25,0 h 21.5 C 21.8885,0 22,0.1115 22,0.25 v 21.5 C 22,21.8885 21.88849,22 21.75,22 H 0.25 C 0.1115,22 0,21.8885 0,21.75 V 0.25 C 0,0.1115 0.11151,0 0.25,0 Z"
       opacity="0"
       inkscape:connector-curvature="0" />
    <g
       id="g845"
       transform="matrix(0.57929733,0,0,0.57929733,-9.0381692,2)">
      <path
         style="color:#000000;fill:#00c19f;stroke-width:3.81571;-inkscape-stroke:none"
         d="m 22.983286,18.093408 c -0.635222,0.623256 -0.635222,1.626779 0,2.250035 l 10.458261,10.261241 c 0.635223,0.623257 1.658012,0.623257 2.293236,0 0.635223,-0.623256 0.635223,-1.626778 0,-2.250034 L 25.276523,18.093408 c -0.635223,-0.623256 -1.658013,-0.623256 -2.293237,0 z"
         id="path30" />
      <path
         style="color:#000000;fill:#00c19f;stroke-width:3.81571;-inkscape-stroke:none"
         d="m 34.589879,4.535e-4 c -0.898326,0 -1.620417,0.71037624 -1.620417,1.5918172 V 29.479308 c 0,0.08262 0.01156,0.161049 0.02388,0.240231 0.0032,0.02003 0.002,0.04052 0.0061,0.06055 0.0181,0.09226 0.04827,0.179833 0.08163,0.26563 0.0043,0.01021 0.0058,0.02117 0.01,0.03137 0.164064,0.397274 0.484874,0.714004 0.889813,0.874978 0.01387,0.0057 0.02773,0.0087 0.0418,0.01361 0.08436,0.03099 0.170343,0.05726 0.260792,0.07423 0.10212,0.01965 0.204935,0.02948 0.308558,0.02948 0.105473,-1.29e-4 0.208826,-0.01058 0.308559,-0.02948 6.25e-4,-1.18e-4 0.0013,1.21e-4 0.002,0 0.07665,-0.01474 0.148616,-0.03976 0.22096,-0.06444 0.02734,-0.0094 0.05697,-0.01285 0.08359,-0.02343 0.0886,-0.03553 0.17096,-0.08115 0.250815,-0.13085 0.0089,-0.0057 0.01888,-0.0098 0.02773,-0.0155 0.09087,-0.05907 0.176122,-0.127751 0.252818,-0.203116 L 46.197662,20.34057 c 0.635222,-0.623256 0.635222,-1.626778 0,-2.250034 -0.635224,-0.623257 -1.658014,-0.623257 -2.293237,0 l -7.69163,7.546731 V 1.5918172 C 36.212795,0.71041399 35.488779,0 34.590414,0 Z"
         id="path34" />
    </g>
  </g>
  <g
     id="ktorrent">
    <rect
       id="rect851"
       x="35"
       y="-7"
       width="32"
       height="32"
       ry="0.43996999"
       fill="none" />
    <g
       id="g961"
       transform="matrix(0.96549555,0,0,0.96549555,17.603051,-6.0000001)">
      <path
         style="color:#000000;fill:#00c19f;stroke-width:3.81571;-inkscape-stroke:none"
         d="m 22.983286,18.093408 c -0.635222,0.623256 -0.635222,1.626779 0,2.250035 l 10.458261,10.261241 c 0.635223,0.623257 1.658012,0.623257 2.293236,0 0.635223,-0.623256 0.635223,-1.626778 0,-2.250034 L 25.276523,18.093408 c -0.635223,-0.623256 -1.658013,-0.623256 -2.293237,0 z"
         id="path957" />
      <path
         style="color:#000000;fill:#00c19f;stroke-width:3.81571;-inkscape-stroke:none"
         d="m 34.589879,4.535e-4 c -0.898326,0 -1.620417,0.71037624 -1.620417,1.5918172 V 29.479308 c 0,0.08262 0.01156,0.161049 0.02388,0.240231 0.0032,0.02003 0.002,0.04052 0.0061,0.06055 0.0181,0.09226 0.04827,0.179833 0.08163,0.26563 0.0043,0.01021 0.0058,0.02117 0.01,0.03137 0.164064,0.397274 0.484874,0.714004 0.889813,0.874978 0.01387,0.0057 0.02773,0.0087 0.0418,0.01361 0.08436,0.03099 0.170343,0.05726 0.260792,0.07423 0.10212,0.01965 0.204935,0.02948 0.308558,0.02948 0.105473,-1.29e-4 0.208826,-0.01058 0.308559,-0.02948 6.25e-4,-1.18e-4 0.0013,1.21e-4 0.002,0 0.07665,-0.01474 0.148616,-0.03976 0.22096,-0.06444 0.02734,-0.0094 0.05697,-0.01285 0.08359,-0.02343 0.0886,-0.03553 0.17096,-0.08115 0.250815,-0.13085 0.0089,-0.0057 0.01888,-0.0098 0.02773,-0.0155 0.09087,-0.05907 0.176122,-0.127751 0.252818,-0.203116 L 46.197662,20.34057 c 0.635222,-0.623256 0.635222,-1.626778 0,-2.250034 -0.635224,-0.623257 -1.658014,-0.623257 -2.293237,0 l -7.69163,7.546731 V 1.5918172 C 36.212795,0.71041399 35.488779,0 34.590414,0 Z"
         id="path959" />
    </g>
  </g>
</svg>
