<?xml version="1.0" encoding="UTF-8" standalone="no"?>
<svg
   id="svg7384"
   width="22"
   height="22"
   version="1.1"
   style="enable-background:new"
   sodipodi:docname="mail.svg"
   inkscape:version="1.1.1 (3bf5ae0d25, 2021-09-20)"
   xmlns:inkscape="http://www.inkscape.org/namespaces/inkscape"
   xmlns:sodipodi="http://sodipodi.sourceforge.net/DTD/sodipodi-0.dtd"
   xmlns="http://www.w3.org/2000/svg"
   xmlns:svg="http://www.w3.org/2000/svg">
  <sodipodi:namedview
     id="namedview18"
     pagecolor="#ffffff"
     bordercolor="#999999"
     borderopacity="1"
     inkscape:pageshadow="0"
     inkscape:pageopacity="0"
     inkscape:pagecheckerboard="0"
     showgrid="true"
     inkscape:zoom="8"
     inkscape:cx="6.3125"
     inkscape:cy="-25.4375"
     inkscape:window-width="1920"
     inkscape:window-height="1002"
     inkscape:window-x="0"
     inkscape:window-y="0"
     inkscape:window-maximized="1"
     inkscape:current-layer="svg7384"
     inkscape:snap-bbox="true"
     inkscape:bbox-nodes="true"
     inkscape:snap-bbox-edge-midpoints="true"
     inkscape:snap-smooth-nodes="true">
    <inkscape:grid
       type="xygrid"
       id="grid1106" />
  </sodipodi:namedview>
  <defs
     id="defs7386">
    <style
       id="current-color-scheme"
       type="text/css">
   .ColorScheme-Text { color:#333333; } .ColorScheme-Highlight { color:#5294e2; } .ColorScheme-ButtonBackground { color:#333333; }
  </style>
    <linearGradient
       id="linearGradient5606"
       inkscape:swatch="solid">
      <stop
         id="stop5608"
         offset="0"
         style="stop-color:#000000;stop-opacity:1" />
    </linearGradient>
  </defs>
  <g
     id="mail-unread-new">
    <path
       id="path1108"
       d="m 0,-21.999674 h 22 v 22 H 0 Z"
       style="opacity:0;fill:#2b0000;fill-opacity:0.403922;fill-rule:nonzero;stroke:none;stroke-width:1;stroke-linecap:round;stroke-linejoin:round;stroke-miterlimit:4;stroke-dasharray:none;stroke-dashoffset:0;stroke-opacity:1" />
    <path
       id="path1110"
       style="fill:#ff9b00;fill-opacity:1;fill-rule:evenodd;stroke-width:2.71768;stroke-linecap:round;stroke-linejoin:round;paint-order:stroke fill markers"
       d="M 4.9589844 -17 C 3.8702714 -16.97808 3 -16.096282 3 -15.001953 L 3 -7 C 3 -5.8918196 3.892 -5 5 -5 L 16 -5 A 3 3 0 0 1 13 -8 A 3 3 0 0 1 16 -11 A 3 3 0 0 1 19 -8 L 19 -15.001953 C 19 -16.096282 18.129729 -16.978079 17.041016 -17 L 4.9589844 -17 z " />
    <path
       id="path1112"
       style="fill:#ffaf32;fill-opacity:1;fill-rule:evenodd;stroke-width:2.71768;stroke-linecap:round;stroke-linejoin:round;paint-order:stroke fill markers"
       d="M 18.458984 -16.371094 L 3.6660156 -5.5097656 C 4.0195976 -5.19312 4.485855 -5 5 -5 L 16 -5 A 3 3 0 0 1 13 -8 A 3 3 0 0 1 16 -11 A 3 3 0 0 1 19 -8 L 19 -15.001953 C 19 -15.533131 18.794416 -16.013642 18.458984 -16.371094 z " />
    <path
       id="path1114"
       style="fill:#ffcd00;fill-opacity:1;fill-rule:evenodd;stroke-width:2.71768;stroke-linecap:round;stroke-linejoin:round;paint-order:stroke fill markers"
       d="M 3.5410156 -16.371094 C 3.2055846 -16.013642 3 -15.533131 3 -15.001953 L 3 -7 C 3 -5.8918196 3.892 -5 5 -5 L 16 -5 A 3 3 0 0 1 13 -8 A 3 3 0 0 1 13.265625 -9.2304688 L 3.5410156 -16.371094 z " />
    <path
       id="path7"
       class="ColorScheme-Highlight"
       d="m 16,-10 a 2,2 0 0 0 -2,2 2,2 0 0 0 2,2 2,2 0 0 0 2,-2 2,2 0 0 0 -2,-2 z"
       style="fill:currentColor;fill-opacity:1" />
  </g>
  <g
     id="mail-unread"
     style="enable-background:new"
     transform="translate(-1.1e-4)">
    <path
       id="rect4138-6"
       d="m 1.1e-4,0 h 22 v 22 h -22 z"
       style="opacity:0;fill:#2b0000;fill-opacity:0.403922;fill-rule:nonzero;stroke:none;stroke-width:1;stroke-linecap:round;stroke-linejoin:round;stroke-miterlimit:4;stroke-dasharray:none;stroke-dashoffset:0;stroke-opacity:1" />
    <g
       id="g9503"
       transform="matrix(1,0,0,1.0001628,31.771484,-0.00276751)">
      <path
         id="path9148"
         style="fill:#ff9b00;fill-opacity:1;fill-rule:evenodd;stroke-width:2.71746;stroke-linecap:round;stroke-linejoin:round;paint-order:stroke fill markers"
         d="M -26.8125,5.0019531 C -27.901213,5.0238701 -28.771484,5.90585 -28.771484,7 v 8 c 0,1.108 0.892,2 2,2 h 12 c 1.108,0 2,-0.892 2,-2 V 7 c 0,-1.09415 -0.870272,-1.9761299 -1.958985,-1.9980469 z" />
      <path
         id="path9150"
         style="fill:#ffaf32;fill-opacity:1;fill-rule:evenodd;stroke-width:2.71746;stroke-linecap:round;stroke-linejoin:round;paint-order:stroke fill markers"
         d="M -13.3125,5.6308594 -28.105469,16.490234 C -27.751887,16.806828 -27.285629,17 -26.771484,17 h 12 c 1.108,0 2,-0.892 2,-2 V 7 c 0,-0.5310907 -0.205584,-1.0117471 -0.541016,-1.3691406 z" />
      <path
         id="path9152"
         style="fill:#ffcd00;fill-opacity:1;fill-rule:evenodd;stroke-width:2.71746;stroke-linecap:round;stroke-linejoin:round;paint-order:stroke fill markers"
         d="M -28.230469,5.6308594 C -28.5659,5.9882529 -28.771484,6.4689093 -28.771484,7 v 8 c 0,1.108 0.892,2 2,2 h 12 c 0.514144,0 0.980403,-0.193172 1.333984,-0.509766 z" />
    </g>
  </g>
  <g
     id="mail-mark-unread-new"
     transform="translate(0,-22)">
    <path
       id="path2026"
       d="m 0,-21.999674 h 22 v 22 H 0 Z"
       style="opacity:0;fill:#2b0000;fill-opacity:0.403922;fill-rule:nonzero;stroke:none;stroke-width:1;stroke-linecap:round;stroke-linejoin:round;stroke-miterlimit:4;stroke-dasharray:none;stroke-dashoffset:0;stroke-opacity:1" />
    <path
       id="path2028"
       style="fill:#ff9b00;fill-opacity:1;fill-rule:evenodd;stroke-width:2.71768;stroke-linecap:round;stroke-linejoin:round;paint-order:stroke fill markers"
       d="M 4.9589844,-17 C 3.8702714,-16.97808 3,-16.096282 3,-15.001953 V -7 c 0,1.1081804 0.892,2 2,2 h 11 a 3,3 0 0 1 -3,-3 3,3 0 0 1 3,-3 3,3 0 0 1 3,3 v -7.001953 C 19,-16.096282 18.129729,-16.978079 17.041016,-17 Z" />
    <path
       id="path2030"
       style="fill:#ffaf32;fill-opacity:1;fill-rule:evenodd;stroke-width:2.71768;stroke-linecap:round;stroke-linejoin:round;paint-order:stroke fill markers"
       d="M 18.458984,-16.371094 3.6660156,-5.5097656 C 4.0195976,-5.19312 4.485855,-5 5,-5 h 11 a 3,3 0 0 1 -3,-3 3,3 0 0 1 3,-3 3,3 0 0 1 3,3 v -7.001953 c 0,-0.531178 -0.205584,-1.011689 -0.541016,-1.369141 z" />
    <path
       id="path2032"
       style="fill:#ffcd00;fill-opacity:1;fill-rule:evenodd;stroke-width:2.71768;stroke-linecap:round;stroke-linejoin:round;paint-order:stroke fill markers"
       d="M 3.5410156,-16.371094 C 3.2055846,-16.013642 3,-15.533131 3,-15.001953 V -7 c 0,1.1081804 0.892,2 2,2 h 11 a 3,3 0 0 1 -3,-3 3,3 0 0 1 0.265625,-1.2304688 z" />
    <path
       id="path2034"
       class="ColorScheme-Highlight"
       d="m 16,-10 a 2,2 0 0 0 -2,2 2,2 0 0 0 2,2 2,2 0 0 0 2,-2 2,2 0 0 0 -2,-2 z"
       style="fill:currentColor;fill-opacity:1" />
  </g>
</svg>
