<?xml version="1.0" encoding="UTF-8" standalone="no"?>
<svg
   width="22"
   height="22"
   version="1.1"
   id="svg21"
   sodipodi:docname="pamac.svg"
   inkscape:version="1.1.2 (0a00cf5339, 2022-02-04, custom)"
   xmlns:inkscape="http://www.inkscape.org/namespaces/inkscape"
   xmlns:sodipodi="http://sodipodi.sourceforge.net/DTD/sodipodi-0.dtd"
   xmlns="http://www.w3.org/2000/svg"
   xmlns:svg="http://www.w3.org/2000/svg">
  <sodipodi:namedview
     id="namedview23"
     pagecolor="#c8c8c8"
     bordercolor="#666666"
     borderopacity="1.0"
     inkscape:pageshadow="2"
     inkscape:pageopacity="0"
     inkscape:pagecheckerboard="0"
     showgrid="true"
     inkscape:snap-bbox="true"
     inkscape:bbox-nodes="true"
     inkscape:snap-bbox-edge-midpoints="true"
     inkscape:snap-nodes="false"
     inkscape:zoom="8.0000001"
     inkscape:cx="23.0625"
     inkscape:cy="27.9375"
     inkscape:window-width="1920"
     inkscape:window-height="1001"
     inkscape:window-x="0"
     inkscape:window-y="0"
     inkscape:window-maximized="1"
     inkscape:current-layer="svg21"
     inkscape:object-paths="true"
     inkscape:snap-intersection-paths="true">
    <inkscape:grid
       type="xygrid"
       id="grid1777" />
  </sodipodi:namedview>
  <defs
     id="defs3">
    <style
       id="current-color-scheme"
       type="text/css">.ColorScheme-Text{color:#dfdfdf;}.ColorScheme-Highlight{color:#5294e2;}</style>
  </defs>
  <defs
     id="defs7">
    <style
       type="text/css"
       id="style5" />
  </defs>
  <g
     id="22-22-pamac-tray-no-update">
    <rect
       width="22"
       height="22"
       opacity="0"
       id="rect9"
       x="0"
       y="0" />
    <g
       id="g8446"
       transform="translate(22)">
      <path
         style="color:#000000;fill:#b0dffd;stroke-width:2;stroke-linecap:round;-inkscape-stroke:none"
         d="M -4.7690839,5.5357157 -10.399917,3.1225138 c -0.383202,-0.1642295 -0.816958,-0.1642295 -1.20016,0 l -5.630785,2.4132019 c -0.623967,0.2674131 -0.995679,0.9154484 -0.911469,1.5890653 l 0.583591,4.668724 c 0.197618,1.580984 0.988423,3.027821 2.212403,4.047852 l 3.37115,2.809228 c 0.56495,0.470791 1.38543,0.470791 1.95038,0 l 3.3711311,-2.809228 c 1.223961,-1.020031 2.014833,-2.466868 2.212385,-4.047852 l 0.583609,-4.668724 c 0.08426,-0.6736169 -0.28752,-1.3216522 -0.911402,-1.5890653 z"
         id="path860" />
      <path
         style="color:#000000;fill:#36aefa;stroke-linecap:round;-inkscape-stroke:none"
         d="M -11.994141,2.203125 -17.625,4.6171875 c -1.029447,0.4411892 -1.6487,1.5194924 -1.509766,2.6308594 l 0.583985,4.6699221 c 0.229028,1.832274 1.145945,3.509261 2.564453,4.691406 l 3.371094,2.808594 c 0.930749,0.775624 2.299719,0.775624 3.2304684,0 l 3.3710937,-2.808594 c 1.4184721,-1.182134 2.3354941,-2.859075 2.5644531,-4.691406 L -2.8652344,7.2480469 C -2.7262055,6.1365796 -3.3456511,5.0583949 -4.375,4.6171875 L -10.005859,2.203125 c -0.634334,-0.2718572 -1.353948,-0.2718572 -1.988282,0 z m 0.78711,1.8378906 c 0.13207,-0.056601 0.281992,-0.056601 0.414062,0 l 5.6308596,2.4140625 C -4.9436955,6.5486963 -4.8201185,6.7642348 -4.8496094,7 l -0.5839843,4.669922 c -0.1661446,1.329634 -0.8299276,2.544417 -1.859375,3.402344 l -3.3710943,2.810546 c -0.199149,0.165958 -0.472725,0.165958 -0.671875,0 l -3.371093,-2.810546 c -1.02945,-0.857915 -1.693168,-2.072654 -1.859375,-3.402344 L -17.150391,7 c -0.02949,-0.2358655 0.09401,-0.4512854 0.3125,-0.5449219 z"
         id="path862" />
      <g
         id="g8444"
         transform="translate(18,-4.4999998)">
        <rect
           style="fill:#36aefa;fill-opacity:1;fill-rule:evenodd;stroke:none;stroke-width:2.58199;stroke-linecap:round;stroke-linejoin:round;stroke-miterlimit:4;stroke-dasharray:none;stroke-opacity:1;paint-order:stroke fill markers"
           id="rect8438"
           width="5"
           height="2"
           x="-18.5"
           y="-30"
           ry="1"
           transform="rotate(-90)" />
        <rect
           style="fill:#36aefa;fill-opacity:1;fill-rule:evenodd;stroke:none;stroke-width:2.58199;stroke-linecap:round;stroke-linejoin:round;stroke-miterlimit:4;stroke-dasharray:none;stroke-opacity:1;paint-order:stroke fill markers"
           id="rect8440"
           width="5"
           height="2"
           x="-33.346218"
           y="-12.667261"
           ry="1"
           transform="rotate(-45)" />
        <rect
           style="fill:#36aefa;fill-opacity:1;fill-rule:evenodd;stroke:none;stroke-width:2.58199;stroke-linecap:round;stroke-linejoin:round;stroke-miterlimit:4;stroke-dasharray:none;stroke-opacity:1;paint-order:stroke fill markers"
           id="rect8442"
           width="5"
           height="2"
           x="7.6659756"
           y="28.344931"
           ry="1"
           transform="matrix(-0.70710678,-0.70710678,-0.70710678,0.70710678,0,0)" />
      </g>
    </g>
  </g>
  <g
     id="22-22-pamac-tray-update">
    <rect
       width="22"
       height="22"
       opacity="0"
       id="rect8518"
       x="35"
       y="0" />
    <path
       id="path10157"
       style="color:#000000;fill:#b0dffd;stroke-width:2;stroke-linecap:round;-inkscape-stroke:none"
       d="M 46 3 C 45.795761 3 45.591992 3.0409321 45.400391 3.1230469 L 39.769531 5.5351562 C 39.145564 5.8025693 38.773212 6.4513831 38.857422 7.125 L 39.441406 11.792969 C 39.639024 13.373953 40.430317 14.821766 41.654297 15.841797 L 45.025391 18.650391 C 45.590341 19.121182 46.409659 19.121182 46.974609 18.650391 L 47.046875 18.591797 A 4 4 0 0 1 47 18 A 4 4 0 0 1 51 14 A 4 4 0 0 1 51.806641 14.082031 C 52.199193 13.380642 52.457165 12.604693 52.558594 11.792969 L 53.142578 7.125 C 53.226838 6.4513831 52.854351 5.8025694 52.230469 5.5351562 L 46.599609 3.1230469 C 46.408008 3.0409321 46.204239 3 46 3 z " />
    <path
       id="path10159"
       style="color:#000000;fill:#36aefa;stroke-linecap:round;-inkscape-stroke:none"
       d="M 46 2 C 45.661513 2 45.323026 2.0671964 45.005859 2.203125 L 39.375 4.6171875 C 38.345553 5.0583767 37.7263 6.1366799 37.865234 7.2480469 L 38.449219 11.917969 C 38.678247 13.750243 39.595164 15.42723 41.013672 16.609375 L 44.384766 19.417969 C 45.228693 20.121241 46.432608 20.185349 47.34375 19.613281 A 4 4 0 0 1 47 18 A 4 4 0 0 1 47.078125 17.265625 L 46.335938 17.882812 C 46.136789 18.04877 45.863212 18.048771 45.664062 17.882812 L 42.292969 15.072266 C 41.263519 14.214351 40.599801 12.999612 40.433594 11.669922 L 39.849609 7 C 39.820119 6.7641345 39.943619 6.5487146 40.162109 6.4550781 L 45.792969 4.0410156 C 45.925039 3.9844146 46.074961 3.9844146 46.207031 4.0410156 L 51.837891 6.4550781 C 52.056304 6.5486963 52.179882 6.7642348 52.150391 7 L 51.566406 11.669922 C 51.459693 12.523935 51.144444 13.328309 50.662109 14.023438 A 4 4 0 0 1 51 14 A 4 4 0 0 1 52.763672 14.412109 C 53.170405 13.641355 53.440815 12.798018 53.550781 11.917969 L 54.134766 7.2480469 C 54.273795 6.1365796 53.654349 5.0583949 52.625 4.6171875 L 46.994141 2.203125 C 46.676974 2.0671964 46.338487 2 46 2 z " />
    <rect
       style="fill:#36aefa;fill-opacity:1;fill-rule:evenodd;stroke:none;stroke-width:2.58199;stroke-linecap:round;stroke-linejoin:round;stroke-miterlimit:4;stroke-dasharray:none;stroke-opacity:1;paint-order:stroke fill markers"
       id="rect8522"
       width="5"
       height="2"
       x="-14"
       y="45"
       ry="1"
       transform="rotate(-90)" />
    <rect
       style="fill:#36aefa;fill-opacity:1;fill-rule:evenodd;stroke:none;stroke-width:2.58199;stroke-linecap:round;stroke-linejoin:round;stroke-miterlimit:4;stroke-dasharray:none;stroke-opacity:1;paint-order:stroke fill markers"
       id="rect8524"
       width="5"
       height="2"
       x="22.868771"
       y="37.183765"
       ry="1"
       transform="rotate(-45)" />
    <rect
       style="fill:#36aefa;fill-opacity:1;fill-rule:evenodd;stroke:none;stroke-width:2.58199;stroke-linecap:round;stroke-linejoin:round;stroke-miterlimit:4;stroke-dasharray:none;stroke-opacity:1;paint-order:stroke fill markers"
       id="rect8526"
       width="5"
       height="2"
       x="-42.185051"
       y="-27.870058"
       ry="1"
       transform="matrix(-0.70710678,-0.70710678,-0.70710678,0.70710678,0,0)" />
    <circle
       style="fill:#36aefa;fill-opacity:1;fill-rule:evenodd;stroke-width:3;stroke-linecap:round;stroke-linejoin:round;paint-order:stroke fill markers"
       id="circle8550"
       cx="51"
       cy="18"
       r="2" />
  </g>
  <g
     id="pamac-tray-no-update">
    <rect
       style="fill:none;fill-opacity:1;stroke:none;stroke-width:2.11786;stroke-linecap:round;stroke-linejoin:round;stroke-miterlimit:4;stroke-dasharray:none;stroke-opacity:1;paint-order:stroke fill markers;stop-color:#000000"
       id="rect1079"
       width="32"
       height="32"
       x="-5"
       y="30.050793"
       rx="0"
       ry="0" />
    <g
       id="g11499"
       transform="translate(29)">
      <path
         style="color:#000000;fill:#b0dffd;stroke-width:2.33378;stroke-linecap:round;-inkscape-stroke:none"
         d="m -8.0055436,37.235105 -9.0319184,-3.870802 c -0.614661,-0.263427 -1.310409,-0.263427 -1.92507,0 l -9.031842,3.870802 c -1.000851,0.428935 -1.59708,1.46839 -1.462006,2.548878 l 0.936087,7.488686 c 0.316981,2.535916 1.58544,4.856658 3.548717,6.492799 l 5.407363,4.506034 c 0.906186,0.755153 2.222246,0.755153 3.128431,0 l 5.407332,-4.506034 c 1.9632464,-1.636141 3.2318143,-3.956883 3.54869,-6.492799 l 0.9361152,-7.488686 c 0.1351542,-1.080488 -0.461185,-2.119943 -1.4618988,-2.548878 z"
         id="path868" />
      <path
         style="color:#000000;fill:#36aefa;stroke-width:1.16666;stroke-linecap:round;-inkscape-stroke:none"
         d="m -18.000002,32 c -0.484172,0 -0.968013,0.09716 -1.421864,0.291665 l -9.032485,3.87139 c -1.474,0.631712 -2.359073,2.175278 -2.160141,3.766574 l 0.936516,7.487575 c 0.353634,2.829144 1.769988,5.418452 3.960258,7.243762 l 5.407186,4.507128 c 1.333035,1.11086 3.288025,1.11086 4.62106,0 l 5.407186,-4.507128 c 2.1902195,-1.825296 3.6067336,-4.414552 3.9602578,-7.243762 l 0.9365166,-7.487575 c 0.1990637,-1.591413 -0.6862924,-3.134841 -2.1601403,-3.766574 l -9.0324851,-3.87139 C -17.031988,32.097156 -17.515829,32 -18.000002,32 Z m -0.503577,2.435855 c 0.321617,-0.137837 0.685537,-0.137837 1.007155,0 l 9.0302059,3.87139 c 0.5275776,0.226135 0.8368638,0.763436 0.7656194,1.332998 l -0.9365166,7.487575 c -0.2802261,2.242617 -1.4014017,4.295163 -3.1376727,5.742145 l -5.407186,4.50485 c -0.479334,0.399445 -1.156722,0.399445 -1.636056,0 l -5.407186,-4.50485 c -1.736281,-1.446968 -2.857345,-3.499463 -3.137673,-5.742145 l -0.936516,-7.487575 c -0.07121,-0.569679 0.23792,-1.106841 0.765619,-1.332998 z"
         id="path870" />
      <g
         id="g11492"
         transform="translate(19,-1.9999994)">
        <rect
           style="fill:#36aefa;fill-opacity:1;fill-rule:evenodd;stroke:none;stroke-width:3.82971;stroke-linecap:round;stroke-linejoin:round;stroke-miterlimit:4;stroke-dasharray:none;stroke-opacity:1;paint-order:stroke fill markers"
           id="rect6778"
           width="11"
           height="2"
           x="-53"
           y="-38"
           ry="1"
           transform="rotate(-90)" />
        <rect
           style="fill:#36aefa;fill-opacity:1;fill-rule:evenodd;stroke:none;stroke-width:3.26599;stroke-linecap:round;stroke-linejoin:round;stroke-miterlimit:4;stroke-dasharray:none;stroke-opacity:1;paint-order:stroke fill markers"
           id="rect11386"
           width="8"
           height="2"
           x="-63.569828"
           y="3.2426407"
           ry="1"
           transform="rotate(-45)" />
        <rect
           style="fill:#36aefa;fill-opacity:1;fill-rule:evenodd;stroke:none;stroke-width:3.26599;stroke-linecap:round;stroke-linejoin:round;stroke-miterlimit:4;stroke-dasharray:none;stroke-opacity:1;paint-order:stroke fill markers"
           id="rect11487"
           width="8"
           height="2"
           x="-11.243927"
           y="55.568542"
           ry="1"
           transform="matrix(-0.70710678,-0.70710678,-0.70710678,0.70710678,0,0)" />
      </g>
    </g>
  </g>
  <rect
     style="fill:none;fill-opacity:1;stroke:none;stroke-width:2.11786;stroke-linecap:round;stroke-linejoin:round;stroke-miterlimit:4;stroke-dasharray:none;stroke-opacity:1;paint-order:stroke fill markers;stop-color:#000000"
     id="rect11598"
     width="32"
     height="32"
     x="65"
     y="30.050793"
     rx="0"
     ry="0" />
  <g
     id="pamac-tray-update">
    <rect
       style="fill:none;fill-opacity:1;stroke:none;stroke-width:2.11786;stroke-linecap:round;stroke-linejoin:round;stroke-miterlimit:4;stroke-dasharray:none;stroke-opacity:1;paint-order:stroke fill markers;stop-color:#000000"
       id="rect3729"
       width="32"
       height="32"
       x="35.000004"
       y="30.050793"
       rx="0"
       ry="0" />
    <g
       id="g12953"
       transform="translate(-30.000008)">
      <path
         id="path11769"
         style="color:#000000;fill:#b0dffd;stroke-width:2.3338;stroke-linecap:round;-inkscape-stroke:none"
         d="m 80.999998,33.166665 c -0.327604,0 -0.654255,0.06652 -0.961587,0.198242 l -9.032538,3.869135 c -1.000857,0.428937 -1.597964,1.469306 -1.462889,2.549801 l 0.936522,7.489897 c 0.316983,2.535931 1.584557,4.855702 3.547847,6.491853 l 5.409496,4.507154 c 0.906191,0.755158 2.220107,0.755158 3.126298,0 l 0.05241,-0.0433 a 6.4166571,6.4166571 0 0 1 -0.448891,-2.312821 6.4166571,6.4166571 0 0 1 6.416657,-6.416657 6.4166571,6.4166571 0 0 1 2.235349,0.40332 c 0.348305,-0.83467 0.587837,-1.717351 0.701821,-2.629554 l 0.936522,-7.489897 c 0.135156,-1.080495 -0.462169,-2.120864 -1.462888,-2.549801 L 81.961588,33.364902 C 81.654256,33.233188 81.327605,33.16666 81.000001,33.16666 Z" />
      <path
         id="path11746"
         style="color:#000000;fill:#36aefa;stroke-width:1.16666;stroke-linecap:round;-inkscape-stroke:none"
         d="m 80.999998,32 c -0.484175,0 -0.968019,0.09716 -1.421873,0.291666 l -9.032539,3.871413 c -1.474008,0.631717 -2.359085,2.175291 -2.160152,3.766597 l 0.936521,7.487619 c 0.353636,2.82916 1.769999,5.418483 3.960282,7.243804 l 5.407217,4.507154 c 1.276952,1.064125 3.12293,1.106734 4.44791,0.132163 a 6.4166571,6.4166571 0 0 1 -0.868162,-2.30143 l -0.451171,0.375976 c -0.479337,0.399448 -1.156729,0.399448 -1.636066,0 l -5.407219,-4.504876 c -1.736291,-1.446977 -2.85736,-3.499484 -3.13769,-5.742179 l -0.936522,-7.487619 c -0.07121,-0.569683 0.237922,-1.106848 0.765624,-1.333006 l 9.03026,-3.871413 c 0.321619,-0.137838 0.685541,-0.137838 1.007161,0 l 9.030259,3.871413 c 0.527581,0.226136 0.836869,0.76344 0.765624,1.333006 l -0.936522,7.487619 c -0.10731,0.858752 -0.340073,1.688087 -0.681315,2.46777 a 6.4166571,6.4166571 0 0 1 2.189776,0.811197 c 0.401544,-0.947472 0.676944,-1.951645 0.80664,-2.989579 l 0.936522,-7.487619 C 93.813627,38.338254 92.928266,36.794817 91.45441,36.163079 L 82.421871,32.291666 C 81.968017,32.097156 81.484173,32 80.999998,32 Z" />
      <rect
         style="fill:#36aefa;fill-rule:evenodd;stroke-width:3.82971;stroke-linecap:round;stroke-linejoin:round;paint-order:stroke fill markers;fill-opacity:1"
         id="rect11602"
         width="11"
         height="2"
         x="-51"
         y="80"
         ry="1"
         transform="rotate(-90)" />
      <rect
         style="fill:#36aefa;fill-rule:evenodd;stroke-width:3.26599;stroke-linecap:round;stroke-linejoin:round;paint-order:stroke fill markers;fill-opacity:1"
         id="rect11604"
         width="8"
         height="2"
         x="21.282986"
         y="85.267029"
         ry="1"
         transform="rotate(-45)" />
      <rect
         style="fill:#36aefa;fill-rule:evenodd;stroke-width:3.26599;stroke-linecap:round;stroke-linejoin:round;paint-order:stroke fill markers;fill-opacity:1"
         id="rect11606"
         width="8"
         height="2"
         x="-93.268311"
         y="-29.284271"
         ry="1"
         transform="matrix(-0.70710678,-0.70710678,-0.70710678,0.70710678,0,0)" />
      <circle
         style="fill:#36aefa;fill-opacity:1;fill-rule:evenodd;stroke:none;stroke-width:4.8;stroke-linecap:round;stroke-linejoin:round;paint-order:stroke fill markers"
         id="circle11623"
         cx="89"
         cy="56"
         r="4" />
    </g>
  </g>
</svg>
