<?xml version="1.0" encoding="UTF-8" standalone="no"?>
<svg
   width="22"
   height="22"
   version="1.1"
   id="svg21"
   sodipodi:docname="pamac.svg"
   inkscape:version="1.1.2 (0a00cf5339, 2022-02-04, custom)"
   xmlns:inkscape="http://www.inkscape.org/namespaces/inkscape"
   xmlns:sodipodi="http://sodipodi.sourceforge.net/DTD/sodipodi-0.dtd"
   xmlns="http://www.w3.org/2000/svg"
   xmlns:svg="http://www.w3.org/2000/svg">
  <sodipodi:namedview
     id="namedview23"
     pagecolor="#c8c8c8"
     bordercolor="#666666"
     borderopacity="1.0"
     inkscape:pageshadow="2"
     inkscape:pageopacity="0"
     inkscape:pagecheckerboard="0"
     showgrid="true"
     inkscape:snap-bbox="true"
     inkscape:bbox-nodes="true"
     inkscape:snap-bbox-edge-midpoints="true"
     inkscape:snap-nodes="false"
     inkscape:zoom="11.313709"
     inkscape:cx="18.42897"
     inkscape:cy="50.51394"
     inkscape:window-width="1920"
     inkscape:window-height="1001"
     inkscape:window-x="0"
     inkscape:window-y="0"
     inkscape:window-maximized="1"
     inkscape:current-layer="svg21"
     inkscape:object-paths="true"
     inkscape:snap-intersection-paths="true">
    <inkscape:grid
       type="xygrid"
       id="grid1777" />
  </sodipodi:namedview>
  <defs
     id="defs3">
    <style
       id="current-color-scheme"
       type="text/css">.ColorScheme-Text{color:#dfdfdf;}.ColorScheme-Highlight{color:#5294e2;}</style>
  </defs>
  <defs
     id="defs7">
    <style
       type="text/css"
       id="style5" />
  </defs>
  <g
     id="22-22-pamac-tray-no-update">
    <rect
       width="22"
       height="22"
       opacity="0"
       id="rect9"
       x="0"
       y="0" />
    <g
       id="g8446"
       transform="translate(22)">
      <path
         style="color:#000000;fill:#b0dffd;stroke-width:2;stroke-linecap:round;-inkscape-stroke:none"
         d="M -4.7690839,5.5357157 -10.399917,3.1225138 c -0.383202,-0.1642295 -0.816958,-0.1642295 -1.20016,0 l -5.630785,2.4132019 c -0.623967,0.2674131 -0.995679,0.9154484 -0.911469,1.5890653 l 0.583591,4.668724 c 0.197618,1.580984 0.988423,3.027821 2.212403,4.047852 l 3.37115,2.809228 c 0.56495,0.470791 1.38543,0.470791 1.95038,0 l 3.3711311,-2.809228 c 1.223961,-1.020031 2.014833,-2.466868 2.212385,-4.047852 l 0.583609,-4.668724 c 0.08426,-0.6736169 -0.28752,-1.3216522 -0.911402,-1.5890653 z"
         id="path860" />
      <path
         style="color:#000000;fill:#36aefa;stroke-linecap:round;-inkscape-stroke:none"
         d="M -11.994141,2.203125 -17.625,4.6171875 c -1.029447,0.4411892 -1.6487,1.5194924 -1.509766,2.6308594 l 0.583985,4.6699221 c 0.229028,1.832274 1.145945,3.509261 2.564453,4.691406 l 3.371094,2.808594 c 0.930749,0.775624 2.299719,0.775624 3.2304684,0 l 3.3710937,-2.808594 c 1.4184721,-1.182134 2.3354941,-2.859075 2.5644531,-4.691406 L -2.8652344,7.2480469 C -2.7262055,6.1365796 -3.3456511,5.0583949 -4.375,4.6171875 L -10.005859,2.203125 c -0.634334,-0.2718572 -1.353948,-0.2718572 -1.988282,0 z m 0.78711,1.8378906 c 0.13207,-0.056601 0.281992,-0.056601 0.414062,0 l 5.6308596,2.4140625 C -4.9436955,6.5486963 -4.8201185,6.7642348 -4.8496094,7 l -0.5839843,4.669922 c -0.1661446,1.329634 -0.8299276,2.544417 -1.859375,3.402344 l -3.3710943,2.810546 c -0.199149,0.165958 -0.472725,0.165958 -0.671875,0 l -3.371093,-2.810546 c -1.02945,-0.857915 -1.693168,-2.072654 -1.859375,-3.402344 L -17.150391,7 c -0.02949,-0.2358655 0.09401,-0.4512854 0.3125,-0.5449219 z"
         id="path862" />
      <g
         id="g8444"
         transform="translate(18,-4.4999998)">
        <rect
           style="fill:#ffffff;fill-opacity:1;fill-rule:evenodd;stroke:none;stroke-width:2.58199;stroke-linecap:round;stroke-linejoin:round;stroke-miterlimit:4;stroke-dasharray:none;stroke-opacity:1;paint-order:stroke fill markers"
           id="rect8438"
           width="5"
           height="2"
           x="-18.5"
           y="-30"
           ry="1"
           transform="rotate(-90)" />
        <rect
           style="fill:#ffffff;fill-opacity:1;fill-rule:evenodd;stroke:none;stroke-width:2.58199;stroke-linecap:round;stroke-linejoin:round;stroke-miterlimit:4;stroke-dasharray:none;stroke-opacity:1;paint-order:stroke fill markers"
           id="rect8440"
           width="5"
           height="2"
           x="-33.346218"
           y="-12.667261"
           ry="1"
           transform="rotate(-45)" />
        <rect
           style="fill:#ffffff;fill-opacity:1;fill-rule:evenodd;stroke:none;stroke-width:2.58199;stroke-linecap:round;stroke-linejoin:round;stroke-miterlimit:4;stroke-dasharray:none;stroke-opacity:1;paint-order:stroke fill markers"
           id="rect8442"
           width="5"
           height="2"
           x="7.6659756"
           y="28.344931"
           ry="1"
           transform="matrix(-0.70710678,-0.70710678,-0.70710678,0.70710678,0,0)" />
      </g>
    </g>
  </g>
  <g
     id="22-22-pamac-tray-update">
    <rect
       width="22"
       height="22"
       opacity="0"
       id="rect8518"
       x="35"
       y="0" />
    <path
       id="path10157"
       style="color:#000000;fill:#b0dffd;stroke-width:2;stroke-linecap:round;-inkscape-stroke:none"
       d="M 46 3 C 45.795761 3 45.591992 3.0409321 45.400391 3.1230469 L 39.769531 5.5351562 C 39.145564 5.8025693 38.773212 6.4513831 38.857422 7.125 L 39.441406 11.792969 C 39.639024 13.373953 40.430317 14.821766 41.654297 15.841797 L 45.025391 18.650391 C 45.590341 19.121182 46.409659 19.121182 46.974609 18.650391 L 47.046875 18.591797 A 4 4 0 0 1 47 18 A 4 4 0 0 1 51 14 A 4 4 0 0 1 51.806641 14.082031 C 52.199193 13.380642 52.457165 12.604693 52.558594 11.792969 L 53.142578 7.125 C 53.226838 6.4513831 52.854351 5.8025694 52.230469 5.5351562 L 46.599609 3.1230469 C 46.408008 3.0409321 46.204239 3 46 3 z " />
    <path
       id="path10159"
       style="color:#000000;fill:#36aefa;stroke-linecap:round;-inkscape-stroke:none"
       d="M 46 2 C 45.661513 2 45.323026 2.0671964 45.005859 2.203125 L 39.375 4.6171875 C 38.345553 5.0583767 37.7263 6.1366799 37.865234 7.2480469 L 38.449219 11.917969 C 38.678247 13.750243 39.595164 15.42723 41.013672 16.609375 L 44.384766 19.417969 C 45.228693 20.121241 46.432608 20.185349 47.34375 19.613281 A 4 4 0 0 1 47 18 A 4 4 0 0 1 47.078125 17.265625 L 46.335938 17.882812 C 46.136789 18.04877 45.863212 18.048771 45.664062 17.882812 L 42.292969 15.072266 C 41.263519 14.214351 40.599801 12.999612 40.433594 11.669922 L 39.849609 7 C 39.820119 6.7641345 39.943619 6.5487146 40.162109 6.4550781 L 45.792969 4.0410156 C 45.925039 3.9844146 46.074961 3.9844146 46.207031 4.0410156 L 51.837891 6.4550781 C 52.056304 6.5486963 52.179882 6.7642348 52.150391 7 L 51.566406 11.669922 C 51.459693 12.523935 51.144444 13.328309 50.662109 14.023438 A 4 4 0 0 1 51 14 A 4 4 0 0 1 52.763672 14.412109 C 53.170405 13.641355 53.440815 12.798018 53.550781 11.917969 L 54.134766 7.2480469 C 54.273795 6.1365796 53.654349 5.0583949 52.625 4.6171875 L 46.994141 2.203125 C 46.676974 2.0671964 46.338487 2 46 2 z " />
    <rect
       style="fill:#ffffff;fill-opacity:1;fill-rule:evenodd;stroke:none;stroke-width:2.58199;stroke-linecap:round;stroke-linejoin:round;stroke-miterlimit:4;stroke-dasharray:none;stroke-opacity:1;paint-order:stroke fill markers"
       id="rect8522"
       width="5"
       height="2"
       x="-14"
       y="45"
       ry="1"
       transform="rotate(-90)" />
    <rect
       style="fill:#ffffff;fill-opacity:1;fill-rule:evenodd;stroke:none;stroke-width:2.58199;stroke-linecap:round;stroke-linejoin:round;stroke-miterlimit:4;stroke-dasharray:none;stroke-opacity:1;paint-order:stroke fill markers"
       id="rect8524"
       width="5"
       height="2"
       x="22.868771"
       y="37.183765"
       ry="1"
       transform="rotate(-45)" />
    <rect
       style="fill:#ffffff;fill-opacity:1;fill-rule:evenodd;stroke:none;stroke-width:2.58199;stroke-linecap:round;stroke-linejoin:round;stroke-miterlimit:4;stroke-dasharray:none;stroke-opacity:1;paint-order:stroke fill markers"
       id="rect8526"
       width="5"
       height="2"
       x="-42.185051"
       y="-27.870058"
       ry="1"
       transform="matrix(-0.70710678,-0.70710678,-0.70710678,0.70710678,0,0)" />
    <circle
       style="fill:#ffffff;fill-opacity:1;fill-rule:evenodd;stroke-width:3;stroke-linecap:round;stroke-linejoin:round;paint-order:stroke fill markers"
       id="circle8550"
       cx="51"
       cy="18"
       r="2" />
  </g>
  <g
     id="pamac-tray-no-update">
    <rect
       style="fill:none;fill-opacity:1;stroke:none;stroke-width:2.11786;stroke-linecap:round;stroke-linejoin:round;stroke-miterlimit:4;stroke-dasharray:none;stroke-opacity:1;paint-order:stroke fill markers;stop-color:#000000"
       id="rect1079"
       width="32"
       height="32"
       x="-5"
       y="30.050793"
       rx="0"
       ry="0" />
    <g
       id="g11499"
       transform="translate(29)">
      <path
         style="color:#000000;fill:#b0dffd;stroke-width:2.50047;stroke-linecap:round;-inkscape-stroke:none"
         d="m -7.2916864,36.609026 -9.6770266,-4.147277 c -0.658565,-0.282241 -1.404007,-0.282241 -2.062569,0 l -9.676945,4.147277 c -1.072336,0.459569 -1.711152,1.573269 -1.566429,2.730931 l 1.002946,8.02357 c 0.33962,2.717045 1.698682,5.203544 3.802184,6.95655 l 5.793589,4.827878 c 0.970908,0.80909 2.380968,0.80909 3.351879,0 l 5.793553,-4.827878 c 2.1034721,-1.753006 3.4626481,-4.239505 3.8021565,-6.95655 l 1.0029779,-8.02357 c 0.1448075,-1.157662 -0.4941256,-2.271362 -1.5663158,-2.730931 z"
         id="path868" />
      <path
         style="color:#000000;fill:#36aefa;stroke-width:1.24999;stroke-linecap:round;-inkscape-stroke:none"
         d="m -18.000003,31 c -0.518754,0 -1.037155,0.1041 -1.523421,0.312496 l -9.677634,4.147907 c -1.579281,0.676832 -2.527571,2.330648 -2.31443,4.035603 l 1.003407,8.022378 c 0.378891,3.031217 1.89641,5.805466 4.243121,7.761151 l 5.793395,4.82905 c 1.428249,1.190205 3.522875,1.190205 4.951124,0 l 5.7933951,-4.82905 c 2.3466568,-1.95567 3.864346,-4.729862 4.2431208,-7.761151 l 1.0034077,-8.022378 c 0.2132819,-1.705079 -0.7353111,-3.358747 -2.3144292,-4.035603 L -16.476582,31.312496 C -16.962848,31.104094 -17.481249,31 -18.000003,31 Z m -0.539545,2.609837 c 0.344587,-0.147682 0.734503,-0.147682 1.07909,0 l 9.6751935,4.147907 c 0.5652599,0.242284 0.896637,0.817962 0.8203041,1.428208 l -1.0034077,8.022378 c -0.3002415,2.402794 -1.5014986,4.601944 -3.3617809,6.15228 l -5.793398,4.826608 c -0.513572,0.427977 -1.23934,0.427977 -1.752912,0 l -5.793395,-4.826608 c -1.860297,-1.550321 -3.061432,-3.749415 -3.361784,-6.15228 l -1.003407,-8.022378 c -0.07631,-0.61037 0.254912,-1.185899 0.820305,-1.428208 z"
         id="path870" />
      <g
         id="g11492"
         transform="translate(19,-1.9999994)">
        <rect
           style="fill:#ffffff;fill-opacity:1;fill-rule:evenodd;stroke:none;stroke-width:3.82971;stroke-linecap:round;stroke-linejoin:round;stroke-miterlimit:4;stroke-dasharray:none;stroke-opacity:1;paint-order:stroke fill markers"
           id="rect6778"
           width="11"
           height="2"
           x="-53"
           y="-38"
           ry="1"
           transform="rotate(-90)" />
        <rect
           style="fill:#ffffff;fill-opacity:1;fill-rule:evenodd;stroke:none;stroke-width:3.26599;stroke-linecap:round;stroke-linejoin:round;stroke-miterlimit:4;stroke-dasharray:none;stroke-opacity:1;paint-order:stroke fill markers"
           id="rect11386"
           width="8"
           height="2"
           x="-63.569828"
           y="3.2426407"
           ry="1"
           transform="rotate(-45)" />
        <rect
           style="fill:#ffffff;fill-opacity:1;fill-rule:evenodd;stroke:none;stroke-width:3.26599;stroke-linecap:round;stroke-linejoin:round;stroke-miterlimit:4;stroke-dasharray:none;stroke-opacity:1;paint-order:stroke fill markers"
           id="rect11487"
           width="8"
           height="2"
           x="-11.243927"
           y="55.568542"
           ry="1"
           transform="matrix(-0.70710678,-0.70710678,-0.70710678,0.70710678,0,0)" />
      </g>
    </g>
  </g>
  <rect
     style="fill:none;fill-opacity:1;stroke:none;stroke-width:2.11786;stroke-linecap:round;stroke-linejoin:round;stroke-miterlimit:4;stroke-dasharray:none;stroke-opacity:1;paint-order:stroke fill markers;stop-color:#000000"
     id="rect11598"
     width="32"
     height="32"
     x="65"
     y="30.050793"
     rx="0"
     ry="0" />
  <g
     id="pamac-tray-update">
    <rect
       style="fill:none;fill-opacity:1;stroke:none;stroke-width:2.11786;stroke-linecap:round;stroke-linejoin:round;stroke-miterlimit:4;stroke-dasharray:none;stroke-opacity:1;paint-order:stroke fill markers;stop-color:#000000"
       id="rect3729"
       width="32"
       height="32"
       x="35.000004"
       y="30.050793"
       rx="0"
       ry="0" />
    <g
       id="g12953"
       transform="translate(-30.000008)">
      <path
         id="path11769"
         style="color:#000000;fill:#b0dffd;stroke-width:2.5005;stroke-linecap:round;-inkscape-stroke:none"
         d="m 80.999997,32.249996 c -0.351004,0 -0.700987,0.07127 -1.030271,0.212402 l -9.677715,4.145501 c -1.072345,0.459575 -1.712102,1.574254 -1.567379,2.731928 l 1.003416,8.024886 c 0.339623,2.717066 1.69774,5.202532 3.801261,6.95555 l 5.795888,4.829092 c 0.970917,0.809096 2.378683,0.809096 3.349603,0 l 0.05614,-0.04638 a 6.8749858,6.8749858 0 0 1 -0.480954,-2.478021 6.8749858,6.8749858 0 0 1 6.874986,-6.874987 6.8749858,6.8749858 0 0 1 2.395014,0.432128 c 0.373185,-0.894287 0.629825,-1.840017 0.751952,-2.817376 l 1.003415,-8.024886 c 0.144814,-1.157676 -0.495177,-2.272355 -1.567375,-2.73193 L 82.030265,32.462402 C 81.700981,32.32128 81.350998,32.25 80.999994,32.25 Z" />
      <path
         id="path11746"
         style="color:#000000;fill:#36aefa;stroke-width:1.24999;stroke-linecap:round;-inkscape-stroke:none"
         d="m 80.999997,31 c -0.51876,0 -1.037164,0.1041 -1.523433,0.312499 l -9.677716,4.14794 c -1.579292,0.676838 -2.527591,2.330669 -2.314447,4.035636 l 1.003416,8.022447 c 0.378894,3.031241 1.896425,5.805514 4.243154,7.761211 l 5.793446,4.829092 c 1.368162,1.140132 3.345993,1.185786 4.765615,0.141602 a 6.8749858,6.8749858 0 0 1 -0.930173,-2.465815 l -0.4834,0.402831 c -0.513575,0.42798 -1.239349,0.42798 -1.752924,0 l -5.793447,-4.82665 c -1.860312,-1.55033 -3.061455,-3.749445 -3.36181,-6.152331 l -1.003413,-8.022444 c -0.07631,-0.610373 0.254915,-1.185908 0.820311,-1.42822 l 9.67527,-4.14794 c 0.344593,-0.147682 0.734509,-0.147682 1.079102,0 l 9.675273,4.14794 c 0.565265,0.24229 0.896642,0.817971 0.820308,1.42822 l -1.003413,8.022444 c -0.11497,0.920091 -0.364365,1.808665 -0.72998,2.644038 a 6.8749858,6.8749858 0 0 1 2.346186,0.869139 c 0.430224,-1.015148 0.725298,-2.091047 0.864258,-3.203117 l 1.003413,-8.022447 c 0.213284,-1.705094 -0.735315,-3.358774 -2.314447,-4.035636 L 82.52343,31.312499 C 82.037161,31.104097 81.518757,31 80.999997,31 Z" />
      <rect
         style="fill:#ffffff;fill-rule:evenodd;stroke-width:3.82971;stroke-linecap:round;stroke-linejoin:round;paint-order:stroke fill markers"
         id="rect11602"
         width="11"
         height="2"
         x="-51"
         y="80"
         ry="1"
         transform="rotate(-90)" />
      <rect
         style="fill:#ffffff;fill-rule:evenodd;stroke-width:3.26599;stroke-linecap:round;stroke-linejoin:round;paint-order:stroke fill markers"
         id="rect11604"
         width="8"
         height="2"
         x="21.282986"
         y="85.267029"
         ry="1"
         transform="rotate(-45)" />
      <rect
         style="fill:#ffffff;fill-rule:evenodd;stroke-width:3.26599;stroke-linecap:round;stroke-linejoin:round;paint-order:stroke fill markers"
         id="rect11606"
         width="8"
         height="2"
         x="-93.268311"
         y="-29.284271"
         ry="1"
         transform="matrix(-0.70710678,-0.70710678,-0.70710678,0.70710678,0,0)" />
      <circle
         style="fill:#ffffff;fill-opacity:1;fill-rule:evenodd;stroke:none;stroke-width:5.99999;stroke-linecap:round;stroke-linejoin:round;paint-order:stroke fill markers"
         id="circle11623"
         cx="90.000015"
         cy="57"
         r="4.9999919" />
    </g>
  </g>
</svg>
