<?xml version="1.0" encoding="UTF-8" standalone="no"?>
<svg
   xmlns:dc="http://purl.org/dc/elements/1.1/"
   xmlns:cc="http://creativecommons.org/ns#"
   xmlns:rdf="http://www.w3.org/1999/02/22-rdf-syntax-ns#"
   xmlns:svg="http://www.w3.org/2000/svg"
   xmlns="http://www.w3.org/2000/svg"
   xmlns:sodipodi="http://sodipodi.sourceforge.net/DTD/sodipodi-0.dtd"
   xmlns:inkscape="http://www.inkscape.org/namespaces/inkscape"
   version="1.1"
   viewBox="0 0 32 32"
   id="svg197"
   sodipodi:docname="system.svg"
   inkscape:version="1.0.2 (e86c870879, 2021-01-15)"
   width="32"
   height="32">
  <metadata
     id="metadata201">
    <rdf:RDF>
      <cc:Work
         rdf:about="">
        <dc:format>image/svg+xml</dc:format>
        <dc:type
           rdf:resource="http://purl.org/dc/dcmitype/StillImage" />
        <dc:title />
      </cc:Work>
    </rdf:RDF>
  </metadata>
  <sodipodi:namedview
     pagecolor="#ffffff"
     bordercolor="#666666"
     borderopacity="1"
     objecttolerance="10"
     gridtolerance="10"
     guidetolerance="10"
     inkscape:pageopacity="0"
     inkscape:pageshadow="2"
     inkscape:window-width="1920"
     inkscape:window-height="935"
     id="namedview199"
     showgrid="true"
     inkscape:snap-bbox="true"
     inkscape:bbox-nodes="true"
     inkscape:snap-bbox-edge-midpoints="true"
     inkscape:zoom="5.6568542"
     inkscape:cx="-190.13337"
     inkscape:cy="42.333788"
     inkscape:window-x="0"
     inkscape:window-y="38"
     inkscape:window-maximized="1"
     inkscape:current-layer="svg197"
     inkscape:snap-nodes="true"
     inkscape:document-rotation="0"
     inkscape:object-nodes="true"
     inkscape:snap-others="false"
     inkscape:snap-smooth-nodes="true">
    <inkscape:grid
       type="xygrid"
       id="grid1026" />
  </sodipodi:namedview>
  <defs
     id="defs3">
    <style
       id="current-color-scheme"
       type="text/css">.ColorScheme-Text { color:#363636; }</style>
    <style
       type="text/css"
       id="style947" />
    <style
       type="text/css"
       id="style1010" />
  </defs>
  <g
     id="22-22-system-save-session"
     transform="translate(-53,100)">
    <path
       class="ColorScheme-Text"
       d="m 3,13.004 v 16 H 19 V 16.305 H 18.993 L 19,16.29 15.707,12.997 15.699,13.012 V 12.997 H 3 Z m 1,1.0018 h 3 v 5 h 8 v -5 h 0.29298 l 2.707,2.707 v 11.293 h -2 v -7 h -10 v 7 h -2 v -14 z m 4,0 h 3.9004 v 4 H 8 Z m -1,8.0001 h 8 v 6 H 7 Z"
       fill="currentColor"
       id="path5" />
    <path
       d="M 0,10 V 32 H 22 V 10 Z"
       fill="none"
       id="path7" />
  </g>
  <g
     id="system-save-session"
     transform="translate(-53,100)">
    <path
       class="ColorScheme-Text"
       d="M 26,4 V 28 H 50 V 10 L 44,4 Z m 1,1 h 5 v 8 H 43 V 5 h 0.58594 l 5.4141,5.4141 v 16.586 h -4 v -8 h -14 v 8 h -4 v -22 z m 6,0 h 6 v 7 h -6 z m -1,15 h 12 v 7 H 32 Z"
       fill="currentColor"
       id="path10" />
    <path
       d="M 22,0 V 32 H 54 V 0 Z"
       fill="none"
       id="path12" />
  </g>
  <g
     id="22-22-system-users"
     transform="translate(4,100.0059)">
    <path
       class="ColorScheme-Text"
       d="m 14,13 c -1.662,0 -3,1.338 -3,3 0,1.662 1.338,3 3,3 1.662,0 3,-1.338 3,-3 0,-1.662 -1.338,-3 -3,-3 z m -6,3 c -1.662,0 -3,1.338 -3,3 0,1.662 1.338,3 3,3 1.662,0 3,-1.338 3,-3 0,-1.662 -1.338,-3 -3,-3 z m 6,4 c -0.64635,0 -1.256,0.13409 -1.8184,0.36133 l 0.45508,0.91406 C 13.0645,21.11489 13.51444,21 13.99998,21 c 2.216,0 4,1.784 4,4 h -3.5 l 0.5,1 h 4 v -1 c 0,-2.77 -2.23,-5 -5,-5 z m -6,3 c -2.77,0 -5,2.23 -5,5 v 1 h 10 v -1 c 0,-2.77 -2.23,-5 -5,-5 z m 0,1 c 2.216,0 4,1.784 4,4 H 4 c 0,-2.216 1.784,-4 4,-4 z"
       fill="currentColor"
       id="path15" />
    <path
       d="M 0,10 V 32 H 22 V 10 Z"
       fill="none"
       id="path17" />
  </g>
  <g
     id="system-users"
     transform="translate(4,100.0059)">
    <path
       class="ColorScheme-Text"
       d="M 42.5,4 A 4.5,4.5 0 0 0 38,8.5 4.5,4.5 0 0 0 42.5,13 4.5,4.5 0 0 0 47,8.5 4.5,4.5 0 0 0 42.5,4 Z m 0,1 A 3.5,3.5 0 0 1 46,8.5 3.5,3.5 0 0 1 42.5,12 3.5,3.5 0 0 1 39,8.5 3.5,3.5 0 0 1 42.5,5 Z m -9,4 C 31.0147,9 29,11.0147 29,13.5 29,15.9853 31.0147,18 33.5,18 35.9853,18 38,15.9853 38,13.5 38,11.0147 35.9853,9 33.5,9 Z m 0,1 A 3.5,3.5 0 0 1 37,13.5 3.5,3.5 0 0 1 33.5,17 3.5,3.5 0 0 1 30,13.5 3.5,3.5 0 0 1 33.5,10 Z m 9,4 c -0.88285,0.003 -1.7583,0.17228 -2.5859,0.5 -0.06618,0.42368 -0.17413,0.83977 -0.32226,1.2422 0.90271,-0.48731 1.8984,-0.74142 2.9082,-0.74219 3.5899,0 6.5,3.134 6.5,7 h -8.3418 c 0.17032,0.32329 0.3255,0.65711 0.46484,1 h 8.877 v -1 c 0,-4.4183 -3.3579,-8 -7.5,-8 z m -9,5 C 29.3579,19 26,22.5817 26,27 v 1 h 15 v -1 c 0,-4.4183 -3.3579,-8 -7.5,-8 z m 0,1 c 3.5899,0 6.5,3.134 6.5,7 H 27 c 0,-3.866 2.9101,-7 6.5,-7 z"
       fill="currentColor"
       id="path20" />
    <path
       d="M 22,0 V 32 H 54 V 0 Z"
       fill="none"
       id="path22" />
  </g>
  <g
     id="22-22-system-search"
     transform="translate(-167,100.0059)">
    <path
       class="ColorScheme-Text"
       d="m 9,13 c -3.324,0 -6,2.676 -6,6 0,3.324 2.676,6 6,6 1.4812,0 2.8306,-0.53468 3.875,-1.418 l 5.418,5.418 0.70703,-0.70703 -5.418,-5.418 c 0.88329,-1.0444 1.418,-2.3938 1.418,-3.875 0,-3.324 -2.676,-6 -6,-6 z m 0,1 c 2.77,0 5,2.23 5,5 0,2.77 -2.23,5 -5,5 -2.77,0 -5,-2.23 -5,-5 0,-2.77 2.23,-5 5,-5 z"
       fill="currentColor"
       id="path25" />
    <path
       d="M 0,10 V 32 H 22 V 10 Z"
       fill="none"
       id="path27" />
  </g>
  <g
     id="system-search"
     transform="translate(-167,100.0059)">
    <path
       class="ColorScheme-Text"
       d="m 35,4 a 9,9 0 0 0 -9,9 9,9 0 0 0 9,9 9,9 0 0 0 5.9941,-2.2988 L 49.2929,28 l 0.70703,-0.70703 -8.3008,-8.3008 a 9,9 0 0 0 2.3008,-5.9922 9,9 0 0 0 -9,-9 z m 0,1 a 8,8 0 0 1 8,8 8,8 0 0 1 -8,8 8,8 0 0 1 -8,-8 8,8 0 0 1 8,-8 z"
       fill="currentColor"
       id="path30" />
    <path
       d="M 22,0 V 32 H 54 V 0 Z"
       fill="none"
       id="path32" />
  </g>
  <g
     id="system-user-list"
     transform="translate(-110,100.0059)">
    <path
       class="ColorScheme-Text"
       d="m 45,9 c -0.58947,0 -1.133,0.17457 -1.5938,0.46875 0.04318,0.46425 0.0075,0.92267 -0.008,1.3359 0.37711,-0.50585 0.9708,-0.80409 1.6018,-0.80463 1.1046,0 2,0.89543 2,2 0,1.10457 -0.89543,2 -2,2 -1.0405,-5.56e-4 -1.9068,-0.7989 -1.9922,-1.8359 -0.18434,0.41948 -0.46466,0.77032 -0.6956,1.0996 -10e-4,0.0013 -0.003,0.0026 -0.004,0.0039 0.476,1.0197 1.4888,1.7324 2.6918,1.7324 1.6612,0 2.998,-1.338 2.998,-3 0,-1.662 -1.3369,-3 -2.998,-3 z m -7,9 c 4.432,0 8,3.568 8,8 H 30 c 0,-4.432 3.568,-8 8,-8 z m 1e-5,-1 c -4.9856,0 -9,3.7166 -9,8.3333 V 27 h 18 v -1.6667 c 0,-4.6167 -4.0144,-8.3333 -9,-8.3333 z m 6.9765,-1 c -1.2619,4.88e-4 -2.3962,0.47884 -3.2754,1.2402 0.38003,0.15615 0.76608,0.33575 1.1424,0.50783 0.005,0.0025 0.009,0.0052 0.0137,0.0078 0.61531,-0.44993 1.3332,-0.75586 2.1173,-0.75586 2.2269,5e-5 4.0234,2.338 4.0234,4 h -2.7285 c 0.19616,0.3391 0.30158,0.64811 0.449,1 h 3.2815 v -1 c 0,-2.7694 -2.2402,-4.9989 -5.0215,-5 z M 37.99991,6 c 2.2092,0 4,1.7909 4,4 0,2.2091 -1.7908,4 -4,4 -2.2092,0 -4,-1.7909 -4,-4 0,-2.2091 1.7908,-4 4,-4 z m 0,-1 c -2.7614,0 -5,2.2386 -5,5 0,2.7614 2.2386,5 5,5 2.3508,0 4.3227,-1.6223 4.8571,-3.8084 0.09336,-0.38187 0.14286,-0.78094 0.14286,-1.1916 0,-2.7614 -2.2386,-5 -5,-5 z m -6.9766,11 c 1.2619,4.88e-4 2.3962,0.47884 3.2754,1.2402 -0.40446,0.16292 -0.80548,0.35541 -1.1561,0.51561 -0.61531,-0.44991 -1.3332,-0.75584 -2.1173,-0.75584 -2.2269,5e-5 -4.0234,2.338 -4.0234,4 h 2.7285 c -0.18697,0.33326 -0.31833,0.6897 -0.449,1 h -3.2815 v -1 c 0,-2.7694 2.2402,-4.9989 5.0215,-5 z M 30.99792,9 c 0.58947,0 1.133,0.17457 1.5938,0.46875 -0.04841,0.46007 -0.0093,0.92754 0.008,1.3359 -0.37711,-0.50585 -0.9708,-0.80409 -1.6018,-0.80463 -1.1046,0 -2,0.89543 -2,2 0,1.10457 0.89543,2 2,2 1.0405,-5.56e-4 1.9068,-0.7989 1.9922,-1.8359 0.18831,0.40268 0.47165,0.77011 0.6956,1.0996 10e-4,0.0013 0.003,0.0026 0.004,0.0039 -0.476,1.0197 -1.4888,1.7324 -2.6918,1.7324 -1.6612,0 -2.998,-1.338 -2.998,-3 0,-1.662 1.3369,-3 2.998,-3 z"
       fill="currentColor"
       id="path35" />
    <path
       d="M 22,0 V 32 H 54 V 0 Z"
       fill="none"
       id="path37" />
  </g>
  <g
     id="system-user-prompt"
     transform="translate(61.00009,100.00585)">
    <path
       d="M 22,0 V 32 H 54 V 0 Z"
       fill="none"
       id="path40" />
    <path
       class="ColorScheme-Text"
       d="m 37,10.75 v 1.5 h 5 v -1.5 z m -4,0 v 1.5 h 3 v -1.5 z m -6,0 v 1.5 h 5 v -1.5 z M 26,9 h 24 v 5 H 26 Z M 25,8 v 7 H 51 V 8 Z m 1,10 h 24 v 5 H 26 Z m -1,-1 v 7 h 26 v -7 z m 3.5,2 C 27.67157,19 27,19.67157 27,20.5 27,21.32843 27.67157,22 28.5,22 29.32843,22 30,21.32843 30,20.5 30,19.67157 29.32843,19 28.5,19 Z m 4,0 C 31.67157,19 31,19.67157 31,20.5 31,21.32843 31.67157,22 32.5,22 33.32843,22 34,21.32843 34,20.5 34,19.67157 33.32843,19 32.5,19 Z m 4,0 C 35.67157,19 35,19.67157 35,20.5 35,21.32843 35.67157,22 36.5,22 37.32843,22 38,21.32843 38,20.5 38,19.67157 37.32843,19 36.5,19 Z m 4,0 C 39.67157,19 39,19.67157 39,20.5 39,21.32843 39.67157,22 40.5,22 41.32843,22 42,21.32843 42,20.5 42,19.67157 41.32843,19 40.5,19 Z"
       fill="currentColor"
       id="path42" />
  </g>
  <g
     id="22-22-system-user-prompt"
     transform="matrix(0.6875,0,0,0.6875,45.875094,110.00585)">
    <path
       class="ColorScheme-Text"
       d="M 35.818,21.091 A 0.72727,0.72727 0 0 1 35.09073,21.81827 0.72727,0.72727 0 0 1 34.36346,21.091 0.72727,0.72727 0 0 1 35.09073,20.36373 0.72727,0.72727 0 0 1 35.818,21.091 Z m -2.1818,0 A 0.72727,0.72727 0 0 1 32.90893,21.81827 0.72727,0.72727 0 0 1 32.18166,21.091 0.72727,0.72727 0 0 1 32.90893,20.36373 0.72727,0.72727 0 0 1 33.6362,21.091 Z m -2.1818,0 A 0.72727,0.72727 0 0 1 30.72713,21.81827 0.72727,0.72727 0 0 1 29.99986,21.091 0.72727,0.72727 0 0 1 30.72713,20.36373 0.72727,0.72727 0 0 1 31.4544,21.091 Z m -2.1818,0 A 0.72727,0.72727 0 0 1 28.54533,21.81827 0.72727,0.72727 0 0 1 27.81806,21.091 0.72727,0.72727 0 0 1 28.54533,20.36373 0.72727,0.72727 0 0 1 29.2726,21.091 Z m 5.8182,-10.909 h 2.9091 v 1.4545 h -2.9091 z m -2.9091,0 h 1.4545 v 1.4545 h -1.4545 z m -4.3636,0 h 2.9091 v 1.4545 h -2.9091 z m -2.9091,7.2727 v 7.2727 h 26.182 v -7.2727 z m 1.4545,1.4545 h 23.273 v 4.3636 H 26.3635 Z M 24.909,7.2732 v 7.2727 H 51.091 V 7.2732 Z m 1.4545,1.4545 h 23.273 v 4.3636 h -23.273 z"
       fill="currentColor"
       id="path45" />
    <path
       d="M 22,0 V 32 H 54 V 0 Z"
       fill="none"
       id="path47" />
  </g>
  <g
     id="22-22-system-user-list"
     transform="matrix(0.6875,0,0,0.6875,-125.125,110.0059)">
    <path
       class="ColorScheme-Text"
       d="m 44.552,10.182 c -0.37453,0 -0.72044,0.10364 -1.0284,0.26989 1.89e-4,0.0019 -0.09527,0.05843 -0.09498,0.06047 0.11476,1.4527 -0.24945,2.3769 -0.66509,3.0986 0.39606,0.5635 1.0484,0.93468 1.7885,0.93468 1.0258,0 1.8861,-0.70799 2.1193,-1.6619 0.04073,-0.16664 0.06255,-0.3407 0.06255,-0.51989 -1.4e-5,-1.205 -0.97684,-2.1818 -2.1818,-2.1818 z m -13.098,0 c 0.37453,0 0.72044,0.10364 1.0284,0.26989 -1.89e-4,0.0019 0.09527,0.05843 0.09498,0.06047 -0.11476,1.4527 0.24946,2.3769 0.66509,3.0986 -0.39606,0.5635 -1.0484,0.93468 -1.7885,0.93468 -1.0258,0 -1.8861,-0.70799 -2.1193,-1.6619 -0.04073,-0.16664 -0.06254,-0.3407 -0.06254,-0.51989 1.4e-5,-1.205 0.97684,-2.1818 2.1818,-2.1818 z m -4.4e-5,5.8182 c 1.2265,0 2.3022,0.56552 2.9602,1.4773 -0.36926,0.19574 -0.745,0.43622 -1.071,0.63066 -0.35836,-0.42266 -1.025,-0.65339 -1.8893,-0.65339 -1.3095,0 -2.1818,0.9608 -2.1818,2.9091 h 1.8182 l -0.72727,1.4545 h -2.5455 l 1e-6,-2.2102 c 1e-6,-2.093 1.622,-3.608 3.6364,-3.608 z m 13.091,1.4e-5 c -1.2265,0 -2.3022,0.56552 -2.9602,1.4773 0.36926,0.19574 0.745,0.43622 1.071,0.63066 0.35836,-0.42266 1.025,-0.65339 1.8893,-0.65339 1.3095,0 2.1818,0.99389 2.1818,2.9091 h -1.8182 l 0.72727,1.4545 h 2.5455 l 2e-6,-2.2102 c 2e-6,-2.093 -1.622,-3.608 -3.6364,-3.608 z m -6.5455,2.9091 c 2.9091,0 5.8182,1.4545 5.8182,5.8182 h -11.636 c 0,-4.3636 2.9091,-5.8182 5.8182,-5.8182 z m 0,-1.4545 c -4.2302,0 -7.2612,2.9743 -7.2698,7.2727 l -0.0029,1.4545 h 14.545 l -0.0029,-1.4545 c -0.0087,-4.3213 -3.0396,-7.2727 -7.2698,-7.2727 z m 7.5e-5,-11.636 c -2.8117,0 -5.091,2.2793 -5.091,5.0909 0,2.8116 2.2793,5.0909 5.091,5.0909 2.3936,0 4.4013,-1.6518 4.9455,-3.8777 0.09498,-0.38881 0.14547,-0.79514 0.14547,-1.2133 0,-2.8116 -2.2793,-5.0909 -5.091,-5.0909 z"
       fill="currentColor"
       id="path50" />
    <path
       d="M 22,0 V 32 H 54 V 0 Z"
       fill="none"
       id="path52" />
  </g>
  <g
     id="system-lock-screen">
    <path
       d="M 63,0 C 54.1724,0 47,7.1724 47,16 47,24.8276 54.1724,32 63,32 71.8276,32 79,24.8276 79,16 79,7.1724 71.8276,0 63,0 Z"
       opacity="0"
       id="path55" />
    <g
       id="g1395"
       transform="translate(-78,-1)">
      <path
         style="fill:#ff4e5e;fill-opacity:1;stroke:none;stroke-width:0.999433px;stroke-linecap:butt;stroke-linejoin:miter;stroke-opacity:1"
         d="m 140,6.0260585 c 0,0 0.0426,-1.2218639 -0.59122,-0.998867 C 138.77494,5.2501884 131,10.021527 131,10.021527 c 0,0 -1,0.656899 -1,1.997734 0,1.340835 0,9.98867 0,9.98867 0,0 0,1.238734 1,1.997734 1,0.759 6.38706,4.994335 7,4.994335 0.61294,0 2,0 2,0 V 17.673977 l -4,-3.085718 4,-3.92238 z"
         id="path1389" />
      <path
         style="fill:#ff4e5e;fill-opacity:1;stroke:none;stroke-width:0.999433px;stroke-linecap:butt;stroke-linejoin:miter;stroke-opacity:1"
         d="m 142.0003,6.0260585 c 0,0 -0.0426,-1.2218639 0.59122,-0.998867 0.63384,0.2229969 8.40878,4.9943355 8.40878,4.9943355 0,0 1,0.656899 1,1.997734 0,1.340835 0,9.98867 0,9.98867 0,0 0,1.238734 -1,1.997734 -1,0.759 -6.38706,4.994335 -7,4.994335 -0.61294,0 -2,0 -2,0 V 17.673977 l 4,-3.085718 -4,-3.92238 z"
         id="path1391" />
    </g>
  </g>
  <g
     id="g983"
     transform="translate(1.5,-4)">
    <path
       id="path954"
       style="fill:#323232;fill-opacity:1;stroke-width:1.30769;stroke-linecap:round;stroke-linejoin:round;paint-order:stroke fill markers"
       d="M -33.613281,69 A 8.5,8.5 0 0 0 -42,77.5 8.5,8.5 0 0 0 -33.5,86 8.5,8.5 0 0 0 -25,77.5 8.5,8.5 0 0 0 -25.236328,75.515625 5,5 0 0 1 -30,79 5,5 0 0 1 -35,74 5,5 0 0 1 -31.511719,69.236328 8.5,8.5 0 0 0 -33.5,69 a 8.5,8.5 0 0 0 -0.113281,0 z" />
    <path
       id="path976"
       style="fill:none;stroke:#323232;stroke-width:1px;stroke-linecap:butt;stroke-linejoin:miter;stroke-opacity:1"
       d="M -30,71 -31.199219,72.800781 -33,74 -31.199219,75.199219 -30,77 -28.800781,75.199219 -27,74 -28.800781,72.800781 Z" />
  </g>
  <g
     id="g1169"
     transform="translate(23.5)">
    <circle
       style="fill:#323232;fill-opacity:1;stroke:none;stroke-width:1.30769;stroke-linecap:round;stroke-linejoin:round;stroke-opacity:1;paint-order:stroke fill markers"
       id="path1116"
       cx="-149.5"
       cy="73.5"
       r="8.5" />
    <g
       id="g1157"
       transform="translate(-0.5)">
      <rect
         style="fill:#fffffe;fill-opacity:1;stroke:none;stroke-width:1.02225;stroke-linecap:round;stroke-linejoin:round;stroke-opacity:1;paint-order:stroke fill markers"
         id="rect1074"
         width="2"
         height="4"
         x="-150"
         y="67"
         ry="1" />
      <rect
         style="fill:#fffffe;fill-opacity:1;stroke:none;stroke-width:1.02225;stroke-linecap:round;stroke-linejoin:round;stroke-opacity:1;paint-order:stroke fill markers"
         id="rect1130"
         width="2"
         height="4"
         x="-150"
         y="76"
         ry="1" />
      <rect
         style="fill:#fffffe;fill-opacity:1;stroke:none;stroke-width:1.02225;stroke-linecap:round;stroke-linejoin:round;stroke-opacity:1;paint-order:stroke fill markers"
         id="rect1136"
         width="2"
         height="4"
         x="-54.386562"
         y="150.83125"
         ry="1"
         transform="rotate(45)" />
      <rect
         style="fill:#fffffe;fill-opacity:1;stroke:none;stroke-width:1.02225;stroke-linecap:round;stroke-linejoin:round;stroke-opacity:1;paint-order:stroke fill markers"
         id="rect1138"
         width="2"
         height="4"
         x="-54.386562"
         y="159.83125"
         ry="1"
         transform="rotate(45)" />
      <rect
         style="fill:#fffffe;fill-opacity:1;stroke:none;stroke-width:1.02225;stroke-linecap:round;stroke-linejoin:round;stroke-opacity:1;paint-order:stroke fill markers"
         id="rect1140"
         width="2"
         height="4"
         x="72.499992"
         y="142.5"
         ry="1"
         transform="rotate(90)" />
      <rect
         style="fill:#fffffe;fill-opacity:1;stroke:none;stroke-width:1.02225;stroke-linecap:round;stroke-linejoin:round;stroke-opacity:1;paint-order:stroke fill markers"
         id="rect1142"
         width="2"
         height="4"
         x="72.499992"
         y="151.5"
         ry="1"
         transform="rotate(90)" />
      <rect
         style="fill:#fffffe;fill-opacity:1;stroke:none;stroke-width:1.02225;stroke-linecap:round;stroke-linejoin:round;stroke-opacity:1;paint-order:stroke fill markers"
         id="rect1145"
         width="2"
         height="4"
         x="156.33125"
         y="46.886566"
         ry="1"
         transform="rotate(135)" />
      <rect
         style="fill:#fffffe;fill-opacity:1;stroke:none;stroke-width:1.02225;stroke-linecap:round;stroke-linejoin:round;stroke-opacity:1;paint-order:stroke fill markers"
         id="rect1147"
         width="2"
         height="4"
         x="156.33125"
         y="55.886566"
         ry="1"
         transform="rotate(135)" />
    </g>
  </g>
  <g
     id="system-reboot">
    <path
       d="m -126,0 c -8.8286,0 -16,7.1714 -16,16 0,8.8286 7.1714,16 16,16 8.8275,0 16,-7.1714 16,-16 0,-8.8275 -7.1714,-16 -16,-16 z"
       opacity="0"
       id="path122" />
    <path
       id="circle1231"
       style="fill:#458aff;fill-opacity:1;stroke:none;stroke-width:1.13043;stroke-linecap:round;stroke-linejoin:round;stroke-opacity:1;paint-order:stroke fill markers"
       d="M -126.10742 3 A 13 13 0 0 0 -139 16 A 13 13 0 0 0 -126 29 A 13 13 0 0 0 -113 16 A 13 13 0 0 0 -126 3 A 13 13 0 0 0 -126.10742 3 z M -126 5 C -125.446 5 -125 5.446 -125 6 L -125 9 C -125 9.554 -125.446 10 -126 10 C -126.554 10 -127 9.554 -127 9 L -127 6 C -127 5.446 -126.554 5 -126 5 z M -131.24805 6.3808594 C -130.86131 6.3324029 -130.46752 6.5132133 -130.25977 6.8730469 L -128.75977 9.4707031 C -128.48277 9.9504812 -128.64522 10.560891 -129.125 10.837891 C -129.60478 11.114891 -130.21323 10.950481 -130.49023 10.470703 L -131.99023 7.8730469 C -132.26723 7.3932688 -132.10478 6.7848125 -131.625 6.5078125 C -131.50506 6.4385625 -131.37696 6.3970115 -131.24805 6.3808594 z M -120.75195 6.3808594 C -120.62304 6.3970115 -120.49494 6.4385625 -120.375 6.5078125 C -119.89522 6.7848125 -119.73277 7.3932688 -120.00977 7.8730469 L -121.50977 10.470703 C -121.78677 10.950481 -122.39522 11.114891 -122.875 10.837891 C -123.35478 10.560891 -123.51723 9.9504812 -123.24023 9.4707031 L -121.74023 6.8730469 C -121.53248 6.5132133 -121.13869 6.3324029 -120.75195 6.3808594 z M -134.75391 10.132812 C -134.62499 10.148966 -134.4969 10.190516 -134.37695 10.259766 L -131.7793 11.759766 C -131.29952 12.036766 -131.13511 12.645222 -131.41211 13.125 C -131.68911 13.604778 -132.29952 13.767234 -132.7793 13.490234 L -135.37695 11.990234 C -135.85673 11.713234 -136.01919 11.104778 -135.74219 10.625 C -135.53444 10.265166 -135.14065 10.084357 -134.75391 10.132812 z M -117.24609 10.132812 C -116.85935 10.084356 -116.46556 10.265166 -116.25781 10.625 C -115.98081 11.104778 -116.14327 11.713234 -116.62305 11.990234 L -119.2207 13.490234 C -119.70048 13.767234 -120.31089 13.604778 -120.58789 13.125 C -120.86489 12.645222 -120.70048 12.036766 -120.2207 11.759766 L -117.62305 10.259766 C -117.5031 10.190516 -117.37501 10.148966 -117.24609 10.132812 z M -136.25 15.25 L -133.25 15.25 C -132.696 15.25 -132.25 15.696 -132.25 16.25 C -132.25 16.804 -132.696 17.25 -133.25 17.25 L -136.25 17.25 C -136.804 17.25 -137.25 16.804 -137.25 16.25 C -137.25 15.696 -136.804 15.25 -136.25 15.25 z M -118.75 15.25 L -115.75 15.25 C -115.196 15.25 -114.75 15.696 -114.75 16.25 C -114.75 16.804 -115.196 17.25 -115.75 17.25 L -118.75 17.25 C -119.304 17.25 -119.75 16.804 -119.75 16.25 C -119.75 15.696 -119.304 15.25 -118.75 15.25 z M -132.40234 18.882812 C -132.0156 18.834356 -131.61986 19.015166 -131.41211 19.375 C -131.13511 19.854778 -131.29952 20.463234 -131.7793 20.740234 L -134.37695 22.240234 C -134.85673 22.517234 -135.46519 22.354778 -135.74219 21.875 C -136.01919 21.395222 -135.85673 20.786766 -135.37695 20.509766 L -132.7793 19.009766 C -132.65935 18.940516 -132.53126 18.898965 -132.40234 18.882812 z M -119.59766 18.882812 C -119.46874 18.898965 -119.34065 18.940516 -119.2207 19.009766 L -116.62305 20.509766 C -116.14327 20.786766 -115.98081 21.395222 -116.25781 21.875 C -116.53481 22.354778 -117.14327 22.517234 -117.62305 22.240234 L -120.2207 20.740234 C -120.70048 20.463234 -120.86489 19.854778 -120.58789 19.375 C -120.38014 19.015166 -119.9844 18.834356 -119.59766 18.882812 z M -129.50195 21.535156 C -129.37304 21.551308 -129.24494 21.592859 -129.125 21.662109 C -128.64522 21.939109 -128.48277 22.549519 -128.75977 23.029297 L -130.25977 25.626953 C -130.53677 26.106731 -131.14522 26.269186 -131.625 25.992188 C -132.10478 25.715186 -132.26723 25.106731 -131.99023 24.626953 L -130.49023 22.029297 C -130.28248 21.669463 -129.88869 21.4867 -129.50195 21.535156 z M -122.49805 21.535156 C -122.11131 21.4867 -121.71752 21.669463 -121.50977 22.029297 L -120.00977 24.626953 C -119.73277 25.106731 -119.89522 25.715188 -120.375 25.992188 C -120.85478 26.269187 -121.46323 26.106731 -121.74023 25.626953 L -123.24023 23.029297 C -123.51723 22.549519 -123.35478 21.939109 -122.875 21.662109 C -122.75506 21.592859 -122.62696 21.551308 -122.49805 21.535156 z M -126 22.5 C -125.446 22.5 -125 22.946 -125 23.5 L -125 26.5 C -125 27.054 -125.446 27.5 -126 27.5 C -126.554 27.5 -127 27.054 -127 26.5 L -127 23.5 C -127 22.946 -126.554 22.5 -126 22.5 z " />
  </g>
  <g
     id="g1343"
     transform="translate(3.5,-4)">
    <path
       id="circle1307"
       style="fill:#323232;fill-opacity:1;stroke:none;stroke-width:0.739127;stroke-linecap:round;stroke-linejoin:round;stroke-opacity:1;paint-order:stroke fill markers"
       d="M -85,69.376953 A 8.5,8.5 0 0 0 -91,77.5 8.5,8.5 0 0 0 -82.5,86 8.5,8.5 0 0 0 -74,77.5 8.5,8.5 0 0 0 -80,69.376953 V 73 c 0,1.359054 -1.140946,2.5 -2.5,2.5 -1.359054,0 -2.5,-1.140946 -2.5,-2.5 z" />
    <path
       style="color:#000000;font-style:normal;font-variant:normal;font-weight:normal;font-stretch:normal;font-size:medium;line-height:normal;font-family:sans-serif;font-variant-ligatures:normal;font-variant-position:normal;font-variant-caps:normal;font-variant-numeric:normal;font-variant-alternates:normal;font-variant-east-asian:normal;font-feature-settings:normal;font-variation-settings:normal;text-indent:0;text-align:start;text-decoration:none;text-decoration-line:none;text-decoration-style:solid;text-decoration-color:#000000;letter-spacing:normal;word-spacing:normal;text-transform:none;writing-mode:lr-tb;direction:ltr;text-orientation:mixed;dominant-baseline:auto;baseline-shift:baseline;text-anchor:start;white-space:normal;shape-padding:0;shape-margin:0;inline-size:0;clip-rule:nonzero;display:inline;overflow:visible;visibility:visible;isolation:auto;mix-blend-mode:normal;color-interpolation:sRGB;color-interpolation-filters:linearRGB;solid-color:#000000;solid-opacity:1;vector-effect:none;fill:#323232;fill-opacity:1;fill-rule:nonzero;stroke:none;stroke-width:3;stroke-linecap:round;stroke-linejoin:round;stroke-miterlimit:4;stroke-dasharray:none;stroke-dashoffset:0;stroke-opacity:1;paint-order:stroke fill markers;color-rendering:auto;image-rendering:auto;shape-rendering:auto;text-rendering:auto;enable-background:accumulate;stop-color:#000000"
       d="m -82.5,69 c 0.554,0 1,0.446 1,1 v 3 c 0,0.554 -0.446,1 -1,1 -0.554,0 -1,-0.446 -1,-1 v -3 c 0,-0.554 0.446,-1 1,-1 z"
       id="path1336" />
  </g>
  <path
     id="path1410"
     style="fill:#323232;fill-opacity:1;stroke:#323232;stroke-width:0.615385px;stroke-linecap:butt;stroke-linejoin:round;stroke-opacity:1"
     d="M 11.370782,65.307692 16.936887,73 11.370782,80.692308 h 0.615385 3.076923 L 20.629195,73 15.06309,65.307692 h -3.076923 z" />
  <g
     id="system-suspend">
    <circle
       cx="-32"
       cy="16"
       r="16"
       opacity="0"
       id="circle148" />
    <g
       id="g1218"
       transform="translate(6,33)">
      <path
         id="path1199"
         style="fill:#ffcc00;fill-opacity:1;stroke:none;stroke-width:1.13043;stroke-linecap:round;stroke-linejoin:round;stroke-opacity:1;paint-order:stroke fill markers"
         d="M -38.107422,-30 A 13,13 0 0 0 -51,-17 13,13 0 0 0 -38,-4 13,13 0 0 0 -25,-17 13,13 0 0 0 -25.384766,-20.134766 7.5,7.5 0 0 1 -32.5,-15 7.5,7.5 0 0 1 -40,-22.5 7.5,7.5 0 0 1 -34.867188,-29.615234 13,13 0 0 0 -38,-30 a 13,13 0 0 0 -0.107422,0 z" />
      <path
         id="path1208"
         style="fill:none;stroke:#ffcc00;stroke-width:2;stroke-linecap:butt;stroke-linejoin:round;stroke-opacity:1;stroke-miterlimit:4;stroke-dasharray:none"
         d="m -32,-28 -1.875,3.125 L -37,-23 -33.875,-21.125 -32,-18 -30.125,-21.125 -27,-23 l -3.125,-1.875 z" />
    </g>
  </g>
  <g
     id="system-suspend-hibernate">
    <path
       d="m -173,0 c -8.8276,0 -16,7.1724 -16,16 0,8.8276 7.1724,16 16,16 8.8276,0 16,-7.1724 16,-16 0,-8.8276 -7.1724,-16 -16,-16 z"
       opacity="0"
       id="path111" />
    <path
       id="path1565"
       style="fill:#ff4e5e;fill-opacity:1;stroke:none;stroke-width:4.32548;stroke-linecap:butt;stroke-linejoin:round;stroke-miterlimit:4;stroke-dasharray:none;stroke-opacity:1;paint-order:stroke fill markers"
       d="M -173.10742 3 A 13 13 0 0 0 -186 16 A 13 13 0 0 0 -173 29 A 13 13 0 0 0 -160 16 A 13 13 0 0 0 -173 3 A 13 13 0 0 0 -173.10742 3 z M -178 14 L -168 14 C -166.892 14 -166 14.892 -166 16 C -166 17.108 -166.892 18 -168 18 L -178 18 C -179.108 18 -180 17.108 -180 16 C -180 14.892 -179.108 14 -178 14 z " />
    <rect
       style="opacity:0.3;fill:#ff4e5e;fill-opacity:1;stroke-width:0.793733;stroke-linecap:round;stroke-opacity:0.996078;paint-order:stroke fill markers"
       id="rect1056"
       width="14"
       height="4"
       x="-180"
       y="14"
       ry="2" />
  </g>
  <g
     id="g1590"
     transform="translate(0.50000002,-1.5)">
    <path
       id="path1581"
       style="fill:#323232;fill-opacity:1;stroke:none;stroke-width:5.1;stroke-linecap:butt;stroke-linejoin:round;stroke-miterlimit:4;stroke-dasharray:none;stroke-opacity:1;paint-order:stroke fill markers"
       d="M -173.61328,66.5 A 8.5,8.5 0 0 0 -182,75 a 8.5,8.5 0 0 0 8.5,8.5 8.5,8.5 0 0 0 8.5,-8.5 8.5,8.5 0 0 0 -8.5,-8.5 8.5,8.5 0 0 0 -0.11328,0 z M -176,74 h 5 c 0.554,0 1,0.446 1,1 0,0.554 -0.446,1 -1,1 h -5 c -0.554,0 -1,-0.446 -1,-1 0,-0.554 0.446,-1 1,-1 z" />
    <rect
       style="opacity:0.3;fill:#323232;fill-opacity:1;stroke:none;stroke-width:3.24037;stroke-linecap:butt;stroke-linejoin:round;stroke-miterlimit:4;stroke-dasharray:none;stroke-opacity:1;paint-order:stroke fill markers"
       id="rect1583"
       width="7"
       height="2"
       x="-177"
       y="74"
       ry="1" />
  </g>
  <g
     id="g1609"
     transform="translate(-81,73)">
    <rect
       style="opacity:1;fill:#323232;fill-opacity:1;stroke:none;stroke-width:3.14643;stroke-linecap:butt;stroke-linejoin:round;stroke-miterlimit:4;stroke-dasharray:none;stroke-opacity:1;paint-order:stroke fill markers"
       id="rect1600"
       width="14"
       height="11"
       x="137"
       y="-2"
       ry="2" />
    <path
       id="rect1602"
       style="opacity:1;fill:#323232;fill-opacity:1;stroke:none;stroke-width:3;stroke-linecap:butt;stroke-linejoin:round;stroke-miterlimit:4;stroke-dasharray:none;stroke-opacity:1;paint-order:stroke fill markers"
       d="m 144,-8 c -2.216,0 -4,1.784 -4,4 v 5 c 0,2.216 1.784,4 4,4 2.216,0 4,-1.784 4,-4 v -5 c 0,-2.216 -1.784,-4 -4,-4 z m 0,2 c 1.108,0 2,0.8920026 2,2 v 5 c 0,1.1079974 -0.892,2 -2,2 -1.108,0 -2,-0.8920026 -2,-2 v -5 c 0,-1.1079974 0.892,-2 2,-2 z" />
  </g>
  <g
     id="system-switch-user">
    <circle
       transform="scale(1,-1)"
       cx="110"
       cy="-16"
       r="16"
       opacity="0"
       id="circle180" />
    <g
       id="g1664"
       transform="translate(-60)">
      <rect
         style="fill:#458aff;fill-opacity:1;stroke:none;stroke-width:2.73439;stroke-linecap:round;stroke-opacity:0.996078;paint-order:stroke fill markers"
         id="rect1636"
         width="24"
         height="9"
         x="158"
         y="20"
         ry="4.5" />
      <circle
         style="fill:#458aff;fill-opacity:1;stroke:none;stroke-width:4.2;stroke-linecap:round;stroke-opacity:0.996078;paint-order:stroke fill markers"
         id="circle1638"
         cx="170"
         cy="10"
         r="7" />
    </g>
  </g>
  <g
     id="g1685"
     transform="translate(12.5,8)">
    <circle
       style="opacity:1;fill:#323232;fill-opacity:1;stroke:none;stroke-width:5.4;stroke-linecap:butt;stroke-linejoin:round;stroke-miterlimit:4;stroke-dasharray:none;stroke-opacity:1;paint-order:stroke fill markers"
       id="path1679"
       cx="97.5"
       cy="61.5"
       r="4.5" />
    <rect
       style="opacity:1;fill:#323232;fill-opacity:1;stroke:none;stroke-width:5.27428;stroke-linecap:butt;stroke-linejoin:round;stroke-miterlimit:4;stroke-dasharray:none;stroke-opacity:1;paint-order:stroke fill markers"
       id="rect1681"
       width="17"
       height="6"
       x="89"
       y="68"
       ry="3" />
  </g>
  <g
     id="22-22-system-suspend">
    <path
       d="m -43,40 v 22 h 22 V 40 Z"
       fill="none"
       id="path90" />
    <g
       id="g1004"
       transform="translate(-1.5356308,-23.136092)">
      <path
         style="fill:none;fill-opacity:1;stroke:#333333;stroke-width:2;stroke-linecap:round;stroke-linejoin:round;stroke-miterlimit:4;stroke-dasharray:none;stroke-opacity:1;paint-order:stroke fill markers"
         id="path3397"
         transform="scale(-1,1)"
         sodipodi:type="arc"
         sodipodi:cx="30"
         sodipodi:cy="73.999825"
         sodipodi:rx="7.999826"
         sodipodi:ry="7.999826"
         sodipodi:start="4.9741884"
         sodipodi:end="2.6179939"
         sodipodi:open="true"
         sodipodi:arc-type="arc"
         d="m 32.070508,66.272586 a 7.999826,7.999826 0 0 1 5.929318,7.727239 7.999826,7.999826 0 0 1 -5.929319,7.727238 7.999826,7.999826 0 0 1 -8.99856,-3.727326" />
      <path
         id="path983"
         style="fill:none;stroke:#323232;stroke-width:2.00031;stroke-linecap:butt;stroke-linejoin:round;stroke-miterlimit:4;stroke-dasharray:none;stroke-opacity:1"
         d="m -25.464294,66.136168 -1.598929,2.400995 -2.400995,1.598929 2.400995,1.598929 1.598929,2.400996 1.598929,-2.400996 2.400996,-1.598929 -2.400996,-1.598929 z" />
      <path
         style="color:#000000;font-style:normal;font-variant:normal;font-weight:normal;font-stretch:normal;font-size:medium;line-height:normal;font-family:sans-serif;font-variant-ligatures:normal;font-variant-position:normal;font-variant-caps:normal;font-variant-numeric:normal;font-variant-alternates:normal;font-variant-east-asian:normal;font-feature-settings:normal;font-variation-settings:normal;text-indent:0;text-align:start;text-decoration:none;text-decoration-line:none;text-decoration-style:solid;text-decoration-color:#000000;letter-spacing:normal;word-spacing:normal;text-transform:none;writing-mode:lr-tb;direction:ltr;text-orientation:mixed;dominant-baseline:auto;baseline-shift:baseline;text-anchor:start;white-space:normal;shape-padding:0;shape-margin:0;inline-size:0;clip-rule:nonzero;display:inline;overflow:visible;visibility:visible;opacity:1;isolation:auto;mix-blend-mode:normal;color-interpolation:sRGB;color-interpolation-filters:linearRGB;solid-color:#000000;solid-opacity:1;vector-effect:none;fill:#333333;fill-opacity:1;fill-rule:nonzero;stroke:none;stroke-linecap:round;stroke-linejoin:round;stroke-miterlimit:4;stroke-dasharray:none;stroke-dashoffset:0;stroke-opacity:1;paint-order:stroke fill markers;color-rendering:auto;image-rendering:auto;shape-rendering:auto;text-rendering:auto;enable-background:accumulate;stop-color:#000000;stop-opacity:1"
         d="m 32.111328,65.333984 a 1.000175,1.000175 0 0 0 -0.460937,0.109375 1.000175,1.000175 0 0 0 -0.429688,1.347657 c 1.27122,2.46486 0.970496,5.441969 -0.769531,7.601562 -1.740027,2.159593 -4.58481,3.08694 -7.263672,2.369141 a 1.000175,1.000175 0 0 0 -1.224609,0.707031 1.000175,1.000175 0 0 0 0.707031,1.224609 c 3.438688,0.921394 7.104326,-0.27474 9.33789,-3.046875 2.233565,-2.772134 2.62202,-6.607496 0.990235,-9.771484 a 1.000175,1.000175 0 0 0 -0.886719,-0.541016 z"
         id="path995"
         transform="scale(-1,1)" />
    </g>
  </g>
  <g
     id="22-22-system-reboot">
    <path
       d="m -137,40 v 22 h 22 V 40 Z"
       fill="none"
       id="path85" />
    <g
       id="g1081"
       transform="translate(-25,-23)">
      <circle
         style="fill:none;fill-opacity:1;stroke:#323232;stroke-width:2;stroke-linejoin:round;stroke-miterlimit:4;stroke-dasharray:none;stroke-opacity:1;paint-order:stroke fill markers"
         id="path1017"
         cx="-101"
         cy="74"
         r="8" />
      <g
         id="g1069">
        <rect
           style="fill:#323232;fill-opacity:1;stroke:none;stroke-width:0.885294;stroke-linecap:round;stroke-linejoin:round;stroke-opacity:1;paint-order:stroke fill markers"
           id="rect1031"
           width="2"
           height="3"
           x="-102"
           y="68"
           ry="1" />
        <rect
           style="fill:#323232;fill-opacity:1;stroke:none;stroke-width:0.885294;stroke-linecap:round;stroke-linejoin:round;stroke-opacity:1;paint-order:stroke fill markers"
           id="rect1047"
           width="2"
           height="3"
           x="-102"
           y="77"
           ry="1" />
        <rect
           style="fill:#323232;fill-opacity:1;stroke:none;stroke-width:0.885294;stroke-linecap:round;stroke-linejoin:round;stroke-opacity:1;paint-order:stroke fill markers"
           id="rect1049"
           width="2"
           height="3"
           x="-20.091883"
           y="117.74369"
           ry="1"
           transform="rotate(45)" />
        <rect
           style="fill:#323232;fill-opacity:1;stroke:none;stroke-width:0.885294;stroke-linecap:round;stroke-linejoin:round;stroke-opacity:1;paint-order:stroke fill markers"
           id="rect1051"
           width="2"
           height="3"
           x="-20.091883"
           y="126.74369"
           ry="1"
           transform="rotate(45)" />
        <rect
           style="fill:#323232;fill-opacity:1;stroke:none;stroke-width:0.885294;stroke-linecap:round;stroke-linejoin:round;stroke-opacity:1;paint-order:stroke fill markers"
           id="rect1053"
           width="2"
           height="3"
           x="73"
           y="95"
           ry="1"
           transform="rotate(90)" />
        <rect
           style="fill:#323232;fill-opacity:1;stroke:none;stroke-width:0.885294;stroke-linecap:round;stroke-linejoin:round;stroke-opacity:1;paint-order:stroke fill markers"
           id="rect1055"
           width="2"
           height="3"
           x="73"
           y="104"
           ry="1"
           transform="rotate(90)" />
        <rect
           style="fill:#323232;fill-opacity:1;stroke:none;stroke-width:0.885294;stroke-linecap:round;stroke-linejoin:round;stroke-opacity:1;paint-order:stroke fill markers"
           id="rect1057"
           width="2"
           height="3"
           x="122.74369"
           y="13.091883"
           ry="1"
           transform="rotate(135)" />
        <rect
           style="fill:#323232;fill-opacity:1;stroke:none;stroke-width:0.885294;stroke-linecap:round;stroke-linejoin:round;stroke-opacity:1;paint-order:stroke fill markers"
           id="rect1059"
           width="2"
           height="3"
           x="122.74369"
           y="22.091883"
           ry="1"
           transform="rotate(135)" />
      </g>
    </g>
  </g>
  <g
     id="22-22-system-shutdown">
    <path
       d="m -90,40 v 22 h 22 V 40 Z"
       fill="none"
       id="path97" />
    <g
       id="g1175"
       transform="translate(0,-23)">
      <path
         style="fill:none;fill-opacity:1;stroke:#323232;stroke-width:2;stroke-linecap:round;stroke-linejoin:round;stroke-miterlimit:4;stroke-dasharray:none;stroke-opacity:1;paint-order:stroke fill markers"
         id="circle1125"
         d="m -75,67.071797 a 8,8 0 0 1 3.727407,8.998756 A 8,8 0 0 1 -79,82 8,8 0 0 1 -86.727407,76.070552 8,8 0 0 1 -83,67.071797"
         sodipodi:type="arc"
         sodipodi:arc-type="arc"
         sodipodi:open="true"
         sodipodi:start="5.2359878"
         sodipodi:end="4.1887902"
         sodipodi:ry="8"
         sodipodi:rx="8"
         sodipodi:cy="74"
         sodipodi:cx="-79" />
      <rect
         style="fill:#323232;fill-opacity:1;stroke:none;stroke-width:2.86954;stroke-linecap:round;stroke-linejoin:round;stroke-miterlimit:4;stroke-dasharray:none;stroke-opacity:1;paint-order:stroke fill markers"
         id="rect1171"
         width="2"
         height="8"
         x="-80"
         y="65"
         ry="1" />
    </g>
  </g>
  <g
     id="22-22-system-suspend-hibernate">
    <path
       d="m -184,40 v 22 h 22 V 40 Z"
       fill="none"
       id="path67" />
    <g
       id="g1241"
       transform="translate(0,-23)">
      <circle
         style="fill:none;fill-opacity:1;stroke:#323232;stroke-width:2;stroke-linejoin:round;stroke-miterlimit:4;stroke-dasharray:none;stroke-opacity:1;paint-order:stroke fill markers"
         id="circle1189"
         cx="-173"
         cy="74"
         r="8" />
      <rect
         style="fill:#323232;fill-opacity:1;stroke:none;stroke-width:1.86395;stroke-linecap:round;stroke-linejoin:round;stroke-miterlimit:4;stroke-dasharray:none;stroke-opacity:1;paint-order:stroke fill markers"
         id="rect1237"
         width="8"
         height="1.9999967"
         x="-177"
         y="73"
         ry="0.99999833" />
    </g>
  </g>
  <g
     id="22-22-system-log-out">
    <path
       d="M 27,40 V 62 H 5 V 40 Z"
       fill="none"
       id="path62" />
    <g
       id="g1321"
       transform="translate(4.9992601,-23)">
      <path
         style="fill:none;fill-opacity:1;stroke:#323232;stroke-width:2;stroke-linecap:round;stroke-linejoin:round;stroke-miterlimit:4;stroke-dasharray:none;stroke-opacity:1;paint-order:stroke fill markers"
         id="path1284"
         sodipodi:type="arc"
         sodipodi:cx="11"
         sodipodi:cy="74"
         sodipodi:rx="8"
         sodipodi:ry="8"
         sodipodi:start="1.3089969"
         sodipodi:end="4.9741884"
         sodipodi:open="true"
         sodipodi:arc-type="arc"
         d="m 13.070553,81.727407 a 8,8 0 0 1 -8.6237693,-3.138795 8,8 0 0 1 0,-9.177224 8,8 0 0 1 8.6237693,-3.138795" />
      <g
         id="g1314"
         transform="translate(0,9.1018758e-4)">
        <rect
           style="fill:#333333;fill-opacity:1;stroke:none;stroke-width:2;stroke-linecap:round;stroke-linejoin:round;stroke-miterlimit:4;stroke-dasharray:none;stroke-opacity:1;paint-order:stroke fill markers"
           id="rect3413"
           width="10"
           height="2"
           x="9.9999895"
           y="73"
           ry="1" />
        <rect
           style="fill:#333333;fill-opacity:1;stroke:none;stroke-width:1.78885;stroke-linecap:round;stroke-linejoin:round;stroke-miterlimit:4;stroke-dasharray:none;stroke-opacity:1;paint-order:stroke fill markers"
           id="rect3417"
           width="8"
           height="2"
           x="58.759644"
           y="37.890873"
           ry="1"
           transform="rotate(45)" />
        <rect
           style="fill:#333333;fill-opacity:1;stroke:none;stroke-width:1.78885;stroke-linecap:round;stroke-linejoin:round;stroke-miterlimit:4;stroke-dasharray:none;stroke-opacity:1;paint-order:stroke fill markers"
           id="rect1309"
           width="8"
           height="2"
           x="-45.890873"
           y="-66.759644"
           ry="1"
           transform="matrix(0.70710678,-0.70710678,-0.70710678,-0.70710678,0,0)" />
      </g>
    </g>
  </g>
  <g
     id="22-22-system-lock-screen">
    <path
       d="M 52,40 V 62 H 74 V 40 Z"
       fill="none"
       id="path104" />
    <g
       id="g1360"
       transform="translate(0,-22.5)">
      <path
         id="rect1336"
         style="fill:#323232;fill-opacity:1;stroke:none;stroke-width:3.14643;stroke-linecap:butt;stroke-linejoin:round;stroke-miterlimit:4;stroke-dasharray:none;stroke-opacity:1;paint-order:stroke fill markers"
         d="m 58,71.5 c -1.108,0 -2,0.892 -2,2 v 7 c 0,1.108 0.892,2 2,2 h 10 c 1.108,0 2,-0.892 2,-2 v -7 c 0,-1.108 -0.892,-2 -2,-2 z m 1,2 h 8 c 0.554,0 1,0.446 1,1 v 5 c 0,0.554 -0.446,1 -1,1 h -8 c -0.554,0 -1,-0.446 -1,-1 v -5 c 0,-0.554 0.446,-1 1,-1 z" />
      <path
         id="path1338"
         style="fill:#323232;fill-opacity:1;stroke:none;stroke-width:3;stroke-linecap:butt;stroke-linejoin:round;stroke-miterlimit:4;stroke-dasharray:none;stroke-opacity:1;paint-order:stroke fill markers"
         d="m 63,64.5 c -2.216,0 -4,1.784 -4,4 v 3 h 2 v -3 c 0,-1.107997 0.892,-2 2,-2 1.108,0 2,0.892003 2,2 v 3 h 2 v -3 c 0,-2.216 -1.784,-4 -4,-4 z"
         sodipodi:nodetypes="ssccsssccss" />
    </g>
  </g>
  <g
     id="22-22-system-switch-user">
    <path
       d="m 99,40 v 22 h 22 V 40 Z"
       fill="none"
       id="path72" />
    <g
       id="g1400"
       transform="translate(0,-24)">
      <circle
         style="fill:none;fill-opacity:1;stroke:#323232;stroke-width:2;stroke-linecap:butt;stroke-linejoin:round;stroke-miterlimit:4;stroke-dasharray:none;stroke-opacity:1;paint-order:stroke fill markers"
         id="circle1374"
         cx="110"
         cy="70.5"
         r="3.5" />
      <rect
         style="fill:none;fill-opacity:1;stroke:#323232;stroke-width:2;stroke-linecap:butt;stroke-linejoin:round;stroke-miterlimit:4;stroke-dasharray:none;stroke-opacity:1;paint-order:stroke fill markers"
         id="rect1376"
         width="16"
         height="6"
         x="102"
         y="77"
         ry="3" />
    </g>
  </g>
  <g
     id="system-log-out">
    <path
       d="M 16,-2.0049782e-6 C 7.1724,-2.0049782e-6 0,7.172398 0,15.999998 c 0,8.8276 7.1724,16 16,16 8.8276,0 16,-7.1724 16,-16 C 32,7.172398 24.8276,-2.0049782e-6 16,-2.0049782e-6 Z"
       opacity="0"
       id="path169" />
    <g
       id="g1020"
       transform="translate(-16.498001,48.496931)">
      <path
         id="path1396"
         style="fill:#ffcc00;fill-opacity:1;stroke:#ffcc00;stroke-width:1.99387;stroke-linecap:butt;stroke-linejoin:round;stroke-miterlimit:4;stroke-dasharray:none;stroke-opacity:1"
         d="m 30.15498,-44 8.323548,11.503067 -8.323548,11.503067 h 0.920246 4.601227 L 44,-32.496933 35.676453,-44 h -4.601227 z" />
      <g
         id="g1010">
        <g
           id="g1002">
          <rect
             style="fill:#ffcc00;fill-opacity:1;stroke:none;stroke-width:2.08893;stroke-linecap:round;stroke-linejoin:round;stroke-miterlimit:4;stroke-dasharray:none;stroke-opacity:1;paint-order:stroke fill markers"
             id="rect984"
             width="12"
             height="2"
             x="36.769554"
             y="-9.0710688"
             ry="1"
             transform="rotate(-45)" />
          <rect
             style="fill:#ffcc00;fill-opacity:1;stroke:none;stroke-width:2.08893;stroke-linecap:round;stroke-linejoin:round;stroke-miterlimit:4;stroke-dasharray:none;stroke-opacity:1;paint-order:stroke fill markers"
             id="rect990"
             width="12"
             height="2"
             x="-9.0697823"
             y="36.768269"
             ry="1"
             transform="matrix(0.70710678,0.70710678,0.70710678,-0.70710678,0,0)" />
        </g>
        <g
           id="g998">
          <rect
             style="fill:#ffcc00;fill-opacity:1;stroke:none;stroke-width:1.7056;stroke-linecap:round;stroke-linejoin:round;stroke-miterlimit:4;stroke-dasharray:none;stroke-opacity:1;paint-order:stroke fill markers"
             id="rect992"
             width="8"
             height="2"
             x="40.012192"
             y="-5.2413549"
             ry="1"
             transform="rotate(-45)" />
          <rect
             style="fill:#ffcc00;fill-opacity:1;stroke:none;stroke-width:1.7056;stroke-linecap:round;stroke-linejoin:round;stroke-miterlimit:4;stroke-dasharray:none;stroke-opacity:1;paint-order:stroke fill markers"
             id="rect994"
             width="8"
             height="2"
             x="-5.2413549"
             y="40.012192"
             ry="1"
             transform="matrix(0.70710678,0.70710678,0.70710678,-0.70710678,0,0)" />
        </g>
      </g>
    </g>
  </g>
  <g
     id="system-shutdown">
    <path
       d="m -79,0 c -8.8286,0 -16,7.1714 -16,16 0,8.8286 7.1714,16 16,16 8.8286,0 16,-7.1714 16,-16 0,-8.8286 -7.1714,-16 -16,-16 z"
       opacity="0"
       id="path137-6" />
    <g
       id="g1041"
       transform="translate(78,33)">
      <circle
         style="opacity:0.3;fill:#ff4e5e;fill-opacity:1;stroke-width:3.54545;stroke-linecap:round;stroke-opacity:0.996078;paint-order:stroke fill markers"
         id="path1035"
         cx="-157"
         cy="-17"
         r="13" />
      <circle
         style="opacity:1;fill:#ff4e5e;fill-opacity:1;stroke-width:2.18182;stroke-linecap:round;stroke-opacity:0.996078;paint-order:stroke fill markers"
         id="circle1037"
         cx="-157"
         cy="-17"
         r="8" />
    </g>
  </g>
</svg>
