<?xml version="1.0" encoding="UTF-8" standalone="no"?>
<svg
   version="1.1"
   viewBox="0 0 22 22"
   id="svg9"
   sodipodi:docname="video-card.svg"
   inkscape:version="1.1.1 (3bf5ae0d25, 2021-09-20, custom)"
   xmlns:inkscape="http://www.inkscape.org/namespaces/inkscape"
   xmlns:sodipodi="http://sodipodi.sourceforge.net/DTD/sodipodi-0.dtd"
   xmlns="http://www.w3.org/2000/svg"
   xmlns:svg="http://www.w3.org/2000/svg">
  <defs
     id="defs13" />
  <sodipodi:namedview
     id="namedview11"
     pagecolor="#ffffff"
     bordercolor="#999999"
     borderopacity="1"
     inkscape:pageshadow="0"
     inkscape:pageopacity="0"
     inkscape:pagecheckerboard="0"
     showgrid="true"
     inkscape:zoom="8.5113636"
     inkscape:cx="9.5754339"
     inkscape:cy="13.452603"
     inkscape:window-width="1920"
     inkscape:window-height="936"
     inkscape:window-x="0"
     inkscape:window-y="40"
     inkscape:window-maximized="1"
     inkscape:current-layer="svg9">
    <inkscape:grid
       type="xygrid"
       id="grid863" />
  </sodipodi:namedview>
  <g
     id="22-22-video-card-inactive">
    <rect
       id="rect5"
       opacity="0"
       height="22"
       width="22"
       y="4.4627209e-13"
       x="2.5066428e-15"
       style="color:#363636;fill:#363636" />
    <g
       id="g888"
       transform="translate(-25.000001,-1.7631e-5)">
      <rect
         style="fill:#39adf5;fill-opacity:1;stroke-width:2.46784;stroke-linecap:round;paint-order:stroke fill markers"
         id="rect925-7"
         width="20"
         height="18"
         x="26"
         y="2"
         ry="2" />
      <rect
         style="fill:#b1defd;fill-opacity:1;stroke-width:2.06474;stroke-linecap:round;paint-order:stroke fill markers"
         id="rect927-5"
         width="18"
         height="14"
         x="27"
         y="3"
         ry="1" />
      <rect
         style="fill:#ffffff;fill-opacity:1;stroke-width:2.30269;stroke-linecap:round;paint-order:stroke fill markers"
         id="rect929-3"
         width="4"
         height="1"
         x="34"
         y="18"
         ry="0.5" />
    </g>
    <path
       d="M 10.768,7.0140001 A 2,2 0 0 0 9,9.0000002 h 1 a 1,1 0 0 1 1,-1 c 0.507,0 0.935,0.395 0.994,0.898 C 11.976,10.078 11.098,10.135 10.002,10.221 L 10,12.014 h 1 V 11 h 0.232 A 2,2 0 0 0 13,9.1040002 c -0.01,-0.106 -0.008,-0.196 -0.014,-0.3200001 a 2,2 0 0 0 -1.896,-1.768 z M 10.002,13 v 1 h 1 v -1 z"
       fill="#fdbc4b"
       id="path861" />
  </g>
</svg>
