<?xml version="1.0" encoding="UTF-8" standalone="no"?>
<svg
   xmlns:dc="http://purl.org/dc/elements/1.1/"
   xmlns:cc="http://creativecommons.org/ns#"
   xmlns:rdf="http://www.w3.org/1999/02/22-rdf-syntax-ns#"
   xmlns:svg="http://www.w3.org/2000/svg"
   xmlns="http://www.w3.org/2000/svg"
   xmlns:sodipodi="http://sodipodi.sourceforge.net/DTD/sodipodi-0.dtd"
   xmlns:inkscape="http://www.inkscape.org/namespaces/inkscape"
   width="16"
   height="16"
   version="1.1"
   viewBox="0 0 16 16"
   id="svg35"
   sodipodi:docname="window.svg"
   inkscape:version="1.0.2 (e86c870879, 2021-01-15)">
  <metadata
     id="metadata39">
    <rdf:RDF>
      <cc:Work
         rdf:about="">
        <dc:format>image/svg+xml</dc:format>
        <dc:type
           rdf:resource="http://purl.org/dc/dcmitype/StillImage" />
        <dc:title></dc:title>
      </cc:Work>
    </rdf:RDF>
  </metadata>
  <sodipodi:namedview
     pagecolor="#ffffff"
     bordercolor="#666666"
     borderopacity="1"
     objecttolerance="10"
     gridtolerance="10"
     guidetolerance="10"
     inkscape:pageopacity="0"
     inkscape:pageshadow="2"
     inkscape:window-width="1920"
     inkscape:window-height="935"
     id="namedview37"
     showgrid="true"
     inkscape:zoom="8.4779155"
     inkscape:cx="14.700976"
     inkscape:cy="14.146872"
     inkscape:window-x="0"
     inkscape:window-y="38"
     inkscape:window-maximized="1"
     inkscape:current-layer="svg35"
     inkscape:document-rotation="0"
     inkscape:snap-bbox="true"
     inkscape:bbox-nodes="true"
     inkscape:snap-bbox-edge-midpoints="true"
     inkscape:snap-smooth-nodes="true">
    <inkscape:grid
       type="xygrid"
       id="grid864" />
  </sodipodi:namedview>
  <defs
     id="defs3">
    <style
       id="current-color-scheme"
       type="text/css">.ColorScheme-Text {
        color:#31363b;
      }
      .ColorScheme-Background {
        color:#eff0f1;
      }
      .ColorScheme-Highlight {
        color:#3daee9;
      }
      .ColorScheme-ViewText {
        color:#31363b;
      }
      .ColorScheme-ViewBackground {
        color:#fcfcfc;
      }
      .ColorScheme-ViewHover {
        color:#93cee9;
      }
      .ColorScheme-ViewFocus{
        color:#3daee9;
      }
      .ColorScheme-ButtonText {
        color:#31363b;
      }
      .ColorScheme-ButtonBackground {
        color:#eff0f1;
      }
      .ColorScheme-ButtonHover {
        color:#93cee9;
      }
      .ColorScheme-ButtonFocus{
        color:#3daee9;
      }
      .ColorScheme-NegativeText {
        color:#da4453;
      }</style>
  </defs>
  <g
     id="edit-delete"
     transform="matrix(0.72727,0,0,0.72727,-237.09,-388.63)">
    <rect
       x="326"
       y="534.35999"
       width="22"
       height="22"
       fill="none"
       id="rect5" />
    <circle
       cx="277.56"
       cy="-509.56"
       r="0"
       id="circle7" />
    <path
       class="ColorScheme-NegativeText"
       d="m 337,535.74 a 9.625,9.625 0 0 0 -9.625,9.625 9.625,9.625 0 0 0 9.625,9.625 9.625,9.625 0 0 0 9.625,-9.625 A 9.625,9.625 0 0 0 337,535.74 Z m -3.9619,4.8125 3.9619,3.9619 3.9619,-3.9619 0.85065,0.85064 -3.9619,3.9619 3.9619,3.9619 -0.85065,0.85064 -3.9619,-3.9619 -3.9619,3.9619 -0.85063,-0.85064 3.9618,-3.9619 -3.9618,-3.9619 z"
       fill="currentColor"
       id="path9" />
    <path
       transform="matrix(1.375,0,0,1.375,326,534.36)"
       d="m 5.1191,4.5 -0.61914,0.61914 2.8809,2.8809 -2.8809,2.8809 L 5.1191,11.50008 8,8.61918 l 2.8809,2.8809 0.61914,-0.61914 -2.8809,-2.8809 2.8809,-2.8809 L 10.8809,4.5 8,7.3809 Z"
       fill="#ffffff"
       fill-opacity="0.71176"
       id="path11" />
  </g>
  <g
     id="window-list"
     transform="translate(-292,-542.36)">
    <rect
       x="286"
       y="561.35999"
       width="32"
       height="32"
       ry="0"
       opacity="0"
       id="rect24" />
    <path
       class="ColorScheme-Text"
       transform="translate(326,534.36)"
       d="m -36,31 v 10 h 10 V 31 Z m 1,1 h 8 v 8 h -8 z"
       fill="currentColor"
       id="path26" />
    <path
       class="ColorScheme-Text"
       transform="translate(326,534.36)"
       d="m -22,31 v 10 h 10 V 31 Z m 1,1 h 8 v 8 h -8 z"
       fill="currentColor"
       id="path28" />
    <path
       class="ColorScheme-Text"
       transform="translate(326,534.36)"
       d="m -36,45 v 10 h 10 V 45 Z m 1,1 h 8 v 8 h -8 z"
       fill="currentColor"
       id="path30" />
    <path
       class="ColorScheme-Text"
       transform="translate(326,534.36)"
       d="m -22,45 v 10 h 10 V 45 Z m 1,1 h 8 v 8 h -8 z"
       fill="currentColor"
       id="path32" />
  </g>
  <g
     id="window-close"
     transform="translate(34.495364,23.787)">
    <rect
       width="32"
       height="32"
       x="-4.4953642"
       y="-4.7870002"
       style="opacity:0.00100002"
       id="rect36" />
    <g
       id="g965"
       transform="translate(-2.4953645,-25.287)">
      <rect
         style="fill:#323232;fill-opacity:1;stroke:none;stroke-width:1.70639;stroke-linecap:round;stroke-linejoin:round;paint-order:stroke fill markers"
         id="rect880"
         width="22"
         height="3"
         x="-26.909903"
         y="34.208893"
         ry="1.5"
         transform="rotate(-45)" />
      <rect
         style="fill:#323232;fill-opacity:1;stroke:none;stroke-width:1.70639;stroke-linecap:round;stroke-linejoin:round;paint-order:stroke fill markers"
         id="rect961"
         width="22"
         height="3"
         x="-46.708893"
         y="14.409903"
         ry="1.5"
         transform="matrix(-0.70710678,-0.70710678,-0.70710678,0.70710678,0,0)" />
    </g>
  </g>
  <g
     id="window-pin"
     transform="translate(-9,-12)">
    <rect
       y="6"
       x="29"
       height="22"
       width="22"
       id="rect930"
       style="fill:#00ffff;fill-opacity:0" />
    <g
       id="g1034"
       transform="translate(-7.298e-4)">
      <path
         id="circle1017"
         style="fill:#2eafff;fill-opacity:1;stroke-width:12;stroke-linecap:round;stroke-linejoin:round;stroke-opacity:0.34902;paint-order:stroke fill markers"
         d="m 40.00073,9 a 6,6 0 0 0 -6,6 6,6 0 0 0 6,6 6,6 0 0 0 6,-6 6,6 0 0 0 -6,-6 z M 39.948,12 a 3,3 0 0 1 0.05273,0 3,3 0 0 1 3,3 3,3 0 0 1 -3,3 3,3 0 0 1 -3,-3 3,3 0 0 1 2.947265,-3 z" />
      <rect
         style="fill:#2eafff;fill-opacity:1;stroke-width:6.87384;stroke-linecap:round;stroke-linejoin:round;stroke-opacity:0.34902;paint-order:stroke fill markers"
         id="rect1028"
         width="3.0000012"
         height="7"
         x="38.500729"
         y="19"
         ry="1.5000006" />
    </g>
  </g>
  <g
     id="window-unpin"
     transform="translate(13,-12)">
    <rect
       y="6"
       x="29"
       height="22"
       width="22"
       id="rect1045"
       style="fill:#00ffff;fill-opacity:0" />
    <g
       id="g1051"
       transform="translate(-7.298e-4)">
      <path
         id="path1047"
         style="fill:#2eafff;fill-opacity:1;stroke-width:12;stroke-linecap:round;stroke-linejoin:round;stroke-opacity:0.34902;paint-order:stroke fill markers"
         d="m 40.00073,9 a 6,6 0 0 0 -6,6 6,6 0 0 0 6,6 6,6 0 0 0 6,-6 6,6 0 0 0 -6,-6 z M 39.948,12 a 3,3 0 0 1 0.05273,0 3,3 0 0 1 3,3 3,3 0 0 1 -3,3 3,3 0 0 1 -3,-3 3,3 0 0 1 2.947265,-3 z" />
      <rect
         style="fill:#2eafff;fill-opacity:1;stroke-width:6.87384;stroke-linecap:round;stroke-linejoin:round;stroke-opacity:0.34902;paint-order:stroke fill markers"
         id="rect1049"
         width="3.0000012"
         height="7"
         x="38.500729"
         y="19"
         ry="1.5000006" />
    </g>
  </g>
</svg>
