<?xml version="1.0" encoding="UTF-8" standalone="no"?>
<svg
   xmlns:dc="http://purl.org/dc/elements/1.1/"
   xmlns:cc="http://creativecommons.org/ns#"
   xmlns:rdf="http://www.w3.org/1999/02/22-rdf-syntax-ns#"
   xmlns:svg="http://www.w3.org/2000/svg"
   xmlns="http://www.w3.org/2000/svg"
   xmlns:sodipodi="http://sodipodi.sourceforge.net/DTD/sodipodi-0.dtd"
   xmlns:inkscape="http://www.inkscape.org/namespaces/inkscape"
   width="22"
   height="22"
   version="1.1"
   id="svg12"
   sodipodi:docname="yakuake.svg"
   inkscape:version="1.0.1 (3bc2e813f5, 2020-09-07)">
  <metadata
     id="metadata16">
    <rdf:RDF>
      <cc:Work
         rdf:about="">
        <dc:format>image/svg+xml</dc:format>
        <dc:type
           rdf:resource="http://purl.org/dc/dcmitype/StillImage" />
      </cc:Work>
    </rdf:RDF>
  </metadata>
  <sodipodi:namedview
     pagecolor="#ffffff"
     bordercolor="#666666"
     borderopacity="1"
     objecttolerance="10"
     gridtolerance="10"
     guidetolerance="10"
     inkscape:pageopacity="0"
     inkscape:pageshadow="2"
     inkscape:window-width="1920"
     inkscape:window-height="942"
     id="namedview14"
     showgrid="true"
     inkscape:zoom="8.8068182"
     inkscape:cx="-16.058788"
     inkscape:cy="4.3439953"
     inkscape:window-x="0"
     inkscape:window-y="38"
     inkscape:window-maximized="1"
     inkscape:current-layer="svg12">
    <inkscape:grid
       type="xygrid"
       id="grid841" />
  </sodipodi:namedview>
  <defs
     id="defs3">
    <style
       id="current-color-scheme"
       type="text/css">.ColorScheme-Text { color:#363636; } .ColorScheme-Highlight { color:#4285f4; }</style>
  </defs>
  <g
     id="yakuake">
    <rect
       style="fill:#458aff;fill-opacity:1;stroke-width:0.5;stroke-linecap:round;stroke-linejoin:round;paint-order:stroke fill markers"
       id="rect843"
       width="18"
       height="18"
       x="2"
       y="2"
       ry="3" />
    <path
       style="color:#363636;font-style:normal;font-variant:normal;font-weight:normal;font-stretch:normal;font-size:medium;line-height:normal;font-family:sans-serif;font-variant-ligatures:normal;font-variant-position:normal;font-variant-caps:normal;font-variant-numeric:normal;font-variant-alternates:normal;font-variant-east-asian:normal;font-feature-settings:normal;font-variation-settings:normal;text-indent:0;text-align:start;text-decoration:none;text-decoration-line:none;text-decoration-style:solid;text-decoration-color:#000000;letter-spacing:normal;word-spacing:normal;text-transform:none;writing-mode:lr-tb;direction:ltr;text-orientation:mixed;dominant-baseline:auto;baseline-shift:baseline;text-anchor:start;white-space:normal;shape-padding:0;shape-margin:0;inline-size:0;clip-rule:nonzero;display:inline;overflow:visible;visibility:visible;isolation:auto;mix-blend-mode:normal;color-interpolation:sRGB;color-interpolation-filters:linearRGB;solid-color:#000000;solid-opacity:1;vector-effect:none;fill:#fffffe;fill-opacity:1;fill-rule:nonzero;stroke:none;stroke-width:1;stroke-linecap:butt;stroke-linejoin:miter;stroke-miterlimit:4;stroke-dasharray:none;stroke-dashoffset:0;stroke-opacity:1;color-rendering:auto;image-rendering:auto;shape-rendering:auto;text-rendering:auto;enable-background:accumulate;stop-color:#000000"
       d="m 6.4648,7.4648 -0.70703,0.70703 2.8281,2.8281 -2.8281,2.8281 L 6.4648,14.53506 10,10.99986 6.4648,7.46466 Z M 10,14 v 1 h 5 v -1 z"
       id="path858" />
    <rect
       width="22"
       height="22"
       fill="none"
       id="rect9"
       x="0"
       y="0" />
  </g>
  <g
     id="g851"
     transform="translate(-27)">
    <path
       class="ColorScheme-Text"
       d="M 6,2 C 3.784,2 2,3.784 2,6 v 10 c 0,2.216 1.784,4 4,4 h 10 c 2.216,0 4,-1.784 4,-4 V 6 C 20,3.784 18.216,2 16,2 Z m 0,2 h 10 c 1.108,0 2,0.892 2,2 v 10 c 0,1.108 -0.892,2 -2,2 H 6 C 4.892,18 4,17.108 4,16 V 6 C 4,4.892 4.892,4 6,4 Z"
       fill="currentColor"
       id="path845" />
    <path
       class="ColorScheme-Text"
       d="m 6.4648,7.4648 -0.70703,0.70703 2.8281,2.8281 -2.8281,2.8281 L 6.4648,14.53506 10,10.99986 6.4648,7.46466 Z M 10,14 v 1 h 5 v -1 z"
       fill="currentColor"
       id="path847" />
    <rect
       width="22"
       height="22"
       fill="none"
       id="rect849"
       x="0"
       y="0" />
  </g>
</svg>
