<?xml version="1.0" encoding="UTF-8" standalone="no"?>
<svg
   xmlns:dc="http://purl.org/dc/elements/1.1/"
   xmlns:cc="http://creativecommons.org/ns#"
   xmlns:rdf="http://www.w3.org/1999/02/22-rdf-syntax-ns#"
   xmlns:svg="http://www.w3.org/2000/svg"
   xmlns="http://www.w3.org/2000/svg"
   xmlns:sodipodi="http://sodipodi.sourceforge.net/DTD/sodipodi-0.dtd"
   xmlns:inkscape="http://www.inkscape.org/namespaces/inkscape"
   width="32"
   height="32"
   version="1.1"
   id="svg75"
   sodipodi:docname="applications.svg"
   inkscape:version="1.0.2 (e86c870879, 2021-01-15)">
  <metadata
     id="metadata79">
    <rdf:RDF>
      <cc:Work
         rdf:about="">
        <dc:format>image/svg+xml</dc:format>
        <dc:type
           rdf:resource="http://purl.org/dc/dcmitype/StillImage" />
        <dc:title></dc:title>
      </cc:Work>
    </rdf:RDF>
  </metadata>
  <sodipodi:namedview
     pagecolor="#c8c8c8"
     bordercolor="#666666"
     borderopacity="1"
     objecttolerance="10"
     gridtolerance="10"
     guidetolerance="10"
     inkscape:pageopacity="0"
     inkscape:pageshadow="2"
     inkscape:window-width="1920"
     inkscape:window-height="938"
     id="namedview77"
     showgrid="true"
     inkscape:snap-bbox="true"
     inkscape:bbox-nodes="true"
     inkscape:snap-bbox-edge-midpoints="true"
     inkscape:zoom="11.313709"
     inkscape:cx="-3.253896"
     inkscape:cy="11.443278"
     inkscape:window-x="0"
     inkscape:window-y="38"
     inkscape:window-maximized="1"
     inkscape:current-layer="svg75"
     inkscape:document-rotation="0">
    <inkscape:grid
       type="xygrid"
       id="grid904" />
  </sodipodi:namedview>
  <defs
     id="defs3">
    <style
       id="current-color-scheme"
       type="text/css">.ColorScheme-Text { color:#363636; }</style>
  </defs>
  <g
     id="22-22-applications-other">
    <rect
       x="-23.951172"
       y="10"
       width="22"
       height="22"
       opacity="0"
       id="rect5" />
    <path
       id="path901"
       style="fill:none;stroke:#ffffff;stroke-width:2.00031;stroke-linecap:butt;stroke-linejoin:miter;stroke-miterlimit:4;stroke-dasharray:none;stroke-opacity:1"
       d="m -12.88375,13.006297 c -0.436024,-0.03948 -0.942646,0.08836 -1.45002,0.593796 l -1.222052,1.217377 h -1.730309 c 0,0 -1.913428,0 -1.913428,1.906106 v 1.723685 l -1.222052,1.217376 c 0,0 -1.352999,1.347533 0,2.695353 l 1.222052,1.217377 v 1.723685 c 0,0 0,1.906108 1.913428,1.906108 h 1.730309 l 1.222052,1.217375 c 0,0 1.352709,1.347821 2.705707,0 l 1.222053,-1.217375 h 1.7303072 c 0,0 1.9134282,0 1.9134282,-1.906108 v -1.723685 l 1.2220532,-1.217377 c 0,0 1.3529975,-1.347532 0,-2.695353 l -1.2220532,-1.217376 v -1.723685 c 0,0 0,-1.906106 -1.9134282,-1.906106 H -10.40601 l -1.222053,-1.217377 c 0,0 -0.52898,-0.527985 -1.255687,-0.593796 z" />
    <circle
       style="fill:none;fill-opacity:1;stroke:#ffffff;stroke-width:2.00159;stroke-linejoin:round;stroke-miterlimit:4;stroke-dasharray:none;stroke-opacity:1;paint-order:stroke fill markers"
       id="path912"
       cx="-12.951172"
       cy="21"
       r="2.499207" />
  </g>
  <g
     id="applications-other">
    <rect
       x="2.3840809e-09"
       width="32"
       height="32"
       opacity="0"
       id="rect10"
       y="7.1054274e-15" />
    <path
       id="rect852"
       style="fill:#2eafff;stroke:none;stroke-width:1.81819;stroke-linecap:round;stroke-linejoin:round;paint-order:stroke fill markers"
       d="M 16 3.5117188 C 14.977524 3.5117188 13.955349 3.9020726 13.171875 4.6855469 L 4.6855469 13.171875 C 3.1185982 14.738824 3.1185982 17.261176 4.6855469 18.828125 L 13.171875 27.314453 C 14.738824 28.881402 17.261176 28.881402 18.828125 27.314453 L 27.314453 18.828125 C 28.881402 17.261176 28.881402 14.738824 27.314453 13.171875 L 18.828125 4.6855469 C 18.044651 3.9020726 17.022476 3.5117188 16 3.5117188 z M 15.939453 12 A 4 4 0 0 1 16 12 A 4 4 0 0 1 20 16 A 4 4 0 0 1 16 20 A 4 4 0 0 1 12 16 A 4 4 0 0 1 15.939453 12 z " />
    <path
       id="rect849"
       style="fill:#2eafff;stroke:none;stroke-width:1.81819;stroke-linecap:round;stroke-linejoin:round;paint-order:stroke fill markers"
       d="M 10 6 C 7.784 6 6 7.784 6 10 L 6 22 C 6 24.216 7.784 26 10 26 L 22 26 C 24.216 26 26 24.216 26 22 L 26 10 C 26 7.784 24.216 6 22 6 L 10 6 z M 15.939453 12 A 4 4 0 0 1 16 12 A 4 4 0 0 1 20 16 A 4 4 0 0 1 16 20 A 4 4 0 0 1 12 16 A 4 4 0 0 1 15.939453 12 z " />
  </g>
</svg>
