<?xml version="1.0" encoding="UTF-8" standalone="no"?>
<svg
   width="32"
   height="32"
   version="1.1"
   viewBox="0 0 32 32"
   id="svg33"
   sodipodi:docname="compass.svg"
   inkscape:version="1.1.1 (3bf5ae0d25, 2021-09-20, custom)"
   xmlns:inkscape="http://www.inkscape.org/namespaces/inkscape"
   xmlns:sodipodi="http://sodipodi.sourceforge.net/DTD/sodipodi-0.dtd"
   xmlns:xlink="http://www.w3.org/1999/xlink"
   xmlns="http://www.w3.org/2000/svg"
   xmlns:svg="http://www.w3.org/2000/svg">
  <sodipodi:namedview
     id="namedview35"
     pagecolor="#c8c8c8"
     bordercolor="#999999"
     borderopacity="1"
     inkscape:pageshadow="0"
     inkscape:pageopacity="0"
     inkscape:pagecheckerboard="0"
     showgrid="true"
     inkscape:zoom="18.590909"
     inkscape:cx="-7.3422982"
     inkscape:cy="16.244499"
     inkscape:window-width="1920"
     inkscape:window-height="1005"
     inkscape:window-x="0"
     inkscape:window-y="0"
     inkscape:window-maximized="1"
     inkscape:current-layer="svg33"
     inkscape:snap-bbox="true"
     inkscape:bbox-nodes="true"
     inkscape:snap-nodes="false">
    <inkscape:grid
       type="xygrid"
       id="grid1023" />
  </sodipodi:namedview>
  <defs
     id="defs16">
    <linearGradient
       id="linearGradient860">
      <stop
         stop-color="#4deb47"
         offset="0"
         id="stop2" />
      <stop
         stop-color="#ffa000"
         offset="1"
         id="stop4" />
    </linearGradient>
    <linearGradient
       id="linearGradient11">
      <stop
         stop-color="#5df240"
         offset="0"
         id="stop7" />
      <stop
         stop-color="#fff400"
         offset="1"
         id="stop9" />
    </linearGradient>
    <style
       id="current-color-scheme"
       type="text/css">.ColorScheme-Text { color:#565656; } .ColorScheme-Highlight { color:#5294e2; }</style>
    <linearGradient
       id="linearGradient848"
       x2="22"
       y1="11"
       y2="11"
       gradientTransform="matrix(1.27272,0,0,1.27272,2,2.0546)"
       gradientUnits="userSpaceOnUse"
       xlink:href="#linearGradient860" />
    <linearGradient
       id="linearGradient877"
       x1="3"
       x2="19"
       y1="11"
       y2="11"
       gradientUnits="userSpaceOnUse"
       xlink:href="#linearGradient860"
       gradientTransform="translate(-22,10)" />
  </defs>
  <g
     id="22-22-compass">
    <rect
       style="opacity:0.00100002;fill:#dedede;fill-opacity:1;fill-rule:evenodd;stroke-width:1.43952;stroke-linecap:round;stroke-linejoin:round;paint-order:stroke fill markers"
       id="rect1573"
       width="22"
       height="22"
       x="-22"
       y="10"
       ry="0" />
    <g
       id="g4698"
       transform="matrix(0.43599181,0,0,0.43599181,-7.6146871,33.449186)">
      <path
         id="path6"
         style="fill:#ffcd00;fill-opacity:1;stroke-width:0.0175781"
         d="M -10.792969 12.001953 A 7.3944317 7.3944317 0 0 0 -18.392578 19.394531 C -18.392578 20.741504 -17.868306 22.223096 -16.833984 23.794922 L -12.599609 29.222656 A 2.0472274 2.0472274 0 0 0 -9.3886719 29.222656 L -5.1816406 23.830078 L -5.1523438 23.789062 C -4.210105 22.317885 -3.5838659 20.99114 -3.6074219 19.292969 A 7.4586751 7.4586751 0 0 0 -10.792969 12.001953 z M -11 16.009766 A 3.4995385 3.4995385 0 0 1 -7.5058594 19.503906 A 3.495117 3.495117 0 1 1 -11 16.009766 z M -11 17.484375 A 2.02058 2.02058 0 1 0 -8.9804688 19.503906 A 2.0227908 2.0227908 0 0 0 -11 17.484375 z "
         transform="matrix(2.2936211,0,0,2.2936211,17.465207,-76.719758)" />
    </g>
  </g>
  <g
     id="compass">
    <rect
       x="0"
       width="32"
       height="32"
       fill="none"
       stroke-linecap="round"
       stroke-linejoin="round"
       stroke-miterlimit="2"
       stroke-width="4.2666"
       id="rect23"
       y="0" />
    <g
       id="g4704"
       transform="matrix(0.53287888,0,0,0.53287888,20.137605,31.215672)">
      <path
         id="path4700"
         style="fill:#ffcd00;fill-opacity:1;stroke-width:0.0234383"
         d="M 16.277344 4.0039062 A 9.8596213 9.8596213 0 0 0 6.1425781 13.861328 C 6.1425781 15.657361 6.841555 17.632668 8.2207031 19.728516 L 13.867188 26.962891 A 2.7297416 2.7297416 0 0 0 18.150391 26.962891 L 23.757812 19.773438 L 23.798828 19.720703 C 25.055195 17.759058 25.888831 15.986972 25.857422 13.722656 A 9.9452821 9.9452821 0 0 0 16.277344 4.0039062 z M 16 9 A 5.005644 5.005644 0 0 1 20.998047 13.998047 A 4.9993198 4.9993198 0 1 1 16 9 z M 16 11.109375 A 2.8901823 2.8901823 0 1 0 18.890625 13.998047 A 2.8933445 2.8933445 0 0 0 16 11.109375 z "
         transform="matrix(1.8765991,0,0,1.8765991,-37.79021,-58.5793)" />
    </g>
  </g>
</svg>
