<?xml version="1.0" encoding="UTF-8" standalone="no"?>
<svg
   xmlns:dc="http://purl.org/dc/elements/1.1/"
   xmlns:cc="http://creativecommons.org/ns#"
   xmlns:rdf="http://www.w3.org/1999/02/22-rdf-syntax-ns#"
   xmlns:svg="http://www.w3.org/2000/svg"
   xmlns="http://www.w3.org/2000/svg"
   xmlns:sodipodi="http://sodipodi.sourceforge.net/DTD/sodipodi-0.dtd"
   xmlns:inkscape="http://www.inkscape.org/namespaces/inkscape"
   inkscape:version="1.0.1 (3bc2e813f5, 2020-09-07)"
   sodipodi:docname="device.svg"
   width="32"
   height="32"
   version="1.1"
   viewBox="0 0 32 32"
   id="svg30">
  <sodipodi:namedview
     inkscape:current-layer="svg30"
     inkscape:window-maximized="1"
     inkscape:window-y="38"
     inkscape:window-x="0"
     inkscape:cy="22.199124"
     inkscape:cx="50.543888"
     inkscape:zoom="11.313709"
     inkscape:snap-midpoints="true"
     inkscape:snap-bbox="true"
     showgrid="true"
     id="namedview19"
     inkscape:window-height="942"
     inkscape:window-width="1920"
     inkscape:pageshadow="2"
     inkscape:pageopacity="0"
     guidetolerance="10"
     gridtolerance="10"
     objecttolerance="10"
     borderopacity="1"
     bordercolor="#666666"
     pagecolor="#ffffff"
     inkscape:document-rotation="0">
    <inkscape:grid
       id="grid844"
       type="xygrid" />
  </sodipodi:namedview>
  <metadata
     id="metadata32">
    <rdf:RDF>
      <cc:Work
         rdf:about="">
        <dc:format>image/svg+xml</dc:format>
        <dc:type
           rdf:resource="http://purl.org/dc/dcmitype/StillImage" />
        <dc:title />
      </cc:Work>
    </rdf:RDF>
  </metadata>
  <defs
     id="defs5">
    <style
       id="current-color-scheme"
       type="text/css"> .ColorScheme-Text { color:#363636; } </style>
    <style
       type="text/css"
       id="style918" />
  </defs>
  <g
     id="device-notifier"
     class="ColorScheme-Text"
     transform="translate(-321,-529.36)"
     fill="currentColor">
    <path
       id="path7"
       style="fill:#458aff;fill-opacity:1"
       d="M 8 4 C 6.338 4 5.3901 5.3844 5 7 L 1.1386719 22.988281 C 1.1378319 22.992281 1.1377188 22.9963 1.1367188 23 L 1.1386719 23 C 1.0561719 23.321 1 23.65255 1 24 C 1 26.216 2.784 28 5 28 L 27 28 C 29.216 28 31 26.216 31 24 C 31 23.65255 30.943798 23.321 30.861328 23 L 30.882812 23 L 27 7 C 26.60813 5.3849 25.662 4 24 4 L 8 4 z M 5 22 L 10.537109 22 L 22.462891 22 L 27 22 C 28.108 22 29 22.89199 29 24 C 29 25.10801 28.10801 26 27 26 L 5 26 C 3.892 26 3 25.10801 3 24 C 3 22.89199 3.89199 22 5 22 z "
       transform="translate(321,529.36)" />
    <rect
       x="321"
       y="529.36"
       width="32"
       height="32"
       fill-opacity="0"
       id="rect9" />
    <circle
       cx="346"
       cy="553.36"
       r="1"
       id="circle11"
       style="fill:#458aff;fill-opacity:1" />
  </g>
  <g
     id="16-16-device-notifier"
     class="ColorScheme-Text"
     transform="translate(-321.5,-529.36)"
     fill="currentColor">
    <rect
       x="393.5"
       y="537.36"
       width="16"
       height="16"
       ry="0"
       opacity="0"
       id="rect14" />
    <g
       transform="translate(-19.5)"
       id="g22">
      <path
         style="color:#363636;font-style:normal;font-variant:normal;font-weight:normal;font-stretch:normal;font-size:medium;line-height:normal;font-family:sans-serif;font-variant-ligatures:normal;font-variant-position:normal;font-variant-caps:normal;font-variant-numeric:normal;font-variant-alternates:normal;font-variant-east-asian:normal;font-feature-settings:normal;font-variation-settings:normal;text-indent:0;text-align:start;text-decoration:none;text-decoration-line:none;text-decoration-style:solid;text-decoration-color:#000000;letter-spacing:normal;word-spacing:normal;text-transform:none;writing-mode:lr-tb;direction:ltr;text-orientation:mixed;dominant-baseline:auto;baseline-shift:baseline;text-anchor:start;white-space:normal;shape-padding:0;shape-margin:0;inline-size:0;clip-rule:nonzero;display:inline;overflow:visible;visibility:visible;isolation:auto;mix-blend-mode:normal;color-interpolation:sRGB;color-interpolation-filters:linearRGB;solid-color:#000000;solid-opacity:1;vector-effect:none;fill:#458aff;fill-opacity:1;fill-rule:nonzero;stroke:none;stroke-width:1;stroke-linecap:butt;stroke-linejoin:miter;stroke-miterlimit:4;stroke-dasharray:none;stroke-dashoffset:0;stroke-opacity:1;color-rendering:auto;image-rendering:auto;shape-rendering:auto;text-rendering:auto;enable-background:accumulate;stop-color:#000000"
         d="m 418,537.36 c -0.55399,0 -1,0.44601 -1,1 v 3 c -1.108,0 -2,0.89201 -2,2 v 4 c 0,3.324 2.676,6 6,6 3.324,0 6,-2.676 6,-6 v -4 c 0,-1.108 -0.89201,-2 -2,-2 v -3 c 0,-0.55399 -0.44601,-1 -1,-1 z m 1,1 c 0.55399,0 1,0.44601 1,1 v 1 c 0,0.55399 -0.44601,1 -1,1 -0.55399,0 -1,-0.44601 -1,-1 v -1 c 0,-0.55399 0.44601,-1 1,-1 z m 4,0 c 0.55399,0 1,0.44601 1,1 v 1 c 0,0.55399 -0.44601,1 -1,1 -0.55399,0 -1,-0.44601 -1,-1 v -1 c 0,-0.55399 0.44601,-1 1,-1 z m -6,4 h 8 c 0.55399,0 1,0.44601 1,1 v 4 c 0,2.76142 -2.23858,5 -5,5 -2.76142,0 -5,-2.23858 -5,-5 v -4 c 0,-0.55399 0.44601,-1 1,-1 z"
         id="path873" />
      <path
         style="color:#363636;font-style:normal;font-variant:normal;font-weight:normal;font-stretch:normal;font-size:medium;line-height:normal;font-family:sans-serif;font-variant-ligatures:normal;font-variant-position:normal;font-variant-caps:normal;font-variant-numeric:normal;font-variant-alternates:normal;font-variant-east-asian:normal;font-feature-settings:normal;font-variation-settings:normal;text-indent:0;text-align:start;text-decoration:none;text-decoration-line:none;text-decoration-style:solid;text-decoration-color:#000000;letter-spacing:normal;word-spacing:normal;text-transform:none;writing-mode:lr-tb;direction:ltr;text-orientation:mixed;dominant-baseline:auto;baseline-shift:baseline;text-anchor:start;white-space:normal;shape-padding:0;shape-margin:0;inline-size:0;clip-rule:nonzero;display:inline;overflow:visible;visibility:visible;opacity:1;isolation:auto;mix-blend-mode:normal;color-interpolation:sRGB;color-interpolation-filters:linearRGB;solid-color:#000000;solid-opacity:1;vector-effect:none;fill:#9fc2ff;fill-opacity:1;fill-rule:nonzero;stroke:none;stroke-width:1;stroke-linecap:butt;stroke-linejoin:miter;stroke-miterlimit:4;stroke-dasharray:none;stroke-dashoffset:0;stroke-opacity:1;color-rendering:auto;image-rendering:auto;shape-rendering:auto;text-rendering:auto;enable-background:accumulate;stop-color:#000000"
         d="m 423,549.35999 c 0,1.10457 -0.89543,2 -2,2 -1.10457,0 -2,-0.89543 -2,-2 0,-1.10457 0.89543,-2 2,-2 1.10457,0 2,0.89543 2,2 z"
         id="path891" />
      <path
         style="color:#363636;font-style:normal;font-variant:normal;font-weight:normal;font-stretch:normal;font-size:medium;line-height:normal;font-family:sans-serif;font-variant-ligatures:normal;font-variant-position:normal;font-variant-caps:normal;font-variant-numeric:normal;font-variant-alternates:normal;font-variant-east-asian:normal;font-feature-settings:normal;font-variation-settings:normal;text-indent:0;text-align:start;text-decoration:none;text-decoration-line:none;text-decoration-style:solid;text-decoration-color:#000000;letter-spacing:normal;word-spacing:normal;text-transform:none;writing-mode:lr-tb;direction:ltr;text-orientation:mixed;dominant-baseline:auto;baseline-shift:baseline;text-anchor:start;white-space:normal;shape-padding:0;shape-margin:0;inline-size:0;clip-rule:nonzero;display:inline;overflow:visible;visibility:visible;isolation:auto;mix-blend-mode:normal;color-interpolation:sRGB;color-interpolation-filters:linearRGB;solid-color:#000000;solid-opacity:1;vector-effect:none;fill:#458aff;fill-opacity:1;fill-rule:nonzero;stroke:none;stroke-width:1;stroke-linecap:butt;stroke-linejoin:miter;stroke-miterlimit:4;stroke-dasharray:none;stroke-dashoffset:0;stroke-opacity:1;color-rendering:auto;image-rendering:auto;shape-rendering:auto;text-rendering:auto;enable-background:accumulate;stop-color:#000000"
         d="m 422,549.35999 c 0,0.55228 -0.44772,1 -1,1 -0.55228,0 -1,-0.44772 -1,-1 0,-0.55228 0.44772,-1 1,-1 0.55228,0 1,0.44772 1,1 z"
         id="path882" />
    </g>
  </g>
  <g
     id="g939"
     transform="translate(91.0033,5)" />
  <g
     id="22-22-device-notifier">
    <rect
       id="rect22"
       fill="none"
       height="22"
       width="22"
       y="5"
       x="39"
       style="color:#363636" />
    <g
       id="g996"
       transform="translate(-16,2)">
      <path
         style="fill:#9fc2ff;fill-opacity:1;stroke:none;stroke-width:1px;stroke-linecap:butt;stroke-linejoin:miter;stroke-opacity:1"
         d="m 63,10 v 11 h 7 V 10 Z"
         id="path968" />
      <path
         id="rect897"
         style="fill:#458aff;fill-opacity:1;stroke-width:0.54281;stroke-linecap:round;stroke-linejoin:round;paint-order:stroke fill markers"
         d="M 46 10 C 45.446 10 45 10.446 45 11 L 45 15 C 45 15.034625 45.016129 15.063958 45.019531 15.097656 C 45.009959 15.230879 45 15.364255 45 15.5 L 45 19.5 C 45 22.547 47.453 25 50.5 25 C 53.547 25 56 22.547 56 19.5 L 56 15.5 C 56 15.364255 55.989999 15.230879 55.980469 15.097656 C 55.983871 15.063958 56 15.034625 56 15 L 56 11 C 56 10.446 55.554 10 55 10 L 46 10 z M 47 12 L 54 12 L 54 16 L 53.998047 16 C 53.998127 16.01134 54 16.021843 54 16.033203 L 54 18.966797 C 53.999953 21.201266 52.439 23 50.5 23 C 48.561 23 47 21.201263 47 18.966797 L 47 16.033203 C 47 16.021843 47.001853 16.01133 47.001953 16 L 47 16 L 47 12 z M 45.328125 15.730469 C 45.353726 15.753989 45.386093 15.768295 45.414062 15.789062 C 45.386371 15.767805 45.353379 15.754536 45.328125 15.730469 z M 55.671875 15.730469 C 55.646621 15.754536 55.613629 15.767805 55.585938 15.789062 C 55.613907 15.768295 55.646274 15.753989 55.671875 15.730469 z M 45.628906 15.925781 C 45.743769 15.971568 45.868425 16 46 16 C 45.867592 16 45.742968 15.972592 45.628906 15.925781 z M 55.371094 15.925781 C 55.257032 15.972592 55.132408 16 55 16 C 55.131575 16 55.256231 15.971568 55.371094 15.925781 z "
         transform="translate(16,-2)" />
      <path
         id="rect944"
         style="fill:#458aff;fill-opacity:1;stroke-width:0.612363;stroke-linecap:round;stroke-linejoin:round;paint-order:stroke fill markers"
         d="M 64,4 C 63.446,4 63,4.4444087 63,4.9964321 V 9.003568 C 63,9.555591 63.446,10 64,10 h 5 c 0.554,0 1,-0.444409 1,-0.996432 V 4.9964321 C 70,4.4444087 69.554,4 69,4 Z m 0.5,1.9928642 h 1 c 0.277,0 0.5,0.2222044 0.5,0.4982161 0,0.2760117 -0.223,0.498216 -0.5,0.498216 h -1 c -0.277,0 -0.5,-0.2222043 -0.5,-0.498216 0,-0.2760117 0.223,-0.4982161 0.5,-0.4982161 z m 3,0 h 1 c 0.277,0 0.5,0.2222044 0.5,0.4982161 0,0.2760117 -0.223,0.498216 -0.5,0.498216 h -1 c -0.277,0 -0.5,-0.2222043 -0.5,-0.498216 0,-0.2760117 0.223,-0.4982161 0.5,-0.4982161 z" />
    </g>
  </g>
  <g
     id="g1019"
     transform="translate(-48,29)">
    <path
       id="path957"
       style="fill:#458aff;fill-opacity:1;stroke-width:0.54281;stroke-linecap:round;stroke-linejoin:round;paint-order:stroke fill markers"
       d="M 93.019531,14.097656 C 93.009959,14.230879 93,14.364255 93,14.5 v 4 c 0,3.047 2.453,5.5 5.5,5.5 3.047,0 5.5,-2.453 5.5,-5.5 v -4 c 0,-0.135745 -0.01,-0.269121 -0.0195,-0.402344 C 103.92944,14.603137 103.51937,15 103,15 h -1.00195 c 8e-5,0.01134 0.002,0.02184 0.002,0.0332 v 2.933594 C 102,20.201263 100.439,22 98.5,22 96.561,22 95,20.201263 95,17.966797 v -2.933594 c 0,-0.01136 0.0019,-0.02187 0.002,-0.0332 H 94 c -0.519375,0 -0.929441,-0.396863 -0.980469,-0.902344 z" />
    <path
       id="path959"
       style="fill:#458aff;fill-opacity:1;stroke-width:0.5;stroke-linecap:round;stroke-linejoin:round;paint-order:stroke fill markers"
       d="m 94,9 c -0.554,0 -1,0.446 -1,1 v 4 c 0,0.554 0.446,1 1,1 h 1 v -4 h 7 v 4 h 1 c 0.554,0 1,-0.446 1,-1 v -4 c 0,-0.554 -0.446,-1 -1,-1 z" />
    <rect
       style="fill:#458aff;fill-opacity:1;stroke-width:0.613458;stroke-linecap:round;stroke-linejoin:round;paint-order:stroke fill markers"
       id="rect961"
       width="7"
       height="6.0212932"
       x="95"
       y="5"
       ry="1" />
  </g>
</svg>
