<?xml version="1.0" encoding="UTF-8" standalone="no"?>
<svg
   id="svg7384"
   width="22"
   height="22"
   version="1.1"
   style="enable-background:new"
   sodipodi:docname="distribute.svg"
   inkscape:version="1.1 (c4e8f9ed74, 2021-05-24)"
   xmlns:inkscape="http://www.inkscape.org/namespaces/inkscape"
   xmlns:sodipodi="http://sodipodi.sourceforge.net/DTD/sodipodi-0.dtd"
   xmlns="http://www.w3.org/2000/svg"
   xmlns:svg="http://www.w3.org/2000/svg">
  <sodipodi:namedview
     id="namedview11"
     pagecolor="#c8c8c8"
     bordercolor="#999999"
     borderopacity="1"
     inkscape:pageshadow="0"
     inkscape:pageopacity="0"
     inkscape:pagecheckerboard="0"
     showgrid="true"
     inkscape:snap-bbox="true"
     inkscape:bbox-nodes="true"
     inkscape:snap-bbox-edge-midpoints="true"
     inkscape:zoom="17.659091"
     inkscape:cx="11.353925"
     inkscape:cy="8.2393822"
     inkscape:window-width="1920"
     inkscape:window-height="962"
     inkscape:window-x="0"
     inkscape:window-y="40"
     inkscape:window-maximized="1"
     inkscape:current-layer="svg7384">
    <inkscape:grid
       type="xygrid"
       id="grid828" />
  </sodipodi:namedview>
  <defs
     id="defs7386">
    <style
       id="current-color-scheme"
       type="text/css">
   .ColorScheme-Text { color:#333333; } .ColorScheme-Highlight { color:#5294e2; } .ColorScheme-ButtonBackground { color:#333333; }
  </style>
  </defs>
  <g
     id="distribute-horizontal-x">
    <rect
       id="rect3338"
       width="22"
       height="22"
       x="-0.00019999999"
       y="0.0033400001"
       style="opacity:0;fill:#0000ff;fill-rule:evenodd;stroke:none;stroke-width:1px;stroke-linecap:butt;stroke-linejoin:miter;stroke-opacity:1" />
    <path
       style="color:#000000;fill:#ff4e5e;stroke-width:0.160883;-inkscape-stroke:none"
       d="m 14.184593,4.8088328 c -0.252535,-1.96e-5 -0.505151,0.096464 -0.697657,0.2890489 -0.385157,0.3851567 -0.385157,1.0094665 0,1.394527 l 2.664652,2.6638483 c 1.162629,1.16295 1.169659,3.049247 0.02344,4.222813 -1.172924,1.145884 -3.059059,1.13826 -4.222009,-0.02422 L 9.2891701,10.690194 c -0.385173,-0.385013 -1.010094,-0.385013 -1.395299,0 -0.385173,0.385494 -0.385173,1.010254 0,1.395299 l 2.6638479,2.664652 c 1.906724,1.906724 4.988463,1.937286 6.935078,0.09609 0.01785,-0.01528 0.03624,-0.02966 0.05311,-0.04687 0.0082,-0.0085 0.01512,-0.01679 0.02344,-0.02499 0.0082,-0.0084 0.01742,-0.01617 0.02579,-0.02422 0.01675,-0.01705 0.03159,-0.03448 0.04687,-0.05234 1.84174,-1.946776 1.810535,-5.0285138 -0.09609,-6.9350769 L 14.882068,5.0980765 C 14.689482,4.9054064 14.436962,4.8090569 14.184411,4.809025 Z M 7.9892681,5.7963115 c -1.2521099,-0.015925 -2.5089489,0.4371599 -3.482578,1.3578049 -0.01785,0.015121 -0.0364,0.030127 -0.05311,0.046875 -0.0082,0.00836 -0.0156,0.017227 -0.02344,0.025786 -0.0084,0.00804 -0.01696,0.015602 -0.025,0.023436 -0.01705,0.017049 -0.03252,0.034646 -0.04766,0.052344 -1.841418,1.9475801 -1.809731,5.0291576 0.09688,6.9358816 l 2.663851,2.663848 c 0.385173,0.385174 1.009306,0.385174 1.394527,0 0.385174,-0.385496 0.385946,-1.009629 7.66e-4,-1.394528 L 5.8488522,12.843106 C 4.6863841,11.680654 4.6780841,9.7945027 5.8246322,8.6210972 6.9974112,7.475052 8.8843341,7.4826924 10.047445,8.6453212 l 2.663849,2.6646518 c 0.385156,0.385013 1.009305,0.384241 1.394527,-7.66e-4 0.385334,-0.385494 0.385945,-1.009466 7.66e-4,-1.3945266 L 11.441952,7.2500107 C 10.488639,6.2966326 9.2418371,5.8120699 7.9899351,5.7961138 Z"
       id="path18" />
  </g>
  <g
     id="16-16-distribute-horizontal-x">
    <rect
       id="rect4142"
       width="16"
       height="16"
       x="23.9998"
       y="6.0033398"
       style="opacity:0;fill:#0000ff;fill-rule:evenodd;stroke:none;stroke-width:1px;stroke-linecap:butt;stroke-linejoin:miter;stroke-opacity:1" />
    <path
       style="color:#000000;fill:#333333;stroke-width:0.140773;-inkscape-stroke:none"
       d="m 34.786317,8.5860711 c -0.220968,-1.72e-5 -0.442007,0.084406 -0.610449,0.2529177 -0.337013,0.3370119 -0.337013,0.8832827 0,1.2202102 l 2.331569,2.330866 c 1.0173,1.017581 1.023451,2.668089 0.02051,3.69496 -1.026308,1.002648 -2.676675,0.995977 -3.694256,-0.0212 l -2.330867,-2.33157 c -0.337026,-0.336886 -0.883831,-0.336886 -1.220886,0 -0.337026,0.337308 -0.337026,0.883972 0,1.220886 l 2.330866,2.33157 c 1.668383,1.668382 4.364903,1.695124 6.06819,0.08408 0.01562,-0.01337 0.03171,-0.02596 0.04647,-0.04101 0.0072,-0.0075 0.01323,-0.01469 0.02051,-0.02187 0.0072,-0.0073 0.01524,-0.01415 0.02257,-0.0212 0.01466,-0.01492 0.02764,-0.03017 0.04101,-0.0458 1.611521,-1.703428 1.584217,-4.399947 -0.08408,-6.068189 L 35.396607,8.8391593 C 35.228095,8.6705731 35.00714,8.5862673 34.786158,8.5862394 Z m -5.420906,0.8640434 c -1.095596,-0.013934 -2.19533,0.3825147 -3.047254,1.1880785 -0.01562,0.01323 -0.03185,0.02636 -0.04647,0.04102 -0.0072,0.0073 -0.01365,0.01507 -0.02051,0.02256 -0.0073,0.007 -0.01484,0.01365 -0.02188,0.02051 -0.01492,0.01492 -0.02845,0.03031 -0.0417,0.0458 -1.61124,1.704132 -1.583514,4.40051 0.08477,6.068893 l 2.330868,2.330866 c 0.337026,0.337027 0.883142,0.337027 1.220211,0 0.337027,-0.337309 0.337702,-0.883425 6.7e-4,-1.220212 l -2.331568,-2.33157 c -1.017159,-1.017144 -1.024422,-2.667526 -0.02119,-3.694256 1.026181,-1.002788 2.677238,-0.996103 3.69496,0.0212 l 2.330866,2.33157 c 0.337012,0.336886 0.883142,0.33621 1.220211,-6.7e-4 0.337167,-0.337308 0.337701,-0.883283 6.7e-4,-1.220211 L 32.386511,10.722101 C 31.552362,9.8878952 30.461411,9.4639031 29.365997,9.4499415 Z"
       id="path874" />
  </g>
</svg>
