<?xml version="1.0" encoding="UTF-8" standalone="no"?>
<svg
   id="svg38"
   viewBox="0 0 32 32"
   version="1.1"
   sodipodi:docname="drive.svg"
   width="32"
   height="32"
   inkscape:version="1.1.1 (3bf5ae0d25, 2021-09-20, custom)"
   xmlns:inkscape="http://www.inkscape.org/namespaces/inkscape"
   xmlns:sodipodi="http://sodipodi.sourceforge.net/DTD/sodipodi-0.dtd"
   xmlns="http://www.w3.org/2000/svg"
   xmlns:svg="http://www.w3.org/2000/svg"
   xmlns:rdf="http://www.w3.org/1999/02/22-rdf-syntax-ns#"
   xmlns:cc="http://creativecommons.org/ns#"
   xmlns:dc="http://purl.org/dc/elements/1.1/">
  <sodipodi:namedview
     pagecolor="#ffffff"
     bordercolor="#666666"
     borderopacity="1"
     objecttolerance="10"
     gridtolerance="10"
     guidetolerance="10"
     inkscape:pageopacity="0"
     inkscape:pageshadow="2"
     inkscape:window-width="1920"
     inkscape:window-height="980"
     id="namedview23"
     showgrid="true"
     inkscape:zoom="7.535925"
     inkscape:cx="3.1183962"
     inkscape:cy="33.771567"
     inkscape:window-x="0"
     inkscape:window-y="0"
     inkscape:window-maximized="1"
     inkscape:current-layer="svg38"
     inkscape:pagecheckerboard="0"
     inkscape:snap-bbox="true"
     inkscape:bbox-nodes="true"
     inkscape:snap-bbox-edge-midpoints="true">
    <inkscape:grid
       type="xygrid"
       id="grid881" />
  </sodipodi:namedview>
  <metadata
     id="metadata40">
    <rdf:RDF>
      <cc:Work
         rdf:about="">
        <dc:format>image/svg+xml</dc:format>
        <dc:type
           rdf:resource="http://purl.org/dc/dcmitype/StillImage" />
        <dc:title />
      </cc:Work>
    </rdf:RDF>
  </metadata>
  <defs
     id="defs5">
    <style
       type="text/css"
       id="current-color-scheme">.ColorScheme-Text { color:#363636; }</style>
  </defs>
  <g
     id="drive">
    <path
       id="rect6476"
       style="fill:#9fc2ff;fill-rule:evenodd;stroke-width:0.97397;stroke-linecap:round;stroke-linejoin:round"
       d="m 8,9 h 16 l 4,10 H 4 Z"
       sodipodi:nodetypes="ccccc" />
    <rect
       x="0"
       y="2.6171874e-06"
       width="32"
       height="32"
       fill-opacity="0"
       id="rect7"
       style="color:#363636;fill:#363636" />
    <g
       id="g1673"
       transform="translate(-321,-529.36218)">
      <path
         id="rect1324"
         style="fill:#458aff;fill-opacity:1;fill-rule:evenodd;stroke-width:0.5;stroke-linejoin:round"
         d="m 330.52734,537.36218 c -2.01571,0 -3.51403,1.1491 -4.25781,2.92772 l -3.6875,9.58009 c -0.3126,0.72227 -0.58203,1.59746 -0.58203,2.49217 0,2.8996 2.17771,5.00002 5.29297,5.00002 h 19.41406 c 3.11521,0 5.29297,-2.10042 5.29297,-5.00002 0,-0.87312 -0.24699,-1.73773 -0.54883,-2.4492 l -3.70898,-9.62306 c -0.75451,-1.77862 -2.2528,-2.92772 -4.25782,-2.92772 z m 0.0215,1.99998 h 12.90234 c 1.12098,0 1.95189,0.48508 2.31836,1.41211 l 2.34961,6.8125 c -0.43109,-0.14018 -0.90546,-0.22461 -1.41211,-0.22461 h -19.41406 c -0.50664,0 -0.97118,0.0844 -1.40235,0.22461 l 2.35157,-6.8125 c 0.3665,-0.92703 1.19638,-1.41211 2.30664,-1.41211 z m -3.25586,10 h 19.41406 c 1.94026,0 3.29296,1.28602 3.29296,3 0,1.89709 -1.3527,2.99414 -3.29296,2.99414 h -19.41406 c -1.9403,0 -3.29298,-1.26949 -3.29298,-2.99414 0,-1.71398 1.35268,-3 3.29298,-3 z"
         sodipodi:nodetypes="sccssssccssssccssccssssssss" />
      <g
         id="g1563">
        <rect
           style="fill:#458aff;fill-opacity:1;fill-rule:evenodd;stroke-width:0.5;stroke-linejoin:round"
           id="rect1468"
           width="1"
           height="4"
           x="346"
           y="550.36218"
           ry="0.5" />
        <rect
           style="fill:#458aff;fill-opacity:1;fill-rule:evenodd;stroke-width:0.5;stroke-linejoin:round"
           id="rect1550"
           width="1"
           height="4"
           x="344"
           y="550.36218"
           ry="0.5" />
        <rect
           style="fill:#458aff;fill-opacity:1;fill-rule:evenodd;stroke-width:0.5;stroke-linejoin:round"
           id="rect1552"
           width="1"
           height="4"
           x="342"
           y="550.36218"
           ry="0.5" />
        <rect
           style="fill:#458aff;fill-opacity:1;fill-rule:evenodd;stroke-width:0.5;stroke-linejoin:round"
           id="rect1554"
           width="1"
           height="4"
           x="340"
           y="550.36218"
           ry="0.5" />
        <rect
           style="fill:#458aff;fill-opacity:1;fill-rule:evenodd;stroke-width:0.5;stroke-linejoin:round"
           id="rect1556"
           width="1"
           height="4"
           x="338"
           y="550.36218"
           ry="0.5" />
      </g>
    </g>
  </g>
  <g
     id="22-22-drive"
     transform="translate(-27,25)">
    <path
       id="rect9275"
       style="opacity:1;fill:#9fc2ff;fill-rule:evenodd;stroke-width:0.711287;stroke-linecap:round;stroke-linejoin:round"
       d="m 38,15 h 10 l 3,7 H 35 Z"
       sodipodi:nodetypes="ccccc" />
    <rect
       y="10.000003"
       x="32"
       height="22"
       width="22"
       id="rect817-1"
       style="clip-rule:evenodd;fill:#ffffff;fill-opacity:0;fill-rule:evenodd;stroke-width:0.546348;stroke-linejoin:round;stroke-miterlimit:1.41421" />
    <g
       id="g4855"
       transform="translate(-321,-529.36218)">
      <path
         id="rect3984"
         style="fill:#458aff;fill-opacity:1;fill-rule:evenodd;stroke-width:0.5;stroke-linejoin:round"
         d="m 39.558594,13.624983 c -1.55055,0 -2.703251,0.721684 -3.275391,2.089844 l -2.835937,7.521501 C 33.206806,23.791908 33,24.40551 33,25.09375 33,27.32421 34.675916,29 37.072266,29 H 48.929688 C 51.325997,29 53,27.32421 53,25.09375 53,24.42212 52.810305,23.816811 52.578125,23.269531 l -2.853516,-7.554704 c -0.5804,-1.36816 -1.73307,-2.089844 -3.27539,-2.089844 z m 0.01758,1.375 h 6.847656 c 0.86229,0 1.501313,0.37478 1.783203,1.087891 l 1.808594,5.28322 c -0.33162,-0.10783 -0.696209,-0.173828 -1.085937,-0.173828 H 37.072266 c -0.38973,0 -0.746455,0.06601 -1.078125,0.173828 l 1.80664,-5.28322 c 0.28193,-0.713111 0.921341,-1.087891 1.775391,-1.087891 z M 37,23 h 12 c 1.107989,0 2,0.892011 2,2 0,1.107989 -0.892011,2 -2,2 H 37 c -1.107989,0 -2,-0.892011 -2,-2 0,-1.107989 0.892011,-2 2,-2 z"
         transform="translate(321,529.36218)"
         sodipodi:nodetypes="sccssssccssssccssccsssssssss" />
      <g
         id="g4229">
        <rect
           style="fill:#458aff;fill-opacity:1;fill-rule:evenodd;stroke-width:0.5;stroke-linejoin:round"
           id="rect4137"
           width="1"
           height="2"
           x="369"
           y="553.36218"
           ry="0.5" />
        <rect
           style="fill:#458aff;fill-opacity:1;fill-rule:evenodd;stroke-width:0.5;stroke-linejoin:round"
           id="rect4219"
           width="1"
           height="2"
           x="367"
           y="553.36218"
           ry="0.5" />
        <rect
           style="fill:#458aff;fill-opacity:1;fill-rule:evenodd;stroke-width:0.5;stroke-linejoin:round"
           id="rect4221"
           width="1"
           height="2"
           x="365"
           y="553.36218"
           ry="0.5" />
        <rect
           style="fill:#458aff;fill-opacity:1;fill-rule:evenodd;stroke-width:0.5;stroke-linejoin:round"
           id="rect4223"
           width="1"
           height="2"
           x="363"
           y="553.36218"
           ry="0.5" />
      </g>
    </g>
  </g>
</svg>
