<?xml version="1.0" encoding="UTF-8" standalone="no"?>
<svg
   id="svg213"
   version="1.1"
   height="22"
   width="22"
   sodipodi:docname="fcitx.svg"
   inkscape:version="1.1.1 (3bf5ae0d25, 2021-09-20, custom)"
   xmlns:inkscape="http://www.inkscape.org/namespaces/inkscape"
   xmlns:sodipodi="http://sodipodi.sourceforge.net/DTD/sodipodi-0.dtd"
   xmlns="http://www.w3.org/2000/svg"
   xmlns:svg="http://www.w3.org/2000/svg"
   xmlns:rdf="http://www.w3.org/1999/02/22-rdf-syntax-ns#"
   xmlns:cc="http://creativecommons.org/ns#"
   xmlns:dc="http://purl.org/dc/elements/1.1/">
  <sodipodi:namedview
     pagecolor="#ffffff"
     bordercolor="#666666"
     borderopacity="1"
     objecttolerance="10"
     gridtolerance="10"
     guidetolerance="10"
     inkscape:pageopacity="0"
     inkscape:pageshadow="2"
     inkscape:window-width="1920"
     inkscape:window-height="1005"
     id="namedview129"
     showgrid="true"
     inkscape:snap-bbox="true"
     inkscape:bbox-nodes="true"
     inkscape:snap-bbox-edge-midpoints="true"
     inkscape:zoom="4.7561983"
     inkscape:cx="1.1563858"
     inkscape:cy="43.522155"
     inkscape:window-x="0"
     inkscape:window-y="0"
     inkscape:window-maximized="1"
     inkscape:current-layer="svg213"
     inkscape:pagecheckerboard="0">
    <inkscape:grid
       type="xygrid"
       id="grid954" />
  </sodipodi:namedview>
  <metadata
     id="metadata217">
    <rdf:RDF>
      <cc:Work
         rdf:about="">
        <dc:format>image/svg+xml</dc:format>
        <dc:type
           rdf:resource="http://purl.org/dc/dcmitype/StillImage" />
      </cc:Work>
    </rdf:RDF>
  </metadata>
  <defs
     id="defs3">
    <style
       type="text/css"
       id="current-color-scheme">.ColorScheme-Text { color:#363636; }</style>
  </defs>
  <g
     id="fcitx-pinyin"
     transform="translate(-158,-58)">
    <path
       id="path5"
       fill="currentColor"
       d="M 6,3 C 4.338,3 3,4.338 3,6 v 10 c 0,1.662 1.338,3 3,3 h 10 c 1.662,0 3,-1.338 3,-3 V 6 C 19,4.338 17.662,3 16,3 Z m 4.9004,1.7012 1.5,2 -0.39844,0.29883 h 1.9961 l -0.39844,-0.29883 1.5,-2 0.80078,0.59961 -1.2754,1.6992 H 17 v 1 h -2 v 3 h 2 v 1 h -2 v 5 h -1 v -5 h -2.041 c -0.096,1.119 -0.47678,2.0286 -0.92578,2.8066 -0.621,1.075 -1.6914,2.0586 -1.6914,2.0586 L 8.65823,16.13669 c 0,0 1.0128,-0.97008 1.5098,-1.8301 0.402,-0.695 0.70497,-1.4116 0.79297,-2.3066 H 9.0001 v -0.94141 l -1,0.5 v 5.4414 h -3 v -1 h 2 v -3.9395 l -1.7773,0.88672 -0.44531,-0.89453 2.2227,-1.1113 v -2.9414 h -2 v -1 h 2 v -2 h 1 v 2 h 1 v 1 h -1 v 2.4395 l 0.77734,-0.38672 0.44531,0.89453 -0.10547,0.05273 h 1.8828 v -3 h -1 v -1 h 1.375 l -1.2754,-1.6992 z M 12,8 v 3 h 2 V 8 Z"
       class="ColorScheme-Text" />
    <path
       id="path7"
       fill="none"
       d="M 0,0 H 22 V 22 H 0 Z" />
  </g>
  <g
     id="fcitx-shuangpin"
     transform="translate(-158,-58)">
    <path
       id="path10"
       fill="currentColor"
       d="m 50,3 c -1.662,0 -3,1.338 -3,3 v 10 c 0,1.662 1.338,3 3,3 h 10 c 1.662,0 3,-1.338 3,-3 V 6 C 63,4.338 61.662,3 60,3 Z m -1,2 h 5.5488 l -0.05078,0.54883 c 0,0 -0.32761,3.5209 -1.2246,6.1289 0.6511,0.97991 1.2642,1.9846 1.8379,3.0117 l -0.86914,0.49024 c -0.53902,-0.954 -0.98488,-1.689 -1.4219,-2.375 -1.395,3.125 -3.3652,4.4883 -3.3652,4.4883 l -0.55664,-0.83203 c 0,0 1.9707,-1.3133 3.2637,-4.6562 -0.766,-1.106 -1.6347,-2.2202 -3.0527,-3.9902 l 0.78125,-0.62695 c 1.181,1.475 1.974,2.4921 2.668,3.4551 0.552,-1.906 0.79814,-3.9996 0.86914,-4.6426 h -4.4277 v -1 z m 6,0 h 6 v 0.5 c 0,2.147 -0.83303,4.9682 -1.707,6.9082 -0.111,0.246 -0.24219,0.46536 -0.36719,0.69336 0.624,1.083 1.4598,2.1135 2.8438,3.2305 l -0.62695,0.7793 c -1.282,-1.034 -2.1467,-2.0405 -2.8027,-3.0645 -1.394,1.987 -3.1035,3.0371 -3.1035,3.0371 l -0.51758,-0.85547 c 0,0 1.7804,-1.1006 3.0684,-3.1426 -0.337,-0.649 -0.62072,-1.3072 -0.88672,-1.9922 -0.75795,-1.957 -1.2085,-4.5018 -1.3105,-5.0938 h -0.58984 v -1 z m 1.6074,1 c 0.14,0.765 0.56855,3.0334 1.2266,4.7324 0.16738,0.43214 0.34714,0.85943 0.53906,1.2812 l 0.0078,-0.01563 c 0.75703,-1.68 1.434,-4.145 1.543,-5.998 h -3.3164 z"
       class="ColorScheme-Text" />
    <path
       id="path12"
       fill="none"
       d="M 44,0 H 66 V 22 H 44 Z" />
  </g>
  <g
     id="fcitx-wubi"
     transform="translate(-158,-58)">
    <path
       id="path15"
       fill="currentColor"
       d="m 160,3 c -1.662,0 -3,1.338 -3,3 v 10 c 0,1.662 1.338,3 3,3 h 10 c 1.662,0 3,-1.338 3,-3 V 6 c 0,-1.662 -1.338,-3 -3,-3 z m 0,3 h 9 v 1 h -4.0977 l -0.66601,3 h 3.7637 v 5 h 2 v 1 h -10 v -1 h 2.0996 l 0.88867,-4 h -1.9883 v -1 h 2.2109 l 0.66601,-3 h -3.877 V 6 Z m 4.0137,5 -0.89062,4 h 3.877 v -4 h -2.9863 z"
       class="ColorScheme-Text" />
    <path
       id="path17"
       fill="none"
       d="m 154,0 h 22 v 22 h -22 z" />
  </g>
  <g
     id="fcitx-googlepinyin"
     transform="translate(-158,-58)">
    <path
       id="path20"
       fill="currentColor"
       d="m 6,47.002 c -1.662,0 -3,1.338 -3,3 v 10 c 0,1.662 1.338,3 3,3 h 10 c 1.662,0 3,-1.338 3,-3 v -10 c 0,-1.662 -1.338,-3 -3,-3 z m 5.0078,2.5 c 1.2953,1.74e-4 2.5487,0.45811 3.5391,1.293 l -1.291,1.5293 c -1.3385,-1.1366 -3.3132,-1.1006 -4.6094,0.08398 -1.3038,1.177 -1.5296,3.1396 -0.52734,4.582 1,1.45 2.9007,1.9289 4.4707,1.1289 0.8479,-0.43334 1.4796,-1.1972 1.7461,-2.1113 h -3.3359 v -2 h 3.3438 l -0.002,-0.0078 h 2.0566 c 0.434,2.355 -0.70844,4.7834 -2.8984,5.9004 -2.4559,1.2473 -5.4557,0.49008 -7.0254,-1.7734 -1.5619,-2.2691 -1.2092,-5.3429 0.82617,-7.1992 0.98671,-0.89547 2.2654,-1.4015 3.5977,-1.4238 0.03645,-0.001 0.07292,-0.0016 0.10937,-0.002 z"
       class="ColorScheme-Text" />
    <path
       id="path22"
       fill="none"
       d="M 0,44 H 22 V 66 H 0 Z" />
  </g>
  <g
     id="fcitx-sunpinyin"
     transform="translate(-158,-58)">
    <path
       id="path25"
       fill="currentColor"
       d="m 33,45.514 c -0.256,0 -0.511,0.099 -0.707,0.295 L 30.102,48 H 27 c -0.554,0 -1,0.446 -1,1 v 3.1 l -2.193,2.193 a 0.998,0.998 0 0 0 0,1.414 L 26,57.9 V 61 c 0,0.554 0.446,1 1,1 h 3.1 l 2.193,2.193 a 0.998,0.998 0 0 0 1.414,0 L 35.9,62 H 39 c 0.554,0 1,-0.446 1,-1 v -3.102 l 2.191,-2.191 a 0.998,0.998 0 0 0 0,-1.414 L 40,52.102 V 49 c 0,-0.554 -0.446,-1 -1,-1 H 35.898 L 33.707,45.809 A 0.998,0.998 0 0 0 33,45.514 Z m -0.1,3.186 1.5,2 -0.398,0.299 h 1.996 L 35.6,50.7 l 1.5,-2 0.8,0.6 -1.275,1.7 H 39 v 1 h -2 v 3 h 2 v 1 h -2 v 5 h -1 v -5 h -2.041 c -0.096,1.119 -0.477,2.03 -0.926,2.807 -0.62,1.075 -1.691,2.058 -1.691,2.058 l -0.684,-0.728 c 0,0 1.013,-0.97 1.51,-1.83 0.401,-0.695 0.704,-1.412 0.793,-2.307 H 31 v -0.941 l -1,0.5 V 61 h -3 v -1 h 2 V 56.059 L 27.223,56.947 26.777,56.053 29,54.94 V 52 h -2 v -1 h 2 v -2 h 1 v 2 h 1 v 1 h -1 v 2.441 l 0.777,-0.388 0.446,0.894 L 31.117,55 H 33 v -3 h -1 v -1 h 1.375 L 32.1,49.3 32.9,48.701 Z M 34,52 v 3 h 2 v -3 z"
       class="ColorScheme-Text" />
    <path
       id="path27"
       fill="none"
       d="M 22,44 H 44 V 66 H 22 Z" />
  </g>
  <g
     transform="translate(-158,-96)"
     id="fcitx-emoji">
    <path
       id="path30"
       fill="none"
       d="m 0,170 h 22 v 22 H 0 Z" />
    <path
       id="path32"
       fill="currentColor"
       d="m 3.223,150.053 -0.446,0.894 4,2 0.446,-0.894 z m 15.554,0 -4,2 0.446,0.894 4,-2 z M 4,153 a 1,1 0 0 0 -1,1 1,1 0 0 0 1,1 1,1 0 0 0 1,-1 1,1 0 0 0 -1,-1 z m 14,0 a 1,1 0 0 0 -1,1 1,1 0 0 0 1,1 1,1 0 0 0 1,-1 1,1 0 0 0 -1,-1 z m -9.9,1.7 c -0.81,1.08 -1.235,2.288 -1.16,3.335 0.037,0.524 0.21,1.022 0.568,1.39 C 7.866,159.795 8.396,160 9,160 c 0.961,0 1.639,-0.68 2,-1.457 0.361,0.776 1.039,1.457 2,1.457 0.604,0 1.134,-0.205 1.492,-0.574 0.359,-0.37 0.531,-0.867 0.569,-1.39 0.074,-1.048 -0.35,-2.257 -1.16,-3.337 l -0.801,0.602 c 0.69,0.92 1.015,1.961 0.964,2.664 -0.025,0.351 -0.133,0.603 -0.29,0.765 C 13.616,158.893 13.396,159 13,159 12.472,159 12.16,158.693 11.893,158.105 11.625,157.518 11.5,156.695 11.5,156 h -1 c 0,0.694 -0.125,1.518 -0.393,2.105 C 9.84,158.693 9.527,159 9,159 8.604,159 8.384,158.893 8.227,158.73 8.069,158.568 7.961,158.316 7.936,157.965 7.886,157.262 8.21,156.221 8.9,155.301 l -0.8,-0.602 z"
       transform="translate(0,26)"
       class="ColorScheme-Text" />
  </g>
  <g
     id="fcitx-erbi"
     transform="translate(-158,-58)">
    <path
       id="path35"
       fill="currentColor"
       d="m 138,3 c -1.662,0 -3,1.338 -3,3 v 10 c 0,1.662 1.338,3 3,3 h 10 c 1.662,0 3,-1.338 3,-3 V 6 c 0,-1.662 -1.338,-3 -3,-3 z m 0,4 h 10 v 1 h -10 z m -1,7 h 12 v 1 h -12 z"
       class="ColorScheme-Text" />
    <path
       id="path37"
       fill="none"
       d="m 132,0 h 22 v 22 h -22 z" />
  </g>
  <g
     id="fcitx-ziranma"
     transform="translate(-158,-58)">
    <path
       id="path40"
       fill="currentColor"
       d="m 204,3 c -1.662,0 -3,1.338 -3,3 v 10 c 0,1.662 1.338,3 3,3 h 10 c 1.662,0 3,-1.338 3,-3 V 6 c 0,-1.662 -1.338,-3 -3,-3 z m 3.6797,1.6152 0.64062,0.76953 -1.9375,1.6152 h 7.6172 v 10 h -10 v -10 h 0.81836 l 2.8613,-2.3848 z M 205,8 v 2 h 6 v 1 h -6 v 2 h 6 v 1 h -6 v 2 h 8 V 8 Z"
       class="ColorScheme-Text" />
    <path
       id="path42"
       fill="none"
       d="m 198,0 h 22 v 22 h -22 z" />
  </g>
  <g
     id="fcitx-quanpin"
     transform="translate(-158,-58)">
    <path
       id="path45"
       fill="currentColor"
       d="m 28,3 c -1.662,0 -3,1.338 -3,3 v 10 c 0,1.662 1.338,3 3,3 h 10 c 1.662,0 3,-1.338 3,-3 V 6 C 41,4.338 39.662,3 38,3 Z m 4.5098,1.9023 0.98047,0.19531 c -0.01,0.049996 -0.03388,0.096484 -0.04687,0.14648 1.877,2.289 5.7324,3.7871 5.7324,3.7871 l -0.35156,0.9375 c 0,0 -0.80822,-0.32089 -1.8242,-0.83789 v 0.86914 h -3.5 v 2 h 2.5 v 1 h -2.5 v 3 h 4.5 v 1 h -10 v -1 h 4.5 v -3 h -2.5 v -1 h 2.5 v -2 h -3.5 V 9.17572 c -1.03,0.501 -1.8301,0.79492 -1.8301,0.79492 L 26.8301,9.02923 c 0,0 1.3413,-0.48934 2.7363,-1.2773 1.396,-0.789 2.7574,-1.9196 2.9434,-2.8496 z m 0.49023,1.3301 c -0.668,0.996 -1.8454,1.7716 -2.9414,2.3906 -0.247,0.14 -0.4837,0.25595 -0.7207,0.37695 h 7.3965 c -1.191,-0.63 -2.6184,-1.5526 -3.7344,-2.7676 z"
       class="ColorScheme-Text" />
    <path
       id="path47"
       fill="none"
       d="M 22,0 H 44 V 22 H 22 Z" />
  </g>
  <g
     id="fcitx-cangjie"
     transform="translate(-158,-58)">
    <path
       id="path50"
       fill="currentColor"
       d="m 226,3 c -1.662,0 -3,1.338 -3,3 v 10 c 0,1.662 1.338,3 3,3 h 10 c 1.662,0 3,-1.338 3,-3 V 6 c 0,-1.662 -1.338,-3 -3,-3 z m 4.584,1.7227 h 0.83204 c 1.844,2.765 5.6465,3.2812 5.6465,3.2812 l -0.125,0.99219 c 0,-1e-7 -0.8335,-0.12316 -1.9375,-0.53516 v 4.5391 h -7.0547 c -0.0412,0.33966 -0.11515,0.67454 -0.2207,1 h 7.2754 v 3 h -8 v -1.377 c -0.022,0.04 -0.0444,0.086 -0.0664,0.125 -0.52103,0.91105 -1.043,1.5645 -1.043,1.5645 l -0.78124,-0.625 c -1e-5,0 0.47703,-0.59555 0.95703,-1.4355 0.48,-0.839 0.93359,-1.919 0.93359,-2.752 v -4.0391 c -1.104,0.411 -1.9375,0.53516 -1.9375,0.53516 l -0.125,-0.99219 c 0,0 3.8025,-0.51625 5.6465,-3.2812 z m 0.41602,0.98047 c -0.859,1.07 -1.9336,1.7989 -2.9336,2.2969 h 2.5312 l -0.875,-0.58398 0.55468,-0.83203 1.5,1 -0.27734,0.41602 h 2.4336 c -1.001,-0.498 -2.0746,-1.2269 -2.9336,-2.2969 z m -3,3.2969 v 1 h 5 v 1 h -5 v 1 h 6 v -3 z m 0,6 v 1 h 6 v -1 z"
       class="ColorScheme-Text" />
    <path
       id="path52"
       fill="none"
       d="m 220,0 h 22 v 22 h -22 z" />
  </g>
  <g
     id="fcitx-bopomofo"
     transform="translate(-158,-58)">
    <path
       id="path55"
       fill="currentColor"
       d="m 72,3 c -1.662,0 -3,1.338 -3,3 v 10 c 0,1.662 1.338,3 3,3 h 10 c 1.662,0 3,-1.338 3,-3 V 6 C 85,4.338 83.662,3 82,3 Z m 5.3008,1.5996 2,1.5 -0.60156,0.80078 -2,-1.5 z m -5.9473,0.046875 2,2 -0.70703,0.70703 -2,-2 z M 74,6.999975 h 9 v 1 h -4 v 3 h 3 v 1 h -3 v 4 h 4 v 1 h -9 v -1 h 4 v -4 h -3 v -1 h 3 v -3 h -4 z m -2.6465,0.64648 2,2 -0.70703,0.70703 -2,-2 z m 1.1719,3.1953 0.94922,0.31641 -2,6 -0.94922,-0.31641 z"
       class="ColorScheme-Text" />
    <path
       id="path57"
       fill="none"
       d="M 66,0 H 88 V 22 H 66 Z" />
  </g>
  <g
     id="fcitx-chewing"
     transform="translate(-158,-58)">
    <path
       id="path60"
       fill="currentColor"
       d="m 94,3 c -1.662,0 -3,1.338 -3,3 v 10 c 0,1.662 1.338,3 3,3 h 10 c 1.662,0 3,-1.338 3,-3 V 6 c 0,-1.662 -1.338,-3 -3,-3 z m -1,2 h 6 v 1 h -2 v 3 h 2 L 98.59961,8.69922 c 0,-1e-7 1.4004,-1.9492 1.4004,-3.6992 h 1 c 0,0.709 -0.16481,1.389 -0.38281,2 H 102 v -2 h 1 v 2 h 2 v 1 h -2 v 2 h 2 v 1 h -5 v -1 h 2 v -2 h -1.8027 c -0.398,0.79002 -0.79688,1.3008 -0.79688,1.3008 L 99.00003,9.00004 v 8 h -6 v -8 h 1 v -3 h -1 v -1 z m 2,1 v 3 h 1 V 6 Z m 0,4 v 3 h -1 v 1 h 3 v 1 h -3 v 1 h 4 v -6 h -1 v 3 h -1 v -3 z m 5,2 h 5 v 5 h -5 z m 1,1 v 3 h 3 v -3 z"
       class="ColorScheme-Text" />
    <path
       id="path62"
       fill="none"
       d="m 88,0 h 22 V 22 H 88 Z" />
  </g>
  <g
     id="fcitx-rime"
     transform="translate(-158,-58)">
    <path
       id="path65"
       fill="currentColor"
       d="m 116,3 c -1.662,0 -3,1.338 -3,3 v 10 c 0,1.662 1.338,3 3,3 h 10 c 1.662,0 3,-1.338 3,-3 V 6 c 0,-1.662 -1.338,-3 -3,-3 z m 4,2 h 1 v 6.9824 c 1.811,-0.082 2.7207,-0.60619 3.2617,-1.4922 0.59,-0.965 0.73828,-2.5102 0.73828,-4.4902 h 1 c 0,2.02 -0.10172,3.7248 -0.88672,5.0098 -0.726,1.189 -2.0633,1.8747 -4.1133,1.9707 V 16 h 5 v 1 h -11 v -1 h 5 v -3.0195 c -2.05,-0.096 -3.3873,-0.7817 -4.1133,-1.9707 C 115.10166,9.7248 114.99994,8.02 114.99994,6 h 1 c 0,1.98 0.14828,3.5252 0.73828,4.4902 0.542,0.88601 1.4507,1.4112 3.2617,1.4922 V 5 Z"
       class="ColorScheme-Text" />
    <path
       id="path67"
       fill="none"
       d="m 110,0 h 22 v 22 h -22 z" />
  </g>
  <g
     transform="translate(-158,-118)"
     id="fcitx-unikey">
    <path
       id="path70"
       fill="none"
       d="m 0,170 h 22 v 22 H 0 Z" />
    <path
       id="path72"
       fill="currentColor"
       d="m 4,126 v 8 h 3 v 7 h 8 v -7 h 3 v -8 h -7 z m 1,1 h 6 v 6 H 5 Z m 7,0 h 5 v 6 h -5 z m -6,1 v 1.5 c 0,0.806 0.123,1.423 0.484,1.875 C 6.846,131.827 7.417,132 8,132 8.583,132 9.154,131.827 9.516,131.375 9.877,130.923 10,130.305 10,129.5 V 128 H 9 v 1.5 c 0,0.694 -0.127,1.077 -0.266,1.25 C 8.596,130.923 8.417,131 8,131 7.583,131 7.404,130.923 7.266,130.75 7.127,130.577 7,130.194 7,129.5 V 128 Z m 8,0 v 4 h 1 v -4 z m -6,6 h 6 v 6 H 8 Z m 2,1 H 9 v 4 h 1 v -2.498 L 12,139 h 1 v -4 h -1 v 2.498 z"
       transform="translate(0,48)"
       class="ColorScheme-Text" />
  </g>
  <g
     id="fcitx-anthy"
     transform="translate(-158,-58)"><path
   id="path75"
   fill="none"
   d="M 0,66 H 22 V 88 H 0 Z" />
<path
   id="path77"
   fill="currentColor"
   d="m 11,69 c -1.099,0 -2,0.901 -2,2 v 0.002 c 10e-4,0.609 0.333,1.122 0.795,1.496 C 9.65,73.474 9.422,74.731 9.025,75.754 8.814,76.3 8.558,76.768 8.291,77.07 8.024,77.372 7.784,77.5 7.5,77.5 7.202,77.5 6.96,77.389 6.707,77.152 6.454,76.916 6.212,76.552 6.006,76.115 5.626,75.311 5.398,74.3 5.244,73.471 5.684,73.096 6,72.591 6,72 6,70.901 5.099,70 4,70 c -1.099,0 -2,0.901 -2,2 10e-4,0.821 0.564,1.455 1.299,1.758 L 5.08,84 h 11.84 l 1.781,-10.24 c 0.736,-0.303 1.3,-0.938 1.299,-1.76 0,-1.099 -0.901,-2 -2,-2 -1.099,0 -2,0.901 -2,2 0,0.592 0.316,1.096 0.756,1.47 -0.154,0.83 -0.382,1.841 -0.762,2.645 -0.206,0.436 -0.448,0.801 -0.701,1.037 C 15.039,77.389 14.798,77.5 14.5,77.5 14.216,77.5 13.976,77.372 13.709,77.07 13.442,76.769 13.186,76.3 12.975,75.754 12.578,74.732 12.35,73.476 12.205,72.5 12.667,72.126 13,71.61 13,71 13,69.901 12.099,69 11,69 Z m 0,1 c 0.558,0 1,0.442 1,1 0,0.384 -0.218,0.73 -0.563,0.898 l -0.326,0.159 -0.222,-0.002 -0.326,-0.159 C 10.21974,71.72923 10.00132,71.38163 10,71 V 70.998 C 9.99663,70.44465 10.44666,69.9955 11,70 Z m -7,1 c 0.558,0 1,0.442 1,1 6.06e-4,0.37382 -0.20836,0.71643 -0.541,0.887 L 4.166,73.039 3.838,72.984 C 3.35422,72.90755 2.99844,72.48978 3,72 3,71.442 3.442,71 4,71 Z m 14,0 c 0.558,0 1,0.442 1,1 0,0.493 -0.35,0.907 -0.838,0.986 l -0.326,0.055 -0.295,-0.154 C 17.20836,72.71643 16.99939,72.37382 17,72 c 0,-0.558 0.442,-1 1,-1 z"
   class="ColorScheme-Text" />


fill=&quot;currentColor&quot;/&gt;
 </g>
  <g
     id="fcitx-libkkc"
     transform="translate(-158,-58)">
    <path
       id="path80"
       fill="currentColor"
       d="m 28,69 c -1.662,0 -3,1.338 -3,3 v 10 c 0,1.662 1.338,3 3,3 h 10 c 1.662,0 3,-1.338 3,-3 V 72 c 0,-1.662 -1.338,-3 -3,-3 z m -1,4 h 1 v 4.293 L 30.293,75 h 0.70703 v -2 h 1 v 4.293 L 34.29303,75 h 1.4141 l -3,3 3,3 h -1.4141 l -2.293,-2.293 V 81 h -1.707 l -2.293,-2.293 V 81 h -1 v -8 z m 10,2 c 0.58298,0 1.1095,0.15448 1.4785,0.52148 0.367,0.369 0.52148,0.89552 0.52148,1.4785 h -1 c 0,-0.417 -0.09552,-0.63948 -0.22852,-0.77148 -0.131,-0.133 -0.35448,-0.22852 -0.77148,-0.22852 -0.417,0 -0.63948,0.09552 -0.77148,0.22852 -0.133,0.131 -0.22852,0.35448 -0.22852,0.77148 v 2 c 0,0.417 0.09552,0.64048 0.22852,0.77148 0.131,0.133 0.35448,0.22852 0.77148,0.22852 0.417,0 0.63948,-0.09552 0.77148,-0.22852 0.133,-0.131 0.22852,-0.35448 0.22852,-0.77148 h 1 c 0,0.58298 -0.15448,1.1105 -0.52148,1.4785 -0.369,0.367 -0.89554,0.52148 -1.4785,0.52148 -0.58296,0 -1.1105,-0.15448 -1.4785,-0.52148 -0.367,-0.369 -0.52148,-0.89552 -0.52148,-1.4785 v -2 c 0,-0.58298 0.15448,-1.1105 0.52148,-1.4785 C 35.8905,75.15448 36.41702,75 37,75 Z m -6,0.70703 -2.293,2.293 2.293,2.293 v -4.5859 z"
       class="ColorScheme-Text" />
    <path
       id="path82"
       fill="none"
       d="M 22,66 H 44 V 88 H 22 Z" />
  </g>
  <g
     id="fcitx-libskk"
     transform="translate(-158,-58)">
    <path
       id="path85"
       fill="currentColor"
       d="m 50,69 c -1.662,0 -3,1.338 -3,3 v 10 c 0,1.662 1.338,3 3,3 h 10 c 1.662,0 3,-1.338 3,-3 V 72 c 0,-1.662 -1.338,-3 -3,-3 z m 3,4 h 1 v 4.293 L 56.293,75 h 0.70703 v -2 h 1 v 4.293 L 60.29303,75 h 1.4141 l -3,3 3,3 h -1.4141 l -2.293,-2.293 V 81 h -1.707 l -2.293,-2.293 V 81 h -1 v -2 c 0,0.58298 -0.15448,1.1105 -0.52148,1.4785 -0.369,0.367 -0.89554,0.52148 -1.4785,0.52148 -0.58296,0 -1.1105,-0.15448 -1.4785,-0.52148 -0.367,-0.369 -0.52148,-0.89552 -0.52148,-1.4785 h 1 c 0,0.417 0.09552,0.64048 0.22852,0.77148 0.131,0.133 0.35448,0.22852 0.77148,0.22852 0.417,0 0.63948,-0.09552 0.77148,-0.22852 0.133,-0.131 0.22852,-0.35448 0.22852,-0.77148 0,-0.417 -0.09552,-0.63948 -0.22852,-0.77148 C 51.64055,78.09552 51.41707,78 51.00007,78 c -0.58298,0 -1.1105,-0.15448 -1.4785,-0.52148 -0.367,-0.369 -0.52148,-0.89554 -0.52148,-1.4785 0,-0.58296 0.15448,-1.1105 0.52148,-1.4785 0.369,-0.367 0.89554,-0.52148 1.4785,-0.52148 0.58296,0 1.1095,0.15448 1.4785,0.52148 0.367,0.369 0.52148,0.89552 0.52148,1.4785 v -3 z m 0,3 H 52 C 52,75.583 51.904484,75.36052 51.77148,75.22852 51.64048,75.09552 51.417,75 51,75 50.583,75 50.36052,75.095516 50.22852,75.22852 50.09552,75.35952 50,75.583 50,76 c 0,0.417 0.09552,0.64048 0.22852,0.77148 C 50.35952,76.90448 50.583,77 51,77 c 0.58298,0 1.1095,0.15448 1.4785,0.52148 0.367,0.369 0.52148,0.89552 0.52148,1.4785 v -3 z m 4,-0.29297 -2.293,2.293 2.293,2.293 v -4.5859 z"
       class="ColorScheme-Text" />
    <path
       id="path87"
       fill="none"
       d="m 44.021,66.021 h 22 v 22 h -22 z" />
  </g>
  <g
     id="fcitx-hangul"
     transform="translate(-158,-58)">
    <path
       id="path90"
       fill="currentColor"
       d="m 6,91 c -1.662,0 -3,1.338 -3,3 v 10 c 0,1.662 1.338,3 3,3 h 10 c 1.662,0 3,-1.338 3,-3 V 94 c 0,-1.662 -1.338,-3 -3,-3 z m 2,2 h 2 v 1 H 8 Z m 6,1 h 1 v 3 h 2 v 1 h -2 v 4 h -1 z m -8,1 h 6 v 1 H 6 Z m 3,2 c 1.597,0 3,1.058 3,2.5 0,1.442 -1.403,2.5 -3,2.5 C 7.403,102 6,100.942 6,99.5 6,98.058 7.403,97 9,97 Z m 0,1 c -1.165,0 -2,0.733 -2,1.5 0,0.767 0.835,1.5 2,1.5 1.165,0 2,-0.733 2,-1.5 C 11,98.733 10.165,98 9,98 Z m -1,5 h 1 v 1 h 7 v 1 H 8 Z"
       class="ColorScheme-Text" />
    <path
       id="path92"
       fill="none"
       d="m 0,88 h 22 v 22 H 0 Z" />
  </g>
  <circle
     id="circle95"
     fill="currentColor"
     r="0"
     cy="99"
     cx="143"
     class="ColorScheme-Text" />
  <g
     transform="translate(-4,-140)"
     id="fcitx-fullwidth-inactive">
    <path
       id="path97"
       fill="none"
       d="m 0,170 h 22 v 22 H 0 Z" />
    <path
       id="path99"
       fill="currentColor"
       d="M 167.566,91.432 A 8,8 0 0 1 168,94 a 8,8 0 0 1 -8,8 8,8 0 0 1 -2.566,-0.432 8,8 0 0 0 7.566,5.432 8,8 0 0 0 8,-8 8,8 0 0 0 -5.434,-7.568 z"
       transform="translate(-154,82)"
       class="ColorScheme-Text" />
  </g>
  <g
     transform="translate(-4,-118)"
     id="fcitx-punc-inactive">
    <path
       id="path102"
       fill="none"
       d="m 0,170 h 22 v 22 H 0 Z" />
    <circle
       id="circle104"
       fill="currentColor"
       r="1.5"
       cy="180.5"
       cx="7.5"
       class="ColorScheme-Text" />
    <path
       id="path106"
       fill="currentColor"
       d="m 14.5,179 a 1.5,1.5 0 0 0 -1.5,1.5 1.5,1.5 0 0 0 1.5,1.5 1.5,1.5 0 0 0 0.047,-0.002 c -0.533,0.94 -1.348,1.602 -1.348,1.602 l 0.602,0.8 c 0,0 1.967,-1.426 2.162,-3.572 A 1.5,1.5 0 0 0 16,180.5 1.5,1.5 0 0 0 14.5,179 Z"
       class="ColorScheme-Text" />
  </g>
  <g
     transform="translate(-26,-118)"
     id="fcitx-punc-active">
    <path
       id="path109"
       fill="currentColor"
       d="M 7.5,178 A 2.508,2.508 0 0 0 5,180.5 c 0,1.375 1.125,2.5 2.5,2.5 1.375,0 2.5,-1.125 2.5,-2.5 0,-1.375 -1.125,-2.5 -2.5,-2.5 z m 0,1 C 8.334,179 9,179.666 9,180.5 9,181.334 8.334,182 7.5,182 6.666,182 6,181.334 6,180.5 6,179.666 6.666,179 7.5,179 Z"
       class="ColorScheme-Text" />
    <path
       id="path111"
       fill="none"
       d="m 0,170 h 22 v 22 H 0 Z" />
    <path
       id="path113"
       fill="currentColor"
       d="m 212.5,96 a 2.508,2.508 0 0 0 -2.5,2.5 c 0,1.375 1.125,2.5 2.5,2.5 0.365,0 0.71,-0.084 1.023,-0.227 a 3.874,3.874 0 0 1 -1.306,1.502 c -0.895,0.616 -1.78,0.729 -1.78,0.729 l 0.125,0.992 c 0,0 1.116,-0.137 2.221,-0.896 1.105,-0.76 2.217,-2.202 2.217,-4.6 0,-1.375 -1.125,-2.5 -2.5,-2.5 z m 0,1 c 0.834,0 1.5,0.666 1.5,1.5 0,0.834 -0.666,1.5 -1.5,1.5 -0.834,0 -1.5,-0.666 -1.5,-1.5 0,-0.834 0.666,-1.5 1.5,-1.5 z"
       transform="translate(-198,82)"
       class="ColorScheme-Text" />
  </g>
  <g
     transform="translate(-26,-96)"
     id="fcitx-chttrans-inactive">
    <path
       id="path116"
       fill="none"
       d="m 0,170 h 22 v 22 H 0 Z" />
    <path
       id="path118"
       fill="currentColor"
       d="m 138.81,113.406 c -0.507,1.367 -1.347,2.598 -2.519,3.692 l 0.996,0.761 c 0.195,-0.039 0.742,-0.722 1.64,-2.05 h 0.762 c 0.43,0.625 0.801,1.27 1.114,1.933 l 1.172,-0.644 -0.938,-1.29 h 2.05 v -1.113 h -3.632 l 0.469,-0.937 -1.113,-0.352 z m 6.036,0 c -0.47,1.328 -1.27,2.54 -2.403,3.633 l 0.996,0.762 c 0.665,-0.625 1.172,-1.29 1.524,-1.992 h 0.996 c 0.43,0.586 0.8,1.21 1.113,1.875 l 1.055,-0.645 c -0.273,-0.43 -0.566,-0.84 -0.879,-1.23 h 2.461 v -1.114 h -4.16 c 0.156,-0.312 0.293,-0.625 0.41,-0.937 z m -5.45,4.102 -0.996,0.586 c 0.547,0.547 0.957,1.094 1.23,1.64 l 1.114,-0.586 a 7.528,7.528 0 0 0 -1.348,-1.64 z m 1.993,0.527 v 0.996 h 6.386 v 6.035 c 0,0.547 -0.136,0.82 -0.41,0.82 -0.39,0 -0.898,-0.019 -1.523,-0.058 l 0.293,1.113 c 0.547,0.04 1.015,0.059 1.406,0.059 0.469,0 0.82,-0.137 1.055,-0.41 0.234,-0.274 0.351,-0.664 0.351,-1.172 v -7.383 z m -3.985,1.582 V 127 h 1.172 v -7.383 z m 2.871,0.645 v 5.039 h 5.391 v -5.04 h -5.39 z m 1.114,0.996 h 3.164 v 0.996 h -3.164 z m 0,1.933 h 3.164 v 1.114 h -3.164 z M 135,128 v 1 h 16 v -1 z"
       transform="translate(-132,60)"
       class="ColorScheme-Text" />
  </g>
  <g
     transform="translate(-4,-96)"
     id="fcitx-chttrans-active">
    <path
       id="path121"
       fill="none"
       d="m 0,170 h 22 v 22 H 0 Z" />
    <path
       id="path123"
       fill="currentColor"
       d="m 160.02,113.465 c -0.313,0.703 -0.899,1.387 -1.758,2.05 l 0.82,0.645 c 0.39,-0.273 0.762,-0.644 1.113,-1.113 h 5.45 v -0.879 h -4.864 c 0.04,-0.117 0.098,-0.254 0.176,-0.41 z m 7.148,0 a 9.114,9.114 0 0 1 -1.875,3.34 l 0.703,0.761 0.586,-0.703 a 6.784,6.784 0 0 0 1.23,1.524 c -0.625,0.508 -1.367,0.957 -2.226,1.347 l 0.82,0.88 a 14.66,14.66 0 0 0 2.227,-1.466 14.006,14.006 0 0 0 2.344,1.465 l 0.761,-0.937 c -0.937,-0.39 -1.738,-0.82 -2.402,-1.29 a 6.443,6.443 0 0 0 1.406,-2.519 h 0.82 v -0.996 h -3.867 l 0.47,-1.113 z m -7.266,2.285 -0.351,1.7 h -1.172 v 0.937 h 0.996 l -0.352,1.758 h 4.395 v 0.351 h 0.996 l 0.059,-0.351 H 165 v -0.88 h -0.469 l 0.117,-0.878 h 0.938 v -0.938 h -0.82 L 165,115.75 Z m 7.325,0.117 h 2.402 c -0.195,0.664 -0.547,1.29 -1.055,1.875 a 10.674,10.674 0 0 1 -1.406,-1.758 c 0.04,-0.039 0.059,-0.078 0.059,-0.117 z m -6.446,0.703 h 0.762 c 0.195,0.235 0.39,0.528 0.586,0.88 h -1.524 z m 1.7,0 h 1.464 l -0.117,0.88 h -0.762 l -0.586,-0.88 z m -1.993,1.817 h 0.762 c 0.195,0.234 0.41,0.527 0.645,0.879 h -1.583 l 0.176,-0.88 z m 1.758,0 h 1.465 l -0.176,0.879 h -0.762 a 6.542,6.542 0 0 0 -0.527,-0.88 z m 5.684,1.933 c -1.25,0.742 -2.11,1.153 -2.578,1.23 -0.704,0.118 -1.954,0.196 -3.75,0.235 a 8.109,8.109 0 0 0 1.875,-0.879 l -0.762,-0.527 c -0.781,0.547 -1.758,0.976 -2.93,1.289 l 0.117,0.82 c 1.172,0 2.364,-0.039 3.575,-0.117 -1.25,0.469 -2.774,0.879 -4.57,1.23 l 0.175,0.938 c 1.758,0 3.535,-0.059 5.332,-0.176 v 1.23 c 0,0.313 -0.117,0.47 -0.351,0.47 -0.43,0 -0.86,-0.06 -1.29,-0.176 l 0.176,1.054 c 0.352,0.079 0.723,0.118 1.114,0.118 0.625,0 1.035,-0.098 1.23,-0.293 0.195,-0.196 0.293,-0.528 0.293,-0.996 v -1.524 a 69.146,69.146 0 0 0 3.984,-0.469 c 0.313,0.313 0.586,0.645 0.82,0.996 l 1.114,-0.527 a 14.92,14.92 0 0 0 -2.813,-2.578 l -1.054,0.469 c 0.43,0.273 0.82,0.586 1.172,0.937 -1.563,0.313 -3.965,0.528 -7.207,0.645 2.617,-0.586 5.039,-1.504 7.265,-2.754 z m -0.88,4.278 -0.468,0.937 c 1.29,0.313 2.578,0.742 3.867,1.29 l 0.469,-0.997 c -1.211,-0.469 -2.5,-0.879 -3.867,-1.23 z m -4.687,0.117 c -1.133,0.469 -2.383,0.84 -3.75,1.113 l 0.703,0.996 c 1.485,-0.39 2.754,-0.898 3.809,-1.523 z M 157,128 v 1 h 16 v -1 z"
       transform="translate(-154,60)"
       class="ColorScheme-Text" />
  </g>
  <g
     id="fcitx-remind-active"
     transform="translate(-158,-58)"><path
   id="path126"
   fill="currentColor"
   d="m 209,91 c -1.1196,0 -2.1645,0.31337 -3.0625,0.84961 A 3.5,3.5 0 0 1 206,92.5 3.5,3.5 0 0 1 203.0996,95.9492 C 203.0388,96.29115 203,96.64085 203,97 c -4.2e-4,0.01902 2e-4,0.03769 0.002,0.05664 0.014,2.321 0.85914,3.5095 1.6191,4.3945 0.764,0.893 1.3789,1.4418 1.3789,3.0488 v 2.5 h 2 v 1 h 2 v -1 h 2 v -2.5 c 0,-1.607 0.63462,-2.304 1.3906,-3.25 0.75,-0.936 1.5885,-2.1035 1.6055,-4.1875 0.003,-0.02056 0.004,-0.04177 0.004,-0.0625 0,-3.308 -2.692,-6 -6,-6 z m -1.8535,6.1465 h 0.70704 l 1.1465,1.1465 1.1465,-1.1465 h 0.70704 l 1.5,1.5 -0.70704,0.70703 -1.1465,-1.1465 -1.1465,1.1465 h -0.70704 l -1.1465,-1.1465 -1.1465,1.1465 -0.70704,-0.70703 1.5,-1.5 z"
   class="ColorScheme-Text" />


fill=&quot;currentColor&quot;/&gt;
  <path
   id="path128"
   fill="none"
   d="m 198,88 h 22 v 22 h -22 z" />
<circle
   id="circle130"
   fill="#42d15b"
   cy="92.5"
   cx="202.5"
   r="0" />
</g>
  <g
     id="fcitx-handwriting-active"
     transform="translate(-158,-58)"><path
   id="path133"
   fill="currentColor"
   d="m 213.14,112.57 -3.272,12.207 1.07,3.739 2.795,-2.703 3.27,-12.207 -0.482,-0.131 z m 0.707,1.223 1.931,0.518 -0.26,0.968 -1.931,-0.52 z m -11.522,5.66 c -0.21558,0.007 -0.4306,0.0257 -0.644,0.057 -0.66133,0.0907 -0.52533,1.0827 0.136,0.992 0.42,-0.058 0.71,-0.056 0.872,-0.03 0.16,0.027 0.164,0.058 0.152,0.042 -0.012,-0.017 0.006,-0.01 -0.006,0.092 -0.0266,0.15379 -0.0685,0.30454 -0.125,0.45 -0.134,0.374 -0.351,0.824 -0.41,1.327 -0.03,0.251 -0.015,0.54 0.133,0.806 0.147,0.268 0.42,0.468 0.738,0.575 0.153,0.05 0.213,0.04 0.309,0.045 0.095,0.004 0.2,0.005 0.316,0.005 0.231,0 0.504,-0.003 0.758,0.004 0.032,0.001 0.047,0.006 0.078,0.008 -0.09,0.056 -0.146,0.098 -0.252,0.158 -0.533,0.301 -1.218,0.645 -1.781,1.022 -0.282,0.188 -0.536,0.383 -0.737,0.621 -0.2,0.238 -0.37,0.576 -0.287,0.95 0.083,0.372 0.37,0.631 0.73,0.825 0.361,0.195 0.834,0.352 1.481,0.498 1.051,0.238 2.36,0.169 3.543,0.221 1.183,0.052 2.169,0.26 2.553,0.703 0.43478,0.53533 1.224,-0.15134 0.754,-0.656 -0.756,-0.871 -2.016,-0.992 -3.262,-1.047 -1.246,-0.055 -2.55,-0.01 -3.367,-0.195 -0.596,-0.135 -1,-0.28 -1.227,-0.403 -0.227,-0.122 -0.235,-0.195 -0.228,-0.162 0.007,0.033 -0.019,0.023 0.076,-0.09 0.15702,-0.16564 0.33405,-0.3111 0.527,-0.433 0.482,-0.322 1.152,-0.663 1.717,-0.982 0.26187,-0.14135 0.51319,-0.30144 0.752,-0.479 0.214,-0.166 0.466,-0.33 0.477,-0.752 0.006,-0.246 -0.165,-0.47 -0.305,-0.564 -0.12064,-0.0787 -0.2555,-0.13305 -0.397,-0.16 -0.26932,-0.0542 -0.54328,-0.082 -0.818,-0.083 -0.282,-0.008 -0.562,-0.004 -0.783,-0.004 -0.11,0 -0.206,0 -0.272,-0.003 -0.0215,-0.001 -0.0429,-0.004 -0.064,-0.008 0.012,0.004 0.013,0.007 0.027,0.011 -0.05,-0.016 -0.047,-0.015 -0.027,-0.011 -0.114,-0.043 -0.142,-0.077 -0.154,-0.098 -0.013,-0.023 -0.03,-0.08 -0.016,-0.205 0.03,-0.25 0.206,-0.675 0.36,-1.105 0.076,-0.216 0.148,-0.436 0.175,-0.678 0.028,-0.242 0.006,-0.535 -0.176,-0.787 -0.181,-0.252 -0.478,-0.39 -0.798,-0.444 -0.17458,-0.0275 -0.35136,-0.0385 -0.528,-0.033 z"
   class="ColorScheme-Text" />


fill=&quot;currentColor&quot;/&gt;
  <path
   id="path135"
   fill="none"
   d="m 198,110 h 22 v 22 h -22 z" />
<path
   id="path137"
   fill="none"
   d="m 198,110 h 22 v 22 h -22 z" />
<circle
   id="circle139"
   fill="#42d15b"
   cy="114.5"
   cx="202.5"
   r="0" />
</g>
  <g
     transform="translate(-136,-58)"
     id="fcitx-handwriting-inactive"><path
   id="path142"
   fill="currentColor"
   d="m 235.14,112.57 -3.272,12.207 1.07,3.739 2.795,-2.703 3.27,-12.207 -0.482,-0.131 z m 0.707,1.223 1.931,0.518 -0.26,0.968 -1.931,-0.52 z m -11.522,5.66 c -0.21558,0.007 -0.4306,0.0257 -0.644,0.057 -0.66267,0.0767 -0.54767,1.0707 0.115,0.994 0.007,-5.2e-4 0.014,-0.001 0.021,-0.002 0.42,-0.058 0.71,-0.056 0.872,-0.03 0.16,0.027 0.164,0.058 0.152,0.042 -0.012,-0.017 0.006,-0.01 -0.006,0.092 -0.0266,0.15379 -0.0685,0.30454 -0.125,0.45 -0.134,0.374 -0.351,0.824 -0.41,1.327 -0.03,0.251 -0.015,0.54 0.133,0.806 0.147,0.268 0.42,0.468 0.738,0.575 0.153,0.05 0.213,0.04 0.309,0.045 0.095,0.004 0.2,0.005 0.316,0.005 0.231,0 0.504,-0.003 0.758,0.004 0.032,0.001 0.047,0.006 0.078,0.008 -0.09,0.056 -0.146,0.098 -0.252,0.158 -0.533,0.301 -1.218,0.645 -1.781,1.022 -0.282,0.188 -0.536,0.383 -0.737,0.621 -0.2,0.238 -0.37,0.576 -0.287,0.95 0.083,0.372 0.37,0.631 0.73,0.825 0.361,0.195 0.834,0.352 1.481,0.498 1.051,0.238 2.36,0.169 3.543,0.221 1.183,0.052 2.169,0.26 2.553,0.703 0.43478,0.53533 1.224,-0.15134 0.754,-0.656 -0.756,-0.871 -2.016,-0.992 -3.262,-1.047 -1.246,-0.055 -2.55,-0.01 -3.367,-0.195 -0.596,-0.135 -1,-0.28 -1.227,-0.403 -0.227,-0.122 -0.235,-0.195 -0.228,-0.162 0.007,0.033 -0.019,0.023 0.076,-0.09 0.15702,-0.16564 0.33405,-0.3111 0.527,-0.433 0.482,-0.322 1.152,-0.663 1.717,-0.982 0.26187,-0.14135 0.51319,-0.30144 0.752,-0.479 0.214,-0.166 0.466,-0.33 0.477,-0.752 0.006,-0.246 -0.165,-0.47 -0.305,-0.564 -0.12064,-0.0787 -0.2555,-0.13305 -0.397,-0.16 -0.26932,-0.0542 -0.54328,-0.082 -0.818,-0.083 -0.282,-0.008 -0.562,-0.004 -0.783,-0.004 -0.11,0 -0.206,0 -0.272,-0.003 -0.0215,-0.001 -0.0429,-0.004 -0.064,-0.008 0.012,0.004 0.013,0.007 0.027,0.011 -0.05,-0.016 -0.047,-0.015 -0.027,-0.011 -0.114,-0.043 -0.142,-0.077 -0.154,-0.098 -0.013,-0.023 -0.03,-0.08 -0.016,-0.205 0.03,-0.25 0.206,-0.675 0.36,-1.105 0.076,-0.216 0.148,-0.436 0.175,-0.678 0.028,-0.242 0.006,-0.535 -0.176,-0.787 -0.181,-0.252 -0.478,-0.39 -0.798,-0.444 -0.17458,-0.0275 -0.35136,-0.0385 -0.528,-0.033 z"
   transform="translate(-22)"
   class="ColorScheme-Text" />


fill=&quot;currentColor&quot;/&gt;
  <path
   id="path144"
   fill="none"
   d="m 198,110 h 22 v 22 h -22 z" />
<path
   id="path146"
   fill="none"
   d="m 198,110 h 22 v 22 h -22 z" />
</g>
  <g
     transform="translate(-26,21.838)"
     id="fcitx">
    <path
       id="path149"
       fill="none"
       d="M 0,-22 H 22 V 0 H 0 Z" />
    <path
       id="path151"
       fill="currentColor"
       d="m 9.57,-19 c -0.937,-0.017 -1.837,0.536 -2.184,1.438 -0.414,1.077 -0.296,2.244 -0.279,3.368 0.006,0.364 -0.092,0.696 -0.24,1.009 a 3.431,3.431 0 0 1 -0.21,0.223 c -0.736,0.813 -2.565,2.95 -1.983,5.14 -0.146,0.064 -0.317,0.072 -0.503,0.093 -0.219,0.026 -0.463,0.082 -0.657,0.312 -0.173,0.2 -0.199,0.474 -0.219,0.732 -0.02,0.259 -0.035,0.506 -0.125,0.659 -0.263,0.408 -0.352,0.709 -0.293,0.955 0.06,0.246 0.266,0.4 0.515,0.519 0.497,0.238 1.217,0.381 1.71,0.824 h 10e-4 c 0.525,0.465 1.106,0.724 1.614,0.728 0.423,0.003 0.796,-0.187 1.01,-0.571 0.19,0.034 0.387,0.03 0.587,-0.027 a 4.355,4.355 0 0 1 2.08,-0.06 c 0.413,0.086 0.826,0.054 1.218,-0.065 0.167,0.316 0.45,0.53 0.793,0.623 0.496,0.133 1.11,0.025 1.697,-0.333 h 10e-4 c 0.57,-0.354 1.3,-0.323 1.827,-0.437 0.264,-0.057 0.495,-0.161 0.59,-0.396 0.095,-0.235 0.05,-0.556 -0.148,-1.038 -0.067,-0.167 -0.04,-0.416 -0.011,-0.678 0.028,-0.262 0.055,-0.543 -0.08,-0.777 -0.148,-0.268 -0.379,-0.372 -0.59,-0.442 -0.212,-0.07 -0.406,-0.115 -0.548,-0.253 C 14.987,-7.614 14.834,-7.829 14.64,-8 l -0.005,-0.005 c -0.008,-0.3 -0.057,-0.609 -0.137,-0.917 0.426,-0.566 0.858,-1.2 1.179,-1.818 h 0.003 l 0.24,-0.034 -0.063,-0.3 0.038,-0.03 0.786,-1.478 c 0.43,0.022 0.9,-0.187 1.176,-0.686 a 25.336,25.336 0 0 1 1.283,-2.058 c -1.886,0.269 -3.349,0.242 -3.43,1.686 -0.008,0.164 0.017,0.31 0.066,0.44 l -1.087,1.274 -0.01,0.042 -0.334,0.053 0.1,0.236 c -0.24,0.282 -0.472,0.595 -0.69,0.918 -0.055,-0.097 -0.11,-0.193 -0.167,-0.286 -0.318,-0.648 -0.731,-1.248 -1.137,-1.842 -0.487,-0.716 -0.575,-1.59 -0.583,-2.462 C 11.852,-17.08 11.658,-18.96 9.57,-19 Z m 0.895,2.267 c 0.165,-0.01 0.334,0.074 0.461,0.251 0.127,0.178 0.21,0.514 0.21,0.706 0.002,0.261 -0.092,0.523 -0.198,0.714 a 0.692,0.692 0 0 1 -0.096,0.13 l -0.262,-0.152 -0.06,-0.035 a 0.326,0.594 8.727 0 0 0.227,-0.475 0.326,0.594 8.727 0 0 -0.262,-0.63 0.326,0.594 8.727 0 0 -0.386,0.547 0.326,0.594 8.727 0 0 0.002,0.293 0.98,0.98 0 0 0 -0.179,-0.058 l -0.057,-0.01 a 1.439,1.439 0 0 1 -0.04,-0.25 c -0.014,-0.26 0.039,-0.427 0.145,-0.618 0.106,-0.191 0.33,-0.403 0.495,-0.413 z m -2.14,0.161 a 0.93,0.707 82.237 0 1 0.03,10e-4 0.93,0.707 82.237 0 1 0.72,0.806 0.93,0.707 82.237 0 1 -0.053,0.57 2.028,2.028 0 0 0 -0.117,0.092 1.173,1.173 0 0 1 -0.26,0.16 0.553,0.348 80.266 0 0 0.16,-0.593 0.553,0.348 80.266 0 0 -0.384,-0.473 0.553,0.348 80.266 0 0 -0.295,0.623 0.553,0.348 80.266 0 0 0.477,0.464 c -0.07,0.036 -0.15,0.077 -0.254,0.14 -0.024,0.013 -0.045,0.028 -0.066,0.043 a 0.93,0.707 82.237 0 1 -0.601,-0.786 0.93,0.707 82.237 0 1 0.644,-1.047 z m 1.384,1.208 a 0.811,0.811 0 0 1 0.192,0.018 c 0.24,0.052 0.413,0.202 0.52,0.283 0.02,0.015 0.046,0.028 0.11,0.065 l 0.3,0.173 a 0.292,0.292 0 0 1 0.152,0.322 c -0.023,0.139 -0.13,0.308 -0.342,0.468 H 10.64 c -0.13,0.104 -0.213,0.23 -0.313,0.336 a 0.712,0.712 0 0 1 -0.418,0.23 0.976,0.976 0 0 1 -0.594,-0.078 c -0.168,-0.072 -0.314,-0.167 -0.472,-0.198 -0.325,-0.06 -0.572,-0.233 -0.666,-0.417 a 0.353,0.353 0 0 1 -0.04,-0.214 c 0.06,0.01 0.138,0.042 0.23,0.088 0.11,0.056 0.24,0.132 0.383,0.206 0.284,0.15 0.618,0.297 0.96,0.28 0.34,-0.017 0.603,-0.192 0.791,-0.36 0.094,-0.085 0.17,-0.168 0.228,-0.229 0.029,-0.03 0.054,-0.056 0.072,-0.072 0.02,-0.016 0.034,-0.02 0.028,-0.02 l -0.004,-0.074 c -0.031,0.001 -0.05,0.018 -0.072,0.038 -0.023,0.02 -0.048,0.046 -0.078,0.077 -0.058,0.062 -0.132,0.143 -0.223,0.224 -0.181,0.163 -0.428,0.326 -0.746,0.342 C 9.388,-13.86 9.065,-14 8.784,-14.147 8.644,-14.221 8.514,-14.296 8.4,-14.353 a 0.94,0.94 0 0 0 -0.243,-0.094 0.52,0.52 0 0 1 0.241,-0.25 H 8.4 c 0.286,-0.172 0.416,-0.198 0.57,-0.33 0.289,-0.247 0.534,-0.332 0.74,-0.337 z m 1.262,1.133 c 0.036,0.087 0.067,0.18 0.088,0.285 0.188,0.98 0.396,1.585 1.344,3.2 0.098,0.247 0.172,0.423 0.256,0.628 a 3.772,3.772 0 0 0 -0.392,-1.185 c -0.58,-1.225 -0.002,-0.47 0.258,0.077 0.19,0.355 0.414,0.966 0.548,1.65 A 23.216,23.216 0 0 0 12.11,-7.7 0.743,0.743 0 0 0 11.983,-7.295 c 0.002,0.087 0.031,0.17 0.077,0.242 -0.516,0.38 -0.54,1.126 0.002,1.396 -0.055,0.078 -0.107,0.153 -0.16,0.233 a 5.01,5.01 0 0 0 -0.216,0.355 C 10.547,-4.26 8.728,-4.157 7.377,-5.626 7.25,-5.902 7.134,-6.165 7.091,-6.367 V -6.368 C 6.993,-6.85 6.891,-7.294 6.741,-7.653 a 2.491,2.491 0 0 0 -0.08,-0.17 C 6.767,-8.073 6.819,-8.334 6.8,-8.493 6.728,-8.916 6.416,-9.002 5.714,-8.841 5.118,-8.697 4.757,-8.413 4.906,-7.983 4.879,-7.96 4.852,-7.94 4.826,-7.919 c -0.198,-0.504 0.21,-0.837 0.896,-1.006 -0.1,-0.931 0.444,-1.876 0.962,-2.491 0.015,0.02 -0.022,0.13 -0.155,0.402 -0.294,0.504 -0.582,1.325 -0.45,2.022 0.098,-0.013 0.191,-0.023 0.272,-0.023 0.047,-0.506 0.172,-0.983 0.386,-1.367 0.409,-0.87 1.462,-2.337 1.492,-3.554 0.141,0.136 0.349,0.242 0.596,0.288 0.13,0.026 0.275,0.116 0.452,0.192 0.177,0.075 0.389,0.134 0.65,0.085 a 0.827,0.827 0 0 0 0.472,-0.26 c 0.108,-0.114 0.188,-0.235 0.302,-0.325 0.118,-0.09 0.207,-0.182 0.27,-0.275 z m 5.077,1.411 a 0.994,0.994 0 0 0 0.182,0.12 l -0.69,1.299 -0.163,0.128 c -0.054,-0.028 -0.109,-0.052 -0.164,-0.094 -0.073,-0.055 -0.093,-0.104 -0.15,-0.167 l 0.043,-0.182 z m -1.33,1.62 a 2.1,2.1 0 0 0 0.486,0.366 c -0.882,1.622 -2.581,3.44 -2.596,3.456 -0.104,0.09 -0.17,0.073 -0.172,0.075 v -0.002 c 0,-0.021 0.01,-0.082 0.067,-0.171 l 0.01,-0.015 0.007,-0.016 c 0,0 1.037,-2.277 2.198,-3.693 z m -0.422,2.54 m -9.307,0.857 c 0.238,0.421 0.753,0.772 1.163,0.595 0.158,-0.067 0.294,-0.217 0.4,-0.396 l 0.012,0.025 c 0.14,0.336 0.242,0.77 0.339,1.25 0.08,0.371 0.326,0.822 0.521,1.269 0.195,0.446 0.329,0.88 0.231,1.172 v 0.002 C 7.502,-3.395 7.162,-3.188 6.719,-3.191 6.275,-3.194 5.729,-3.43 5.229,-3.871 4.684,-4.36 3.931,-4.506 3.474,-4.724 3.246,-4.834 3.104,-4.95 3.064,-5.116 3.023,-5.283 3.081,-5.536 3.332,-5.926 L 3.333,-5.928 V -5.929 C 3.461,-6.145 3.466,-6.417 3.486,-6.67 3.506,-6.924 3.538,-7.154 3.659,-7.293 3.814,-7.478 3.987,-7.515 4.193,-7.539 4.4,-7.563 4.636,-7.564 4.853,-7.701 l 0.002,-0.001 c 0.047,-0.032 0.09,-0.066 0.134,-0.101 z m 9.642,0.06 c 0.125,0.134 0.245,0.29 0.376,0.424 h 10e-4 l 0.001,0.002 c 0.188,0.182 0.422,0.232 0.621,0.297 0.2,0.066 0.366,0.138 0.485,0.354 v 0.001 h 0.001 c 0.095,0.165 0.083,0.404 0.055,0.662 -0.028,0.259 -0.072,0.532 0.024,0.77 0.19,0.464 0.21,0.74 0.148,0.895 -0.063,0.155 -0.213,0.23 -0.453,0.282 -0.481,0.103 -1.254,0.066 -1.888,0.46 -0.551,0.336 -1.116,0.427 -1.548,0.311 -0.431,-0.116 -0.736,-0.427 -0.8,-0.944 v -0.002 c -0.047,-0.312 0.15,-0.699 0.406,-1.087 0.06,-0.092 0.124,-0.18 0.187,-0.271 0.264,0.065 0.62,0.04 1.071,-0.131 0.896,-0.513 1.264,-1.234 1.313,-2.023 z m -1.187,0.116 m -0.318,0.357 -0.198,0.215 z"
       class="ColorScheme-Text" />
  </g>
  <g
     transform="translate(-136,-58)"
     id="fcitx-remind-inactive"><path
   id="path159"
   fill="currentColor"
   d="m 209,91 c -3.308,0 -6,2.692 -6,6 -4.2e-4,0.01902 2e-4,0.03769 0.002,0.05664 0.014,2.321 0.85914,3.5095 1.6191,4.3945 0.764,0.893 1.3789,1.4418 1.3789,3.0488 v 2.5 h 2 v 1 h 2 v -1 h 2 v -2.5 c 0,-1.607 0.63462,-2.304 1.3906,-3.25 0.75,-0.936 1.5885,-2.1035 1.6055,-4.1875 0.003,-0.02056 0.004,-0.04177 0.004,-0.0625 0,-3.308 -2.692,-6 -6,-6 z m -1.8535,6.1465 h 0.70704 l 1.1465,1.1465 1.1465,-1.1465 h 0.70704 l 1.5,1.5 -0.70704,0.70703 -1.1465,-1.1465 -1.1465,1.1465 h -0.70704 l -1.1465,-1.1465 -1.1465,1.1465 -0.70704,-0.70703 z"
   class="ColorScheme-Text" />


fill=&quot;currentColor&quot;/&gt;
  <path
   id="path161"
   fill="none"
   d="m 198,88 h 22 v 22 h -22 z" />
</g>
  <g
     transform="translate(-158,-36)"
     id="fcitx-pinyin-libpinyin">
    <path
       id="path176"
       fill="currentColor"
       d="M 6,3 C 4.338,3 3,4.338 3,6 v 10 c 0,1.662 1.338,3 3,3 h 10 c 1.662,0 3,-1.338 3,-3 V 6 C 19,4.338 17.662,3 16,3 Z m 4.9004,1.7012 1.5,2 -0.39844,0.29883 h 1.9961 l -0.39844,-0.29883 1.5,-2 0.80078,0.59961 -1.2754,1.6992 H 17 v 1 h -2 v 3 h 2 v 1 h -2 v 5 h -1 v -5 h -2.041 c -0.096,1.119 -0.47678,2.0286 -0.92578,2.8066 -0.621,1.075 -1.6914,2.0586 -1.6914,2.0586 L 8.65823,16.13669 c 0,0 1.0128,-0.97008 1.5098,-1.8301 0.402,-0.695 0.70497,-1.4116 0.79297,-2.3066 H 9.0001 v -0.94141 l -1,0.5 v 5.4414 h -3 v -1 h 2 v -3.9395 l -1.7773,0.88672 -0.44531,-0.89453 2.2227,-1.1113 v -2.9414 h -2 v -1 h 2 v -2 h 1 v 2 h 1 v 1 h -1 v 2.4395 l 0.77734,-0.38672 0.44531,0.89453 -0.10547,0.05273 h 1.8828 v -3 h -1 v -1 h 1.375 l -1.2754,-1.6992 z M 12,8 v 3 h 2 V 8 Z"
       class="ColorScheme-Text" />
    <path
       id="path178"
       fill="none"
       d="M 0,0 H 22 V 22 H 0 Z" />
  </g>
  <g
     transform="translate(-158,-35.805)"
     id="fcitx-shuangpin-libpinyin">
    <path
       id="path181"
       fill="currentColor"
       d="m 50,3 c -1.662,0 -3,1.338 -3,3 v 10 c 0,1.662 1.338,3 3,3 h 10 c 1.662,0 3,-1.338 3,-3 V 6 C 63,4.338 61.662,3 60,3 Z m -1,2 h 5.5488 l -0.05078,0.54883 c 0,0 -0.32761,3.5209 -1.2246,6.1289 0.6511,0.97991 1.2642,1.9846 1.8379,3.0117 l -0.86914,0.49024 c -0.53902,-0.954 -0.98488,-1.689 -1.4219,-2.375 -1.395,3.125 -3.3652,4.4883 -3.3652,4.4883 l -0.55664,-0.83203 c 0,0 1.9707,-1.3133 3.2637,-4.6562 -0.766,-1.106 -1.6347,-2.2202 -3.0527,-3.9902 l 0.78125,-0.62695 c 1.181,1.475 1.974,2.4921 2.668,3.4551 0.552,-1.906 0.79814,-3.9996 0.86914,-4.6426 h -4.4277 z m 6,0 h 6 v 0.5 c 0,2.147 -0.83303,4.9682 -1.707,6.9082 -0.111,0.246 -0.24219,0.46536 -0.36719,0.69336 0.624,1.083 1.4598,2.1135 2.8438,3.2305 l -0.62695,0.7793 c -1.282,-1.034 -2.1467,-2.0405 -2.8027,-3.0645 -1.394,1.987 -3.1035,3.0371 -3.1035,3.0371 l -0.51758,-0.85547 c 0,0 1.7804,-1.1006 3.0684,-3.1426 -0.337,-0.649 -0.62072,-1.3072 -0.88672,-1.9922 -0.75795,-1.957 -1.2085,-4.5018 -1.3105,-5.0938 h -0.58984 z m 1.6074,1 c 0.14,0.765 0.56855,3.0334 1.2266,4.7324 0.16738,0.43214 0.34714,0.85943 0.53906,1.2812 l 0.0078,-0.01563 c 0.75704,-1.68 1.434,-4.145 1.543,-5.998 z"
       class="ColorScheme-Text" />
    <path
       id="path183"
       fill="none"
       d="M 44,0 H 66 V 22 H 44 Z" />
  </g>
  <g
     transform="translate(-158,-35.805)"
     id="fcitx-quanpin-libpinyin">
    <path
       id="path186"
       fill="currentColor"
       d="m 28,3 c -1.662,0 -3,1.338 -3,3 v 10 c 0,1.662 1.338,3 3,3 h 10 c 1.662,0 3,-1.338 3,-3 V 6 C 41,4.338 39.662,3 38,3 Z m 4.5098,1.9023 0.98047,0.19531 c -0.01,0.049996 -0.03388,0.096484 -0.04687,0.14648 1.877,2.289 5.7324,3.7871 5.7324,3.7871 l -0.35156,0.9375 c 0,0 -0.80822,-0.32089 -1.8242,-0.83789 v 0.86914 h -3.5 v 2 h 2.5 v 1 h -2.5 v 3 h 4.5 v 1 h -10 v -1 h 4.5 v -3 h -2.5 v -1 h 2.5 v -2 h -3.5 V 9.17572 c -1.03,0.501 -1.8301,0.79492 -1.8301,0.79492 L 26.8301,9.02923 c 0,0 1.3413,-0.48934 2.7363,-1.2773 1.396,-0.789 2.7574,-1.9196 2.9434,-2.8496 z m 0.49023,1.3301 c -0.668,0.996 -1.8454,1.7716 -2.9414,2.3906 -0.247,0.14 -0.4837,0.25595 -0.7207,0.37695 h 7.3965 c -1.191,-0.63 -2.6184,-1.5526 -3.7344,-2.7676 z"
       class="ColorScheme-Text" />
    <path
       id="path188"
       fill="none"
       d="M 22,0 H 44 V 22 H 22 Z" />
  </g>
  <g
     transform="translate(-158,-35.805)"
     id="fcitx-bopomofo-libpinyin">
    <path
       id="path191"
       fill="currentColor"
       d="m 72,3 c -1.662,0 -3,1.338 -3,3 v 10 c 0,1.662 1.338,3 3,3 h 10 c 1.662,0 3,-1.338 3,-3 V 6 C 85,4.338 83.662,3 82,3 Z m 5.3008,1.5996 2,1.5 -0.60156,0.80078 -2,-1.5 z m -5.9473,0.046875 2,2 -0.70703,0.70703 -2,-2 z M 74,6.999975 h 9 v 1 h -4 v 3 h 3 v 1 h -3 v 4 h 4 v 1 h -9 v -1 h 4 v -4 h -3 v -1 h 3 v -3 h -4 z m -2.6465,0.64648 2,2 -0.70703,0.70703 -2,-2 z m 1.1719,3.1953 0.94922,0.31641 -2,6 -0.94922,-0.31641 z"
       class="ColorScheme-Text" />
    <path
       id="path193"
       fill="none"
       d="M 66,0 H 88 V 22 H 66 Z" />
  </g>
  <g
     transform="translate(-158,-35.805)"
     id="fcitx-chewing-libpinyin">
    <path
       id="path196"
       fill="currentColor"
       d="m 94,3 c -1.662,0 -3,1.338 -3,3 v 10 c 0,1.662 1.338,3 3,3 h 10 c 1.662,0 3,-1.338 3,-3 V 6 c 0,-1.662 -1.338,-3 -3,-3 z m -1,2 h 6 v 1 h -2 v 3 h 2 L 98.59961,8.69922 c 0,-1e-7 1.4004,-1.9492 1.4004,-3.6992 h 1 c 0,0.709 -0.16481,1.389 -0.38281,2 H 102 v -2 h 1 v 2 h 2 v 1 h -2 v 2 h 2 v 1 h -5 v -1 h 2 v -2 h -1.8027 c -0.398,0.79002 -0.79688,1.3008 -0.79688,1.3008 L 99.00003,9.00004 v 8 h -6 v -8 h 1 v -3 h -1 z m 2,1 v 3 h 1 V 6 Z m 0,4 v 3 h -1 v 1 h 3 v 1 h -3 v 1 h 4 v -6 h -1 v 3 h -1 v -3 z m 5,2 h 5 v 5 h -5 z m 1,1 v 3 h 3 v -3 z"
       class="ColorScheme-Text" />
    <path
       id="path198"
       fill="none"
       d="m 88,0 h 22 V 22 H 88 Z" />
  </g>
  <g
     transform="translate(-26,-140)"
     id="fcitx-fullwidth-active">
    <rect
       id="rect201"
       fill="none"
       height="22"
       width="22"
       y="170"
       x="-2.4710001e-09" />
    <circle
       id="ellipse203"
       fill="currentColor"
       cy="181"
       cx="11"
       class="ColorScheme-Text"
       r="8" />
  </g>
  <g
     id="fcitx-wbpy"
     transform="translate(-158,-58)">
    <path
       id="path206"
       fill="currentColor"
       d="m 182,3 c -1.662,0 -3,1.338 -3,3 v 10 c 0,1.662 1.338,3 3,3 h 7 v -3 h -7 v -1 h 2.0996 l 0.88867,-4 h -1.9883 v -1 h 2.2109 l 0.66601,-3 h -3.877 V 6 h 9 v 1 h -4.0977 l -0.66601,3 h 3.7637 v 1.2754 c 0.295,-0.1711 0.63307,-0.27539 1,-0.27539 h 4 v -5 c 0,-1.662 -1.338,-3 -3,-3 h -10 z m 4.0137,8 -0.89062,4 h 3.877 v -4 h -2.9863 z"
       class="ColorScheme-Text" />
    <path
       id="path208"
       fill="none"
       d="m 176,0 h 22 v 22 h -22 z" />
    <path
       id="path210"
       stroke-width="1.732"
       stroke-linejoin="round"
       opacity="0.5"
       fill="currentColor"
       d="m 191,12 c -0.554,0 -1,0.446 -1,1 v 6 c 0,0.554 0.446,1 1,1 h 4 c 0.554,0 1,-0.446 1,-1 v -6 c 0,-0.554 -0.446,-1 -1,-1 z m 0,0.95703 h 0.5 c 0.75,0 1.5317,-0.0168 2.2207,0.21289 0.3445,0.11483 0.67639,0.30519 0.91602,0.61328 0.23962,0.30809 0.36328,0.7155 0.36328,1.1738 0,0.4583 -0.12366,0.86574 -0.36328,1.1738 -0.23963,0.30809 -0.57152,0.49845 -0.91602,0.61328 -0.53383,0.17794 -1.1334,0.15946 -1.7207,0.16406 v 2.0488 h -1 v -6 z m 1,1.043 v 1.9141 c 0.52807,-0.0121 1.0828,-0.012 1.4043,-0.11914 0.218,-0.0727 0.35486,-0.16356 0.44336,-0.27734 C 193.93616,15.40386 194,15.24877 194,14.9571 c 0,-0.29167 -0.0638,-0.44676 -0.15234,-0.56055 -0.0885,-0.11378 -0.22536,-0.20467 -0.44336,-0.27734 -0.32152,-0.10717 -0.87623,-0.10704 -1.4043,-0.11914 z"
       class="ColorScheme-Text" />
  </g>
  <g
     id="fcitx-kbd"
     transform="translate(27,-24)">
    <rect
       id="rect856"
       width="22"
       height="22"
       x="-27"
       y="24"
       style="opacity:0.00100002;fill:#000000;fill-opacity:1;stroke:none;stroke-width:9.13128;stroke-linecap:round;stroke-linejoin:round;stroke-miterlimit:4;stroke-dasharray:none;stroke-opacity:1" />
    <g
       id="g920"
       transform="translate(31,-11)">
      <rect
         style="fill:#ff4e5e;fill-opacity:1;stroke-width:0.683764;stroke-linecap:round;stroke-linejoin:round;paint-order:stroke fill markers"
         id="rect871"
         width="18"
         height="16"
         x="-56"
         y="38"
         ry="2" />
      <rect
         style="fill:#ffffff;fill-opacity:1;stroke-width:0.456435;stroke-linecap:round;stroke-linejoin:round;paint-order:stroke fill markers"
         id="rect877"
         width="2"
         height="5"
         x="-43"
         y="45"
         ry="1" />
      <rect
         style="fill:#ffffff;fill-opacity:1;stroke-width:0.5;stroke-linecap:round;stroke-linejoin:round;paint-order:stroke fill markers"
         id="rect881"
         width="1.9999993"
         height="6"
         x="-50"
         y="-47"
         ry="0.99999964"
         transform="rotate(-90)" />
      <rect
         style="fill:#ffffff;fill-opacity:1;stroke-width:0.5;stroke-linecap:round;stroke-linejoin:round;paint-order:stroke fill markers"
         id="rect897"
         width="2"
         height="5.9999981"
         x="-44"
         y="-47"
         ry="1"
         transform="rotate(-90)" />
      <rect
         style="fill:#ffffff;fill-opacity:1;stroke-width:0.288675;stroke-linecap:round;stroke-linejoin:round;paint-order:stroke fill markers"
         id="rect899"
         width="2"
         height="1.9999992"
         x="-44"
         y="-50"
         ry="0.99999958"
         transform="rotate(-90)" />
      <rect
         style="fill:#ffffff;fill-opacity:1;stroke-width:0.288675;stroke-linecap:round;stroke-linejoin:round;paint-order:stroke fill markers"
         id="rect901"
         width="2"
         height="1.9999981"
         x="-44"
         y="-53"
         ry="0.99999905"
         transform="rotate(-90)" />
      <rect
         style="fill:#ffffff;fill-opacity:1;stroke-width:0.288675;stroke-linecap:round;stroke-linejoin:round;paint-order:stroke fill markers"
         id="rect903"
         width="2"
         height="1.9999992"
         x="-47"
         y="-48"
         ry="0.99999958"
         transform="rotate(-90)" />
      <rect
         style="fill:#ffffff;fill-opacity:1;stroke-width:0.288675;stroke-linecap:round;stroke-linejoin:round;paint-order:stroke fill markers"
         id="rect905"
         width="2"
         height="1.9999992"
         x="-47"
         y="-52"
         ry="0.99999958"
         transform="rotate(-90)" />
      <rect
         style="fill:#ffffff;fill-opacity:1;stroke-width:0.456436;stroke-linecap:round;stroke-linejoin:round;paint-order:stroke fill markers"
         id="rect909"
         width="1.9999993"
         height="5"
         x="-50"
         y="-53"
         ry="0.99999964"
         transform="rotate(-90)" />
    </g>
  </g>
  <g
     id="fcitx-vk-active"
     transform="translate(-158,-36)">
    <rect
       id="rect984"
       width="22"
       height="22"
       x="185"
       y="36"
       style="opacity:0.00100002;fill:#000000;fill-opacity:1;stroke:none;stroke-width:9.13128;stroke-linecap:round;stroke-linejoin:round;stroke-miterlimit:4;stroke-dasharray:none;stroke-opacity:1" />
    <path
       id="rect986"
       style="fill:#ff4e5e;fill-opacity:1;stroke-width:0.683764;stroke-linecap:round;stroke-linejoin:round;paint-order:stroke fill markers"
       d="m 189,39 c -1.108,0 -2,0.892 -2,2 v 12 c 0,1.108 0.892,2 2,2 h 11.35547 C 200.13499,54.542845 200,54.038 200,53.5 c 0,-1.921152 1.57885,-3.5 3.5,-3.5 0.538,0 1.04285,0.13499 1.5,0.355469 V 41 c 0,-1.108 -0.892,-2 -2,-2 z m 14.5,13 c -0.84027,0 -1.5,0.659728 -1.5,1.5 0,0.751939 0.52896,1.355222 1.24219,1.474609 0.91127,-0.110386 1.62203,-0.821146 1.73242,-1.732421 C 204.85522,52.528957 204.25194,52 203.5,52 Z" />
    <path
       id="rect988"
       style="fill:#ffffff;fill-opacity:1;stroke-width:0.456435;stroke-linecap:round;stroke-linejoin:round;paint-order:stroke fill markers"
       d="m 201,46 c 0.554,0 1,0.446 1,1 v 3 c 0,0.554 -0.446,1 -1,1 -0.554,0 -1,-0.446 -1,-1 v -3 c 0,-0.554 0.446,-1 1,-1 z" />
    <path
       id="rect990"
       style="fill:#ffffff;fill-opacity:1;stroke-width:0.5;stroke-linecap:round;stroke-linejoin:round;paint-order:stroke fill markers"
       d="m 197,49 c -0.554,0 -1,0.446001 -1,1 0,0.554 0.446,1 1,1 h 4 c 0.0305,0 0.0562,-0.01493 0.0859,-0.01758 0.24387,-0.233998 0.52563,-0.423578 0.82812,-0.580078 C 201.96811,50.279143 202,50.1436 202,50 c 0,-0.553999 -0.446,-1 -1,-1 z" />
    <path
       id="rect992"
       style="fill:#ffffff;fill-opacity:1;stroke-width:0.5;stroke-linecap:round;stroke-linejoin:round;paint-order:stroke fill markers"
       d="m 196,44 c 0,-0.554 0.446,-1 1,-1 h 4 c 0.554,0 1,0.446 1,1 0,0.554 -0.446,1 -1,1 h -4 c -0.554,0 -1,-0.446 -1,-1 z" />
    <path
       id="rect994"
       style="fill:#ffffff;fill-opacity:1;stroke-width:0.288675;stroke-linecap:round;stroke-linejoin:round;paint-order:stroke fill markers"
       d="m 193,44 v 0 c 0,-0.554 0.446,-1 1,-1 0.554,0 1,0.446 1,1 v 0 c 0,0.554 -0.446,1 -1,1 -0.554,0 -1,-0.446 -1,-1 z" />
    <path
       id="rect996"
       style="fill:#ffffff;fill-opacity:1;stroke-width:0.288675;stroke-linecap:round;stroke-linejoin:round;paint-order:stroke fill markers"
       d="m 190,44.000001 v -2e-6 C 190,43.446 190.446,43 191,43 c 0.554,0 1,0.446 1,0.999999 v 2e-6 C 192,44.554 191.554,45 191,45 c -0.554,0 -1,-0.446 -1,-0.999999 z" />
    <path
       id="rect998"
       style="fill:#ffffff;fill-opacity:1;stroke-width:0.288675;stroke-linecap:round;stroke-linejoin:round;paint-order:stroke fill markers"
       d="m 195,47 v 0 c 0,-0.554 0.446,-1 1,-1 0.554,0 1,0.446 1,1 v 0 c 0,0.554 -0.446,1 -1,1 -0.554,0 -1,-0.446 -1,-1 z" />
    <path
       id="rect1000"
       style="fill:#ffffff;fill-opacity:1;stroke-width:0.288675;stroke-linecap:round;stroke-linejoin:round;paint-order:stroke fill markers"
       d="m 191,47 v 0 c 0,-0.554 0.446,-1 1,-1 0.554,0 1,0.446 1,1 v 0 c 0,0.554 -0.446,1 -1,1 -0.554,0 -1,-0.446 -1,-1 z" />
    <path
       id="rect1002"
       style="fill:#ffffff;fill-opacity:1;stroke-width:0.456436;stroke-linecap:round;stroke-linejoin:round;paint-order:stroke fill markers"
       d="m 190,50 c 0,-0.553999 0.446,-0.999999 1,-0.999999 h 3 c 0.554,0 1,0.446 1,0.999999 0,0.554 -0.446,1 -1,1 h -3 c -0.554,0 -1,-0.446 -1,-1 z" />
    <path
       style="color:#000000;font-style:normal;font-variant:normal;font-weight:normal;font-stretch:normal;font-size:medium;line-height:normal;font-family:sans-serif;font-variant-ligatures:normal;font-variant-position:normal;font-variant-caps:normal;font-variant-numeric:normal;font-variant-alternates:normal;font-variant-east-asian:normal;font-feature-settings:normal;font-variation-settings:normal;text-indent:0;text-align:start;text-decoration:none;text-decoration-line:none;text-decoration-style:solid;text-decoration-color:#000000;letter-spacing:normal;word-spacing:normal;text-transform:none;writing-mode:lr-tb;direction:ltr;text-orientation:mixed;dominant-baseline:auto;baseline-shift:baseline;text-anchor:start;white-space:normal;shape-padding:0;shape-margin:0;inline-size:0;clip-rule:nonzero;display:inline;overflow:visible;visibility:visible;isolation:auto;mix-blend-mode:normal;color-interpolation:sRGB;color-interpolation-filters:linearRGB;solid-color:#000000;solid-opacity:1;vector-effect:none;fill:#42d15b;fill-opacity:1;fill-rule:nonzero;stroke:none;stroke-width:2;stroke-linecap:round;stroke-linejoin:round;stroke-miterlimit:4;stroke-dasharray:none;stroke-dashoffset:0;stroke-opacity:1;paint-order:stroke fill markers;color-rendering:auto;image-rendering:auto;shape-rendering:auto;text-rendering:auto;enable-background:accumulate;stop-color:#000000"
       d="m 206,53.5 c 0,1.380712 -1.11929,2.5 -2.5,2.5 -1.38071,0 -2.5,-1.119288 -2.5,-2.5 0,-1.380712 1.11929,-2.5 2.5,-2.5 1.38071,0 2.5,1.119288 2.5,2.5 z"
       id="path1026" />
  </g>
  <g
     id="fcitx-vk-inactive"
     transform="translate(83,-24)"
     style="opacity:0.5">
    <rect
       id="rect1066"
       width="22"
       height="22"
       x="-27"
       y="24"
       style="opacity:0.00100002;fill:#000000;fill-opacity:1;stroke:none;stroke-width:9.13128;stroke-linecap:round;stroke-linejoin:round;stroke-miterlimit:4;stroke-dasharray:none;stroke-opacity:1" />
    <g
       id="g1086"
       transform="translate(31,-11)">
      <rect
         style="fill:#ff4e5e;fill-opacity:1;stroke-width:0.683764;stroke-linecap:round;stroke-linejoin:round;paint-order:stroke fill markers"
         id="rect1068"
         width="18"
         height="16"
         x="-56"
         y="38"
         ry="2" />
      <rect
         style="fill:#ffffff;fill-opacity:1;stroke-width:0.456435;stroke-linecap:round;stroke-linejoin:round;paint-order:stroke fill markers"
         id="rect1070"
         width="2"
         height="5"
         x="-43"
         y="45"
         ry="1" />
      <rect
         style="fill:#ffffff;fill-opacity:1;stroke-width:0.5;stroke-linecap:round;stroke-linejoin:round;paint-order:stroke fill markers"
         id="rect1072"
         width="1.9999993"
         height="6"
         x="-50"
         y="-47"
         ry="0.99999964"
         transform="rotate(-90)" />
      <rect
         style="fill:#ffffff;fill-opacity:1;stroke-width:0.5;stroke-linecap:round;stroke-linejoin:round;paint-order:stroke fill markers"
         id="rect1074"
         width="2"
         height="5.9999981"
         x="-44"
         y="-47"
         ry="1"
         transform="rotate(-90)" />
      <rect
         style="fill:#ffffff;fill-opacity:1;stroke-width:0.288675;stroke-linecap:round;stroke-linejoin:round;paint-order:stroke fill markers"
         id="rect1076"
         width="2"
         height="1.9999992"
         x="-44"
         y="-50"
         ry="0.99999958"
         transform="rotate(-90)" />
      <rect
         style="fill:#ffffff;fill-opacity:1;stroke-width:0.288675;stroke-linecap:round;stroke-linejoin:round;paint-order:stroke fill markers"
         id="rect1078"
         width="2"
         height="1.9999981"
         x="-44"
         y="-53"
         ry="0.99999905"
         transform="rotate(-90)" />
      <rect
         style="fill:#ffffff;fill-opacity:1;stroke-width:0.288675;stroke-linecap:round;stroke-linejoin:round;paint-order:stroke fill markers"
         id="rect1080"
         width="2"
         height="1.9999992"
         x="-47"
         y="-48"
         ry="0.99999958"
         transform="rotate(-90)" />
      <rect
         style="fill:#ffffff;fill-opacity:1;stroke-width:0.288675;stroke-linecap:round;stroke-linejoin:round;paint-order:stroke fill markers"
         id="rect1082"
         width="2"
         height="1.9999992"
         x="-47"
         y="-52"
         ry="0.99999958"
         transform="rotate(-90)" />
      <rect
         style="fill:#ffffff;fill-opacity:1;stroke-width:0.456436;stroke-linecap:round;stroke-linejoin:round;paint-order:stroke fill markers"
         id="rect1084"
         width="1.9999993"
         height="5"
         x="-50"
         y="-53"
         ry="0.99999964"
         transform="rotate(-90)" />
    </g>
  </g>
</svg>
