<?xml version="1.0" encoding="UTF-8" standalone="no"?>
<svg
   xmlns:dc="http://purl.org/dc/elements/1.1/"
   xmlns:cc="http://creativecommons.org/ns#"
   xmlns:rdf="http://www.w3.org/1999/02/22-rdf-syntax-ns#"
   xmlns:svg="http://www.w3.org/2000/svg"
   xmlns="http://www.w3.org/2000/svg"
   xmlns:sodipodi="http://sodipodi.sourceforge.net/DTD/sodipodi-0.dtd"
   xmlns:inkscape="http://www.inkscape.org/namespaces/inkscape"
   id="svg30"
   viewBox="0 0 32 32"
   version="1.1"
   sodipodi:docname="kdeconnect.svg"
   inkscape:version="1.0.2 (e86c870879, 2021-01-15)">
  <sodipodi:namedview
     pagecolor="#ffffff"
     bordercolor="#666666"
     borderopacity="1"
     objecttolerance="10"
     gridtolerance="10"
     guidetolerance="10"
     inkscape:pageopacity="0"
     inkscape:pageshadow="2"
     inkscape:window-width="1920"
     inkscape:window-height="935"
     id="namedview20"
     showgrid="true"
     inkscape:zoom="4.2813106"
     inkscape:cx="19.348569"
     inkscape:cy="49.700218"
     inkscape:window-x="0"
     inkscape:window-y="38"
     inkscape:window-maximized="1"
     inkscape:current-layer="svg30"
     inkscape:document-rotation="0"
     inkscape:snap-nodes="false"
     inkscape:snap-bbox="true"
     inkscape:snap-bbox-edge-midpoints="true"
     inkscape:bbox-nodes="true">
    <inkscape:grid
       type="xygrid"
       id="grid845" />
  </sodipodi:namedview>
  <metadata
     id="metadata34">
    <rdf:RDF>
      <cc:Work
         rdf:about="">
        <dc:format>image/svg+xml</dc:format>
        <dc:type
           rdf:resource="http://purl.org/dc/dcmitype/StillImage" />
        <dc:title />
      </cc:Work>
    </rdf:RDF>
  </metadata>
  <defs
     id="defs3">
    <style
       type="text/css"
       id="current-color-scheme">.ColorScheme-Text { color:#363636; }</style>
  </defs>
  <g
     fill="currentColor"
     class="ColorScheme-Text"
     transform="translate(-321,-529.36)"
     id="16-16-kdeconnect">
    <path
       style="color:#363636;font-style:normal;font-variant:normal;font-weight:normal;font-stretch:normal;font-size:medium;line-height:normal;font-family:sans-serif;font-variant-ligatures:normal;font-variant-position:normal;font-variant-caps:normal;font-variant-numeric:normal;font-variant-alternates:normal;font-variant-east-asian:normal;font-feature-settings:normal;font-variation-settings:normal;text-indent:0;text-align:start;text-decoration:none;text-decoration-line:none;text-decoration-style:solid;text-decoration-color:#000000;letter-spacing:normal;word-spacing:normal;text-transform:none;writing-mode:lr-tb;direction:ltr;text-orientation:mixed;dominant-baseline:auto;baseline-shift:baseline;text-anchor:start;white-space:normal;shape-padding:0;shape-margin:0;inline-size:0;clip-rule:nonzero;display:inline;overflow:visible;visibility:visible;isolation:auto;mix-blend-mode:normal;color-interpolation:sRGB;color-interpolation-filters:linearRGB;solid-color:#000000;solid-opacity:1;vector-effect:none;fill:#36aefa;fill-opacity:1;fill-rule:nonzero;stroke:none;stroke-width:1;stroke-linecap:butt;stroke-linejoin:miter;stroke-miterlimit:4;stroke-dasharray:none;stroke-dashoffset:0;stroke-opacity:1;color-rendering:auto;image-rendering:auto;shape-rendering:auto;text-rendering:auto;enable-background:accumulate;stop-color:#000000"
       d="m 308,539.36 c -0.554,0 -1,0.446 -1,1 v 10 c 0,0.554 0.446,1 1,1 h 1 v -2 h -1 v -7 h 6 v 1 h 1 v -3 c 0,-0.554 -0.446,-1 -1,-1 z m 2,1 h 2 v 1 h -2 z m 2.5,3 -0.27734,1.1074 c -0.25213,0.0672 -0.49441,0.167 -0.72071,0.29688 l -0.97656,-0.58594 -0.70703,0.70703 0.58594,0.97656 c -0.13139,0.22672 -0.23251,0.46967 -0.30078,0.72266 l -1.1035,0.27539 v 1 l 1.1074,0.27734 c 0.0672,0.25213 0.167,0.49441 0.29688,0.72071 l -0.58594,0.97656 0.70703,0.70703 0.97656,-0.58594 c 0.22672,0.13139 0.46967,0.23251 0.72266,0.30078 l 0.27539,1.1035 h 1 l 0.27734,-1.1074 c 0.25213,-0.0672 0.49441,-0.167 0.72071,-0.29688 l 0.97656,0.58594 0.70703,-0.70703 -0.58594,-0.97656 c 0.13139,-0.22672 0.23251,-0.46967 0.30078,-0.72266 l 1.1035,-0.27539 v -1 l -1.1074,-0.27734 c -0.0672,-0.25213 -0.167,-0.49441 -0.29688,-0.72071 l 0.58594,-0.97656 -0.70703,-0.70703 -0.97656,0.58594 c -0.22672,-0.13139 -0.46967,-0.23251 -0.72266,-0.30078 L 313.5,543.36 Z m 0.5,2 c 0.0665,2e-5 0.13302,0.003 0.19922,0.01 0.0662,0.006 0.13203,0.0163 0.19726,0.0293 0.0659,0.0136 0.13111,0.0306 0.19532,0.0508 0.0636,0.0197 0.12618,0.0425 0.1875,0.0684 0.0613,0.0256 0.12125,0.0543 0.17968,0.0859 0.0584,0.0323 0.11508,0.0675 0.16993,0.10547 0.0554,0.0377 0.10883,0.0781 0.16015,0.12109 0.0511,0.0431 0.1,0.0887 0.14649,0.13672 0.046,0.0473 0.0897,0.0968 0.13086,0.14844 0.0418,0.0527 0.0809,0.10744 0.11718,0.16406 0.0361,0.0562 0.0693,0.11426 0.0996,0.17383 0.0297,0.0592 0.0564,0.1198 0.0801,0.18164 0.0247,0.062 0.0462,0.12526 0.0645,0.18945 0.0176,0.0643 0.0319,0.12953 0.043,0.19531 0.0111,0.066 0.0189,0.13246 0.0234,0.19922 0.004,0.0468 0.006,0.0937 0.006,0.14059 -2e-5,0.0665 -0.003,0.13302 -0.01,0.19922 -0.006,0.0662 -0.0163,0.13203 -0.0293,0.19726 -0.0136,0.0659 -0.0306,0.13111 -0.0508,0.19532 -0.0197,0.0636 -0.0425,0.12618 -0.0684,0.1875 -0.0256,0.0613 -0.0543,0.12125 -0.0859,0.17968 -0.0323,0.0584 -0.0675,0.11508 -0.10547,0.16993 -0.0377,0.0554 -0.0781,0.10883 -0.1211,0.16015 -0.0431,0.0511 -0.0887,0.1 -0.13672,0.14649 -0.0473,0.046 -0.0968,0.0897 -0.14843,0.13086 -0.0527,0.0418 -0.10744,0.0809 -0.16407,0.11718 -0.0562,0.0361 -0.11425,0.0693 -0.17382,0.0996 -0.0592,0.0297 -0.1198,0.0564 -0.18164,0.0801 -0.062,0.0246 -0.12527,0.0461 -0.18946,0.0644 -0.0643,0.0176 -0.12953,0.0319 -0.19531,0.043 -0.066,0.0111 -0.13246,0.0189 -0.19922,0.0234 -0.0279,0.004 -0.0559,0.007 -0.084,0.01 h -0.13672 c -0.0398,-0.002 -0.0795,-0.005 -0.11914,-0.01 -0.0662,-0.006 -0.13204,-0.0163 -0.19727,-0.0293 -0.0659,-0.0136 -0.1311,-0.0306 -0.19531,-0.0508 -0.0636,-0.0197 -0.12618,-0.0425 -0.1875,-0.0684 -0.0613,-0.0256 -0.12126,-0.0543 -0.17969,-0.0859 -0.0584,-0.0323 -0.11507,-0.0675 -0.16992,-0.10546 -0.0554,-0.0377 -0.10883,-0.0781 -0.16016,-0.1211 -0.0301,-0.0265 -0.0594,-0.0538 -0.0879,-0.082 l -0.0879,-0.0879 c -0.0353,-0.0371 -0.0692,-0.0755 -0.10156,-0.11523 -0.0418,-0.0527 -0.0809,-0.10744 -0.11719,-0.16407 -0.0361,-0.0562 -0.0693,-0.11425 -0.0996,-0.17382 -0.0297,-0.0592 -0.0564,-0.1198 -0.0801,-0.18164 -0.0247,-0.062 -0.0462,-0.12527 -0.0645,-0.18946 -0.0176,-0.0643 -0.0319,-0.12953 -0.043,-0.19531 -0.0111,-0.066 -0.0189,-0.13246 -0.0234,-0.19922 -0.004,-0.0468 -0.006,-0.0937 -0.006,-0.14062 2e-5,-0.0665 0.003,-0.13302 0.01,-0.19922 0.006,-0.0662 0.0163,-0.13204 0.0293,-0.19727 0.0136,-0.0659 0.0306,-0.1311 0.0508,-0.19531 0.0197,-0.0636 0.0425,-0.12618 0.0684,-0.1875 0.0256,-0.0613 0.0543,-0.12126 0.0859,-0.17969 0.0323,-0.0584 0.0675,-0.11507 0.10547,-0.16992 0.0377,-0.0554 0.0781,-0.10883 0.1211,-0.16016 0.0431,-0.0511 0.0887,-0.1 0.13672,-0.14648 0.0473,-0.046 0.0968,-0.0897 0.14843,-0.13086 0.0527,-0.0418 0.10744,-0.0809 0.16407,-0.11719 0.0562,-0.0361 0.11425,-0.0693 0.17382,-0.0996 0.0592,-0.0297 0.1198,-0.0564 0.18164,-0.0801 0.062,-0.0246 0.12527,-0.0461 0.18946,-0.0644 0.0643,-0.0176 0.12953,-0.0319 0.19531,-0.043 0.066,-0.0111 0.13246,-0.0189 0.19922,-0.0234 0.0467,-0.005 0.0936,-0.008 0.14062,-0.01 z"
       id="path949" />
    <rect
       id="rect7"
       fill="none"
       height="16"
       width="16"
       y="537.36"
       x="303" />
  </g>
  <g
     id="g880"
     transform="translate(-0.5,8.77537)">
    <path
       style="fill:#00c09e;fill-opacity:0.34902;stroke:none;stroke-width:1px;stroke-linecap:butt;stroke-linejoin:miter;stroke-opacity:1"
       d="m 40,32.22463 h 10 v 20 H 40 Z"
       id="path913" />
    <path
       style="color:#363636;font-style:normal;font-variant:normal;font-weight:normal;font-stretch:normal;font-size:medium;line-height:normal;font-family:sans-serif;font-variant-ligatures:normal;font-variant-position:normal;font-variant-caps:normal;font-variant-numeric:normal;font-variant-alternates:normal;font-variant-east-asian:normal;font-feature-settings:normal;font-variation-settings:normal;text-indent:0;text-align:start;text-decoration:none;text-decoration-line:none;text-decoration-style:solid;text-decoration-color:#000000;letter-spacing:normal;word-spacing:normal;text-transform:none;writing-mode:lr-tb;direction:ltr;text-orientation:mixed;dominant-baseline:auto;baseline-shift:baseline;text-anchor:start;white-space:normal;shape-padding:0;shape-margin:0;inline-size:0;clip-rule:nonzero;display:inline;overflow:visible;visibility:visible;isolation:auto;mix-blend-mode:normal;color-interpolation:sRGB;color-interpolation-filters:linearRGB;solid-color:#000000;solid-opacity:1;vector-effect:none;fill:#00c19f;fill-opacity:1;fill-rule:nonzero;stroke:none;stroke-width:1;stroke-linecap:butt;stroke-linejoin:miter;stroke-miterlimit:4;stroke-dasharray:none;stroke-dashoffset:0;stroke-opacity:1;color-rendering:auto;image-rendering:auto;shape-rendering:auto;text-rendering:auto;enable-background:accumulate;stop-color:#000000"
       d="m 44.5,38.22463 -0.27734,1.1074 c -0.25213,0.0672 -0.49441,0.167 -0.72071,0.29688 L 42.52539,39.04297 41.81836,39.75 42.4043,40.72656 c -0.13139,0.22672 -0.23251,0.46967 -0.30078,0.72266 l -1.1035,0.27539 v 1 l 1.1074,0.27734 c 0.0672,0.25213 0.167,0.49441 0.29688,0.72071 l -0.58594,0.97656 0.70703,0.70703 0.97656,-0.58594 c 0.22672,0.13139 0.46967,0.23251 0.72266,0.30078 L 44.5,46.22459 h 1 l 0.27734,-1.1074 c 0.25213,-0.0672 0.49441,-0.167 0.72071,-0.29688 l 0.97656,0.58594 0.70703,-0.70703 -0.58594,-0.97656 C 47.72709,43.49594 47.82821,43.25299 47.89648,43 l 1.1035,-0.27539 v -1 l -1.1074,-0.27734 c -0.0672,-0.25213 -0.167,-0.49441 -0.29688,-0.72071 L 48.18164,39.75 47.47461,39.04297 46.49805,39.62891 C 46.27133,39.49752 46.02838,39.3964 45.77539,39.32813 L 45.5,38.22463 Z m 0.5,2 c 0.0665,2e-5 0.13302,0.003 0.19922,0.01 0.0662,0.006 0.13203,0.0163 0.19726,0.0293 0.0659,0.0136 0.13111,0.0306 0.19532,0.0508 0.0636,0.0197 0.12618,0.0425 0.1875,0.0684 0.0613,0.0256 0.12125,0.0543 0.17968,0.0859 0.0584,0.0323 0.11508,0.0675 0.16993,0.10547 0.0554,0.0377 0.10883,0.0781 0.16015,0.12109 0.0511,0.0431 0.1,0.0887 0.14649,0.13672 0.046,0.0473 0.0897,0.0968 0.13086,0.14844 0.0418,0.0527 0.0809,0.10744 0.11718,0.16406 0.0361,0.0562 0.0693,0.11426 0.0996,0.17383 0.0297,0.0592 0.0564,0.1198 0.0801,0.18164 0.0247,0.062 0.0462,0.12526 0.0645,0.18945 0.0176,0.0643 0.0319,0.12954 0.043,0.19532 0.0111,0.066 0.0189,0.13246 0.0234,0.19921 0.004,0.0468 0.006,0.0937 0.006,0.14059 -2e-5,0.0665 -0.003,0.13302 -0.01,0.19922 -0.006,0.0662 -0.0163,0.13203 -0.0293,0.19726 -0.0136,0.0659 -0.0306,0.13111 -0.0508,0.19532 -0.0197,0.0636 -0.0425,0.12618 -0.0684,0.1875 -0.0256,0.0613 -0.0543,0.12125 -0.0859,0.17968 -0.0323,0.0584 -0.0675,0.11508 -0.10547,0.16993 -0.0377,0.0554 -0.0781,0.10883 -0.1211,0.16015 -0.0431,0.0511 -0.0887,0.1 -0.13672,0.14649 -0.0473,0.046 -0.0968,0.0897 -0.14843,0.13086 -0.0527,0.0418 -0.10744,0.0809 -0.16407,0.11718 -0.0562,0.0361 -0.11425,0.0693 -0.17382,0.0996 -0.0592,0.0297 -0.1198,0.0564 -0.18164,0.0801 -0.062,0.0246 -0.12527,0.0461 -0.18946,0.0644 -0.0643,0.0176 -0.12953,0.0319 -0.19531,0.043 -0.066,0.0111 -0.13246,0.0189 -0.19922,0.0234 -0.0279,0.004 -0.0559,0.007 -0.084,0.01 h -0.13672 c -0.0398,-0.002 -0.0795,-0.005 -0.11914,-0.01 -0.0662,-0.006 -0.13204,-0.0163 -0.19727,-0.0293 -0.0659,-0.0136 -0.1311,-0.0306 -0.19531,-0.0508 -0.0636,-0.0197 -0.12618,-0.0425 -0.1875,-0.0684 -0.0613,-0.0256 -0.12126,-0.0543 -0.17969,-0.0859 -0.0584,-0.0323 -0.11507,-0.0675 -0.16992,-0.10546 -0.0554,-0.0377 -0.10883,-0.0781 -0.16016,-0.1211 -0.0301,-0.0265 -0.0594,-0.0538 -0.0879,-0.082 l -0.0879,-0.0879 c -0.0353,-0.0371 -0.0692,-0.0755 -0.10156,-0.11523 -0.0418,-0.0527 -0.0809,-0.10744 -0.11719,-0.16407 -0.0361,-0.0562 -0.0693,-0.11425 -0.0996,-0.17382 -0.0297,-0.0592 -0.0564,-0.1198 -0.0801,-0.18164 -0.0247,-0.062 -0.0462,-0.12527 -0.0645,-0.18946 -0.0176,-0.0643 -0.0319,-0.12953 -0.043,-0.19531 -0.0111,-0.066 -0.0189,-0.13246 -0.0234,-0.19922 -0.004,-0.0468 -0.006,-0.0937 -0.006,-0.14062 2e-5,-0.0665 0.003,-0.13302 0.01,-0.19922 0.006,-0.0662 0.0163,-0.13204 0.0293,-0.19727 0.0136,-0.0659 0.0306,-0.1311 0.0508,-0.19531 0.0197,-0.0636 0.0425,-0.12618 0.0684,-0.1875 0.0256,-0.0613 0.0543,-0.12126 0.0859,-0.17969 0.0323,-0.0584 0.0675,-0.11507 0.10547,-0.16992 0.0377,-0.0554 0.0781,-0.10883 0.1211,-0.16016 0.0431,-0.0511 0.0887,-0.1 0.13672,-0.14648 0.0473,-0.046 0.0968,-0.0897 0.14843,-0.13086 0.0527,-0.0418 0.10744,-0.0809 0.16407,-0.11719 0.0562,-0.0361 0.11425,-0.0693 0.17382,-0.0996 0.0592,-0.0297 0.1198,-0.0564 0.18164,-0.0801 0.062,-0.0246 0.12527,-0.0462 0.18946,-0.0645 0.0643,-0.0176 0.12953,-0.0319 0.19531,-0.043 0.066,-0.0111 0.13246,-0.0189 0.19922,-0.0234 0.0467,-0.005 0.0936,-0.008 0.14062,-0.01 z"
       id="path934" />
    <path
       style="color:#363636;font-style:normal;font-variant:normal;font-weight:normal;font-stretch:normal;font-size:medium;line-height:normal;font-family:sans-serif;font-variant-ligatures:normal;font-variant-position:normal;font-variant-caps:normal;font-variant-numeric:normal;font-variant-alternates:normal;font-variant-east-asian:normal;font-feature-settings:normal;font-variation-settings:normal;text-indent:0;text-align:start;text-decoration:none;text-decoration-line:none;text-decoration-style:solid;text-decoration-color:#000000;letter-spacing:normal;word-spacing:normal;text-transform:none;writing-mode:lr-tb;direction:ltr;text-orientation:mixed;dominant-baseline:auto;baseline-shift:baseline;text-anchor:start;white-space:normal;shape-padding:0;shape-margin:0;inline-size:0;clip-rule:nonzero;display:inline;overflow:visible;visibility:visible;isolation:auto;mix-blend-mode:normal;color-interpolation:sRGB;color-interpolation-filters:linearRGB;solid-color:#000000;solid-opacity:1;vector-effect:none;fill:#00c19f;fill-opacity:1;fill-rule:nonzero;stroke:none;stroke-width:1;stroke-linecap:butt;stroke-linejoin:miter;stroke-miterlimit:4;stroke-dasharray:none;stroke-dashoffset:0;stroke-opacity:1;color-rendering:auto;image-rendering:auto;shape-rendering:auto;text-rendering:auto;enable-background:accumulate;stop-color:#000000"
       d="m 43,32.224615 h 4 c 0.554,0 1,0.446 1,1 0,0.554 -0.446,1 -1,1 h -4 c -0.554,0 -1,-0.446 -1,-1 0,-0.554 0.446,-1 1,-1 z"
       id="path926" />
    <path
       style="color:#363636;font-style:normal;font-variant:normal;font-weight:normal;font-stretch:normal;font-size:medium;line-height:normal;font-family:sans-serif;font-variant-ligatures:normal;font-variant-position:normal;font-variant-caps:normal;font-variant-numeric:normal;font-variant-alternates:normal;font-variant-east-asian:normal;font-feature-settings:normal;font-variation-settings:normal;text-indent:0;text-align:start;text-decoration:none;text-decoration-line:none;text-decoration-style:solid;text-decoration-color:#000000;letter-spacing:normal;word-spacing:normal;text-transform:none;writing-mode:lr-tb;direction:ltr;text-orientation:mixed;dominant-baseline:auto;baseline-shift:baseline;text-anchor:start;white-space:normal;shape-padding:0;shape-margin:0;inline-size:0;clip-rule:nonzero;display:inline;overflow:visible;visibility:visible;isolation:auto;mix-blend-mode:normal;color-interpolation:sRGB;color-interpolation-filters:linearRGB;solid-color:#000000;solid-opacity:1;vector-effect:none;fill:#00c19f;fill-opacity:1;fill-rule:nonzero;stroke:none;stroke-width:1;stroke-linecap:butt;stroke-linejoin:miter;stroke-miterlimit:4;stroke-dasharray:none;stroke-dashoffset:0;stroke-opacity:1;color-rendering:auto;image-rendering:auto;shape-rendering:auto;text-rendering:auto;enable-background:accumulate;stop-color:#000000"
       d="m 41,31.22463 c -1.662,0 -3,1.338 -3,3 v 16 c 0,1.662 1.338,3 3,3 h 8 c 1.662,0 3,-1.338 3,-3 v -16 c 0,-1.662 -1.338,-3 -3,-3 z m 0,2 h 8 c 0.55399,0 1,0.44601 1,1 v 16 c 0,0.55399 -0.44601,1 -1,1 h -8 c -0.55399,0 -1,-0.44601 -1,-1 v -16 c 0,-0.55399 0.44601,-1 1,-1 z"
       id="path917" />
  </g>
  <g
     id="g913"
     transform="translate(0,-4)">
    <path
       style="fill:#00c09e;fill-opacity:0.34902;stroke:none;stroke-width:1px;stroke-linecap:butt;stroke-linejoin:miter;stroke-opacity:1"
       d="M 9,40 H 23 V 65 H 9 Z"
       id="path889" />
    <g
       id="g897"
       transform="translate(0,36)">
      <path
         style="color:#363636;font-style:normal;font-variant:normal;font-weight:normal;font-stretch:normal;font-size:medium;line-height:normal;font-family:sans-serif;font-variant-ligatures:normal;font-variant-position:normal;font-variant-caps:normal;font-variant-numeric:normal;font-variant-alternates:normal;font-variant-east-asian:normal;font-feature-settings:normal;font-variation-settings:normal;text-indent:0;text-align:start;text-decoration:none;text-decoration-line:none;text-decoration-style:solid;text-decoration-color:#000000;letter-spacing:normal;word-spacing:normal;text-transform:none;writing-mode:lr-tb;direction:ltr;text-orientation:mixed;dominant-baseline:auto;baseline-shift:baseline;text-anchor:start;white-space:normal;shape-padding:0;shape-margin:0;inline-size:0;clip-rule:nonzero;display:inline;overflow:visible;visibility:visible;isolation:auto;mix-blend-mode:normal;color-interpolation:sRGB;color-interpolation-filters:linearRGB;solid-color:#000000;solid-opacity:1;vector-effect:none;fill:#00c19f;fill-opacity:1;fill-rule:nonzero;stroke:none;stroke-width:1;stroke-linecap:butt;stroke-linejoin:miter;stroke-miterlimit:4;stroke-dasharray:none;stroke-dashoffset:0;stroke-opacity:1;color-rendering:auto;image-rendering:auto;shape-rendering:auto;text-rendering:auto;enable-background:accumulate;stop-color:#000000;stop-opacity:1"
         d="M 11,2 C 9.338,2 8,3.338 8,5 v 22 c 0,1.662 1.338,3 3,3 h 10 c 1.662,0 3,-1.338 3,-3 V 5 C 24,3.338 22.662,2 21,2 Z m 0,2 h 1.4922 l 0.49023,0.65234 C 13.09835,4.80615 13.13748,5 13.33009,5 h 5.3398 C 18.8625,5 18.90163,4.80615 19.01755,4.65234 L 19.50778,4 h 1.4922 c 0.55399,0 1,0.44601 1,1 v 22 c 0,0.55399 -0.44601,1 -1,1 h -10 c -0.55399,0 -1,-0.44601 -1,-1 V 5 c 0,-0.55399 0.44601,-1 1,-1 z"
         id="path899" />
    </g>
    <g
       id="g903"
       transform="translate(0,36)">
      <path
         style="color:#363636;font-style:normal;font-variant:normal;font-weight:normal;font-stretch:normal;font-size:medium;line-height:normal;font-family:sans-serif;font-variant-ligatures:normal;font-variant-position:normal;font-variant-caps:normal;font-variant-numeric:normal;font-variant-alternates:normal;font-variant-east-asian:normal;font-feature-settings:normal;font-variation-settings:normal;text-indent:0;text-align:start;text-decoration:none;text-decoration-line:none;text-decoration-style:solid;text-decoration-color:#000000;letter-spacing:normal;word-spacing:normal;text-transform:none;writing-mode:lr-tb;direction:ltr;text-orientation:mixed;dominant-baseline:auto;baseline-shift:baseline;text-anchor:start;white-space:normal;shape-padding:0;shape-margin:0;inline-size:0;clip-rule:nonzero;display:inline;overflow:visible;visibility:visible;isolation:auto;mix-blend-mode:normal;color-interpolation:sRGB;color-interpolation-filters:linearRGB;solid-color:#000000;solid-opacity:1;vector-effect:none;fill:#00c19f;fill-opacity:1;fill-rule:nonzero;stroke:none;stroke-width:1;stroke-linecap:butt;stroke-linejoin:miter;stroke-miterlimit:4;stroke-dasharray:none;stroke-dashoffset:0;stroke-opacity:1;color-rendering:auto;image-rendering:auto;shape-rendering:auto;text-rendering:auto;enable-background:accumulate;stop-color:#000000;stop-opacity:1"
         d="m 15.5,12 -0.27734,1.1074 c -0.25213,0.0672 -0.49441,0.167 -0.72071,0.29688 l -0.97656,-0.58594 -0.70703,0.70703 0.58594,0.97656 c -0.13139,0.22672 -0.23251,0.46967 -0.30078,0.72266 l -1.1035,0.27539 v 1 l 1.1074,0.27734 c 0.0672,0.25213 0.167,0.49441 0.29688,0.72071 l -0.58594,0.97656 0.70703,0.70703 0.97656,-0.58594 c 0.22672,0.13139 0.46967,0.23251 0.72266,0.30078 L 15.5,19.99996 h 1 l 0.27734,-1.1074 c 0.25213,-0.0672 0.49441,-0.167 0.72071,-0.29688 l 0.97656,0.58594 0.70703,-0.70703 -0.58594,-0.97656 c 0.13139,-0.22672 0.23251,-0.46967 0.30078,-0.72266 l 1.1035,-0.27539 v -1 l -1.1074,-0.27734 c -0.0672,-0.25213 -0.167,-0.49441 -0.29688,-0.72071 l 0.58594,-0.97656 -0.70703,-0.70703 -0.97656,0.58594 C 17.27133,13.27289 17.02838,13.17177 16.77539,13.1035 L 16.5,12 Z m 0.5,2 c 0.0665,2e-5 0.13302,0.003 0.19922,0.01 0.0662,0.006 0.13203,0.0163 0.19726,0.0293 0.0659,0.0136 0.13111,0.0306 0.19532,0.0508 0.0636,0.0197 0.12618,0.0425 0.1875,0.0684 0.0613,0.0256 0.12125,0.0543 0.17968,0.0859 0.0584,0.0323 0.11508,0.0675 0.16993,0.10547 0.0554,0.0377 0.10883,0.0781 0.16015,0.12109 0.0511,0.0431 0.1,0.0887 0.14649,0.13672 0.046,0.0473 0.0897,0.0968 0.13086,0.14844 0.0418,0.0527 0.0809,0.10744 0.11718,0.16406 0.0361,0.0562 0.0693,0.11426 0.0996,0.17383 0.0297,0.0592 0.0564,0.1198 0.0801,0.18164 0.0247,0.062 0.0462,0.12526 0.0645,0.18945 0.0176,0.0643 0.0319,0.12954 0.043,0.19532 0.0111,0.066 0.0189,0.13246 0.0234,0.19921 0.004,0.0468 0.006,0.0937 0.006,0.14059 -2e-5,0.0665 -0.003,0.13302 -0.01,0.19922 -0.006,0.0662 -0.0163,0.13203 -0.0293,0.19726 -0.0136,0.0659 -0.0306,0.13111 -0.0508,0.19532 -0.0197,0.0636 -0.0425,0.12618 -0.0684,0.1875 -0.0256,0.0613 -0.0543,0.12125 -0.0859,0.17968 -0.0323,0.0584 -0.0675,0.11508 -0.10547,0.16993 -0.0377,0.0554 -0.0781,0.10883 -0.1211,0.16015 -0.0431,0.0511 -0.0887,0.1 -0.13672,0.14649 -0.0473,0.046 -0.0968,0.0897 -0.14843,0.13086 -0.0527,0.0418 -0.10744,0.0809 -0.16407,0.11718 -0.0562,0.0361 -0.11425,0.0693 -0.17382,0.0996 -0.0592,0.0297 -0.1198,0.0564 -0.18164,0.0801 -0.062,0.0246 -0.12527,0.0461 -0.18946,0.0644 -0.0643,0.0176 -0.12953,0.0319 -0.19531,0.043 -0.066,0.0111 -0.13246,0.0189 -0.19922,0.0234 -0.0279,0.004 -0.0559,0.007 -0.084,0.01 h -0.13672 c -0.0398,-0.002 -0.0795,-0.005 -0.11914,-0.01 -0.0662,-0.006 -0.13204,-0.0163 -0.19727,-0.0293 -0.0659,-0.0136 -0.1311,-0.0306 -0.19531,-0.0508 -0.0636,-0.0197 -0.12618,-0.0425 -0.1875,-0.0684 -0.0613,-0.0256 -0.12126,-0.0543 -0.17969,-0.0859 -0.0584,-0.0323 -0.11507,-0.0675 -0.16992,-0.10546 -0.0554,-0.0377 -0.10883,-0.0781 -0.16016,-0.1211 -0.0301,-0.0265 -0.0594,-0.0538 -0.0879,-0.082 l -0.0879,-0.0879 c -0.0353,-0.0371 -0.0692,-0.0755 -0.10156,-0.11523 -0.0418,-0.0527 -0.0809,-0.10744 -0.11719,-0.16407 -0.0361,-0.0562 -0.0693,-0.11425 -0.0996,-0.17382 -0.0297,-0.0592 -0.0564,-0.1198 -0.0801,-0.18164 -0.0247,-0.062 -0.0462,-0.12527 -0.0645,-0.18946 -0.0176,-0.0643 -0.0319,-0.12953 -0.043,-0.19531 -0.0111,-0.066 -0.0189,-0.13246 -0.0234,-0.19922 -0.004,-0.0468 -0.006,-0.0937 -0.006,-0.14062 2e-5,-0.0665 0.003,-0.13302 0.01,-0.19922 0.006,-0.0662 0.0163,-0.13204 0.0293,-0.19727 0.0136,-0.0659 0.0306,-0.1311 0.0508,-0.19531 0.0197,-0.0636 0.0425,-0.12618 0.0684,-0.1875 0.0256,-0.0613 0.0543,-0.12126 0.0859,-0.17969 0.0323,-0.0584 0.0675,-0.11507 0.10547,-0.16992 0.0377,-0.0554 0.0781,-0.10883 0.1211,-0.16016 0.0431,-0.0511 0.0887,-0.1 0.13672,-0.14648 0.0473,-0.046 0.0968,-0.0897 0.14843,-0.13086 0.0527,-0.0418 0.10744,-0.0809 0.16407,-0.11719 0.0562,-0.0361 0.11425,-0.0693 0.17382,-0.0996 0.0592,-0.0297 0.1198,-0.0564 0.18164,-0.0801 0.062,-0.0246 0.12527,-0.0462 0.18946,-0.0645 0.0643,-0.0176 0.12953,-0.0319 0.19531,-0.043 0.066,-0.0111 0.13246,-0.0189 0.19922,-0.0234 0.0467,-0.005 0.0936,-0.008 0.14062,-0.01 z"
         id="path905" />
    </g>
  </g>
  <g
     id="22-22-kdeconnect">
    <rect
       id="rect10"
       fill="none"
       height="22"
       width="22"
       y="4.9999852"
       x="34"
       style="color:#363636" />
    <g
       id="g869"
       transform="translate(-37.5,0.99998522)">
      <rect
         style="opacity:1;fill:#36aefa;fill-opacity:1;stroke:none;stroke-width:1.94666;stroke-linecap:round;stroke-linejoin:round;paint-order:stroke fill markers"
         id="rect863"
         width="15"
         height="18"
         x="75"
         y="6"
         ry="2" />
      <rect
         style="opacity:1;fill:#b0dffd;fill-opacity:1;stroke:none;stroke-width:1.47018;stroke-linecap:round;stroke-linejoin:round;paint-order:stroke fill markers"
         id="rect865"
         width="11.00001"
         height="14"
         x="76.999992"
         y="8"
         ry="1" />
    </g>
  </g>
  <g
     id="kdeconnect">
    <rect
       id="rect23"
       fill="none"
       height="32"
       width="32"
       y="-1.4648437e-05"
       x="0"
       style="color:#363636" />
    <g
       id="g894"
       transform="translate(-1)">
      <rect
         style="opacity:1;fill:#36aefa;fill-opacity:1;stroke:none;stroke-width:2.56291;stroke-linecap:round;stroke-linejoin:round;paint-order:stroke fill markers"
         id="rect888"
         width="18"
         height="26"
         x="8"
         y="3"
         ry="3.0220129" />
      <rect
         style="opacity:1;fill:#b0dffd;fill-opacity:1;stroke:none;stroke-width:2.07915;stroke-linecap:round;stroke-linejoin:round;paint-order:stroke fill markers"
         id="rect890"
         width="14.000001"
         height="22"
         x="9.999999"
         y="5"
         ry="1.7811453" />
    </g>
  </g>
</svg>
