<?xml version="1.0" encoding="UTF-8" standalone="no"?>
<svg
   xmlns:dc="http://purl.org/dc/elements/1.1/"
   xmlns:cc="http://creativecommons.org/ns#"
   xmlns:rdf="http://www.w3.org/1999/02/22-rdf-syntax-ns#"
   xmlns:svg="http://www.w3.org/2000/svg"
   xmlns="http://www.w3.org/2000/svg"
   xmlns:sodipodi="http://sodipodi.sourceforge.net/DTD/sodipodi-0.dtd"
   xmlns:inkscape="http://www.inkscape.org/namespaces/inkscape"
   width="76"
   height="32"
   version="1.1"
   viewBox="0 0 20.108389 8.4667"
   id="svg53"
   sodipodi:docname="media.svg"
   inkscape:version="1.0.1 (3bc2e813f5, 2020-09-07)">
  <g
     id="media-record"
     transform="translate(0,6.0854795)">
    <rect
       x="20.107931"
       y="-4.7625093"
       width="5.8207598"
       height="5.8207598"
       fill-opacity="0"
       id="rect1125"
       style="stroke-width:0.26458" />
    <circle
       style="fill:#e6e9ee;fill-opacity:1;stroke-width:0.24053;stroke-linecap:round;stroke-linejoin:round;paint-order:stroke fill markers"
       id="circle1127"
       cx="23.015608"
       cy="-1.8520898"
       r="2.6458435" />
    <path
       id="path1129"
       style="fill:#bec1c9;fill-opacity:1;stroke-width:0.192424;stroke-linecap:round;stroke-linejoin:round;paint-order:stroke fill markers"
       d="m 23.015608,0.39842772 a 2.1166742,2.1166742 0 0 1 -2.116675,-2.11667492 2.1166742,2.1166742 0 0 1 0.0041,-0.130742 2.1166742,2.1166742 0 0 0 2.112541,1.98283192 2.1166742,2.1166742 0 0 0 2.112541,-1.98593292 2.1166742,2.1166742 0 0 1 0.0041,0.133843 2.1166742,2.1166742 0 0 1 -2.116675,2.11667492 z" />
    <circle
       style="fill:#fafbff;fill-opacity:1;stroke-width:0.192424;stroke-linecap:round;stroke-linejoin:round;paint-order:stroke fill markers"
       id="circle1131"
       cx="23.015608"
       cy="-1.8520898"
       r="2.1166742" />
    <path
       id="path1133"
       style="fill:#f8fefd;fill-opacity:1;stroke-width:0.192424;stroke-linecap:round;stroke-linejoin:round;paint-order:stroke fill markers"
       d="m 23.015608,-3.9687652 a 2.1166742,2.1166742 0 0 0 -2.116675,2.116675 2.1166742,2.1166742 0 0 0 0.001,0.06304 2.1166742,2.1166742 0 0 1 2.115643,-2.047428 2.1166742,2.1166742 0 0 1 2.115642,2.053629 2.1166742,2.1166742 0 0 0 0.001,-0.06925 2.1166742,2.1166742 0 0 0 -2.116675,-2.116674 z" />
    <circle
       style="fill:#9caba4;fill-opacity:1;stroke-width:0.132292;stroke-linecap:round;stroke-linejoin:round;paint-order:stroke fill markers"
       id="path1183"
       cx="23.018829"
       cy="-1.8520907"
       r="1.0583375" />
  </g>
  <sodipodi:namedview
     pagecolor="#ffffff"
     bordercolor="#666666"
     borderopacity="1"
     objecttolerance="10"
     gridtolerance="10"
     guidetolerance="10"
     inkscape:pageopacity="0"
     inkscape:pageshadow="2"
     inkscape:window-width="1920"
     inkscape:window-height="942"
     id="namedview36"
     showgrid="true"
     inkscape:snap-bbox="true"
     inkscape:bbox-nodes="true"
     inkscape:snap-bbox-edge-midpoints="true"
     inkscape:zoom="4.6562504"
     inkscape:cx="89.490584"
     inkscape:cy="23.853966"
     inkscape:window-x="0"
     inkscape:window-y="38"
     inkscape:window-maximized="1"
     inkscape:current-layer="svg53">
    <inkscape:grid
       type="xygrid"
       id="grid861" />
  </sodipodi:namedview>
  <metadata
     id="metadata57">
    <rdf:RDF>
      <cc:Work
         rdf:about="">
        <dc:format>image/svg+xml</dc:format>
        <dc:type
           rdf:resource="http://purl.org/dc/dcmitype/StillImage" />
        <dc:title />
      </cc:Work>
    </rdf:RDF>
  </metadata>
  <defs
     id="defs3">
    <style
       type="text/css"
       id="current-color-scheme">.ColorScheme-Text { color:#363636; } </style>
  </defs>
  <g
     id="media-playback-playing"
     transform="translate(23.01884,-15.875062)">
    <rect
       x="-15.872324"
       y="17.197992"
       width="5.8207598"
       height="5.8207598"
       fill-opacity="0"
       id="rect911"
       style="stroke-width:0.26458" />
    <circle
       style="fill:#e6e9ee;fill-opacity:1;stroke-width:0.24053;stroke-linecap:round;stroke-linejoin:round;paint-order:stroke fill markers"
       id="circle913"
       cx="-12.964646"
       cy="20.108412"
       r="2.6458435" />
    <path
       id="path915"
       style="fill:#b3cbc7;fill-opacity:1;stroke-width:0.192424;stroke-linecap:round;stroke-linejoin:round;paint-order:stroke fill markers"
       d="m -12.964646,22.35893 a 2.1166742,2.1166742 0 0 1 -2.116675,-2.116675 2.1166742,2.1166742 0 0 1 0.0041,-0.130742 2.1166742,2.1166742 0 0 0 2.112541,1.982832 2.1166742,2.1166742 0 0 0 2.112541,-1.985933 2.1166742,2.1166742 0 0 1 0.0041,0.133843 2.1166742,2.1166742 0 0 1 -2.116675,2.116675 z" />
    <circle
       style="fill:#eafff6;fill-opacity:1;stroke-width:0.192424;stroke-linecap:round;stroke-linejoin:round;paint-order:stroke fill markers"
       id="circle917"
       cx="-12.964646"
       cy="20.108412"
       r="2.1166742" />
    <path
       id="path919"
       style="fill:#f8fefd;fill-opacity:1;stroke-width:0.727269;stroke-linecap:round;stroke-linejoin:round;paint-order:stroke fill markers"
       d="m -49,68 a 7.999997,7.999997 0 0 0 -8,8 7.999997,7.999997 0 0 0 0.0039,0.238281 A 7.999997,7.999997 0 0 1 -49,68.5 7.999997,7.999997 0 0 1 -41.003906,76.261719 7.999997,7.999997 0 0 0 -41,76 7.999997,7.999997 0 0 0 -49,68 Z"
       transform="matrix(0.26458437,0,0,0.26458437,-1.175e-5,0)" />
    <path
       style="color:#363636;font-style:normal;font-variant:normal;font-weight:normal;font-stretch:normal;font-size:medium;line-height:normal;font-family:sans-serif;font-variant-ligatures:normal;font-variant-position:normal;font-variant-caps:normal;font-variant-numeric:normal;font-variant-alternates:normal;font-variant-east-asian:normal;font-feature-settings:normal;font-variation-settings:normal;text-indent:0;text-align:start;text-decoration:none;text-decoration-line:none;text-decoration-style:solid;text-decoration-color:#000000;letter-spacing:normal;word-spacing:normal;text-transform:none;writing-mode:lr-tb;direction:ltr;text-orientation:mixed;dominant-baseline:auto;baseline-shift:baseline;text-anchor:start;white-space:normal;shape-padding:0;shape-margin:0;inline-size:0;clip-rule:nonzero;display:inline;overflow:visible;visibility:visible;isolation:auto;mix-blend-mode:normal;color-interpolation:sRGB;color-interpolation-filters:linearRGB;solid-color:#000000;solid-opacity:1;vector-effect:none;fill:#00bd97;fill-opacity:1;fill-rule:nonzero;stroke:none;stroke-width:0.26458;stroke-linecap:butt;stroke-linejoin:miter;stroke-miterlimit:4;stroke-dasharray:none;stroke-dashoffset:0;stroke-opacity:1;color-rendering:auto;image-rendering:auto;shape-rendering:auto;text-rendering:auto;enable-background:accumulate;stop-color:#000000"
       d="m -13.34396,19.262431 c -0.04259,0.0053 -0.07794,0.02378 -0.106451,0.05581 -0.02851,0.03203 -0.04289,0.06971 -0.04289,0.112653 v 1.35494 c 0,0.04294 0.01438,0.08062 0.04289,0.112653 0.02851,0.03203 0.06386,0.05053 0.106451,0.05581 0.04259,0.0053 0.08124,-0.0041 0.116788,-0.02842 l 0.982862,-0.677458 c 0.03133,-0.02147 0.05315,-0.05075 0.06511,-0.0863 0.01197,-0.0359 0.01197,-0.07142 0,-0.106969 -0.01197,-0.03555 -0.03362,-0.06448 -0.06459,-0.0863 l -0.983391,-0.677987 c -0.03543,-0.02464 -0.07432,-0.03382 -0.116788,-0.02842 z"
       id="path933" />
  </g>
  <g
     id="media-playback-paused"
     transform="translate(0,7.1437299)">
    <rect
       x="0.79378998"
       y="-5.8207598"
       width="5.8207598"
       height="5.8207598"
       fill-opacity="0"
       id="rect939"
       style="stroke-width:0.26458" />
    <circle
       style="fill:#e6e9ee;fill-opacity:1;stroke-width:0.24053;stroke-linecap:round;stroke-linejoin:round;paint-order:stroke fill markers"
       id="circle941"
       cx="3.7014678"
       cy="-2.9103403"
       r="2.6458435" />
    <path
       id="path943"
       style="fill:#b3cbc7;fill-opacity:1;stroke-width:0.192424;stroke-linecap:round;stroke-linejoin:round;paint-order:stroke fill markers"
       d="m 3.701468,-0.659822 a 2.1166742,2.1166742 0 0 1 -2.116675,-2.116675 2.1166742,2.1166742 0 0 1 0.0041,-0.130742 2.1166742,2.1166742 0 0 0 2.112541,1.982832 2.1166742,2.1166742 0 0 0 2.112541,-1.985933 2.1166742,2.1166742 0 0 1 0.0041,0.133843 2.1166742,2.1166742 0 0 1 -2.116675,2.116675 z" />
    <circle
       style="fill:#eafff6;fill-opacity:1;stroke-width:0.192424;stroke-linecap:round;stroke-linejoin:round;paint-order:stroke fill markers"
       id="circle945"
       cx="3.7014678"
       cy="-2.9103403"
       r="2.1166742" />
    <path
       id="path947"
       style="fill:#f8fefd;fill-opacity:1;stroke-width:0.192424;stroke-linecap:round;stroke-linejoin:round;paint-order:stroke fill markers"
       d="m 3.7014679,-5.0270148 a 2.1166742,2.1166742 0 0 0 -2.116675,2.1166749 2.1166742,2.1166742 0 0 0 0.00103,0.063045 2.1166742,2.1166742 0 0 1 2.1156431,-2.0474282 2.1166742,2.1166742 0 0 1 2.1156415,2.0536296 2.1166742,2.1166742 0 0 0 0.00103,-0.069247 2.1166742,2.1166742 0 0 0 -2.1166749,-2.1166749 z" />
    <path
       style="color:#363636;font-style:normal;font-variant:normal;font-weight:normal;font-stretch:normal;font-size:medium;line-height:normal;font-family:sans-serif;font-variant-ligatures:normal;font-variant-position:normal;font-variant-caps:normal;font-variant-numeric:normal;font-variant-alternates:normal;font-variant-east-asian:normal;font-feature-settings:normal;font-variation-settings:normal;text-indent:0;text-align:start;text-decoration:none;text-decoration-line:none;text-decoration-style:solid;text-decoration-color:#000000;letter-spacing:normal;word-spacing:normal;text-transform:none;writing-mode:lr-tb;direction:ltr;text-orientation:mixed;dominant-baseline:auto;baseline-shift:baseline;text-anchor:start;white-space:normal;shape-padding:0;shape-margin:0;inline-size:0;clip-rule:nonzero;display:inline;overflow:visible;visibility:visible;isolation:auto;mix-blend-mode:normal;color-interpolation:sRGB;color-interpolation-filters:linearRGB;solid-color:#000000;solid-opacity:1;vector-effect:none;fill:#00bd97;fill-opacity:1;fill-rule:nonzero;stroke:none;stroke-width:0.26458;stroke-linecap:butt;stroke-linejoin:miter;stroke-miterlimit:4;stroke-dasharray:none;stroke-dashoffset:0;stroke-opacity:1;color-rendering:auto;image-rendering:auto;shape-rendering:auto;text-rendering:auto;enable-background:accumulate;stop-color:#000000"
       d="m 3.1750177,-3.7041812 c -0.1465773,0 -0.26458,0.1180027 -0.26458,0.26458 v 1.05832 c 0,0.1465773 0.1180027,0.26458 0.26458,0.26458 0.1465774,0 0.26458,-0.1180027 0.26458,-0.26458 v -1.05832 c 0,-0.1465773 -0.1180026,-0.26458 -0.26458,-0.26458 z m 1.05832,0 c -0.1465773,0 -0.26458,0.1180027 -0.26458,0.26458 v 1.05832 c 0,0.1465773 0.1180027,0.26458 0.26458,0.26458 0.1465774,0 0.26458,-0.1180027 0.26458,-0.26458 v -1.05832 c 0,-0.1465773 -0.1180026,-0.26458 -0.26458,-0.26458 z"
       id="path969" />
  </g>
  <g
     id="media-playback-stopped"
     transform="translate(0,7.1437299)">
    <rect
       x="13.496572"
       y="-5.8207598"
       width="5.8207598"
       height="5.8207598"
       fill-opacity="0"
       id="rect977"
       style="stroke-width:0.26458" />
    <circle
       style="fill:#e6e9ee;fill-opacity:1;stroke-width:0.24053;stroke-linecap:round;stroke-linejoin:round;paint-order:stroke fill markers"
       id="circle979"
       cx="16.404251"
       cy="-2.9103403"
       r="2.6458435" />
    <path
       id="path981"
       style="fill:#b3cbc7;fill-opacity:1;stroke-width:0.192424;stroke-linecap:round;stroke-linejoin:round;paint-order:stroke fill markers"
       d="m 16.404251,-0.659822 a 2.1166742,2.1166742 0 0 1 -2.116675,-2.116675 2.1166742,2.1166742 0 0 1 0.0041,-0.130742 2.1166742,2.1166742 0 0 0 2.112541,1.982832 2.1166742,2.1166742 0 0 0 2.112541,-1.985933 2.1166742,2.1166742 0 0 1 0.0041,0.133843 2.1166742,2.1166742 0 0 1 -2.116675,2.116675 z" />
    <circle
       style="fill:#eafff6;fill-opacity:1;stroke-width:0.192424;stroke-linecap:round;stroke-linejoin:round;paint-order:stroke fill markers"
       id="circle983"
       cx="16.404251"
       cy="-2.9103403"
       r="2.1166742" />
    <path
       id="path985"
       style="fill:#f8fefd;fill-opacity:1;stroke-width:0.192424;stroke-linecap:round;stroke-linejoin:round;paint-order:stroke fill markers"
       d="m 16.40425,-5.0270148 a 2.1166742,2.1166742 0 0 0 -2.116675,2.1166749 2.1166742,2.1166742 0 0 0 10e-4,0.063045 2.1166742,2.1166742 0 0 1 2.115644,-2.0474282 2.1166742,2.1166742 0 0 1 2.115641,2.0536296 2.1166742,2.1166742 0 0 0 10e-4,-0.069247 2.1166742,2.1166742 0 0 0 -2.116675,-2.1166749 z" />
    <path
       style="color:#363636;font-style:normal;font-variant:normal;font-weight:normal;font-stretch:normal;font-size:medium;line-height:normal;font-family:sans-serif;font-variant-ligatures:normal;font-variant-position:normal;font-variant-caps:normal;font-variant-numeric:normal;font-variant-alternates:normal;font-variant-east-asian:normal;font-feature-settings:normal;font-variation-settings:normal;text-indent:0;text-align:start;text-decoration:none;text-decoration-line:none;text-decoration-style:solid;text-decoration-color:#000000;letter-spacing:normal;word-spacing:normal;text-transform:none;writing-mode:lr-tb;direction:ltr;text-orientation:mixed;dominant-baseline:auto;baseline-shift:baseline;text-anchor:start;white-space:normal;shape-padding:0;shape-margin:0;inline-size:0;clip-rule:nonzero;display:inline;overflow:visible;visibility:visible;isolation:auto;mix-blend-mode:normal;color-interpolation:sRGB;color-interpolation-filters:linearRGB;solid-color:#000000;solid-opacity:1;vector-effect:none;fill:#00bd97;fill-opacity:1;fill-rule:nonzero;stroke:none;stroke-width:0.26458;stroke-linecap:butt;stroke-linejoin:miter;stroke-miterlimit:4;stroke-dasharray:none;stroke-dashoffset:0;stroke-opacity:1;color-rendering:auto;image-rendering:auto;shape-rendering:auto;text-rendering:auto;enable-background:accumulate;stop-color:#000000"
       d="m 15.87764,-3.7042075 c -0.146578,0 -0.26458,0.1180027 -0.26458,0.26458 v 1.05832 c 0,0.1465773 0.118002,0.26458 0.26458,0.26458 h 1.05832 c 0.146577,0 0.26458,-0.1180027 0.26458,-0.26458 v -1.05832 c 0,-0.1465773 -0.118003,-0.26458 -0.26458,-0.26458 z"
       id="path1007" />
  </g>
  <g
     id="media-playback-start"
     transform="translate(23.01884,-6.6146485)">
    <rect
       x="-15.872324"
       y="17.197992"
       width="5.8207598"
       height="5.8207598"
       fill-opacity="0"
       id="rect1033"
       style="stroke-width:0.26458" />
    <circle
       style="fill:#e6e9ee;fill-opacity:1;stroke-width:0.24053;stroke-linecap:round;stroke-linejoin:round;paint-order:stroke fill markers"
       id="circle1035"
       cx="-12.964646"
       cy="20.108412"
       r="2.6458435" />
    <path
       id="path1037"
       style="fill:#b3cbc7;fill-opacity:1;stroke-width:0.192424;stroke-linecap:round;stroke-linejoin:round;paint-order:stroke fill markers"
       d="m -12.964646,22.35893 a 2.1166742,2.1166742 0 0 1 -2.116675,-2.116675 2.1166742,2.1166742 0 0 1 0.0041,-0.130742 2.1166742,2.1166742 0 0 0 2.112541,1.982832 2.1166742,2.1166742 0 0 0 2.112541,-1.985933 2.1166742,2.1166742 0 0 1 0.0041,0.133843 2.1166742,2.1166742 0 0 1 -2.116675,2.116675 z" />
    <circle
       style="fill:#eafff6;fill-opacity:1;stroke-width:0.192424;stroke-linecap:round;stroke-linejoin:round;paint-order:stroke fill markers"
       id="circle1039"
       cx="-12.964646"
       cy="20.108412"
       r="2.1166742" />
    <path
       id="path1041"
       style="fill:#f8fefd;fill-opacity:1;stroke-width:0.727269;stroke-linecap:round;stroke-linejoin:round;paint-order:stroke fill markers"
       d="m -49,68 a 7.999997,7.999997 0 0 0 -8,8 7.999997,7.999997 0 0 0 0.0039,0.238281 A 7.999997,7.999997 0 0 1 -49,68.5 7.999997,7.999997 0 0 1 -41.003906,76.261719 7.999997,7.999997 0 0 0 -41,76 7.999997,7.999997 0 0 0 -49,68 Z"
       transform="matrix(0.26458437,0,0,0.26458437,-1.175e-5,0)" />
    <path
       style="color:#363636;font-style:normal;font-variant:normal;font-weight:normal;font-stretch:normal;font-size:medium;line-height:normal;font-family:sans-serif;font-variant-ligatures:normal;font-variant-position:normal;font-variant-caps:normal;font-variant-numeric:normal;font-variant-alternates:normal;font-variant-east-asian:normal;font-feature-settings:normal;font-variation-settings:normal;text-indent:0;text-align:start;text-decoration:none;text-decoration-line:none;text-decoration-style:solid;text-decoration-color:#000000;letter-spacing:normal;word-spacing:normal;text-transform:none;writing-mode:lr-tb;direction:ltr;text-orientation:mixed;dominant-baseline:auto;baseline-shift:baseline;text-anchor:start;white-space:normal;shape-padding:0;shape-margin:0;inline-size:0;clip-rule:nonzero;display:inline;overflow:visible;visibility:visible;isolation:auto;mix-blend-mode:normal;color-interpolation:sRGB;color-interpolation-filters:linearRGB;solid-color:#000000;solid-opacity:1;vector-effect:none;fill:#00bd97;fill-opacity:1;fill-rule:nonzero;stroke:none;stroke-width:0.26458;stroke-linecap:butt;stroke-linejoin:miter;stroke-miterlimit:4;stroke-dasharray:none;stroke-dashoffset:0;stroke-opacity:1;color-rendering:auto;image-rendering:auto;shape-rendering:auto;text-rendering:auto;enable-background:accumulate;stop-color:#000000"
       d="m -13.34396,19.262431 c -0.04259,0.0053 -0.07794,0.02378 -0.106451,0.05581 -0.02851,0.03203 -0.04289,0.06971 -0.04289,0.112653 v 1.35494 c 0,0.04294 0.01438,0.08062 0.04289,0.112653 0.02851,0.03203 0.06386,0.05053 0.106451,0.05581 0.04259,0.0053 0.08124,-0.0041 0.116788,-0.02842 l 0.982862,-0.677458 c 0.03133,-0.02147 0.05315,-0.05075 0.06511,-0.0863 0.01197,-0.0359 0.01197,-0.07142 0,-0.106969 -0.01197,-0.03555 -0.03362,-0.06448 -0.06459,-0.0863 l -0.983391,-0.677987 c -0.03543,-0.02464 -0.07432,-0.03382 -0.116788,-0.02842 z"
       id="path1043" />
  </g>
  <g
     id="media-playback-pause"
     transform="translate(0,16.404144)">
    <rect
       x="0.79378998"
       y="-5.8207598"
       width="5.8207598"
       height="5.8207598"
       fill-opacity="0"
       id="rect1047"
       style="stroke-width:0.26458" />
    <circle
       style="fill:#e6e9ee;fill-opacity:1;stroke-width:0.24053;stroke-linecap:round;stroke-linejoin:round;paint-order:stroke fill markers"
       id="circle1049"
       cx="3.7014678"
       cy="-2.9103403"
       r="2.6458435" />
    <path
       id="path1051"
       style="fill:#b3cbc7;fill-opacity:1;stroke-width:0.192424;stroke-linecap:round;stroke-linejoin:round;paint-order:stroke fill markers"
       d="m 3.701468,-0.659822 a 2.1166742,2.1166742 0 0 1 -2.116675,-2.116675 2.1166742,2.1166742 0 0 1 0.0041,-0.130742 2.1166742,2.1166742 0 0 0 2.112541,1.982832 2.1166742,2.1166742 0 0 0 2.112541,-1.985933 2.1166742,2.1166742 0 0 1 0.0041,0.133843 2.1166742,2.1166742 0 0 1 -2.116675,2.116675 z" />
    <circle
       style="fill:#eafff6;fill-opacity:1;stroke-width:0.192424;stroke-linecap:round;stroke-linejoin:round;paint-order:stroke fill markers"
       id="circle1053"
       cx="3.7014678"
       cy="-2.9103403"
       r="2.1166742" />
    <path
       id="path1055"
       style="fill:#f8fefd;fill-opacity:1;stroke-width:0.192424;stroke-linecap:round;stroke-linejoin:round;paint-order:stroke fill markers"
       d="m 3.7014679,-5.0270148 a 2.1166742,2.1166742 0 0 0 -2.116675,2.1166749 2.1166742,2.1166742 0 0 0 0.00103,0.063045 2.1166742,2.1166742 0 0 1 2.1156431,-2.0474282 2.1166742,2.1166742 0 0 1 2.1156415,2.0536296 2.1166742,2.1166742 0 0 0 0.00103,-0.069247 2.1166742,2.1166742 0 0 0 -2.1166749,-2.1166749 z" />
    <path
       style="color:#363636;font-style:normal;font-variant:normal;font-weight:normal;font-stretch:normal;font-size:medium;line-height:normal;font-family:sans-serif;font-variant-ligatures:normal;font-variant-position:normal;font-variant-caps:normal;font-variant-numeric:normal;font-variant-alternates:normal;font-variant-east-asian:normal;font-feature-settings:normal;font-variation-settings:normal;text-indent:0;text-align:start;text-decoration:none;text-decoration-line:none;text-decoration-style:solid;text-decoration-color:#000000;letter-spacing:normal;word-spacing:normal;text-transform:none;writing-mode:lr-tb;direction:ltr;text-orientation:mixed;dominant-baseline:auto;baseline-shift:baseline;text-anchor:start;white-space:normal;shape-padding:0;shape-margin:0;inline-size:0;clip-rule:nonzero;display:inline;overflow:visible;visibility:visible;isolation:auto;mix-blend-mode:normal;color-interpolation:sRGB;color-interpolation-filters:linearRGB;solid-color:#000000;solid-opacity:1;vector-effect:none;fill:#00bd97;fill-opacity:1;fill-rule:nonzero;stroke:none;stroke-width:0.26458;stroke-linecap:butt;stroke-linejoin:miter;stroke-miterlimit:4;stroke-dasharray:none;stroke-dashoffset:0;stroke-opacity:1;color-rendering:auto;image-rendering:auto;shape-rendering:auto;text-rendering:auto;enable-background:accumulate;stop-color:#000000"
       d="m 3.1750177,-3.7041812 c -0.1465773,0 -0.26458,0.1180027 -0.26458,0.26458 v 1.05832 c 0,0.1465773 0.1180027,0.26458 0.26458,0.26458 0.1465774,0 0.26458,-0.1180027 0.26458,-0.26458 v -1.05832 c 0,-0.1465773 -0.1180026,-0.26458 -0.26458,-0.26458 z m 1.05832,0 c -0.1465773,0 -0.26458,0.1180027 -0.26458,0.26458 v 1.05832 c 0,0.1465773 0.1180027,0.26458 0.26458,0.26458 0.1465774,0 0.26458,-0.1180027 0.26458,-0.26458 v -1.05832 c 0,-0.1465773 -0.1180026,-0.26458 -0.26458,-0.26458 z"
       id="path1057" />
  </g>
  <g
     id="media-playback-stop"
     transform="translate(0,16.404144)">
    <rect
       x="13.496572"
       y="-5.8207598"
       width="5.8207598"
       height="5.8207598"
       fill-opacity="0"
       id="rect1061"
       style="stroke-width:0.26458" />
    <circle
       style="fill:#e6e9ee;fill-opacity:1;stroke-width:0.24053;stroke-linecap:round;stroke-linejoin:round;paint-order:stroke fill markers"
       id="circle1063"
       cx="16.404251"
       cy="-2.9103403"
       r="2.6458435" />
    <path
       id="path1065"
       style="fill:#b3cbc7;fill-opacity:1;stroke-width:0.192424;stroke-linecap:round;stroke-linejoin:round;paint-order:stroke fill markers"
       d="m 16.404251,-0.659822 a 2.1166742,2.1166742 0 0 1 -2.116675,-2.116675 2.1166742,2.1166742 0 0 1 0.0041,-0.130742 2.1166742,2.1166742 0 0 0 2.112541,1.982832 2.1166742,2.1166742 0 0 0 2.112541,-1.985933 2.1166742,2.1166742 0 0 1 0.0041,0.133843 2.1166742,2.1166742 0 0 1 -2.116675,2.116675 z" />
    <circle
       style="fill:#eafff6;fill-opacity:1;stroke-width:0.192424;stroke-linecap:round;stroke-linejoin:round;paint-order:stroke fill markers"
       id="circle1067"
       cx="16.404251"
       cy="-2.9103403"
       r="2.1166742" />
    <path
       id="path1069"
       style="fill:#f8fefd;fill-opacity:1;stroke-width:0.192424;stroke-linecap:round;stroke-linejoin:round;paint-order:stroke fill markers"
       d="m 16.40425,-5.0270148 a 2.1166742,2.1166742 0 0 0 -2.116675,2.1166749 2.1166742,2.1166742 0 0 0 10e-4,0.063045 2.1166742,2.1166742 0 0 1 2.115644,-2.0474282 2.1166742,2.1166742 0 0 1 2.115641,2.0536296 2.1166742,2.1166742 0 0 0 10e-4,-0.069247 2.1166742,2.1166742 0 0 0 -2.116675,-2.1166749 z" />
    <path
       style="color:#363636;font-style:normal;font-variant:normal;font-weight:normal;font-stretch:normal;font-size:medium;line-height:normal;font-family:sans-serif;font-variant-ligatures:normal;font-variant-position:normal;font-variant-caps:normal;font-variant-numeric:normal;font-variant-alternates:normal;font-variant-east-asian:normal;font-feature-settings:normal;font-variation-settings:normal;text-indent:0;text-align:start;text-decoration:none;text-decoration-line:none;text-decoration-style:solid;text-decoration-color:#000000;letter-spacing:normal;word-spacing:normal;text-transform:none;writing-mode:lr-tb;direction:ltr;text-orientation:mixed;dominant-baseline:auto;baseline-shift:baseline;text-anchor:start;white-space:normal;shape-padding:0;shape-margin:0;inline-size:0;clip-rule:nonzero;display:inline;overflow:visible;visibility:visible;isolation:auto;mix-blend-mode:normal;color-interpolation:sRGB;color-interpolation-filters:linearRGB;solid-color:#000000;solid-opacity:1;vector-effect:none;fill:#00bd97;fill-opacity:1;fill-rule:nonzero;stroke:none;stroke-width:0.26458;stroke-linecap:butt;stroke-linejoin:miter;stroke-miterlimit:4;stroke-dasharray:none;stroke-dashoffset:0;stroke-opacity:1;color-rendering:auto;image-rendering:auto;shape-rendering:auto;text-rendering:auto;enable-background:accumulate;stop-color:#000000"
       d="m 15.87764,-3.7042075 c -0.146578,0 -0.26458,0.1180027 -0.26458,0.26458 v 1.05832 c 0,0.1465773 0.118002,0.26458 0.26458,0.26458 h 1.05832 c 0.146577,0 0.26458,-0.1180027 0.26458,-0.26458 v -1.05832 c 0,-0.1465773 -0.118003,-0.26458 -0.26458,-0.26458 z"
       id="path1071" />
  </g>
  <g
     id="media-skip-backward"
     transform="translate(0,7.1437032)">
    <rect
       x="39.952282"
       y="-5.8207331"
       width="5.8207598"
       height="5.8207598"
       fill-opacity="0"
       id="rect1075"
       style="stroke-width:0.26458" />
    <circle
       style="fill:#e6e9ee;fill-opacity:1;stroke-width:0.24053;stroke-linecap:round;stroke-linejoin:round;paint-order:stroke fill markers"
       id="circle1077"
       cx="42.859959"
       cy="-2.9103136"
       r="2.6458435" />
    <path
       id="path1079"
       style="fill:#bec1c9;fill-opacity:1;stroke-width:0.192424;stroke-linecap:round;stroke-linejoin:round;paint-order:stroke fill markers"
       d="m 42.85996,-0.65979605 a 2.1166742,2.1166742 0 0 1 -2.116675,-2.11667495 2.1166742,2.1166742 0 0 1 0.0041,-0.130742 2.1166742,2.1166742 0 0 0 2.112541,1.98283195 2.1166742,2.1166742 0 0 0 2.112541,-1.98593295 2.1166742,2.1166742 0 0 1 0.0041,0.133843 2.1166742,2.1166742 0 0 1 -2.116675,2.11667495 z" />
    <circle
       style="fill:#fafbff;fill-opacity:1;stroke-width:0.192424;stroke-linecap:round;stroke-linejoin:round;paint-order:stroke fill markers"
       id="circle1081"
       cx="42.859959"
       cy="-2.9103136"
       r="2.1166742" />
    <path
       id="path1083"
       style="fill:#f8fefd;fill-opacity:1;stroke-width:0.192424;stroke-linecap:round;stroke-linejoin:round;paint-order:stroke fill markers"
       d="m 42.85996,-5.026989 a 2.1166742,2.1166742 0 0 0 -2.116675,2.116675 2.1166742,2.1166742 0 0 0 10e-4,0.06304 2.1166742,2.1166742 0 0 1 2.115643,-2.047428 2.1166742,2.1166742 0 0 1 2.115642,2.053629 2.1166742,2.1166742 0 0 0 0.001,-0.06925 2.1166742,2.1166742 0 0 0 -2.116675,-2.116674 z" />
    <path
       style="color:#363636;font-style:normal;font-variant:normal;font-weight:normal;font-stretch:normal;font-size:medium;line-height:normal;font-family:sans-serif;font-variant-ligatures:normal;font-variant-position:normal;font-variant-caps:normal;font-variant-numeric:normal;font-variant-alternates:normal;font-variant-east-asian:normal;font-feature-settings:normal;font-variation-settings:normal;text-indent:0;text-align:start;text-decoration:none;text-decoration-line:none;text-decoration-style:solid;text-decoration-color:#000000;letter-spacing:normal;word-spacing:normal;text-transform:none;writing-mode:lr-tb;direction:ltr;text-orientation:mixed;dominant-baseline:auto;baseline-shift:baseline;text-anchor:start;white-space:normal;shape-padding:0;shape-margin:0;inline-size:0;clip-rule:nonzero;display:inline;overflow:visible;visibility:visible;isolation:auto;mix-blend-mode:normal;color-interpolation:sRGB;color-interpolation-filters:linearRGB;solid-color:#000000;solid-opacity:1;vector-effect:none;fill:#9caba4;fill-opacity:1;fill-rule:nonzero;stroke:none;stroke-width:0.26458;stroke-linecap:butt;stroke-linejoin:miter;stroke-miterlimit:4;stroke-dasharray:none;stroke-dashoffset:0;stroke-opacity:1;color-rendering:auto;image-rendering:auto;shape-rendering:auto;text-rendering:auto;enable-background:accumulate;stop-color:#000000"
       d="m 43.772156,-3.756303 c -0.04247,-0.0054 -0.08135,0.00378 -0.116786,0.028421 l -0.983391,0.6779863 c -0.03098,0.02182 -0.05264,0.050749 -0.06459,0.086298 -0.01196,0.035554 -0.01196,0.071066 0,0.1069697 0.01196,0.035549 0.03378,0.064827 0.06511,0.086298 l 0.982862,0.6774571 c 0.03555,0.024288 0.0742,0.033702 0.116786,0.028421 0.04259,-0.00528 0.07794,-0.02378 0.106453,-0.05581 0.02852,-0.03203 0.04289,-0.069712 0.04289,-0.1126529 v -1.3549406 c 0,-0.042941 -0.01437,-0.080623 -0.04289,-0.1126529 -0.02851,-0.032027 -0.06386,-0.050532 -0.106453,-0.055811 z m -1.702705,0.052194 c -0.146577,0 -0.26458,0.1180026 -0.26458,0.26458 v 1.05832 c 0,0.1465773 0.118003,0.26458 0.26458,0.26458 0.146577,0 0.26458,-0.1180027 0.26458,-0.26458 v -1.05832 c 0,-0.1465774 -0.118003,-0.26458 -0.26458,-0.26458 z"
       id="path1111" />
  </g>
  <g
     id="media-skip-forward"
     transform="matrix(-1,0,0,1,92.072642,7.1437032)">
    <rect
       x="39.952282"
       y="-5.8207331"
       width="5.8207598"
       height="5.8207598"
       fill-opacity="0"
       id="rect1145"
       style="stroke-width:0.26458" />
    <circle
       style="fill:#e6e9ee;fill-opacity:1;stroke-width:0.24053;stroke-linecap:round;stroke-linejoin:round;paint-order:stroke fill markers"
       id="circle1147"
       cx="42.859959"
       cy="-2.9103136"
       r="2.6458435" />
    <path
       id="path1149"
       style="fill:#bec1c9;fill-opacity:1;stroke-width:0.192424;stroke-linecap:round;stroke-linejoin:round;paint-order:stroke fill markers"
       d="m 42.85996,-0.65979605 a 2.1166742,2.1166742 0 0 1 -2.116675,-2.11667495 2.1166742,2.1166742 0 0 1 0.0041,-0.130742 2.1166742,2.1166742 0 0 0 2.112541,1.98283195 2.1166742,2.1166742 0 0 0 2.112541,-1.98593295 2.1166742,2.1166742 0 0 1 0.0041,0.133843 2.1166742,2.1166742 0 0 1 -2.116675,2.11667495 z" />
    <circle
       style="fill:#fafbff;fill-opacity:1;stroke-width:0.192424;stroke-linecap:round;stroke-linejoin:round;paint-order:stroke fill markers"
       id="circle1151"
       cx="42.859959"
       cy="-2.9103136"
       r="2.1166742" />
    <path
       id="path1153"
       style="fill:#f8fefd;fill-opacity:1;stroke-width:0.192424;stroke-linecap:round;stroke-linejoin:round;paint-order:stroke fill markers"
       d="m 42.85996,-5.026989 a 2.1166742,2.1166742 0 0 0 -2.116675,2.116675 2.1166742,2.1166742 0 0 0 10e-4,0.06304 2.1166742,2.1166742 0 0 1 2.115643,-2.047428 2.1166742,2.1166742 0 0 1 2.115642,2.053629 2.1166742,2.1166742 0 0 0 0.001,-0.06925 2.1166742,2.1166742 0 0 0 -2.116675,-2.116674 z" />
    <path
       style="color:#363636;font-style:normal;font-variant:normal;font-weight:normal;font-stretch:normal;font-size:medium;line-height:normal;font-family:sans-serif;font-variant-ligatures:normal;font-variant-position:normal;font-variant-caps:normal;font-variant-numeric:normal;font-variant-alternates:normal;font-variant-east-asian:normal;font-feature-settings:normal;font-variation-settings:normal;text-indent:0;text-align:start;text-decoration:none;text-decoration-line:none;text-decoration-style:solid;text-decoration-color:#000000;letter-spacing:normal;word-spacing:normal;text-transform:none;writing-mode:lr-tb;direction:ltr;text-orientation:mixed;dominant-baseline:auto;baseline-shift:baseline;text-anchor:start;white-space:normal;shape-padding:0;shape-margin:0;inline-size:0;clip-rule:nonzero;display:inline;overflow:visible;visibility:visible;isolation:auto;mix-blend-mode:normal;color-interpolation:sRGB;color-interpolation-filters:linearRGB;solid-color:#000000;solid-opacity:1;vector-effect:none;fill:#9caba4;fill-opacity:1;fill-rule:nonzero;stroke:none;stroke-width:0.26458;stroke-linecap:butt;stroke-linejoin:miter;stroke-miterlimit:4;stroke-dasharray:none;stroke-dashoffset:0;stroke-opacity:1;color-rendering:auto;image-rendering:auto;shape-rendering:auto;text-rendering:auto;enable-background:accumulate;stop-color:#000000"
       d="m 43.772156,-3.756303 c -0.04247,-0.0054 -0.08135,0.00378 -0.116786,0.028421 l -0.983391,0.6779863 c -0.03098,0.02182 -0.05264,0.050749 -0.06459,0.086298 -0.01196,0.035554 -0.01196,0.071066 0,0.1069697 0.01196,0.035549 0.03378,0.064827 0.06511,0.086298 l 0.982862,0.6774571 c 0.03555,0.024288 0.0742,0.033702 0.116786,0.028421 0.04259,-0.00528 0.07794,-0.02378 0.106453,-0.05581 0.02852,-0.03203 0.04289,-0.069712 0.04289,-0.1126529 v -1.3549406 c 0,-0.042941 -0.01437,-0.080623 -0.04289,-0.1126529 -0.02851,-0.032027 -0.06386,-0.050532 -0.106453,-0.055811 z m -1.702705,0.052194 c -0.146577,0 -0.26458,0.1180026 -0.26458,0.26458 v 1.05832 c 0,0.1465773 0.118003,0.26458 0.26458,0.26458 0.146577,0 0.26458,-0.1180027 0.26458,-0.26458 v -1.05832 c 0,-0.1465774 -0.118003,-0.26458 -0.26458,-0.26458 z"
       id="path1155" />
  </g>
  <g
     id="media-seek-backward"
     transform="translate(0,6.0854795)">
    <rect
       x="26.722542"
       y="-4.7625093"
       width="5.8207598"
       height="5.8207598"
       fill-opacity="0"
       id="rect1159"
       style="stroke-width:0.26458" />
    <circle
       style="fill:#e6e9ee;fill-opacity:1;stroke-width:0.24053;stroke-linecap:round;stroke-linejoin:round;paint-order:stroke fill markers"
       id="circle1161"
       cx="29.630219"
       cy="-1.8520898"
       r="2.6458435" />
    <path
       id="path1163"
       style="fill:#bec1c9;fill-opacity:1;stroke-width:0.192424;stroke-linecap:round;stroke-linejoin:round;paint-order:stroke fill markers"
       d="m 29.630218,0.39842772 a 2.1166742,2.1166742 0 0 1 -2.116675,-2.11667492 2.1166742,2.1166742 0 0 1 0.0041,-0.130742 2.1166742,2.1166742 0 0 0 2.112541,1.98283192 2.1166742,2.1166742 0 0 0 2.112541,-1.98593292 2.1166742,2.1166742 0 0 1 0.0041,0.133843 2.1166742,2.1166742 0 0 1 -2.116675,2.11667492 z" />
    <circle
       style="fill:#fafbff;fill-opacity:1;stroke-width:0.192424;stroke-linecap:round;stroke-linejoin:round;paint-order:stroke fill markers"
       id="circle1165"
       cx="29.630219"
       cy="-1.8520898"
       r="2.1166742" />
    <path
       id="path1167"
       style="fill:#f8fefd;fill-opacity:1;stroke-width:0.192424;stroke-linecap:round;stroke-linejoin:round;paint-order:stroke fill markers"
       d="m 29.630218,-3.9687652 a 2.1166742,2.1166742 0 0 0 -2.116675,2.116675 2.1166742,2.1166742 0 0 0 0.001,0.06304 2.1166742,2.1166742 0 0 1 2.115643,-2.047428 2.1166742,2.1166742 0 0 1 2.115642,2.053629 2.1166742,2.1166742 0 0 0 0.001,-0.06925 2.1166742,2.1166742 0 0 0 -2.116675,-2.116674 z" />
    <path
       style="color:#363636;font-style:normal;font-variant:normal;font-weight:normal;font-stretch:normal;font-size:medium;line-height:normal;font-family:sans-serif;font-variant-ligatures:normal;font-variant-position:normal;font-variant-caps:normal;font-variant-numeric:normal;font-variant-alternates:normal;font-variant-east-asian:normal;font-feature-settings:normal;font-variation-settings:normal;text-indent:0;text-align:start;text-decoration:none;text-decoration-line:none;text-decoration-style:solid;text-decoration-color:#000000;letter-spacing:normal;word-spacing:normal;text-transform:none;writing-mode:lr-tb;direction:ltr;text-orientation:mixed;dominant-baseline:auto;baseline-shift:baseline;text-anchor:start;white-space:normal;shape-padding:0;shape-margin:0;inline-size:0;clip-rule:nonzero;display:inline;overflow:visible;visibility:visible;isolation:auto;mix-blend-mode:normal;color-interpolation:sRGB;color-interpolation-filters:linearRGB;solid-color:#000000;solid-opacity:1;vector-effect:none;fill:#9caba4;fill-opacity:1;fill-rule:nonzero;stroke:none;stroke-width:0.26458;stroke-linecap:butt;stroke-linejoin:miter;stroke-miterlimit:4;stroke-dasharray:none;stroke-dashoffset:0;stroke-opacity:1;color-rendering:auto;image-rendering:auto;shape-rendering:auto;text-rendering:auto;enable-background:accumulate;stop-color:#000000"
       d="m 29.484668,-2.6980629 c -0.04247,-0.0054 -0.08135,0.00378 -0.116786,0.028421 l -0.983391,0.6779863 c -0.03098,0.02182 -0.05262,0.050749 -0.06459,0.086298 -0.01196,0.035554 -0.01196,0.071066 0,0.1069697 0.01196,0.035549 0.03378,0.064827 0.06511,0.086298 l 0.982862,0.6774571 c 0.03555,0.024288 0.0742,0.033702 0.116786,0.028421 0.04259,-0.00528 0.07794,-0.02378 0.106453,-0.05581 0.02851,-0.03203 0.04289,-0.069712 0.04289,-0.1126529 V -1.580858 l 0.792179,0.5462254 c 0.03555,0.024288 0.0742,0.033702 0.116786,0.028421 0.04259,-0.00528 0.07794,-0.02378 0.106454,-0.05581 0.02851,-0.03203 0.04289,-0.069712 0.04289,-0.1126529 v -1.3549406 c 0,-0.042941 -0.01439,-0.080623 -0.04289,-0.1126529 -0.02851,-0.032027 -0.06386,-0.050532 -0.106454,-0.055811 -0.04247,-0.0054 -0.08135,0.00378 -0.116786,0.028421 l -0.792179,0.5462254 v -0.4061832 c 0,-0.042941 -0.01439,-0.080623 -0.04289,-0.1126529 -0.02851,-0.032027 -0.06386,-0.050532 -0.106453,-0.055811 z"
       id="path1203" />
  </g>
  <g
     id="media-seek-forward"
     transform="matrix(-1,0,0,1,65.88205,6.0854795)">
    <rect
       x="26.722542"
       y="-4.7625093"
       width="5.8207598"
       height="5.8207598"
       fill-opacity="0"
       id="rect1217"
       style="stroke-width:0.26458" />
    <circle
       style="fill:#e6e9ee;fill-opacity:1;stroke-width:0.24053;stroke-linecap:round;stroke-linejoin:round;paint-order:stroke fill markers"
       id="circle1219"
       cx="29.630219"
       cy="-1.8520898"
       r="2.6458435" />
    <path
       id="path1221"
       style="fill:#bec1c9;fill-opacity:1;stroke-width:0.192424;stroke-linecap:round;stroke-linejoin:round;paint-order:stroke fill markers"
       d="m 29.630218,0.39842772 a 2.1166742,2.1166742 0 0 1 -2.116675,-2.11667492 2.1166742,2.1166742 0 0 1 0.0041,-0.130742 2.1166742,2.1166742 0 0 0 2.112541,1.98283192 2.1166742,2.1166742 0 0 0 2.112541,-1.98593292 2.1166742,2.1166742 0 0 1 0.0041,0.133843 2.1166742,2.1166742 0 0 1 -2.116675,2.11667492 z" />
    <circle
       style="fill:#fafbff;fill-opacity:1;stroke-width:0.192424;stroke-linecap:round;stroke-linejoin:round;paint-order:stroke fill markers"
       id="circle1223"
       cx="29.630219"
       cy="-1.8520898"
       r="2.1166742" />
    <path
       id="path1225"
       style="fill:#f8fefd;fill-opacity:1;stroke-width:0.192424;stroke-linecap:round;stroke-linejoin:round;paint-order:stroke fill markers"
       d="m 29.630218,-3.9687652 a 2.1166742,2.1166742 0 0 0 -2.116675,2.116675 2.1166742,2.1166742 0 0 0 0.001,0.06304 2.1166742,2.1166742 0 0 1 2.115643,-2.047428 2.1166742,2.1166742 0 0 1 2.115642,2.053629 2.1166742,2.1166742 0 0 0 0.001,-0.06925 2.1166742,2.1166742 0 0 0 -2.116675,-2.116674 z" />
    <path
       style="color:#363636;font-style:normal;font-variant:normal;font-weight:normal;font-stretch:normal;font-size:medium;line-height:normal;font-family:sans-serif;font-variant-ligatures:normal;font-variant-position:normal;font-variant-caps:normal;font-variant-numeric:normal;font-variant-alternates:normal;font-variant-east-asian:normal;font-feature-settings:normal;font-variation-settings:normal;text-indent:0;text-align:start;text-decoration:none;text-decoration-line:none;text-decoration-style:solid;text-decoration-color:#000000;letter-spacing:normal;word-spacing:normal;text-transform:none;writing-mode:lr-tb;direction:ltr;text-orientation:mixed;dominant-baseline:auto;baseline-shift:baseline;text-anchor:start;white-space:normal;shape-padding:0;shape-margin:0;inline-size:0;clip-rule:nonzero;display:inline;overflow:visible;visibility:visible;isolation:auto;mix-blend-mode:normal;color-interpolation:sRGB;color-interpolation-filters:linearRGB;solid-color:#000000;solid-opacity:1;vector-effect:none;fill:#9caba4;fill-opacity:1;fill-rule:nonzero;stroke:none;stroke-width:0.26458;stroke-linecap:butt;stroke-linejoin:miter;stroke-miterlimit:4;stroke-dasharray:none;stroke-dashoffset:0;stroke-opacity:1;color-rendering:auto;image-rendering:auto;shape-rendering:auto;text-rendering:auto;enable-background:accumulate;stop-color:#000000"
       d="m 29.484668,-2.6980629 c -0.04247,-0.0054 -0.08135,0.00378 -0.116786,0.028421 l -0.983391,0.6779863 c -0.03098,0.02182 -0.05262,0.050749 -0.06459,0.086298 -0.01196,0.035554 -0.01196,0.071066 0,0.1069697 0.01196,0.035549 0.03378,0.064827 0.06511,0.086298 l 0.982862,0.6774571 c 0.03555,0.024288 0.0742,0.033702 0.116786,0.028421 0.04259,-0.00528 0.07794,-0.02378 0.106453,-0.05581 0.02851,-0.03203 0.04289,-0.069712 0.04289,-0.1126529 V -1.580858 l 0.792179,0.5462254 c 0.03555,0.024288 0.0742,0.033702 0.116786,0.028421 0.04259,-0.00528 0.07794,-0.02378 0.106454,-0.05581 0.02851,-0.03203 0.04289,-0.069712 0.04289,-0.1126529 v -1.3549406 c 0,-0.042941 -0.01439,-0.080623 -0.04289,-0.1126529 -0.02851,-0.032027 -0.06386,-0.050532 -0.106454,-0.055811 -0.04247,-0.0054 -0.08135,0.00378 -0.116786,0.028421 l -0.792179,0.5462254 v -0.4061832 c 0,-0.042941 -0.01439,-0.080623 -0.04289,-0.1126529 -0.02851,-0.032027 -0.06386,-0.050532 -0.106453,-0.055811 z"
       id="path1227" />
  </g>
  <g
     id="media-eject"
     transform="translate(0,6.0854795)">
    <rect
       x="52.916393"
       y="-4.7625093"
       width="5.8207598"
       height="5.8207598"
       fill-opacity="0"
       id="rect1171"
       style="stroke-width:0.26458" />
    <circle
       style="fill:#e6e9ee;fill-opacity:1;stroke-width:0.24053;stroke-linecap:round;stroke-linejoin:round;paint-order:stroke fill markers"
       id="circle1173"
       cx="55.82407"
       cy="-1.8520898"
       r="2.6458435" />
    <path
       id="path1175"
       style="fill:#bec1c9;fill-opacity:1;stroke-width:0.192424;stroke-linecap:round;stroke-linejoin:round;paint-order:stroke fill markers"
       d="m 55.824071,0.39842772 a 2.1166742,2.1166742 0 0 1 -2.116675,-2.11667492 2.1166742,2.1166742 0 0 1 0.0041,-0.130742 2.1166742,2.1166742 0 0 0 2.112541,1.98283192 2.1166742,2.1166742 0 0 0 2.112541,-1.98593292 2.1166742,2.1166742 0 0 1 0.0041,0.133843 2.1166742,2.1166742 0 0 1 -2.116675,2.11667492 z" />
    <circle
       style="fill:#fafbff;fill-opacity:1;stroke-width:0.192424;stroke-linecap:round;stroke-linejoin:round;paint-order:stroke fill markers"
       id="circle1177"
       cx="55.82407"
       cy="-1.8520898"
       r="2.1166742" />
    <path
       id="path1179"
       style="fill:#f8fefd;fill-opacity:1;stroke-width:0.192424;stroke-linecap:round;stroke-linejoin:round;paint-order:stroke fill markers"
       d="m 55.824071,-3.9687652 a 2.1166742,2.1166742 0 0 0 -2.116675,2.116675 2.1166742,2.1166742 0 0 0 10e-4,0.06304 2.1166742,2.1166742 0 0 1 2.115643,-2.047428 2.1166742,2.1166742 0 0 1 2.115642,2.053629 2.1166742,2.1166742 0 0 0 10e-4,-0.06925 2.1166742,2.1166742 0 0 0 -2.116675,-2.116674 z" />
    <path
       class="ColorScheme-Text"
       d="m 55.827521,-3.2396141 c -0.02236,0 -0.04446,0.00391 -0.06666,0.011369 -0.04439,0.014922 -0.08024,0.041933 -0.107485,0.080615 l -0.846445,1.22781 c -0.03077,0.044243 -0.0424,0.092696 -0.03566,0.1457254 0.0066,0.053181 0.02977,0.097201 0.06976,0.1328059 0.03999,0.035602 0.08694,0.053741 0.140558,0.053741 h 1.691857 c 0.05362,0 0.100561,-0.018113 0.140558,-0.053741 0.03999,-0.035597 0.06368,-0.079625 0.07028,-0.1328059 0.0066,-0.053178 -0.0058,-0.1013368 -0.03617,-0.1457254 L 56.00217,-3.1471278 c -0.02681,-0.039116 -0.0631,-0.066193 -0.107485,-0.081131 -0.02241,-0.00746 -0.04482,-0.011369 -0.06718,-0.011369 z m -0.79374,1.916644 c -0.146572,0 -0.26458,0.1180027 -0.26458,0.26458 0,0.14657732 0.118008,0.26458 0.26458,0.26458 h 1.58748 c 0.146572,0 0.26458,-0.11800268 0.26458,-0.26458 0,-0.1465773 -0.118008,-0.26458 -0.26458,-0.26458 z"
       fill="currentColor"
       id="path1233"
       style="fill:#9caba4;fill-opacity:1;stroke-width:0.26458"
       sodipodi:nodetypes="cscccssscscccccsssssss" />
  </g>
</svg>
