<?xml version="1.0" encoding="UTF-8" standalone="no"?>
<svg
   xmlns:dc="http://purl.org/dc/elements/1.1/"
   xmlns:cc="http://creativecommons.org/ns#"
   xmlns:rdf="http://www.w3.org/1999/02/22-rdf-syntax-ns#"
   xmlns:svg="http://www.w3.org/2000/svg"
   xmlns="http://www.w3.org/2000/svg"
   xmlns:sodipodi="http://sodipodi.sourceforge.net/DTD/sodipodi-0.dtd"
   xmlns:inkscape="http://www.inkscape.org/namespaces/inkscape"
   version="1.1"
   viewBox="0 0 22 22"
   id="svg49"
   sodipodi:docname="notification.svg"
   inkscape:version="1.0.2 (e86c870879, 2021-01-15)">
  <metadata
     id="metadata53">
    <rdf:RDF>
      <cc:Work
         rdf:about="">
        <dc:format>image/svg+xml</dc:format>
        <dc:type
           rdf:resource="http://purl.org/dc/dcmitype/StillImage" />
      </cc:Work>
    </rdf:RDF>
  </metadata>
  <sodipodi:namedview
     pagecolor="#ffffff"
     bordercolor="#666666"
     borderopacity="1"
     objecttolerance="10"
     gridtolerance="10"
     guidetolerance="10"
     inkscape:pageopacity="0"
     inkscape:pageshadow="2"
     inkscape:window-width="1920"
     inkscape:window-height="940"
     id="namedview51"
     showgrid="true"
     inkscape:snap-bbox="true"
     inkscape:bbox-nodes="true"
     inkscape:snap-bbox-edge-midpoints="true"
     inkscape:zoom="8.6931819"
     inkscape:cx="39.904702"
     inkscape:cy="25.379054"
     inkscape:window-x="0"
     inkscape:window-y="38"
     inkscape:window-maximized="1"
     inkscape:current-layer="svg49"
     inkscape:document-rotation="0"
     inkscape:snap-others="false"
     inkscape:snap-smooth-nodes="true">
    <inkscape:grid
       type="xygrid"
       id="grid878" />
  </sodipodi:namedview>
  <defs
     id="defs3">
    <style
       id="current-color-scheme"
       type="text/css">.ColorScheme-Text { color:#363636; }</style>
  </defs>
  <path
     id="expander-bottom"
     d="m-18 23 2-2 2 2z"
     class="ColorScheme-Text"
     fill="currentColor"
     style="fill:#323232;fill-opacity:1" />
  <path
     id="expander-top"
     d="m-18 17 2 2 2-2z"
     class="ColorScheme-Text"
     fill="currentColor"
     style="fill:#323232;fill-opacity:1" />
  <path
     id="expander-right"
     d="m-13 18-2 2 2 2z"
     class="ColorScheme-Text"
     fill="currentColor"
     style="fill:#323232;fill-opacity:1" />
  <path
     id="expander-left"
     d="m-19 18 2 2-2 2z"
     class="ColorScheme-Text"
     fill="currentColor"
     style="fill:#323232;fill-opacity:1" />
  <g
     id="notification-progress-active"
     class="ColorScheme-Text"
     transform="translate(55.997 -.004652)"
     fill="currentColor">
    <rect
       x="40"
       y="-1"
       width="22"
       height="22"
       fill-opacity="0"
       id="rect14" />
    <path
       d="m51 1a9 9 0 0 0-9 9 9 9 0 0 0 9 9 9 9 0 0 0 9-9 9 9 0 0 0-9-9zm0 2a7 7 0 0 1 7 7 7 7 0 0 1-7 7 7 7 0 0 1-7-7 7 7 0 0 1 7-7z"
       id="path16"
       style="fill:#ffcc00;fill-opacity:1" />
    <circle
       cx="51"
       cy="10"
       r="6"
       id="circle18"
       style="fill:#ffcc00;fill-opacity:1" />
  </g>
  <g
     id="notification-progress-inactive"
     class="ColorScheme-Text"
     transform="translate(56.998,39)"
     fill="currentColor">
    <rect
       x="40"
       y="-1"
       width="22"
       height="22"
       fill-opacity="0"
       id="rect21" />
    <path
       class="ColorScheme-Text"
       d="m51 1a9 9 0 0 0-9 9 9 9 0 0 0 9 9 9 9 0 0 0 9-9 9 9 0 0 0-9-9zm0 2a7 7 0 0 1 7 7 7 7 0 0 1-7 7 7 7 0 0 1-7-7 7 7 0 0 1 7-7z"
       fill="currentColor"
       id="path23"
       style="fill:#ffcc00;fill-opacity:1" />
    <circle
       class="ColorScheme-Text"
       cx="51"
       cy="10"
       r="6"
       fill="currentColor"
       opacity=".15"
       id="circle25"
       style="fill:#ffcc00;fill-opacity:1;opacity:0.2" />
  </g>
  <g
     id="notification-empty"
     transform="translate(-51)">
    <rect
       x="51"
       y="-3.2153321e-07"
       width="22"
       height="22"
       ry="0"
       opacity="0"
       id="rect968"
       style="color:#363636;fill:#363636" />
    <g
       id="g981"
       transform="translate(51)">
      <g
         id="g974"
         transform="translate(-3,-1)">
        <path
           id="path970"
           style="fill:#ffcc00;fill-opacity:1;stroke:none;stroke-width:1.06667;stroke-linecap:round;stroke-linejoin:round;paint-order:stroke fill markers"
           d="M 7,5 C 5.892,5 5,5.892 5,7 v 12 c 0,1.108 0.892,2 2,2 h 12 c 1.108,0 2,-0.892 2,-2 V 11.783203 C 20.521831,11.920941 20.019571,12 19.5,12 16.486123,12 14,9.5138769 14,6.5 14,5.9804289 14.079059,5.4781686 14.216797,5 Z M 19.242188,5.025391 C 18.521637,5.1422768 18,5.7369001 18,6.5 18,7.3521164 18.647884,8 19.5,8 20.263099,8 20.857723,7.4783637 20.974609,6.7578125 20.864223,5.8465372 20.153463,5.135777 19.242188,5.025391 Z" />
        <path
           style="color:#000000;font-style:normal;font-variant:normal;font-weight:normal;font-stretch:normal;font-size:medium;line-height:normal;font-family:sans-serif;font-variant-ligatures:normal;font-variant-position:normal;font-variant-caps:normal;font-variant-numeric:normal;font-variant-alternates:normal;font-variant-east-asian:normal;font-feature-settings:normal;font-variation-settings:normal;text-indent:0;text-align:start;text-decoration:none;text-decoration-line:none;text-decoration-style:solid;text-decoration-color:#000000;letter-spacing:normal;word-spacing:normal;text-transform:none;writing-mode:lr-tb;direction:ltr;text-orientation:mixed;dominant-baseline:auto;baseline-shift:baseline;text-anchor:start;white-space:normal;shape-padding:0;shape-margin:0;inline-size:0;clip-rule:nonzero;display:inline;overflow:visible;visibility:visible;isolation:auto;mix-blend-mode:normal;color-interpolation:sRGB;color-interpolation-filters:linearRGB;solid-color:#000000;solid-opacity:1;vector-effect:none;fill:#ffcc00;fill-opacity:1;fill-rule:nonzero;stroke:none;stroke-width:4;stroke-linecap:round;stroke-linejoin:round;stroke-miterlimit:4;stroke-dasharray:none;stroke-dashoffset:0;stroke-opacity:1;paint-order:stroke fill markers;color-rendering:auto;image-rendering:auto;shape-rendering:auto;text-rendering:auto;enable-background:accumulate;stop-color:#000000"
           d="M 23,6.5 C 23,8.4329966 21.432997,10 19.5,10 17.567003,10 16,8.4329966 16,6.5 16,4.5670034 17.567003,3 19.5,3 21.432997,3 23,4.5670034 23,6.5 Z"
           id="path972" />
      </g>
      <rect
         style="opacity:1;fill:#ffffff;fill-opacity:1;stroke:none;stroke-width:4;stroke-linecap:round;stroke-linejoin:round;stroke-miterlimit:4;stroke-dasharray:none;stroke-opacity:1;paint-order:stroke fill markers"
         id="rect977"
         width="10"
         height="2"
         x="5"
         y="12"
         rx="0"
         ry="1" />
      <rect
         style="opacity:1;fill:#ffffff;fill-opacity:1;stroke:none;stroke-width:4;stroke-linecap:round;stroke-linejoin:round;stroke-miterlimit:4;stroke-dasharray:none;stroke-opacity:1;paint-order:stroke fill markers"
         id="rect979"
         width="10"
         height="2"
         x="5"
         y="16"
         rx="0"
         ry="1" />
    </g>
  </g>
  <g
     id="notification-active">
    <rect
       x="51"
       y="-3.2153321e-07"
       width="22"
       height="22"
       ry="0"
       opacity="0"
       id="rect985"
       style="color:#363636;fill:#363636" />
    <g
       id="g991"
       transform="translate(48,-1)">
      <path
         id="path987"
         style="fill:#ffcc00;fill-opacity:1;stroke:none;stroke-width:1.06667;stroke-linecap:round;stroke-linejoin:round;paint-order:stroke fill markers"
         d="m 55,3 c -1.108,0 -2,0.892 -2,2 v 13 c 0,1.108 0.892,2 2,2 h 12 c 1.108,0 2,-0.892 2,-2 V 9.7832031 C 68.521831,9.9209411 68.019571,10 67.5,10 64.486123,10 62,7.5138769 62,4.5 62,3.9804289 62.079059,3.4781686 62.216797,3 Z"
         transform="translate(-48,1)" />
      <path
         style="color:#000000;font-style:normal;font-variant:normal;font-weight:normal;font-stretch:normal;font-size:medium;line-height:normal;font-family:sans-serif;font-variant-ligatures:normal;font-variant-position:normal;font-variant-caps:normal;font-variant-numeric:normal;font-variant-alternates:normal;font-variant-east-asian:normal;font-feature-settings:normal;font-variation-settings:normal;text-indent:0;text-align:start;text-decoration:none;text-decoration-line:none;text-decoration-style:solid;text-decoration-color:#000000;letter-spacing:normal;word-spacing:normal;text-transform:none;writing-mode:lr-tb;direction:ltr;text-orientation:mixed;dominant-baseline:auto;baseline-shift:baseline;text-anchor:start;white-space:normal;shape-padding:0;shape-margin:0;inline-size:0;clip-rule:nonzero;display:inline;overflow:visible;visibility:visible;opacity:1;isolation:auto;mix-blend-mode:normal;color-interpolation:sRGB;color-interpolation-filters:linearRGB;solid-color:#000000;solid-opacity:1;vector-effect:none;fill:#ff4e5e;fill-opacity:1;fill-rule:nonzero;stroke:none;stroke-width:4;stroke-linecap:round;stroke-linejoin:round;stroke-miterlimit:4;stroke-dasharray:none;stroke-dashoffset:0;stroke-opacity:1;paint-order:stroke fill markers;color-rendering:auto;image-rendering:auto;shape-rendering:auto;text-rendering:auto;enable-background:accumulate;stop-color:#000000"
         d="M 23,5.5 C 23,7.4329966 21.432997,9 19.5,9 17.567003,9 16,7.4329966 16,5.5 16,3.5670034 17.567003,2 19.5,2 21.432997,2 23,3.5670034 23,5.5 Z"
         id="path989" />
    </g>
  </g>
  <g
     id="notification-inactive"
     transform="translate(0,35)">
    <rect
       x="51"
       y="-3.2153321e-07"
       width="22"
       height="22"
       ry="0"
       opacity="0"
       id="rect995"
       style="color:#363636;fill:#363636" />
    <g
       id="g1001"
       transform="translate(48,-1)">
      <path
         id="path997"
         style="fill:#ffcc00;fill-opacity:1;stroke:none;stroke-width:1.06667;stroke-linecap:round;stroke-linejoin:round;paint-order:stroke fill markers;opacity:1"
         d="m 55,3 c -1.108,0 -2,0.892 -2,2 v 13 c 0,1.108 0.892,2 2,2 h 12 c 1.108,0 2,-0.892 2,-2 V 9.7832031 C 68.521831,9.9209411 68.019571,10 67.5,10 64.486123,10 62,7.5138769 62,4.5 62,3.9804289 62.079059,3.4781686 62.216797,3 Z"
         transform="translate(-48,1)" />
      <path
         style="color:#000000;font-style:normal;font-variant:normal;font-weight:normal;font-stretch:normal;font-size:medium;line-height:normal;font-family:sans-serif;font-variant-ligatures:normal;font-variant-position:normal;font-variant-caps:normal;font-variant-numeric:normal;font-variant-alternates:normal;font-variant-east-asian:normal;font-feature-settings:normal;font-variation-settings:normal;text-indent:0;text-align:start;text-decoration:none;text-decoration-line:none;text-decoration-style:solid;text-decoration-color:#000000;letter-spacing:normal;word-spacing:normal;text-transform:none;writing-mode:lr-tb;direction:ltr;text-orientation:mixed;dominant-baseline:auto;baseline-shift:baseline;text-anchor:start;white-space:normal;shape-padding:0;shape-margin:0;inline-size:0;clip-rule:nonzero;display:inline;overflow:visible;visibility:visible;opacity:1;isolation:auto;mix-blend-mode:normal;color-interpolation:sRGB;color-interpolation-filters:linearRGB;solid-color:#000000;solid-opacity:1;vector-effect:none;fill:#ffcc00;fill-opacity:1;fill-rule:nonzero;stroke:none;stroke-width:4;stroke-linecap:round;stroke-linejoin:round;stroke-miterlimit:4;stroke-dasharray:none;stroke-dashoffset:0;stroke-opacity:1;paint-order:stroke fill markers;color-rendering:auto;image-rendering:auto;shape-rendering:auto;text-rendering:auto;enable-background:accumulate;stop-color:#000000"
         d="M 23,5.5 C 23,7.4329966 21.432997,9 19.5,9 17.567003,9 16,7.4329966 16,5.5 16,3.5670034 17.567003,2 19.5,2 21.432997,2 23,3.5670034 23,5.5 Z"
         id="path999" />
    </g>
  </g>
  <g
     id="notification-disabled"
     transform="translate(0,-17)">
    <rect
       x="0"
       y="52"
       width="22"
       height="22"
       ry="0"
       opacity="0"
       id="rect1005"
       style="color:#363636;fill:#363636" />
    <g
       id="g1011"
       transform="translate(-3,51)">
      <path
         id="path1007"
         style="opacity:1;fill:#ffcc00;fill-opacity:1;stroke:none;stroke-width:1.06667;stroke-linecap:round;stroke-linejoin:round;paint-order:stroke fill markers"
         d="M 7,5 C 5.892,5 5,5.892 5,7 v 12 c 0,1.108 0.892,2 2,2 h 12 c 1.108,0 2,-0.892 2,-2 V 11.783203 C 20.521831,11.920941 20.019571,12 19.5,12 16.486123,12 14,9.5138769 14,6.5 14,5.9804289 14.079059,5.4781686 14.216797,5 Z M 19.242188,5.025391 C 18.521637,5.1422768 18,5.7369001 18,6.5 18,7.3521164 18.647884,8 19.5,8 20.263099,8 20.857723,7.4783637 20.974609,6.7578125 20.864223,5.8465372 20.153463,5.135777 19.242188,5.025391 Z" />
      <path
         style="color:#000000;font-style:normal;font-variant:normal;font-weight:normal;font-stretch:normal;font-size:medium;line-height:normal;font-family:sans-serif;font-variant-ligatures:normal;font-variant-position:normal;font-variant-caps:normal;font-variant-numeric:normal;font-variant-alternates:normal;font-variant-east-asian:normal;font-feature-settings:normal;font-variation-settings:normal;text-indent:0;text-align:start;text-decoration:none;text-decoration-line:none;text-decoration-style:solid;text-decoration-color:#000000;letter-spacing:normal;word-spacing:normal;text-transform:none;writing-mode:lr-tb;direction:ltr;text-orientation:mixed;dominant-baseline:auto;baseline-shift:baseline;text-anchor:start;white-space:normal;shape-padding:0;shape-margin:0;inline-size:0;clip-rule:nonzero;display:inline;overflow:visible;visibility:visible;isolation:auto;mix-blend-mode:normal;color-interpolation:sRGB;color-interpolation-filters:linearRGB;solid-color:#000000;solid-opacity:1;vector-effect:none;fill:#ff4e5e;fill-opacity:1;fill-rule:nonzero;stroke:none;stroke-width:4;stroke-linecap:round;stroke-linejoin:round;stroke-miterlimit:4;stroke-dasharray:none;stroke-dashoffset:0;stroke-opacity:1;paint-order:stroke fill markers;color-rendering:auto;image-rendering:auto;shape-rendering:auto;text-rendering:auto;enable-background:accumulate;stop-color:#000000"
         d="M 23,6.5 C 23,8.4329966 21.432997,10 19.5,10 17.567003,10 16,8.4329966 16,6.5 16,4.5670034 17.567003,3 19.5,3 21.432997,3 23,4.5670034 23,6.5 Z"
         id="path1009" />
    </g>
  </g>
</svg>
