<?xml version="1.0" encoding="UTF-8" standalone="no"?>
<svg
   viewBox="0 0 22 22"
   version="1.1"
   id="svg"
   sodipodi:docname="slc.svg"
   inkscape:version="1.1 (c4e8f9ed74, 2021-05-24)"
   xmlns:inkscape="http://www.inkscape.org/namespaces/inkscape"
   xmlns:sodipodi="http://sodipodi.sourceforge.net/DTD/sodipodi-0.dtd"
   xmlns="http://www.w3.org/2000/svg"
   xmlns:svg="http://www.w3.org/2000/svg"
   xmlns:rdf="http://www.w3.org/1999/02/22-rdf-syntax-ns#"
   xmlns:cc="http://creativecommons.org/ns#"
   xmlns:dc="http://purl.org/dc/elements/1.1/">
  <sodipodi:namedview
     id="namedview15"
     pagecolor="#c8c8c8"
     bordercolor="#999999"
     borderopacity="1"
     inkscape:pageshadow="0"
     inkscape:pageopacity="0"
     inkscape:pagecheckerboard="0"
     showgrid="false"
     inkscape:zoom="8.7840909"
     inkscape:cx="-3.0168176"
     inkscape:cy="-6.3182406"
     inkscape:window-width="1920"
     inkscape:window-height="958"
     inkscape:window-x="0"
     inkscape:window-y="40"
     inkscape:window-maximized="1"
     inkscape:current-layer="svg" />
  <metadata
     id="metadata23">
    <rdf:RDF>
      <cc:Work
         rdf:about="">
        <dc:format>image/svg+xml</dc:format>
        <dc:type
           rdf:resource="http://purl.org/dc/dcmitype/StillImage" />
      </cc:Work>
    </rdf:RDF>
  </metadata>
  <defs
     id="defs3">
    <style
       type="text/css"
       id="current-color-scheme">.ColorScheme-Text {
        color:#363636;
      }</style>
  </defs>
  <g
     transform="translate(-1,-41)"
     id="slc-like">
    <rect
       id="rect5"
       fill-opacity="0"
       height="22"
       width="22"
       y="1"
       x="1" />
    <path
       style="color:#363636;fill:#ffffff;-inkscape-stroke:none;fill-opacity:1"
       d="M 8,4 C 5.2386,4 3,6.2386 3,9 c 0,5 7,9 9,11 2,-2 9,-6 9,-11 C 21,6.2386 18.7614,4 16,4 14.3604,4 12.9118,4.78077 12,6 11.08819,4.7808 9.6396,4 8,4 Z m 0,2 c 3,0 4,2 4,2 0,0 1,-2 4,-2 1.6569,0 3,1.3431 3,3 0,4 -5,7 -7,9 C 10,16 5,13 5,9 5,7.3431 6.3431,6 8,6 Z"
       id="path7" />
  </g>
  <g
     transform="translate(39,-1)"
     id="slc-share">
    <rect
       id="rect10"
       fill-opacity="0"
       height="22"
       width="22"
       y="1"
       x="1" />
    <path
       style="color:#363636;fill:#ffffff;-inkscape-stroke:none;fill-opacity:1"
       d="m 18,4 c -1.6569,0 -3,1.3431 -3,3 0,0.087382 0.02393,0.16451 0.03125,0.25 l -6.75,2.8125 C 7.73097,9.41522 6.91615,9 6.00005,9 c -1.6569,0 -3,1.3431 -3,3 0,1.6569 1.3431,3 3,3 0.91614,0 1.731,-0.41522 2.2812,-1.0625 l 6.75,2.8125 C 15.023929,16.835486 15,16.91262 15,17 c 0,1.6569 1.3431,3 3,3 1.6569,0 3,-1.3431 3,-3 0,-1.6569 -1.3431,-3 -3,-3 -0.91614,0 -1.731,0.41522 -2.2812,1.0625 L 8.9688,12.25 c 0.00732,-0.08549 0.03125,-0.16262 0.03125,-0.25 0,-0.08738 -0.023929,-0.16451 -0.03125,-0.25 l 6.75,-2.8125 C 16.26908,9.58478 17.0839,10 18,10 19.6569,10 21,8.6569 21,7 21,5.3431 19.6569,4 18,4 Z m 0,2 c 0.55228,0 1,0.44772 1,1 0,0.55228 -0.44772,1 -1,1 C 17.44772,8 17,7.55228 17,7 17,6.44772 17.44772,6 18,6 Z M 6,11 c 0.55228,0 1,0.44772 1,1 0,0.55228 -0.44772,1 -1,1 -0.55228,0 -1,-0.44772 -1,-1 0,-0.55228 0.44772,-1 1,-1 z m 12,5 c 0.55228,0 1,0.44772 1,1 0,0.55228 -0.44772,1 -1,1 -0.55228,0 -1,-0.44772 -1,-1 0,-0.55228 0.44772,-1 1,-1 z"
       id="path12" />
  </g>
  <g
     id="slc-connect"
     transform="translate(26.799924,-4.5690639)">
    <path
       d="m -26.799924,4.5690637 h 22 V 26.569064 h -22 z"
       fill="none"
       id="path34" />
    <path
       style="color:#000000;fill:#ffffff;fill-opacity:1;stroke-width:0.765858;-inkscape-stroke:none"
       d="m -20.064143,18.480318 h 3.594458 v 3.190566 c 0,0.935648 0.484632,1.89818 0.673112,1.89818 0.181737,0 0.666372,-0.962532 0.666372,-1.89818 v -3.190566 h 3.601219 c 0.639417,0 1.05007,-0.403914 1.05007,-1.016448 0,-1.453906 -1.151085,-2.880929 -2.914628,-3.587663 l -0.215436,-3.190612 c 0.86833,-0.565418 1.662602,-1.1981483 2.005936,-1.6424073 0.181738,-0.242325 0.269199,-0.4846429 0.269199,-0.70004 0,-0.4442589 -0.336517,-0.774084 -0.848111,-0.774084 h -7.235997 c -0.504839,0 -0.848127,0.3298251 -0.848127,0.774084 0,0.2153971 0.08751,0.457715 0.269244,0.70004 0.343297,0.444259 1.144331,1.0769893 2.005921,1.6424073 l -0.215437,3.190612 c -1.756824,0.706734 -2.914588,2.133757 -2.914588,3.587663 0,0.612534 0.417332,1.016448 1.056793,1.016448 z m 4.26757,-5.061865 c -0.410576,0 -0.807751,0.04036 -1.184707,0.10768 l 0.201957,-3.379029 c 0.0068,-0.114434 -0.01348,-0.1682823 -0.100939,-0.2086663 -0.90203,-0.464454 -1.602023,-1.002945 -1.716443,-1.157763 -0.05392,-0.07404 -0.0068,-0.134623 0.06724,-0.134623 h 5.459039 c 0.07398,0 0.121158,0.06058 0.06732,0.134623 -0.114496,0.154818 -0.81449,0.693309 -1.716519,1.157763 -0.08746,0.04038 -0.107679,0.09423 -0.10094,0.2086663 l 0.201957,3.379029 c -0.376965,-0.06731 -0.774138,-0.10768 -1.177973,-0.10768 z m -3.957935,3.91078 c -0.134621,0 -0.1952,-0.07398 -0.16828,-0.235578 0.161549,-1.204849 1.75014,-2.557814 4.126215,-2.557814 2.369413,0 3.957956,1.352965 4.126215,2.557814 0.02022,0.161596 -0.04035,0.235578 -0.174998,0.235578 z"
       id="path852" />
  </g>
</svg>
