<?xml version="1.0" encoding="UTF-8" standalone="no"?>
<svg
   id="svg4153"
   version="1.1"
   inkscape:version="1.1.1 (3bf5ae0d25, 2021-09-20)"
   width="22"
   height="22"
   sodipodi:docname="software-updates.svg"
   viewBox="0 0 22 22"
   xmlns:inkscape="http://www.inkscape.org/namespaces/inkscape"
   xmlns:sodipodi="http://sodipodi.sourceforge.net/DTD/sodipodi-0.dtd"
   xmlns="http://www.w3.org/2000/svg"
   xmlns:svg="http://www.w3.org/2000/svg"
   xmlns:rdf="http://www.w3.org/1999/02/22-rdf-syntax-ns#"
   xmlns:cc="http://creativecommons.org/ns#"
   xmlns:dc="http://purl.org/dc/elements/1.1/">
  <metadata
     id="metadata4159">
    <rdf:RDF>
      <cc:Work
         rdf:about="">
        <dc:format>image/svg+xml</dc:format>
        <dc:type
           rdf:resource="http://purl.org/dc/dcmitype/StillImage" />
        <dc:title />
      </cc:Work>
    </rdf:RDF>
  </metadata>
  <defs
     id="defs4157">
    <style
       type="text/css"
       id="current-color-scheme">
      .ColorScheme-Text {
        color:#31363b;
      }
      .ColorScheme-Background {
        color:#eff0f1;
      }
      .ColorScheme-Highlight {
        color:#3daee9;
      }
      .ColorScheme-ViewText {
        color:#31363b;
      }
      .ColorScheme-ViewBackground {
        color:#fcfcfc;
      }
      .ColorScheme-ViewHover {
        color:#93cee9;
      }
      .ColorScheme-ViewFocus{
        color:#3daee9;
      }
      .ColorScheme-ButtonText {
        color:#31363b;
      }
      .ColorScheme-ButtonBackground {
        color:#eff0f1;
      }
      .ColorScheme-ButtonHover {
        color:#93cee9;
      }
      .ColorScheme-ButtonFocus{
        color:#3daee9;
      }
      </style>
  </defs>
  <sodipodi:namedview
     pagecolor="#c8c8c8"
     bordercolor="#666666"
     borderopacity="1"
     objecttolerance="10"
     gridtolerance="10000"
     guidetolerance="10"
     inkscape:pageopacity="0"
     inkscape:pageshadow="2"
     inkscape:window-width="1920"
     inkscape:window-height="1002"
     id="namedview4155"
     inkscape:document-units="px"
     showgrid="true"
     inkscape:showpageshadow="false"
     borderlayer="true"
     inkscape:zoom="16.681818"
     inkscape:cx="-1.9482289"
     inkscape:cy="23.40872"
     inkscape:window-x="0"
     inkscape:window-y="0"
     inkscape:window-maximized="1"
     inkscape:current-layer="svg4153"
     inkscape:document-rotation="0"
     inkscape:pagecheckerboard="0"
     inkscape:snap-smooth-nodes="true">
    <inkscape:grid
       type="xygrid"
       id="grid4140" />
    <sodipodi:guide
       position="0,22"
       orientation="22,0"
       id="guide4146" />
    <sodipodi:guide
       position="0,0"
       orientation="0,22"
       id="guide4148" />
    <sodipodi:guide
       position="22,0"
       orientation="-22,0"
       id="guide4150" />
    <sodipodi:guide
       position="22,22"
       orientation="0,-22"
       id="guide4152" />
    <sodipodi:guide
       position="3,19"
       orientation="16,0"
       id="guide4154" />
    <sodipodi:guide
       position="18,3"
       orientation="0,16"
       id="guide4156" />
    <sodipodi:guide
       position="19,3"
       orientation="-16,0"
       id="guide4158" />
    <sodipodi:guide
       position="19,19"
       orientation="0,-16"
       id="guide4160" />
  </sodipodi:namedview>
  <inkscape:clipboard
     style="opacity:0.01000001;fill:#00000f;fill-opacity:0;stroke-width:1;stroke-linecap:butt;stroke-linejoin:miter;stroke-miterlimit:4;stroke-dasharray:none;stroke-dashoffset:0;stroke-opacity:1;stroke:none"
     min="0,0"
     max="22,22" />
  <g
     id="software-updates-inactive">
    <rect
       y="-2.6645353e-15"
       x="-22"
       height="22"
       width="22"
       id="rect4214"
       style="fill:none;fill-opacity:0.599057;stroke:none" />
    <path
       d="m -18,5 c -1.108,0 -2,0.892 -2,2 v 10 c 0,1.108 0.892,2 2,2 h 14 c 1.108,0 2,-0.892 2,-2 V 8 C -2,6.892 -2.892,6 -4,6 h -2 -6.6289 C -13.20875,5.9771 -13.23364,6.07689 -13.668,5.64258 -14.10181,5.20877 -14.28097,5.00045 -15,5 Z m 0,1 h 3 c 0.31116,-2e-6 0.52033,1.38e-4 0.99805,0.4707 0.47877,0.47161 0.6388,0.5293 1,0.5293 h 7.002 2 c 0.554,0 1,0.446 1,1 v 1 h -16 V 7 c 0,-0.554 0.446,-1 1,-1 z m -1,4 h 16 v 7 c 0,0.554 -0.446,1 -1,1 h -14 c -0.554,0 -1,-0.446 -1,-1 z"
       style="color:#bdc3c7;fill:#ffffff;fill-opacity:1"
       class="ColorScheme-Text"
       id="path5"
       sodipodi:nodetypes="ssssssssccccscccscssccsccccssssc" />
  </g>
  <g
     id="software-updates-release">
    <rect
       y="22"
       x="0"
       height="22"
       width="22"
       id="rect4170"
       style="fill:none;fill-opacity:0.599057;stroke:none" />
    <path
       d="m 4.00195,27 c -1.108,0 -2,0.892 -2,2 v 10 c 0,1.108 0.892,2 2,2 h 14 c 1.108,0 2,-0.892 2,-2 v -9 c 0,-1.108 -0.892,-2 -2,-2 h -2 -6.6289 C 8.7932,27.9771 8.76831,28.07689 8.33395,27.64258 7.90014,27.20877 7.72098,27.00045 7.00195,27 Z m 0,1 h 3 C 7.31311,27.999998 7.52228,28.000138 8,28.4707 8.47877,28.94231 8.6388,29 9,29 h 7.002 2 c 0.554,0 1,0.446 1,1 v 1 h -16 v -2 c 0,-0.554 0.446,-1 1,-1 z m -1,4 h 16 v 7 c 0,0.554 -0.446,1 -1,1 h -14 c -0.554,0 -1,-0.446 -1,-1 z"
       style="color:#bdc3c7;fill:#2ecc71;fill-opacity:1"
       class="ColorScheme-Text"
       id="path888"
       sodipodi:nodetypes="ssssssssccccscccscssccsccccssssc" />
    <path
       style="fill:#2ecc71;fill-opacity:1;stroke:none"
       d="m 16,25 a 3,3 0 0 0 -3,3 3,3 0 0 0 3,3 3,3 0 0 0 3,-3 3,3 0 0 0 -3,-3 z"
       id="path4166"
       inkscape:connector-curvature="0" />
    <path
       style="fill:currentColor;fill-opacity:1;stroke:none"
       d="m 16,26 2,2 h -1 v 2 h -2 v -2 h -1 l 1,-1 z"
       id="path4168"
       inkscape:connector-curvature="0"
       class="ColorScheme-Background" />
  </g>
  <g
     id="software-updates-updates">
    <rect
       style="fill:none;fill-opacity:0.599057;stroke:none"
       id="rect4212"
       width="22"
       height="22"
       x="0"
       y="-2.6645353e-15" />
    <path
       d="M 4,5 C 2.892,5 2,5.892 2,7 v 10 c 0,1.108 0.892,2 2,2 h 14 c 1.108,0 2,-0.892 2,-2 V 8 C 20,6.892 19.108,6 18,6 H 16 9.3711 C 8.79125,5.9771 8.76636,6.07689 8.332,5.64258 7.89819,5.20877 7.71903,5.00045 7,5 Z m 0,1 h 3 c 0.31116,-2e-6 0.52033,1.38e-4 0.99805,0.4707 C 8.47682,6.94231 8.63685,7 8.99805,7 h 7.002 2 c 0.554,0 1,0.446 1,1 v 1 h -16 V 7 c 0,-0.554 0.446,-1 1,-1 z m -1,4 h 16 v 7 c 0,0.554 -0.446,1 -1,1 H 4 C 3.446,18 3,17.554 3,17 Z"
       style="color:#bdc3c7;fill:#ffffff;fill-opacity:1"
       class="ColorScheme-Text"
       id="path874"
       sodipodi:nodetypes="ssssssssccccscccscssccsccccssssc" />
    <path
       inkscape:connector-curvature="0"
       id="path4180"
       d="M 16,3 A 3,3 0 0 0 13,6 3,3 0 0 0 16,9 3,3 0 0 0 19,6 3,3 0 0 0 16,3 Z"
       style="fill:#2ecc71;fill-opacity:1;stroke:none" />
    <path
       inkscape:connector-curvature="0"
       id="path4167"
       d="m 16,4 2,2 H 17 V 8 H 15 V 6 h -1 l 1,-1 z"
       style="fill:#ffffff;fill-opacity:1;stroke:none"
       class="ColorScheme-Background" />
  </g>
  <g
     id="software-updates-security">
    <rect
       style="fill:none;fill-opacity:0.599057;stroke:none"
       id="rect4208"
       width="22"
       height="22"
       x="22"
       y="-2.6645353e-15" />
    <path
       d="m 26,5 c -1.108,0 -2,0.892 -2,2 v 10 c 0,1.108 0.892,2 2,2 h 14 c 1.108,0 2,-0.892 2,-2 V 8 C 42,6.892 41.108,6 40,6 H 38 31.37105 C 30.7912,5.9771 30.76631,6.07689 30.33195,5.64258 29.89814,5.20877 29.71898,5.00045 28.99995,5 Z m 0,1 h 2.99995 c 0.31116,-2e-6 0.52033,1.38e-4 0.99805,0.4707 C 30.47677,6.94231 30.6368,7 30.998,7 h 7.00205 2 c 0.554,0 1,0.446 1,1 v 1 h -16 V 7 c 0,-0.554 0.446,-1 1,-1 z m -1,4 h 16 v 7 c 0,0.554 -0.446,1 -1,1 H 26 c -0.554,0 -1,-0.446 -1,-1 z"
       style="color:#bdc3c7;fill:#ffffff;fill-opacity:1"
       class="ColorScheme-Text"
       id="path882"
       sodipodi:nodetypes="ssssssssccccscccscssccsccccssssc" />
    <path
       id="path4191"
       d="m 38,3 c 0,1 -2,1 -2,1 v 3 c 0,1 1,1 2,2 1,-1 2,-1 2,-2 V 4 c 0,0 -2,0 -2,-1 z"
       style="fill:#fdbc4b;fill-opacity:1;fill-rule:evenodd;stroke:none;stroke-width:1px;stroke-linecap:butt;stroke-linejoin:miter;stroke-opacity:1"
       inkscape:connector-curvature="0" />
  </g>
  <g
     id="software-updates-important">
    <rect
       y="-2.6645353e-15"
       x="44"
       height="22"
       width="22"
       id="rect4206"
       style="fill:none;fill-opacity:0.599057;stroke:none" />
    <path
       d="m 48,5 c -1.108,0 -2,0.892 -2,2 v 10 c 0,1.108 0.892,2 2,2 h 14 c 1.108,0 2,-0.892 2,-2 V 8 C 64,6.892 63.108,6 62,6 H 60 53.37105 C 52.7912,5.9771 52.76631,6.07689 52.33195,5.64258 51.89814,5.20877 51.71898,5.00045 50.99995,5 Z m 0,1 h 2.99995 c 0.31116,-2e-6 0.52033,1.38e-4 0.99805,0.4707 C 52.47677,6.94231 52.6368,7 52.998,7 h 7.00205 2 c 0.554,0 1,0.446 1,1 v 1 h -16 V 7 c 0,-0.554 0.446,-1 1,-1 z m -1,4 h 16 v 7 c 0,0.554 -0.446,1 -1,1 H 48 c -0.554,0 -1,-0.446 -1,-1 z"
       style="color:#bdc3c7;fill:#ffffff;fill-opacity:1"
       class="ColorScheme-Text"
       id="path884"
       sodipodi:nodetypes="ssssssssccccsccsscssccsccccssssc" />
    <path
       inkscape:connector-curvature="0"
       id="path4202"
       d="m 60,3 3,5 h -6 z"
       style="fill:#fdbc4b;fill-opacity:1;fill-rule:evenodd;stroke:none;stroke-width:1px;stroke-linecap:butt;stroke-linejoin:miter;stroke-opacity:1" />
  </g>
  <g
     id="software-updates-additional">
    <rect
       style="fill:none;fill-opacity:0.599057;stroke:none"
       id="rect4192"
       width="22"
       height="22"
       x="-22"
       y="22" />
    <path
       d="m -17.99805,27 c -1.108,0 -2,0.892 -2,2 v 10 c 0,1.108 0.892,2 2,2 h 14 c 1.108,0 2,-0.892 2,-2 v -9 c 0,-1.108 -0.892,-2 -2,-2 h -2 -6.6289 c -0.57985,-0.0229 -0.60474,0.07689 -1.0391,-0.35742 -0.43381,-0.43381 -0.61297,-0.64213 -1.332,-0.64258 z m 0,1 h 3 c 0.31116,-2e-6 0.52033,1.38e-4 0.99805,0.4707 0.47877,0.47161 0.6388,0.5293 1,0.5293 h 7.002 2 c 0.554,0 1,0.446 1,1 v 1 h -16 v -2 c 0,-0.554 0.446,-1 1,-1 z m -1,4 h 16 v 7 c 0,0.554 -0.446,1 -1,1 h -14 c -0.554,0 -1,-0.446 -1,-1 z"
       style="color:#bdc3c7;fill:#3daee9;fill-opacity:1"
       class="ColorScheme-Text"
       id="path886"
       sodipodi:nodetypes="ssssssssccccscccscssccsccccssssc" />
    <path
       inkscape:connector-curvature="0"
       id="path4188"
       d="m -6,25 a 3,3 0 0 0 -3,3 3,3 0 0 0 3,3 3,3 0 0 0 3,-3 3,3 0 0 0 -3,-3 z"
       style="fill:currentColor;fill-opacity:1;stroke:none"
       class="ColorScheme-Highlight" />
    <path
       inkscape:connector-curvature="0"
       id="path4190"
       d="m -6,26 2,2 h -1 v 2 h -2 v -2 h -1 l 1,-1 z"
       style="fill:#ffffff;fill-opacity:1;stroke:none"
       class="ColorScheme-Background" />
  </g>
</svg>
